<svg xmlns="http://www.w3.org/2000/svg" xmlns:xlink="http://www.w3.org/1999/xlink" viewBox="0 0 901 901"><defs><style>.cls-1{isolation:isolate;}.cls-2{fill:#bce1e4;}.cls-16,.cls-3{fill:#243139;}.cls-11,.cls-3,.cls-56{opacity:0.4;}.cls-11,.cls-16,.cls-3,.cls-4,.cls-52,.cls-56,.cls-57,.cls-65,.cls-76{mix-blend-mode:multiply;}.cls-4,.cls-57,.cls-6,.cls-7{fill:#231f20;}.cls-16,.cls-4,.cls-47,.cls-52{opacity:0.3;}.cls-5,.cls-65,.cls-69,.cls-7{opacity:0.6;}.cls-8{fill:url(#radial-gradient);}.cls-9{fill:#ec5a25;}.cls-10,.cls-11{fill:#972120;}.cls-12{fill:#af0820;}.cls-13{fill:#88051e;}.cls-14{fill:#d80e2b;}.cls-15{fill:#f71f36;}.cls-17{fill:#f4a56a;}.cls-18{fill:#fff7d4;}.cls-19{fill:#f58957;}.cls-20,.cls-47{fill:#66271f;}.cls-21{fill:#4c1a16;}.cls-22{fill:#c4bea5;}.cls-23{fill:#e6e7e8;}.cls-24{fill:#939598;}.cls-25{fill:#f1f2f2;}.cls-26{fill:#a7a9ac;}.cls-27{fill:#10915d;}.cls-28{fill:#27c087;}.cls-29{fill:#bcbec0;}.cls-30{fill:#18b273;}.cls-31,.cls-45{fill:#d1d3d4;}.cls-32{fill:#0f8251;}.cls-33{fill:#ffa969;}.cls-34,.cls-43{fill:#fff;}.cls-35{fill:#ff8a54;}.cls-36{fill:#e57042;}.cls-37{fill:#ea7547;}.cls-38{fill:#7f2c08;}.cls-39{fill:#211f1f;}.cls-40{fill:#c96335;}.cls-41{fill:#75200c;}.cls-42{fill:#7d250c;}.cls-43,.cls-74{opacity:0.2;}.cls-44{fill:#0a192e;}.cls-45{opacity:0.7;}.cls-46{fill:#cd701b;}.cls-48{fill:#af5c17;}.cls-49{fill:#e94b26;}.cls-50,.cls-52{fill:#ce3a1d;}.cls-51{fill:#ff5e43;}.cls-53{fill:#c4311e;}.cls-54{fill:#abb4b7;}.cls-55{fill:#2d2829;}.cls-56{fill:#6b6764;}.cls-57{opacity:0.5;}.cls-58{fill:#baa8e0;}.cls-59{fill:#a193c6;}.cls-60{fill:#f27920;}.cls-61{fill:#ea1f3d;}.cls-62{fill:#c11435;}.cls-63{fill:#e56823;}.cls-64{fill:#ff7f29;}.cls-66{fill:#37710a;}.cls-67{fill:#96d94e;}.cls-68{fill:#67a329;}.cls-69{fill:#000001;}.cls-70{fill:#2186ea;}.cls-71{fill:#0dbbf9;}.cls-72{fill:#095593;}.cls-73{fill:#0047c5;}.cls-74{fill:#000e5b;}.cls-75{fill:#d5c8fc;}.cls-76{fill:#9d84b4;}.cls-77{fill:#98001b;}.cls-78{fill:#aa0017;}</style><radialGradient id="radial-gradient" cx="450.5" cy="320.92" r="391.11" gradientUnits="userSpaceOnUse"><stop offset="0" stop-color="#322a4f"/><stop offset="1" stop-color="#1b1529"/></radialGradient></defs><title>autres</title><g class="cls-1"><g id="Layer_1" data-name="Layer 1"><rect class="cls-2" y="611.83" width="901" height="289.17"/><ellipse class="cls-3" cx="822.48" cy="666.93" rx="75.52" ry="20.68"/><ellipse class="cls-4" cx="167.28" cy="703.07" rx="63.08" ry="17.28"/><g class="cls-5"><path class="cls-6" d="M778.54,682.49c0,12.47-18,22.67-40,22.67h-515c-22,0-40-10.2-40-22.67s18-22.67,40-22.67h515C760.54,659.82,778.54,670,778.54,682.49Z" transform="translate(1 1)"/></g><path class="cls-7" d="M470.7,683.32s-10.5,20.5,16.17,41.17,27.33,23.33,44.67,24.67,20.66-28,12-37.34-33.34-20-32.67-27.33S470.7,683.32,470.7,683.32Z" transform="translate(1 1)"/><path class="cls-7" d="M451.1,683.32s10.5,20.5-16.16,41.17-27.34,23.33-44.67,24.67-20.67-28-12-37.34,33.33-20,32.67-27.33S451.1,683.32,451.1,683.32Z" transform="translate(1 1)"/><rect class="cls-8" width="901" height="641.84"/><path class="cls-3" d="M143.2,687.82l138-131H625.65v36.64h0L764.2,685.82l21-75V385.34c0-17.46-8.17-31.86-23-40.54-10.71-6.27-24.75-9.45-41.72-9.45H690.36a115.17,115.17,0,0,0-14.25.83V232.65c0-35.68-15.63-56.29-28.74-67.31-15.46-13-36.3-20.13-58.7-20.13H317.52c-22.4,0-43.25,7.15-58.7,20.13-13.11,11-28.74,31.63-28.74,67.31V336.1a117.49,117.49,0,0,0-13.59-.75H186.36c-17,0-31,3.18-41.72,9.45-14.83,8.68-23,23.08-23,40.54V610.83Z" transform="translate(1 1)"/><path class="cls-7" d="M142.87,642.49c-10,0-18.93,1.74-24.73,4.45l4.73-53.12L83.54,343.16l-10-6s-2.67,252,7.33,274c8.34,18.33,23.61,39,31.94,46.89a12.52,12.52,0,0,0,2,1.73,10.43,10.43,0,0,0,2.1,1.38v-.08c5.72,3.07,15.22,5.08,26,5.08,17.49,0,31.67-5.3,31.67-11.84S160.36,642.49,142.87,642.49Z" transform="translate(1 1)"/><path class="cls-9" d="M785.53,597.74a27.74,27.74,0,0,1,9.32,2.5q3.12-6.09,6.92-12.19a186.83,186.83,0,0,0-44.85-13,67.27,67.27,0,0,0-11.4,37.55c0,1,0,1.9.07,2.84C754.81,607,769.77,596.41,785.53,597.74Z" transform="translate(1 1)"/><path class="cls-9" d="M785.14,602.29c-15.46-1.32-30.78,11-39,19.07a67.48,67.48,0,0,0,28.86,47,193.7,193.7,0,0,1,17.85-64.08A23.16,23.16,0,0,0,785.14,602.29Z" transform="translate(1 1)"/><path class="cls-9" d="M796.79,606.55a187.6,187.6,0,0,0-17.49,64.58,67.62,67.62,0,0,0,50.06,7C826.47,662.28,817.09,620.19,796.79,606.55Z" transform="translate(1 1)"/><path class="cls-9" d="M811.78,573.83a42.71,42.71,0,0,1-11-8.35,63.29,63.29,0,0,1-10.73-16.34A67.78,67.78,0,0,0,759.94,571a193.88,193.88,0,0,1,44.32,13.24C806.57,580.71,809.08,577.24,811.78,573.83Z" transform="translate(1 1)"/><path class="cls-9" d="M818.94,572.28c15.12,6.46,35.51,8.08,53.34,7.91a67.81,67.81,0,0,0-31.21-29A145.69,145.69,0,0,0,818.94,572.28Z" transform="translate(1 1)"/><path class="cls-9" d="M814.68,570.26a150.71,150.71,0,0,1,21.55-21.06,67.74,67.74,0,0,0-41.74-1.48,57.88,57.88,0,0,0,9.67,14.67A38.83,38.83,0,0,0,814.68,570.26Z" transform="translate(1 1)"/><path class="cls-9" d="M815.94,575.91c-2.68,3.35-5.16,6.75-7.46,10.17,22.35,10.36,47.22,27.21,66,54.51a67.56,67.56,0,0,0,.05-55.78c-1.54,0-3.09.05-4.67.05C851.77,584.86,831.33,582.88,815.94,575.91Z" transform="translate(1 1)"/><path class="cls-9" d="M806,589.92c-2.63,4.16-5,8.36-7.15,12.53,22.2,14.44,31.93,57.53,35,74.46a67.69,67.69,0,0,0,38.36-31.63C853.57,617.26,828.42,600.22,806,589.92Z" transform="translate(1 1)"/><path class="cls-10" d="M808.48,586.08c2.3-3.42,4.78-6.82,7.46-10.17,15.39,7,35.83,9,54,9,1.58,0,3.13,0,4.67-.05-.71-1.57-1.47-3.12-2.29-4.62-17.83.17-38.22-1.45-53.34-7.91a145.69,145.69,0,0,1,22.13-21.07c-1.59-.73-3.19-1.41-4.84-2a150.71,150.71,0,0,0-21.55,21.06,38.83,38.83,0,0,1-10.52-7.87,57.88,57.88,0,0,1-9.67-14.67c-1.5.43-3,.89-4.43,1.42a63.29,63.29,0,0,0,10.73,16.34,42.71,42.71,0,0,0,11,8.35c-2.7,3.41-5.21,6.88-7.52,10.36A193.88,193.88,0,0,0,759.94,571c-1.05,1.35-2.07,2.72-3,4.14a186.83,186.83,0,0,1,44.85,13q-3.81,6.09-6.92,12.19a27.74,27.74,0,0,0-9.32-2.5c-15.76-1.33-30.72,9.3-39.94,17.74q.13,3,.51,5.88c8.26-8.08,23.58-20.39,39-19.07a23.16,23.16,0,0,1,7.67,2A193.7,193.7,0,0,0,775,668.4q2.12,1.44,4.34,2.73a187.6,187.6,0,0,1,17.49-64.58c20.3,13.64,29.68,55.73,32.57,71.63,1.5-.37,3-.8,4.44-1.27-3-16.93-12.77-60-35-74.46,2.14-4.17,4.52-8.37,7.15-12.53,22.44,10.3,47.59,27.34,66.18,55.36.85-1.52,1.63-3.09,2.36-4.69C855.7,613.29,830.83,596.44,808.48,586.08Z" transform="translate(1 1)"/><path class="cls-11" d="M874.45,584.81c-.72-1.57-1.47-3.12-2.3-4.62a67.72,67.72,0,0,0-31.21-29c-1.58-.73-3.19-1.41-4.84-2-2.07-.76-4.19-1.4-6.35-2a67.51,67.51,0,0,1,7,10.23c.82,1.5,1.58,3,2.29,4.62a67.49,67.49,0,0,1-.06,55.77q-1.08,2.4-2.35,4.7a67.68,67.68,0,0,1-38.36,31.62c-1.46.47-2.94.9-4.45,1.27a67.19,67.19,0,0,1-33.17-.16,67.68,67.68,0,0,0,14.23,13.11c1.4,1,2.86,1.87,4.34,2.73a67.59,67.59,0,0,0,50.05,7c1.5-.37,3-.8,4.44-1.27A67.68,67.68,0,0,0,872,645.28c.85-1.52,1.63-3.09,2.35-4.69a67.51,67.51,0,0,0,.06-55.78Z" transform="translate(1 1)"/><path class="cls-7" d="M782.66,552.35A68,68,0,0,0,759.94,571c-1.05,1.35-2.07,2.72-3,4.14a67.27,67.27,0,0,0-11.4,37.55c0,1,0,1.9.07,2.84q.13,3,.51,5.88a67.24,67.24,0,0,0,14.66,34l-.15,0a68,68,0,0,0,9.46,9.51l.13-.31c-4-3.33-3.33-80,12.67-112Z" transform="translate(1 1)"/><rect class="cls-12" x="204.54" y="625.49" width="478.67" height="58.67"/><polygon class="cls-13" points="673.87 684.16 652.87 661.16 256.54 661.16 234.54 685.49 204.54 602.49 683.2 602.49 673.87 684.16"/><path class="cls-14" d="M588.67,185.21H317.52c-32.32,0-67.44,18.72-67.44,67.44v284.2h406V252.65C656.11,203.93,621,185.21,588.67,185.21Z" transform="translate(1 1)"/><path class="cls-13" d="M648.65,591.15V395.34c0-22.09,20-30,44.71-30H721c24.69,0,20.55,7.9,20.55,30V591.15h0V620s.61,17.08-19.93,17.08h-53C648,637.08,648.66,620,648.66,620V591.16Z" transform="translate(1 1)"/><path class="cls-14" d="M672.32,651.16V395.34c0-22.09,20-30,44.7-30h3.47c24.69,0,44.71,7.9,44.71,30V651.16h0V680s.61,17.08-19.93,17.08h-53c-20.54,0-19.93-17.08-19.93-17.08V651.17Z" transform="translate(1 1)"/><path class="cls-13" d="M258.2,651.16V395.34c0-22.09-20-30-44.71-30H185.87c-24.69,0-20.55,7.9-20.55,30V651.16h0V630s-.62,17.08,19.93,17.08h53c20.55,0,19.93-17.08,19.93-17.08v21.17Z" transform="translate(1 1)"/><path class="cls-15" d="M232.09,579.9c0-37.74,2.09-44.32,22.77-44.32H651.74c20.68,0,22.76,9.76,22.76,30.43v54c0,20.67-2.08,30.85-22.76,30.85H254.86c-20.68,0-22.77-11.36-22.77-35.25Z" transform="translate(1 1)"/><rect class="cls-13" x="254.08" y="513.02" width="400.43" height="22.82"/><path class="cls-13" d="M543.75,535.85h89.49c6-13.49,14.92-36.46,13.88-50.68-.55-7.57-7.32-17.55-10.51-21.2-3.47-4-12.25-11-19-13.34-1.24-.43-2.59-.81-4.1-1.17l-2.75-1.72a10.56,10.56,0,0,0-1.24-.66c.56-2.13.9-4.05,1.17-5.6l.05-.28c1-5.76,0-12.75-1-20.17-.71-5.11-1.6-11.49-1.11-14.3.13-.72.35-1.81.57-2.86.34-1.68.7-3.41.92-4.81.52-3.43,0-7.38-.4-11.21-.2-1.65-.44-3.71-.43-4.58s.11-3.16.2-5.18c.1-2.41.2-4.69.22-5.85a35.29,35.29,0,0,0-.57-6.56c-.06-.37-.12-.72-.19-1.08s-.09-.43-.14-.65v-.06l-.1-.46c0-.24-.1-.47-.16-.7l-.07-.32a10.09,10.09,0,0,0,1.12-5.89c-.13-1-3.08-25.65-4.75-34.24-.5-2.6-1-6.2-1.56-10-1.09-7.62-2.45-17.13-4.67-25.35l-.06-.2c-.1-.37-.21-.75-.31-1.13l-.14-.46c-.1-.36-.21-.71-.31-1.06l-.12-.38,0-.15c-.18-.56-.35-1.08-.53-1.6l-.05-.16c-.07-.22-.15-.43-.22-.64s-.16-.43-.23-.63l-.06-.14c-.1-.27-.2-.55-.31-.82l-.28-.72-.36-.86,0-.08c-.08-.2-.16-.39-.25-.58-.17-.38-.34-.74-.51-1.1q-.09-.21-.18-.39c-.25-.52-.5-1-.76-1.46-.07-.14-.15-.28-.23-.41l0-.07-.59-1-.32-.52c-.23-.34-.45-.68-.68-1l0-.05-.27-.38c-.38-.54-.74-1-1.09-1.42a50,50,0,0,0-9.49-8.51c-7.54-5.39-17.9-10.72-30.79-15.85-1.22-.48-2.44-1-3.66-1.42q-1.6-.61-3.21-1.2l-2.49-.89-3.26-1.13c-3.13-1.06-6.24-2-9.22-2.93,4.58-2.16,9.9-7,12.74-17.74,4.48-16.9,1.57-26.31-3.17-31.54-.07-.27-.15-.56-.24-.84.24-1.12.46-2.19.67-3.25H406.14c.11,1,.23,2,.37,3a11.34,11.34,0,0,0-.61,2.85c-3.06,2.94-6,7.79-6.24,15.61a55,55,0,0,0,2.9,17.62,32.53,32.53,0,0,0,6.2,11.71,191.57,191.57,0,0,0-25,5.47c-1.37.42-2.7.85-4,1.29a54.94,54.94,0,0,0-10.75,4.93l0,0c-.51.32-1,.67-1.62,1.11l-.36.27c-.49.38-1,.77-1.42,1.17l-.25.22c-.37.34-.76.7-1.15,1.08l-.05,0-.23.22-1.23,1.27-.24.26-.06.06-1,1.12,0,0-.18.21c-.39.45-.76.88-1.12,1.32l-.36.43-.89,1.11-.4.51c-.27.34-.52.68-.78,1l-.45.59c-.24.33-.49.65-.72,1s-.43.57-.63.86l-.08.11-.36.49c-2,2.78-3.8,5.51-5.12,7.51l-.65,1c-7.6,11.41-25.53,47.24-26.29,48.75a10.06,10.06,0,0,0-.34,8.15c.06.15.17.42.33.78a88.19,88.19,0,0,0-6.6,11.81,29.7,29.7,0,0,0-1.59,5.86c-.14.68-.34,1.68-.47,2.15a41,41,0,0,1-2.36,3.46c-2.33,3.24-4.74,6.58-5.73,10.28-.36,1.37-.78,3.33-1.17,5.22-.26,1.22-.53,2.49-.7,3.21-.74,3-3.85,8.39-6.58,13.13-3.53,6.11-6.86,11.87-8.28,17.21-2.63,9.9-2.27,18.33,1.09,25.8,2,4.34,5.85,10.24,11.22,18.24l-9.14,3a9.4,9.4,0,0,0-6.55,9.2V456a55.4,55.4,0,0,0-9.28,8c-3.19,3.65-10,13.63-10.51,21.2-1,14.22,7.92,37.19,13.88,50.68H543.75Z" transform="translate(1 1)"/><path class="cls-13" d="M493.45,651.32c5,0,15.5-7.25,20.75-19.5s16-59.73,23.5-71.75c7-11.25,16.25-24.25-3.75-24.25s29.25-6,31.25-6c0,0,22,3.75,23,5s42.5-3,42.25-1.25c0,0,28.72,2,20,2-11.25,0-16.19,13.13-18.25,17.25-12.66,25.34-76,95-73.5,98.5Z" transform="translate(1 1)"/><path class="cls-13" d="M423.38,651.32c-5,0-15.5-7.25-20.75-19.5s-16-59.73-23.5-71.75c-7-11.25-19.25-24.25.75-24.25s-26.25-6-28.25-6c0,0-22,3.75-23,5s-53.5-3-53.25-1.25c0,0-23.72,2-15,2,11.25,0,16.43,13,18.25,17.25,10.5,24.5,71.32,93,76.91,98.5Z" transform="translate(1 1)"/><path class="cls-13" d="M527.45,495.49s-20.17,7.34-27.17,8.74c-3,.6-12.25,1-12.25,1s-9.8-4-13.25-4c-2.63,0-7.5,2.56-10.11,2.94-1.6.22-4.87-.29-6.46,0-2.83.51-10.77,4-10.77,4s.48,3.79,2.49,5.47a7,7,0,0,0,1.31.85,4.46,4.46,0,0,0-1.57,3.1l-.05,1.24c-1.16,0-2.48,0-3.67,0-1,0-2-.12-3-.21l.05-1.28a4.3,4.3,0,0,0-1.08-2.93,11.49,11.49,0,0,0,2.44-4.26s-7.26-4.77-10-5.74c-1.52-.55-4.83-.58-6.37-1.07-2.51-.79-6.89-4.14-9.48-4.56-3.41-.56-13.73,1.73-13.73,1.73s-9-1.95-11.92-3c-6.66-2.54-21.8-16.84-21.8-16.84l-15.81,17.81,7.2,15.32s.74,21.68,12.58,22,14.11,9.82,14.11,9.82,2,3.41,4.2,4.24a18.38,18.38,0,0,0,3.35.8c6.44,1.14,17.73,1.23,17.73,1.23l.1-.23a54.72,54.72,0,0,0,14.16.1c2.56-.31,5.11-5,7.68-5.29a59.51,59.51,0,0,1,8.5-.18,61.17,61.17,0,0,1,8.46.85c2.53.51,4.71,5.37,7.23,5.88a64.09,64.09,0,0,0,9.45,1.12l0,.16s11.15,1.77,17.68,1.71a18.39,18.39,0,0,0,3.44-.24c2.33-.45,4.85-3.49,4.85-3.49s6.6-2.48,7.09-2.48,3.32-6,3.32-6,2.61-7.79,13.61-8,16.37-9.29,16.37-9.29l.81-15.14ZM409.86,518.58l.05-.12h0Zm75.06,13.62c-.1-1-.27-2-.49-3a15.38,15.38,0,0,1,.49,3Zm-2-8.37h0l.05.16Z" transform="translate(1 1)"/><polygon class="cls-13" points="481.7 659.82 471.7 684.32 539.69 684.32 548.2 684.32 558.2 657.32 481.7 659.82"/><polygon class="cls-13" points="441.7 659.82 451.7 684.32 370.72 684.32 372.7 684.32 362.2 657.32 441.7 659.82"/><path class="cls-15" d="M692.25,678.08q-.53,0-.93,0V395.34c0-4,1.19-5.42,3.69-6.88s9-4.11,22-4.11h3.47c13,0,19.39,2.57,22,4.11s3.7,2.87,3.7,6.88V678.05c-.28,0-.58,0-.93,0Z" transform="translate(1 1)"/><path class="cls-16" d="M623.53,465h0l.1,0Z" transform="translate(1 1)"/><path class="cls-17" d="M369.35,464.23c-.27-.74-51.91-2.88-68.56,3-4.41,1.56-12.12,7.41-15.2,10.93s-8.31,11.8-8.78,16.44c-1.45,14.2,8.71,41.57,14.22,54.73,5.19,12.38,18.46,35.87,26,47,14.12,20.73,58.07,64.06,66.4,83.48,4.54,10.56,41.37,9.43,41.37,9.43s1.69-6.77-14.57-31.1c-7.85-11.74-18.95-28.72-23.05-42.25-1.67-5.52-5.68-26.3-7.65-31.72-11-30.28-31.76-50.68-31.76-50.68l62.84-7.77-39.94-60.34Z" transform="translate(1 1)"/><path class="cls-18" d="M424.82,689.17s1.69-6.77-14.57-31.1c-1.34-2-2.78-4.17-4.26-6.44a6.51,6.51,0,0,0,.71,1.44c4.49,7.09-24.23,17.95-30,15.35a67.13,67.13,0,0,1,6.72,11.32C388,690.3,424.82,689.17,424.82,689.17Z" transform="translate(1 1)"/><path class="cls-19" d="M347.79,533.42a117.72,117.72,0,0,0-11-13.51c-3.83-3.82,15.55-5.25,19.36-9.09,8.32-8.35,30.85-20.8,30.85-20.8l23.58,35.63Z" transform="translate(1 1)"/><path class="cls-19" d="M344.2,518.82c1.75-3.25-9.75.25-4.75-1.75s-7-31.25-29.5-45.5,46.5,13,54.25,24.25,13,13,5.75,17.5-14.25,10.75-19,10.75S344.2,518.82,344.2,518.82Z" transform="translate(1 1)"/><path class="cls-17" d="M546.48,464.23c.26-.74,51.9-2.88,68.55,3,4.42,1.56,12.12,7.41,15.2,10.93s8.32,11.8,8.79,16.44c1.44,14.2-8.47,40.73-15.32,53.25-22.83,41.78-81,109.25-88.78,127.8C530.48,686.21,491,689.17,491,689.17s-1.69-7.77,14.57-32.1c7.85-11.74,17.26-26.47,21.35-40,1.67-5.52,8.47-25.51,10.35-31C542.13,572,565.5,533,565.5,533l-60.31-7.39,39.95-60.34Z" transform="translate(1 1)"/><path class="cls-19" d="M520.38,489s9.67,5.35,18.68,11.38c1.24-1.56,2.65-3.39,4.16-5.58,7.75-11.25,78.33-41.63,55.83-27.38-21.11,13.37-36.74,47-34,51.89,3,1,6.2-2.32,5.54-.42-2.52,7.23-5.33,14.13-5.33,14.13l-68.47-8.39Z" transform="translate(1 1)"/><path class="cls-20" d="M300.79,467.2s9.61,4.66,14.12,7.6c10.88,7.09,24,19.42,33.75,34.37,3.81,5.85,8.22,23.13,8.22,23.13l-4.16.52,3.12,2.78,81.46-13.94s107.43,12.55,114.63,12.84,8.24-2,8.24-2l-9-1.13s-.44-15.58,10.15-32.91c13.21-21.61,38.87-33.93,43.33-33.47a54.32,54.32,0,0,1,6.18,1l-4.77-2.77L530.33,455,365.54,440.28l-68,23v5.5Z" transform="translate(1 1)"/><path class="cls-21" d="M356.54,450.16c5.14,6.08,18.17,16.48,43.95,25,30.46,10.12,31.71,41.87,41.05,41.87,11.66,0,25.66-33.25,51.63-36,20.63-2.22,32.28-7,38.37-10.22,10-5.33,11-19.66,8.66-19.66s-120.66-3.34-125.33-3.34-31.33-6.66-43.33-6S356.54,450.16,356.54,450.16Z" transform="translate(1 1)"/><path class="cls-18" d="M492.28,685.17s-1.33-6.31,14.93-30.63c1.34-2,2.93-4.56,4.41-6.83a11.68,11.68,0,0,0-.92,2.27c-1.92,8.16,25,16.91,30.74,14.31a71.54,71.54,0,0,0-6.83,12.17c-2,4.68-18.32,16.13-29.91,17.36C499,694.43,492.28,685.17,492.28,685.17Z" transform="translate(1 1)"/><path class="cls-22" d="M460,501.05a12.25,12.25,0,0,0-12.3-.2c-2.54,1.34-5.3,6.34-8,7.4a34.08,34.08,0,0,1-6.1.19,33.47,33.47,0,0,1-6.06-.67c-2.58-1.26-4.94-6.47-7.36-8A12.27,12.27,0,0,0,408,499c-5.32,2.86-11.2,15.39-11.17,21.43,0,2.41,2.48,7.94,4.52,9.22,3.58,2.24,12.64,1.88,16.83,1.37,2.35-.28,4.69-4.57,7-4.85a64,64,0,0,1,15.56.61c2.32.47,4.32,4.93,6.64,5.4,4.13.84,13.14,1.9,16.88,0,2.14-1.12,5-6.43,5.23-8.83C470,517.28,465.12,504.33,460,501.05Z" transform="translate(1 1)"/><path class="cls-23" d="M460.34,493.45a12.23,12.23,0,0,0-12.3-.2c-2.54,1.33-5.3,6.34-8,7.39a32.86,32.86,0,0,1-6.1.2,34.15,34.15,0,0,1-6.06-.68c-2.58-1.26-4.94-6.47-7.36-8a12.27,12.27,0,0,0-12.29-.77c-5.32,2.87-11.2,15.39-11.17,21.43,0,2.42,2.48,7.94,4.52,9.22,3.58,2.24,12.64,1.89,16.83,1.38,2.35-.29,4.69-4.57,7-4.86a56.22,56.22,0,0,1,7.8-.16,57.74,57.74,0,0,1,7.76.77c2.32.47,4.32,4.93,6.64,5.4,4.13.84,13.14,1.9,16.88-.05,2.14-1.11,5-6.43,5.23-8.83C470.3,509.67,465.42,496.72,460.34,493.45Z" transform="translate(1 1)"/><path class="cls-24" d="M421.43,510.23a9.36,9.36,0,0,0-13.59-.53l-.85,0-.1,2.48h0c-.12,3,3.21,5.53,7.44,5.69s7.74-2.11,7.86-5.09h0l.09-2.47Z" transform="translate(1 1)"/><path class="cls-25" d="M422.28,510.27c-.11,3-3.63,5.26-7.86,5.09s-7.55-2.72-7.43-5.7,3.63-5.26,7.86-5.09S422.4,507.29,422.28,510.27Z" transform="translate(1 1)"/><path class="cls-24" d="M430.45,499.44a8.62,8.62,0,0,0-12.52-.49l-.78,0-.09,2.27h0c-.11,2.75,2.95,5.1,6.85,5.25s7.13-1.95,7.24-4.69h0l.09-2.28Z" transform="translate(1 1)"/><path class="cls-25" d="M431.24,499.47c-.11,2.74-3.35,4.84-7.24,4.69s-7-2.5-6.85-5.24,3.35-4.85,7.24-4.7S431.34,496.73,431.24,499.47Z" transform="translate(1 1)"/><path class="cls-24" d="M427.61,498.21a4.66,4.66,0,0,0-6.76-.27l-.42,0-.05,1.24h0c-.06,1.48,1.6,2.75,3.7,2.83s3.85-1.05,3.91-2.53h0l.05-1.23Z" transform="translate(1 1)"/><path class="cls-25" d="M428,498.23c-.06,1.48-1.81,2.61-3.91,2.53s-3.76-1.35-3.7-2.84,1.81-2.61,3.91-2.53S428.1,496.74,428,498.23Z" transform="translate(1 1)"/><path class="cls-24" d="M450.69,500.24a8.62,8.62,0,0,0-12.51-.5l-.79,0L437.3,502h0c-.11,2.75,3,5.09,6.85,5.25s7.13-1.95,7.24-4.69h0l.09-2.28Z" transform="translate(1 1)"/><path class="cls-25" d="M451.48,500.27c-.11,2.74-3.35,4.84-7.24,4.69s-7-2.5-6.85-5.25,3.35-4.84,7.24-4.69S451.59,497.52,451.48,500.27Z" transform="translate(1 1)"/><path class="cls-24" d="M447.86,499a4.66,4.66,0,0,0-6.76-.27l-.43,0-.05,1.23h0c-.05,1.49,1.6,2.75,3.7,2.84s3.86-1.05,3.91-2.54h0l0-1.23Z" transform="translate(1 1)"/><path class="cls-25" d="M448.28,499c-.06,1.49-1.81,2.62-3.91,2.54s-3.76-1.35-3.7-2.84,1.81-2.61,3.91-2.53S448.34,497.54,448.28,499Z" transform="translate(1 1)"/><path class="cls-26" d="M412.5,509.5c0,.72-.88,1.27-1.91,1.23s-1.84-.66-1.81-1.38.89-1.28,1.91-1.24S412.53,508.77,412.5,509.5Z" transform="translate(1 1)"/><path class="cls-26" d="M420.66,509.82c0,.72-.88,1.28-1.91,1.24s-1.83-.66-1.8-1.39.88-1.28,1.91-1.24S420.69,509.09,420.66,509.82Z" transform="translate(1 1)"/><path class="cls-26" d="M416.47,506.76c0,.73-.88,1.28-1.91,1.24s-1.83-.66-1.8-1.38.88-1.28,1.91-1.24S416.5,506,416.47,506.76Z" transform="translate(1 1)"/><path class="cls-26" d="M416.24,512.54c0,.73-.88,1.28-1.91,1.24s-1.83-.66-1.8-1.38.88-1.28,1.91-1.24S416.27,511.82,416.24,512.54Z" transform="translate(1 1)"/><path class="cls-24" d="M460.21,511.76a9.35,9.35,0,0,0-13.58-.53l-.86,0-.1,2.48h0c-.11,3,3.21,5.53,7.44,5.69s7.74-2.11,7.86-5.09h0l.1-2.47Z" transform="translate(1 1)"/><path class="cls-25" d="M461.07,511.8c-.12,3-3.64,5.26-7.86,5.09s-7.56-2.72-7.44-5.7,3.64-5.26,7.86-5.09S461.18,508.82,461.07,511.8Z" transform="translate(1 1)"/><path class="cls-12" d="M442,511.8a3.66,3.66,0,0,0-5.3-.21h-.33l0,1h0c0,1.16,1.25,2.16,2.9,2.22s3-.82,3.06-2h0l0-1Z" transform="translate(1 1)"/><path class="cls-15" d="M442.28,511.81c0,1.16-1.42,2.05-3.07,2s-2.94-1.06-2.89-2.22,1.41-2.05,3.06-2S442.32,510.65,442.28,511.81Z" transform="translate(1 1)"/><path class="cls-27" d="M431.31,511.38a3.66,3.66,0,0,0-5.3-.21h-.33l0,1h0c-.05,1.16,1.25,2.16,2.9,2.22s3-.82,3.06-2h0l0-1Z" transform="translate(1 1)"/><path class="cls-28" d="M431.64,511.39c-.05,1.16-1.42,2.05-3.06,2s-2.95-1.06-2.9-2.22,1.42-2.05,3.06-2S431.69,510.23,431.64,511.39Z" transform="translate(1 1)"/><path class="cls-26" d="M451.21,511c0,.73-.88,1.28-1.91,1.24s-1.84-.66-1.81-1.38.89-1.28,1.91-1.24S451.24,510.3,451.21,511Z" transform="translate(1 1)"/><path class="cls-26" d="M459.37,511.34c0,.73-.88,1.28-1.91,1.24s-1.83-.66-1.8-1.38.88-1.28,1.91-1.24S459.4,510.62,459.37,511.34Z" transform="translate(1 1)"/><path class="cls-26" d="M455.18,508.29c0,.72-.88,1.28-1.91,1.24s-1.83-.66-1.8-1.39.88-1.27,1.91-1.23S455.21,507.57,455.18,508.29Z" transform="translate(1 1)"/><path class="cls-26" d="M455,514.07c0,.72-.89,1.28-1.92,1.24s-1.83-.66-1.8-1.39.88-1.28,1.91-1.23S455,513.35,455,514.07Z" transform="translate(1 1)"/><path class="cls-29" d="M434.37,701.9s4,1.33,3.81,5.3a19.92,19.92,0,0,1-2.65,8.28c-2.57,3.5-10.79,7.3-14.24,9.94a14.09,14.09,0,0,0-3,2.48c-2.23,3.74-.53,13.86-3.48,17.06-6.58,7.13-27.74,12.58-37.26,10.77-12.22-2.32-13.06-9.81-12.15-14.44C369.18,722.09,434.37,701.9,434.37,701.9Z" transform="translate(1 1)"/><path class="cls-27" d="M407.45,682.82s6.75,9.25,13.75,5.5a5.06,5.06,0,0,0,2.56-5.68l-5.89-13.14s3.25-2.29,4.89-1.72c4.23,1.46,4.87,10.94,7,14.86,1.26,2.31,4.58,5.84,5.43,8.33,1.21,3.53,2.37,11.44,1,14.91-3.15,8-15.66,10.7-18.55,15.89-2,3.58-.4,12.08-3,15.24-6.8,8.32-29.18,14.46-39.75,12.59-8.45-1.49-9.48-7.08-9.94-10.93-.67-5.59,7.4-16.18,9.94-21.2,5.16-10.22,6.14-20.86,6-28.3-.12-5.95,1-11.51,4.85-14.06a27.35,27.35,0,0,1,4.07-2.34,20,20,0,0,1,6.87-1.2C406.7,671.57,407.45,682.82,407.45,682.82Z" transform="translate(1 1)"/><path class="cls-29" d="M487.07,701.52s-3.78,1.78-3.17,5.71a20,20,0,0,0,3.59,7.92c3,3.17,11.57,6,15.31,8.21a13.79,13.79,0,0,1,3.25,2.12c2.65,3.45,2.13,13.71,5.44,16.54,7.36,6.31,29,9.26,38.26,6.36,11.86-3.72,11.83-11.26,10.39-15.75C554.16,714,487.07,701.52,487.07,701.52Z" transform="translate(1 1)"/><path class="cls-27" d="M511.59,679.44s-5.63,10-13,7.07a5.08,5.08,0,0,1-3.2-5.35l4.32-13.74s-3.49-1.89-5.06-1.13c-4,1.94-3.56,11.42-5.23,15.57-1,2.44-3.87,6.33-4.43,8.9-.78,3.65-1,11.64.75,14.92,4,7.53,16.79,8.81,20.27,13.64,2.39,3.31,1.8,11.94,4.74,14.79,7.71,7.46,30.65,11,40.94,7.87,8.22-2.46,8.59-8.13,8.6-12,0-5.63-9.23-15.2-12.34-19.9-6.31-9.55-8.52-20-9.24-27.41-.58-5.92-2.3-11.32-6.45-13.4a26.82,26.82,0,0,0-4.32-1.85,19.85,19.85,0,0,0-7-.39C511,668.18,511.59,679.44,511.59,679.44Z" transform="translate(1 1)"/><path class="cls-30" d="M336.37,329.16s18.58-35.9,25.9-46.61c3.54-5.19,10.73-16.05,16.1-19.32,12.28-7.49,41.83-11.27,56.17-12.52,20.15-1.77,61.17-2.16,80.85,2.52,17.18,4.09,52.94,16.61,64.41,30,8,9.31,10.29,35.27,12.88,47.23,1.78,8.24,5.36,33.27,5.36,33.27s-19.55,8.05-26.47,8.95c-6.39.83-26.12-1.79-25.76,0s-8.17,20.69-8.46,28.14c-.1,2.8.3,11-.24,13.72-.45,2.32-1.67,7.14-1.66,9.5,0,3.93,3,12.29,3.25,16.21.45,7.11,1.42,17.3-4.7,20.94-37,22-146.13,17.92-171.38-17-1.93-2.68,3.14-3.23,5.33-5.7,1.45-1.62,6.69-5.31,7.69-7.25,1.62-3.14-2-11.06-1.19-14.5,1.14-4.67,6.92-10.52,9.2-14.75,3.15-5.82,5.05-20.25,5.45-26.86C389.39,370.38,387,356,387,356c-12.38-1.07-14.08-.55-24-4-15.41-5.38-20.09-13.77-23.88-18.19A17,17,0,0,1,336.37,329.16Z" transform="translate(1 1)"/><path class="cls-27" d="M434.54,250.71c-14.34,1.25-43.89,5-56.17,12.52-3.42,2.08-7.57,7.24-11.06,12,13.28-14,42.85-14.74,48.64-15.71,6-1,3,9.5.75,16.5s-.5,6-1,9.25c0,0,40.75-13.75,47-27,2.11-4.46,3.16-6.93,3.62-8.84C454.18,249.5,442.66,250,434.54,250.71Z" transform="translate(1 1)"/><path class="cls-27" d="M586,297.82c.31,1.41.65,2.17,1,2.4-1.75-7-4-13.28-7.15-17-11.47-13.42-47.23-25.94-64.41-30a140.55,140.55,0,0,0-20.86-2.84,30.47,30.47,0,0,0,1.92,6.93c3.5,9.5,16,31,16,31,9.25,6.75,18.25,11,16-4.25s-1.75-21.75,11.25-17.25S583,284.07,586,297.82Z" transform="translate(1 1)"/><path class="cls-27" d="M484.44,344.8s17-22.48,28.26-21.73,15.25,6.75,17,2,4.75-41.5-12.5-71L482,276.82Z" transform="translate(1 1)"/><path class="cls-27" d="M454.47,339.65s-16.11-21.29-26.76-20.58-14.45,6.39-16.1,1.89.23-41.2,16.57-69.14l28.65,23.44Z" transform="translate(1 1)"/><path class="cls-31" d="M474.51,358.14c-11.21,0-32.82-39.1-32.82-39.1l32.56,25.76,20.84-32.2H510S479,358.14,474.51,358.14Z" transform="translate(1 1)"/><path class="cls-32" d="M388.18,375.21c-.4,6.61-3,18.89-6.13,24.71-2.29,4.23-11.05,10.33-12.19,15-.83,3.43,3.46,10.45,1.83,13.59-1,1.94-6.78,3.34-8.23,5-2.19,2.46-4.69,9.1-2.75,11.78,25.25,34.87,136.36,37.94,173.37,16,6.13-3.64,11.54-19.15,11.09-26.26-.24-3.92-4.74-6.67-4.76-10.59A92.68,92.68,0,0,1,542,413.14c.54-2.75-1.53-8.3-1.43-11.09.29-7.45,5.73-27.55,5.37-29.34-.17-.83,0-.71,5.16-.43a76.67,76.67,0,0,1,3.36-10.14c1.72-4.26,6.54-13,8.54-18.82,1.12-3.21-6.41,11.46-9,9.25-5.87-5-1.8-13.6-2-26.5-.25-16.25-5.49,35.34-12.12,51.38-8.63,20.87-2.88,33.34-3.28,36.89-3.41,30.63-37.23,30.9-48.26,32.79-20.17,3.44-106.19-3-108.34-23.31-1.08-10.25,7.76-7.62,11.09-35,1.38-11.41,1.79-13.25,1.42-39.72-.42-29.74-8.69-42.7-8.21-36.73,1.59,19.93,1.75,25-2.21,25-2.72,0-8.64-11.64-7.88-9,3.73,12.8,5.61,21.23,5.36,27.17,4.12.84-.41-.23,7.52.45C387,356,388.47,370.38,388.18,375.21Z" transform="translate(1 1)"/><path class="cls-30" d="M385.54,420.16c.16,3.5-7.5,3.5-3.84,7.83s-5.16,9.5-7,12.5-7.56,7.13,5.5,13.67c25,12.5,92.84,24,138.17,8.16S533,458.66,534,455.66s4.16-8.84,4.16-13.84-11-6.5-7.66-11.5S516,405.66,515.2,401.66s-95.66-7.34-104.16-3.17S385.54,420.16,385.54,420.16Z" transform="translate(1 1)"/><path class="cls-33" d="M433.82,264.66,504,258.22s6.44,31.13,6.08,32.2-28.23,41.9-28.23,41.9l-7.55,12.48-39-40.25Z" transform="translate(1 1)"/><path class="cls-34" d="M473.2,342.32s13.25-22.11,17.51-29.72c2.68-4.79,9.81-13.62,11.09-19,2.15-9-2.76-27.64-2.15-36.85.19-2.82,2.15-11.09,2.15-11.09s9.9.59,12.8,3.78c6.94,7.65,10.94,30.55,12.74,39.94,1.53,8,3.85,36.16-1.51,30-5-5.72-17.57-5.17-24.21-2.92-10.07,3.41-27.37,32.56-27.37,32.56s-34.8-33.28-42.93-36.5c-5-2-16.94,2.88-21.47,0-3.94-2.5,8.69-42.67,13.12-54.24,4.85-12.66,12.64-12.66,12.64-12.66s1.38,20.95,2.15,27.9,1.23,21.14,3.93,27.55C446.87,313.43,473.2,342.32,473.2,342.32Z" transform="translate(1 1)"/><path class="cls-31" d="M514.6,249.48c-2.9-3.19-12.8-3.78-12.8-3.78s-2,8.27-2.15,11.09c-.48,7.23,2.45,20.3,2.68,29.92,1.59-7.28,16.63-26.2,19.18-22.73C519.64,258,517.35,252.51,514.6,249.48Z" transform="translate(1 1)"/><path class="cls-31" d="M439.11,288.58c-.62-5.54-.95-11.29-1.35-15-.77-7-2.15-27.9-2.15-27.9s-7.79,0-12.64,12.66c-.21.55-.44,1.19-.69,1.86,3.92-3.62,15,23.36,16.67,28.1A1,1,0,0,0,439.11,288.58Z" transform="translate(1 1)"/><path class="cls-33" d="M415.23,229.36c2.72,9,7.95,12.17,12.5,9.87s6.74-9.17,4-18.16-6.71-18-13.89-14.39C411.21,210,412.5,220.37,415.23,229.36Z" transform="translate(1 1)"/><path class="cls-35" d="M420.54,227.85c1.42,4.7,4.16,6.36,6.54,5.16s-1.41-18.9-5.16-17C418.45,217.73,419.11,223.15,420.54,227.85Z" transform="translate(1 1)"/><path class="cls-33" d="M529.2,226.55c-2.3,9.11-7.37,12.53-12,10.46s-7.16-8.85-4.85-18,5.86-18.28,13.19-15C532.29,207,531.51,217.44,529.2,226.55Z" transform="translate(1 1)"/><path class="cls-35" d="M523.82,225.3c-1.2,4.76-3.86,6.54-6.29,5.47s.52-19,4.36-17.25C525.43,215.09,525,220.53,523.82,225.3Z" transform="translate(1 1)"/><path class="cls-36" d="M435,259c-.23,9.89,11.86,46.3,35.81,46.3,30.05,0,34.37-40.72,34.47-44.85.23-9.9-17.31-18.25-34.22-18.65S435.24,249.15,435,259Z" transform="translate(1 1)"/><path class="cls-33" d="M520.31,220.25c.15,6.66-3.9,13.92-5.37,21.23-2.16,10.81-1.81,21.73-10.71,31-5,5.18-14.69,15.84-20.76,17.95-5.79,2-18.72,2-24.51,0-6.06-2.1-16.31-13.14-20.69-17.95-8.47-9.28-7.47-20.08-9.34-30.37-1.27-7-5.29-13.72-5.42-19.61-1.14-48,5.26-74.44,47.33-74.46C517.28,148,519.18,172.27,520.31,220.25Z" transform="translate(1 1)"/><path class="cls-36" d="M527.81,204.27q0-.42,0-.75c-.07-2.51-3.21-2.51-4.9-2.51-1.3,0-2.84.08-4.19.14-1.14.06-2.21.11-3,.11a5.12,5.12,0,0,1-.58,0c-1.28-.13-3-.36-4.87-.6a101.39,101.39,0,0,0-11.21-1.12h0c-5.17,0-10.72,1.16-15.62,2.18-4.13.86-8,1.68-11,1.68s-6.89-.82-11-1.68c-4.89-1-10.44-2.18-15.62-2.18a101,101,0,0,0-11.2,1.12c-1.85.24-3.6.47-4.88.6a5.12,5.12,0,0,1-.58,0c-.74,0-1.81,0-2.95-.11-1.35-.06-2.89-.14-4.18-.14h0c-1.69,0-4.82,0-4.89,2.51,0,.22,0,.47,0,.76-.13,2.81-.29,6.32,2.14,7.26a26.24,26.24,0,0,1,3.47,1.85c.57.87,1,3.34,1.3,5.54.67,4.23,1.49,9.49,4.38,13.09,3.32,4.13,8.24,6.32,14.25,6.32a30.71,30.71,0,0,0,16.8-5.27c5.12-3.73,9.2-13.18,10.83-18.24a5.14,5.14,0,0,1,4.4,0c1.63,5.07,5.71,14.51,10.83,18.25a30.71,30.71,0,0,0,16.8,5.27c6,0,10.93-2.19,14.25-6.32,2.89-3.61,3.72-8.87,4.38-13.1.34-2.19.73-4.66,1.29-5.53a27.56,27.56,0,0,1,3.48-1.85C528.11,210.6,527.94,207.09,527.81,204.27Zm-14.13,5.25c2.32,3.74.31,15.87-3.17,19.09-1.86,1.73-6.06,2.88-10.46,2.88a18.42,18.42,0,0,1-8-1.57c-7.2-3.56-11-15.22-9-19.71,1.12-2.55,9.47-4.32,16.26-4.32C506.58,205.9,512.6,207.77,513.68,209.52Zm-14.35-5.63Zm-37.52,6.32c2,4.49-1.81,16.15-9,19.71a18.39,18.39,0,0,1-8,1.57c-4.4,0-8.6-1.15-10.46-2.88-3.47-3.21-5.49-15.35-3.17-19.09,1.08-1.75,7.1-3.62,14.34-3.63C452.34,205.89,460.69,207.66,461.81,210.21Zm-16.26-6.32Z" transform="translate(1 1)"/><path class="cls-35" d="M482.13,203c2.1-3.25,7-4,10.51-3.64,5.18.57,14.27-.41,17.29,4.79,2.64,4.55,2,10.1.19,11.69-4.36,3.93-20.4,1.26-24.89,1.36C483.7,217.24,476.43,211.78,482.13,203Z" transform="translate(1 1)"/><path class="cls-34" d="M487.63,212.54c6.84-5.1,19.48-.75,21,2.32.66,1.32-2,8.6-16.52,6.75C486.27,220.86,482.46,216.38,487.63,212.54Z" transform="translate(1 1)"/><path class="cls-33" d="M488.53,213.51c-2.19,1.12-3,2.41-3.3,3.69-1.82-1.78-.3-6,2.76-8.25,6.84-5.1,19.53-.55,21.56,2.24,1.12,1.53.11,3.44-.73,4.78C505.65,210.08,497.52,209,488.53,213.51Z" transform="translate(1 1)"/><path class="cls-37" d="M469.35,261.21c-9.8,0-14.44-3.15-14.72-3.35a1.28,1.28,0,0,1-.32-1.79,1.29,1.29,0,0,1,1.79-.32c.14.1,9.86,6.48,31.33-.17a1.29,1.29,0,0,1,.76,2.46A63.94,63.94,0,0,1,469.35,261.21Z" transform="translate(1 1)"/><path class="cls-35" d="M473.75,272.49c3.73-.55,5.43-2.16,4.9-4.14-.24-.85-3.84.68-6.78.85-4.27.26-7.31-1.33-6.83.44C465.82,272.52,469.46,273.11,473.75,272.49Z" transform="translate(1 1)"/><path class="cls-35" d="M432.36,205c1.59-3.52,6.88-5,10.36-5.1,5.21-.21,12.76-4.26,16.52.44,3.29,4.11,3.32,11.65,1.94,13.6-4.5,6.39-18,3.2-22.38,4C437.29,218.17,428,214.52,432.36,205Z" transform="translate(1 1)"/><path class="cls-34" d="M456.29,212.12c-7.08-4.77-19.5.18-20.91,3.32-.59,1.35,3.17,8.91,16.82,6C458,220.15,461.63,215.72,456.29,212.12Z" transform="translate(1 1)"/><path class="cls-38" d="M451.76,215.83a4.78,4.78,0,0,1-4.69,4.93,4.9,4.9,0,0,1-5-4.75,4.79,4.79,0,0,1,4.69-4.94A4.89,4.89,0,0,1,451.76,215.83Z" transform="translate(1 1)"/><path class="cls-33" d="M455.43,213.14c2.24,1,3.1,2.26,3.46,3.53,1.74-1.86,0-6.08-3.18-8.21-7.07-4.77-19.5.47-21.4,3.35-1,1.59.06,3.44.95,4.74C437,212,446.23,209,455.43,213.14Z" transform="translate(1 1)"/><path class="cls-39" d="M449,215.87a2.07,2.07,0,0,1-2,2.15,2.11,2.11,0,0,1-2.15-2.06,2.07,2.07,0,0,1,2-2.15A2.12,2.12,0,0,1,449,215.87Z" transform="translate(1 1)"/><path class="cls-38" d="M502.31,216.1a4.78,4.78,0,0,1-4.69,4.93,4.9,4.9,0,0,1-5-4.75,4.79,4.79,0,0,1,4.69-4.94A4.89,4.89,0,0,1,502.31,216.1Z" transform="translate(1 1)"/><path class="cls-39" d="M499.59,216.15a2.08,2.08,0,0,1-2,2.14,2.12,2.12,0,0,1-2.16-2.06,2.07,2.07,0,0,1,2-2.15A2.13,2.13,0,0,1,499.59,216.15Z" transform="translate(1 1)"/><path class="cls-40" d="M458.91,217.69a1.11,1.11,0,0,0,.57-.19,1,1,0,0,0,.25-1.41c-5.68-8.15-14.19-6.91-17.58-6-4.5,1.21-8,3.83-8.23,6.09a1,1,0,1,0,2,.17c.08-.89,2.46-3.14,6.74-4.29,3-.8,10.44-1.9,15.38,5.19A1,1,0,0,0,458.91,217.69Z" transform="translate(1 1)"/><path class="cls-36" d="M482.34,242h0s-3.07-6.2-4.12-5.45c-.8.56-.26,2.31-2.12,5.2-2.6,2.74-7.66,1.68-8.89-.2-.07-.1,1.76-28.26,1.16-31.37-.67-3.47-3.05-5.24-4.31-7.47-1.46-2.56-4.55-3.18-8-3.52-2.76-.27,3.71-.56,6.52,15.22.46,2.62-1.78,27.33-1.84,28.34-.29,5.11,18.74,5.86,21.74.65A1.06,1.06,0,0,0,482.34,242Z" transform="translate(1 1)"/><path class="cls-38" d="M491.16,195c20.21-3,20.57,9.54,20.57,9.54-6.75-3.19-9.85-3.8-17.26-3.12-6.19.56-10.08,4.5-12.16,4.12C479.92,205.13,479.08,196.79,491.16,195Z" transform="translate(1 1)"/><path class="cls-38" d="M451,195c-20.21-2.93-20.56,9.57-20.56,9.57,6.75-3.2,9.85-3.81,17.27-3.15,6.18.55,10.08,4.48,12.16,4.1C462.26,205.09,463.07,196.75,451,195Z" transform="translate(1 1)"/><path class="cls-40" d="M485.26,218.22a1,1,0,0,0,.84-.48c3.68-5.88,11-6.6,16.13-5.44,3.54.81,5.78,2.41,5.9,3.48a1.07,1.07,0,0,0,1.13.9,1,1,0,0,0,.9-1.13c-.25-2.2-3.19-4.25-7.48-5.23-5.79-1.31-14.06-.45-18.31,6.34a1,1,0,0,0,.32,1.4A1.1,1.1,0,0,0,485.26,218.22Z" transform="translate(1 1)"/><path class="cls-41" d="M500.74,166.63l13.82-11.27s10.23,3.29,12.8,9.72c3.72,9.28-3.85,39.81-3.85,39.81l-6.85,5.57s-2.19-21.56-3.89-28.69C510.86,173.76,500.74,166.63,500.74,166.63Z" transform="translate(1 1)"/><path class="cls-42" d="M501.41,174.39c11.38-4.3,16.72-11.06,17.87-21.34,1-8.52-5.78-18.22-9.48-21.53-12-10.76-30.33-12.7-41.95-12.7-14.56,0-34.84,6.7-34.84,6.7s14.88,1.73,12.58,2.33a48.2,48.2,0,0,0-30.38,24s10.85-2.59,9-1.28c-11.56,8.13-12.47,27.38-12.47,27.38s8-4,7.73-1.39a75.71,75.71,0,0,0,2.69,31.55l3.7,1.74s-3-23.33,3.46-30.17c5.6-5.92,24.36-6.61,32.54-6.76C471.18,172.69,492.61,177.71,501.41,174.39Z" transform="translate(1 1)"/><path class="cls-34" d="M498.76,215.92a.83.83,0,1,0,.83-.83A.83.83,0,0,0,498.76,215.92Z" transform="translate(1 1)"/><path class="cls-34" d="M448.21,215.92a.83.83,0,1,0,.82-.83A.82.82,0,0,0,448.21,215.92Z" transform="translate(1 1)"/><path class="cls-43" d="M428.07,205.75c2.39-3.84,12.69-4.89,17.15-4.89,5,0,17.28,1.21,19.34,5.9,2.61,5.94-2.12,19.61-10.63,23.84-6.48,3.2-17.86,2.17-22.1-1.75S425,210.78,428.07,205.75Z" transform="translate(1 1)"/><path class="cls-43" d="M513.45,228.85c-4.23,3.92-15.62,5-22.09,1.75-8.52-4.23-13.24-17.9-10.64-23.84,2.06-4.69,14.29-5.9,19.34-5.9,4.46,0,14.77,1,17.15,4.89C520.33,210.78,517.8,224.83,513.45,228.85Z" transform="translate(1 1)"/><path class="cls-44" d="M525.78,201.58c0-1.17-8.74-.14-10.82-.35-4-.4-11.88-1.71-15.88-1.71-9.26,0-19.73,3.86-26.64,3.86s-17.38-3.87-26.64-3.86c-4,0-11.9,1.31-15.88,1.71-2.07.21-10.79-.82-10.82.35-.05,1.66-.43,5.61.83,6.09a20.88,20.88,0,0,1,4.26,2.4c2.22,2.83,1.36,13.25,5.73,18.7,7.56,9.42,22.48,4.94,28.32.69,4.22-3.09,8.23-11.41,10.12-17.33.78-2.4,7.39-2.4,8.16,0,1.89,5.92,5.9,14.24,10.13,17.33,5.83,4.25,20.75,8.73,28.31-.69,4.37-5.45,3.51-15.87,5.72-18.7a21.23,21.23,0,0,1,4.27-2.4C526.21,207.19,525.83,203.24,525.78,201.58Zm-72.09,28.14c-6.06,3-16.72,2-20.68-1.64s-6.43-16.91-3.51-21.62c2.22-3.59,11.87-4.57,16-4.57,4.73,0,16.18,1.13,18.1,5.52C466.08,213,461.66,225.77,453.69,229.72Zm58.18-1.64c-4,3.67-14.62,4.64-20.68,1.64-8-3.95-12.39-16.75-9.95-22.31,1.93-4.39,13.37-5.52,18.1-5.52,4.17,0,13.81,1,16,4.57C518.31,211.17,515.93,224.32,511.87,228.08Z" transform="translate(1 1)"/><path class="cls-34" d="M595.37,364.84s3,7.3,3.09,13.33c0,2-.15,9-.14,11.08,0,3.7,1.76,10.94,1.3,14.61-.26,2-1,5.53-1.25,7.56-1.29,8.76,4.27,26.43,3,35.19-.72,4.87-1.65,12-7.76,18.09-.76.76-29.15,20.43-47.64,35.37-2.83,2.3-13.45,2.27-16.5.25-6.76-4.48-14.77-20.49-15.59-28.57-.39-3.91,9.88-10.42,12.32-13.51,5.63-7.14,16.91-16,23.08-22.69a5,5,0,0,0,1.7-3c.06-2.48.66-7.31,0-9.7-2.64-9.45-5.11-40.36-5.15-50.17,0,0,.23-.68,3.09-.76,1.69-.05,6.61.48,8.91.32a100.47,100.47,0,0,0,12.12-1.54C584.11,368.13,595.37,364.84,595.37,364.84Z" transform="translate(1 1)"/><path class="cls-34" d="M339.1,333.77s-7,9.81-9.39,15.33c-.83,1.86-1.33,6-2.15,7.87-1.49,3.38-6.85,9-7.87,12.52-.57,2-1.47,6.24-2,8.23-2.27,8.56-13.08,22.26-15.53,30.77-2.58,9-1.91,15,0,19.68,3.37,8.21,17.89,28.35,29,49.37,1.7,3.23,8.56,12.78,15.06,11,7.84-2.11,23.32-12.4,27.25-19.5,1.91-3.44-5.78-16.45-6.8-20.25-2.36-8.79-9.23-21.38-12.26-30-.39-1.11-1.15-3.55-.71-4.65a47.82,47.82,0,0,1,4.82-9.08c6.15-7.64,16-23.43,19.86-32.42,2.06-4.73,8.55-17.72,8.55-17.72a8.93,8.93,0,0,0-2-.26C359.83,354,339.1,333.77,339.1,333.77Z" transform="translate(1 1)"/><path class="cls-24" d="M381.23,477.18s4.88,5.4.8,12.84c-12.92,23.51-18.33,18.29-18.33,18.29l-8.09-17.67,9.1-14.66Z" transform="translate(1 1)"/><path class="cls-17" d="M385.28,481.24c2.64,1,10.93,2.79,10.93,2.79s9.46-2.1,12.6-1.59c2.38.39,6.39,3.46,8.69,4.19,1.42.44,4.45.47,5.85,1,2.48.89,9.13,5.27,9.13,5.27s-1,3.36-3.07,4.57c-5.47,3.2-12.32-2.83-12.32-2.83l-8.29,1.69L403,498.62s-6.77.4-8.46,1.77c-1.24,1-1.05,6.3-1.05,6.3s4.56,7.12,6.66,9a52,52,0,0,0,6.43,4s4.17,2.7,4.27,4.88a8.84,8.84,0,0,1-1.57,4.67l-3.59-.61-1,2.48s-14.47-.12-18.95-1.8c-2-.76-3.86-3.89-3.86-3.89s-5.59-3.25-6-3.33-2.1-5.89-2.1-5.89l-4.1-7.62-12.24-12.36-6.61-14.06,14.5-16.34S379.16,478.91,385.28,481.24Z" transform="translate(1 1)"/><path class="cls-19" d="M381.43,518.07l6.25,1.84-5.52-4.8-4.49-10.92,1.52-2.67,5.67,13.12,8.69,7.92,12.53,6.11-1,2.47s-14.47-.12-19-1.8c-2-.76-3.85-3.89-3.85-3.89L397,528.54l.83-1.25-6.16-4-11-3.48L375.86,515l-.22-3.73Z" transform="translate(1 1)"/><path class="cls-19" d="M394.16,494c1.5-1.07,5,3.35,6.8,2.78,2.16-.7,4.27-3.55,4.81-7.72.2-1.54,4,2.42,5.55,2.72,1.91.38,6.72-2.12,7.79-.49,2.7,4.1,10.22,6.13,10.22,6.13-5.46,3.19-12.31-2.83-12.31-2.83l-8.3,1.69-7.81,4.16s-3.82,8-3.6,11.79c0,0-4.18-4.34-4.5-7.19C392.38,501,393.4,494.55,394.16,494Z" transform="translate(1 1)"/><path class="cls-31" d="M342,479.07c.48-4,4.79-12.48,8.15-14.75,11.1-7.5,17.17-3.1,17.17-3.1l14,16s-12.64-1.37-18.68,13.22c-2.81,6.8,1.15,17.91,1.15,17.91S348.5,494.65,344.83,489C343.32,486.66,341.66,481.58,342,479.07Z" transform="translate(1 1)"/><path class="cls-24" d="M501.6,478.56a17.54,17.54,0,0,0-7,13.87c.14,24.48,18.43,20.25,18.43,20.25l6.62-5.78s.44-19.65,0-20S501.6,478.56,501.6,478.56Z" transform="translate(1 1)"/><path class="cls-17" d="M483.82,487.39c-2.76.56-11.24.95-11.24.95s-9-3.63-12.16-3.65c-2.41,0-6.88,2.36-9.27,2.7-1.47.21-4.47-.26-5.93,0-2.59.47-9.88,3.69-9.88,3.69s.44,3.47,2.28,5c4.87,4.06,12.62-.76,12.62-.76l7.9,3,5.32,3.24s6.6,1.51,8.05,3.14c1.06,1.2,0,6.39,0,6.39s-5.68,6.27-8.05,7.75a51.87,51.87,0,0,1-7,2.88s-4.56,2-5,4.11a8.76,8.76,0,0,0,.77,4.86h3.65l.61,2.61s14.3,2.27,19,1.35c2.14-.41,4.45-3.2,4.45-3.2s6-2.28,6.51-2.28,3-5.47,3-5.47l5.3-6.84,22.21-9,.74-13.9-9-14.58S490.24,486.11,483.82,487.39Z" transform="translate(1 1)"/><path class="cls-19" d="M481.54,524.36l-6.47.78,6.24-3.82,6.23-10-1.06-2.89-7.75,12-9.88,6.38-13.37,4,.6,2.61s14.3,2.27,19,1.35c2.14-.41,4.44-3.2,4.44-3.2l-15.08.61-.6-1.37,6.73-3L482,526.18l5.54-3.95.84-3.65Z" transform="translate(1 1)"/><path class="cls-19" d="M473,498.52c-1.3-1.29-5.54,2.47-7.17,1.63-2-1-3.62-4.21-3.47-8.42.06-1.54-4.38,1.73-5.93,1.78-1.95.06-6.27-3.21-7.59-1.78-3.35,3.6-11.1,4.36-11.1,4.36,4.86,4.06,12.62-.76,12.62-.76l7.9,3,9.64,7s1.87,5.67,1.87,7.67a4.84,4.84,0,0,0,2.73-3.41C473.56,505.75,473.62,499.18,473,498.52Z" transform="translate(1 1)"/><path class="cls-31" d="M536.56,499.19A25.92,25.92,0,0,0,535.27,479c-4.47-9.66-14.55-9.63-14.55-9.63l-19.12,9.17s10.74,2.46,13.87,17.93c2.09,10.34-2.42,16.19-2.42,16.19S535.84,501.61,536.56,499.19Z" transform="translate(1 1)"/><path class="cls-45" d="M595.37,364.84s-11.26,3.29-25.44,5.89a100.47,100.47,0,0,1-12.12,1.54c-2.3.16-7.22-.37-8.91-.32-2.86.08-3.09.76-3.09.76,0,9.81,2.51,40.72,5.15,50.17.66,2.39.06,7.22,0,9.7a2.77,2.77,0,0,1-.16.81c5-6.55,6.18-27.65,7.15-42.32,1-15,18.75-11.25,29.5-14.5l10.47-3.16A50.36,50.36,0,0,0,595.37,364.84Z" transform="translate(1 1)"/><path class="cls-45" d="M386.91,355a8.93,8.93,0,0,0-2-.26c-25.12-.72-45.85-21-45.85-21s-.84,1.19-2.05,3c4.89,6.09,18.54,19.28,29.15,24.74,11.67,6-1.66,31-9,45.33-.26.52-.47,1-.66,1.41a23.35,23.35,0,0,1,2-3.1c6.15-7.64,16-23.43,19.86-32.42C380.42,368,386.91,355,386.91,355Z" transform="translate(1 1)"/><path class="cls-32" d="M436.2,705.88c1.37-3.47.21-11.38-1-14.91-.85-2.49-4.17-6-5.43-8.33-2.14-3.92-2.78-13.4-7-14.86-1.64-.57-4.89,1.72-4.89,1.72l5.89,13.14a5.06,5.06,0,0,1-2.56,5.68c-5,2.69-9.93-1.32-12.29-3.8.3.66.62,1.31,1,2,5,9.67,1.5,19.5.67,36.33-.53,10.72-3.67,19.34-10.34,22.67-.65.32-12.33,3.5-1.7.9,6.88-2.33,13.1-5.63,16.17-9.38,2.58-3.16,1-11.66,3-15.24C420.54,716.58,433.05,713.83,436.2,705.88Z" transform="translate(1 1)"/><path class="cls-32" d="M517.2,716.82c3.39-7.19-5.23-16.42-5.61-37.38,0,0-5.63,10-13,7.07a5.08,5.08,0,0,1-3.2-5.35l4.32-13.74s-3.49-1.89-5.06-1.13c-4,1.94-3.56,11.42-5.23,15.57-1,2.44-3.87,6.33-4.43,8.9-.78,3.65-1,11.64.75,14.92,4,7.53,16.79,8.81,20.27,13.64,2.39,3.31,1.8,11.94,4.74,14.79.63.61,3.47,3.57,12,6.07C515.27,737.26,513.2,725.32,517.2,716.82Z" transform="translate(1 1)"/><path class="cls-32" d="M511.59,679.44s0,0,0-.06Z" transform="translate(1 1)"/><path class="cls-46" d="M85.6,338.58s50.24,199.79,61.53,274.49c1.78,11.76,6.93,44.45-17.64,46.8-24.39,2.34-28.13-28.72-29.4-42.47-7.78-83.88-24.74-277.93-24.74-277.93Z" transform="translate(1 1)"/><path class="cls-47" d="M100.09,617.4c1.27,13.75,5,44.81,29.4,42.47,9.26-.88,14.3-6.08,16.89-12.85-8.78,5.49-22,9.46-28.84-9.2-7.34-20-38-297.33-38-297.33a11.27,11.27,0,0,0-.49-1.34l-3.7.32S92.31,533.52,100.09,617.4Z" transform="translate(1 1)"/><path class="cls-48" d="M81.76,340.65c-6.65,1-12.37-.52-12.77-3.3s4.67-5.8,11.32-6.76,12.37.52,12.77,3.3S88.41,339.69,81.76,340.65Z" transform="translate(1 1)"/><path class="cls-7" d="M147.13,613.07c-4.23-28-13.95-73.63-24.43-119.7,11.09,65.33,19.41,161.84,12.84,165.12h0C153.14,651.68,148.75,623.75,147.13,613.07Z" transform="translate(1 1)"/><path class="cls-14" d="M234.53,651.16V395.34c0-22.09-20-30-44.71-30h-3.46c-24.69,0-44.71,7.9-44.71,30V651.16h0V680s-.61,17.08,19.93,17.08h53c20.54,0,19.93-17.08,19.93-17.08V651.17Z" transform="translate(1 1)"/><path class="cls-15" d="M161.58,678.08q-.53,0-.93,0V395.34c0-4,1.19-5.42,3.69-6.88s9-4.11,22-4.11h3.46c13.05,0,19.39,2.57,22,4.11s3.7,2.87,3.7,6.88V678.05c-.28,0-.58,0-.93,0Z" transform="translate(1 1)"/><path class="cls-13" d="M228.55,672.81c.1-.64.17-1.28.25-1.92,0-.4.09-.79.12-1.18.06-.58.1-1.15.13-1.73s.06-1,.08-1.55c0-.3,0-.59,0-.89s0-.39,0-.59,0-.36,0-.54a56.21,56.21,0,0,0-25.3-47l.31.47q-2.08-1.39-4.29-2.6a55.8,55.8,0,0,0-25.85-6.83,57.67,57.67,0,0,0-9.44.64,55.86,55.86,0,0,0-25,10.42v32.63h0V681s-.61,17.08,19.93,17.08h53a29.67,29.67,0,0,0,5.87-.55,56,56,0,0,0,8.93-19c.42-1.64.75-3.31,1-5Zm-21-38.15-.21-.1.21.1Z" transform="translate(1 1)"/><path class="cls-30" d="M381.23,295.57c2.22,8.5,10.72,38.2,11.3,61.38.46,18.26,10.67.37,12.17-3.13s-5.5-41.87-9-52.31S381.23,295.57,381.23,295.57Z" transform="translate(1 1)"/><path class="cls-32" d="M536.37,423.66c-.67-1-1.33-.5-3.67,3.66s-5.66,6-18.83,8.5-19,3.84-29.5,3.84-13.67,7.83,13.83,5S532,435,536.7,438.32s3.67-2.16,2.5-4.16S536.37,423.66,536.37,423.66Z" transform="translate(1 1)"/><path class="cls-30" d="M531.62,414.32a.8.8,0,0,0,.13.13c3.65,3.75,4.85,1.93,3.29,7.21s-2.59,19.58-51.84,23.41-20.33-9.41-17.66-12.25S507,406.66,513,406.57,531.62,414.32,531.62,414.32Z" transform="translate(1 1)"/><path class="cls-32" d="M381.7,409.2c-3,4.37,1.29,4.17-.81,8.31-4.06,8,9.69,22.69,47.81,26.31,0,0-26.75-2.75-48.25-9.37l-7.62-13.88s5.12-9.75,5.87-10.5S381.7,409.2,381.7,409.2Z" transform="translate(1 1)"/><ellipse class="cls-7" cx="628.95" cy="790.57" rx="39.25" ry="10.75"/><ellipse class="cls-31" cx="624.66" cy="792.3" rx="25.32" ry="4.57"/><polygon class="cls-49" points="652.07 722.91 647.72 712.05 601.6 712.05 597.25 722.91 597.25 778.69 601.6 789.56 647.72 789.56 652.07 778.69 652.07 733.81 652.07 722.91"/><path class="cls-50" d="M650.45,779.24c-2.38,2.28-13.48,4-26.82,4-13.15,0-24.13-1.68-26.72-3.91l3.61,9c.09,2.29,10.4,4.14,23.11,4.14,12.34,0,22.41-1.74,23.07-3.94h0Z" transform="translate(1 1)"/><path class="cls-51" d="M623.37,725.54c13.33,0,24.51-1.65,27.6-3.88l-4.25-10.61H600.6l-4.35,10.87v0C599.9,724,610.65,725.54,623.37,725.54Z" transform="translate(1 1)"/><path class="cls-52" d="M646.37,711.05H627.66V792.5a100.52,100.52,0,0,0,13.86-.83c1.55-.21,2.59-.36,3.1-.5a1.63,1.63,0,0,0,.86-.87l.45-.87,4.17-10.19.62-1.55V721.92l-.1-.26Z" transform="translate(1 1)"/><path class="cls-34" d="M605.35,750.77a2.18,2.18,0,0,1-2.18-2.18v-2.75a2.18,2.18,0,1,1,4.35,0v2.75A2.17,2.17,0,0,1,605.35,750.77Z" transform="translate(1 1)"/><path class="cls-34" d="M605.35,740.76a2.18,2.18,0,0,1-2.18-2.17V724.07l3-10.18a2.18,2.18,0,0,1,4.18,1.22l-2.8,9.58v13.9A2.17,2.17,0,0,1,605.35,740.76Z" transform="translate(1 1)"/><path class="cls-53" d="M600.71,711.05l-.13.05-1.26,3.14c3,1.91,12.78,3.31,24.34,3.31s21.3-1.4,24.34-3.31l-1.26-3.14-.13-.05Z" transform="translate(1 1)"/><ellipse class="cls-31" cx="624.66" cy="711.8" rx="25.32" ry="4.57"/><path class="cls-34" d="M608.54,714.47a116.28,116.28,0,0,0,15.12.9h1.21v-4.55H608.54Z" transform="translate(1 1)"/><ellipse class="cls-54" cx="624.66" cy="712.02" rx="21.37" ry="2.18"/><path class="cls-25" d="M164.37,714.26a60.34,60.34,0,0,0,37-18.51l.95-15.57L216,669.31a60.6,60.6,0,0,0-2.58-38l-19.07-9.44-8-20.75a60.1,60.1,0,0,0-27.85-7.35,62,62,0,0,0-10.16.68l-13.83,15.92-21.14,2.48a60.23,60.23,0,0,0-16,35.18l10.1,15.64-3.84,18a60.6,60.6,0,0,0,30.37,28.26l16.86-3Z" transform="translate(1 1)"/><path class="cls-55" d="M133.93,709.92a60.2,60.2,0,0,0,22.44,4.75,62.12,62.12,0,0,0,8-.41l-12.53-6.78,5.62-19L186,674.87l15.11,7.88.21,13A60.37,60.37,0,0,0,216,669.31L202.49,680l-14.24-8.39-4.88-32.76,13.33-15,16.67,7.47a60.65,60.65,0,0,0-27.06-30.19l8,20.75.23.11-14.35,12.47-33.66-6-11.39-18.8,13.17-15.17a60.47,60.47,0,0,0-35,18.4l20.84-2.44,9.05,20.13-15.75,32.05-20.14,1.44.07-.36L97.3,648.05c-.17,1.69-.28,3.4-.31,5.13a60.05,60.05,0,0,0,6.57,28.48l3.5-16.37,21.38,1,23.6,21.1,1.07,1.11-3.59,18.45Z" transform="translate(1 1)"/><path class="cls-56" d="M190.6,603.43a60.63,60.63,0,0,1-83.16,85.2,60.63,60.63,0,1,0,83.16-85.2Z" transform="translate(1 1)"/><polygon class="cls-34" points="638.45 672.8 636.65 670.4 654.69 656.02 656.48 658.42 638.45 672.8"/><polygon class="cls-34" points="629.06 713.61 625.66 713.61 636.65 670.4 640.05 670.4 629.06 713.61"/><path class="cls-6" d="M421.92,808.74c0,19.28-33.78,34.91-75.45,34.91S271,828,271,808.74s33.78-34.92,75.45-34.92S421.92,789.46,421.92,808.74Z" transform="translate(1 1)"/><path class="cls-57" d="M318.49,774.77c-15-3.19-29,2.54-31.16,12.81s8.23,21.17,23.26,24.36,29-2.54,31.16-12.81S333.52,778,318.49,774.77Z" transform="translate(1 1)"/><path class="cls-58" d="M282.12,808.27c1.5,21.13,29.15,38,63,38s61.53-16.85,63-38Z" transform="translate(1 1)"/><ellipse class="cls-25" cx="346.16" cy="807.61" rx="63.11" ry="28.42"/><path class="cls-59" d="M392.26,814c-2.74,10.57-23.71,18.27-47.1,18.27s-44.36-7.7-47.1-18.27c-3.1-12,17.81-22.88,47.1-22.88S395.36,802,392.26,814Z" transform="translate(1 1)"/><path class="cls-57" d="M338.86,787.35c-15.37,0-27.82,8.51-27.82,19s12.45,19,27.82,19,27.82-8.51,27.82-19S354.22,787.35,338.86,787.35Z" transform="translate(1 1)"/><path class="cls-57" d="M344.14,800.08C342,810.34,328,816.08,313,812.89s-25.45-14.1-23.27-24.37,16.13-16,31.16-12.8S346.32,789.82,344.14,800.08Z" transform="translate(1 1)"/><path class="cls-60" d="M339.89,801.33c-2.18,10.26-16.13,16-31.16,12.81s-25.45-14.1-23.27-24.37,16.13-16,31.16-12.8S342.07,791.07,339.89,801.33Z" transform="translate(1 1)"/><path class="cls-61" d="M334.84,796.67c-1.59,7.49-12.48,11.52-24.32,9S290.38,795.05,292,787.56s12.48-11.53,24.31-9S336.43,789.17,334.84,796.67Z" transform="translate(1 1)"/><path class="cls-62" d="M316,802.19c-.27,1.28-1.05,2.19-1.74,2s-1-1.29-.75-2.57,1-2.18,1.73-2S316.31,800.92,316,802.19Z" transform="translate(1 1)"/><path class="cls-62" d="M323.23,798c.9.94,1.21,2.09.7,2.58s-1.64.11-2.54-.83-1.22-2.1-.71-2.58S322.33,797,323.23,798Z" transform="translate(1 1)"/><path class="cls-62" d="M306.15,799.87c-.52-1.19-.42-2.39.22-2.67s1.59.46,2.11,1.65.42,2.39-.22,2.67S306.67,801.06,306.15,799.87Z" transform="translate(1 1)"/><path class="cls-62" d="M307,782.07c.09-1.3.73-2.31,1.43-2.26s1.2,1.15,1.1,2.44-.74,2.31-1.44,2.26S306.88,783.37,307,782.07Z" transform="translate(1 1)"/><path class="cls-62" d="M298.31,787.07c-1-.81-1.49-1.91-1.06-2.46s1.62-.34,2.64.47,1.49,1.92,1.05,2.47S299.32,787.88,298.31,787.07Z" transform="translate(1 1)"/><path class="cls-62" d="M317.84,784.8c-1.3-.06-2.33-.67-2.3-1.37s1.11-1.23,2.41-1.17,2.33.67,2.3,1.37S319.14,784.86,317.84,784.8Z" transform="translate(1 1)"/><path class="cls-62" d="M319.42,793.35c-.54,1.19-1.5,1.91-2.14,1.62s-.72-1.49-.18-2.67,1.5-1.91,2.14-1.62S320,792.17,319.42,793.35Z" transform="translate(1 1)"/><path class="cls-62" d="M329.29,791.69c.67,1.11.73,2.31.12,2.67s-1.63-.24-2.3-1.36-.73-2.31-.13-2.67S328.62,790.57,329.29,791.69Z" transform="translate(1 1)"/><path class="cls-62" d="M301.89,792.44c1.3-.13,2.41.34,2.47,1s-.93,1.36-2.22,1.49-2.4-.34-2.47-1S300.6,792.56,301.89,792.44Z" transform="translate(1 1)"/><path class="cls-62" d="M310.19,787c1.2.5,1.95,1.44,1.67,2.09s-1.46.76-2.66.25-1.95-1.44-1.68-2.09S309,786.5,310.19,787Z" transform="translate(1 1)"/><path class="cls-57" d="M406.35,785.36c-3.21-10-17.66-14.3-32.3-9.61s-23.9,16.59-20.69,26.58,17.65,14.3,32.29,9.61S409.55,795.35,406.35,785.36Z" transform="translate(1 1)"/><path class="cls-63" d="M372.54,810.9c0,10.49-12.46,19-27.82,19s-27.83-8.51-27.83-19,12.46-19,27.83-19S372.54,800.41,372.54,810.9Z" transform="translate(1 1)"/><path class="cls-61" d="M366.63,807.38c0,7.66-9.81,13.87-21.92,13.87S322.8,815,322.8,807.38s9.81-13.87,21.91-13.87S366.63,799.72,366.63,807.38Z" transform="translate(1 1)"/><path class="cls-62" d="M349.38,816.7c0,1.3-.57,2.35-1.27,2.35s-1.27-1-1.27-2.35.57-2.36,1.27-2.36S349.38,815.4,349.38,816.7Z" transform="translate(1 1)"/><path class="cls-62" d="M355.54,811.08c1.08.73,1.63,1.8,1.23,2.38s-1.59.45-2.66-.28-1.63-1.8-1.23-2.38S354.47,810.34,355.54,811.08Z" transform="translate(1 1)"/><path class="cls-62" d="M339.23,816.48c-.75-1.06-.91-2.25-.33-2.66s1.64.12,2.4,1.18.91,2.25.34,2.66S340,817.54,339.23,816.48Z" transform="translate(1 1)"/><path class="cls-62" d="M336.34,798.89c-.18-1.28.24-2.41.94-2.5s1.4.87,1.58,2.16-.24,2.41-.94,2.51S336.52,800.18,336.34,798.89Z" transform="translate(1 1)"/><path class="cls-62" d="M328.9,805.59c-1.17-.58-1.86-1.56-1.54-2.19s1.51-.67,2.67-.09,1.86,1.57,1.55,2.19S330.06,806.17,328.9,805.59Z" transform="translate(1 1)"/><path class="cls-62" d="M347.53,799.31c-1.28.21-2.41-.17-2.53-.87s.83-1.43,2.11-1.64,2.42.17,2.54.86S348.82,799.09,347.53,799.31Z" transform="translate(1 1)"/><path class="cls-62" d="M350.85,807.35c-.28,1.27-1.06,2.17-1.75,2s-1-1.31-.73-2.58,1.07-2.17,1.76-2S351.14,806.08,350.85,807.35Z" transform="translate(1 1)"/><path class="cls-62" d="M360.16,803.67c.89,1,1.2,2.11.68,2.59s-1.65.1-2.53-.86-1.2-2.11-.69-2.59S359.27,802.72,360.16,803.67Z" transform="translate(1 1)"/><path class="cls-62" d="M333.52,810.09c1.24-.39,2.42-.16,2.63.51s-.62,1.53-1.86,1.92-2.42.16-2.63-.51S332.28,810.48,333.52,810.09Z" transform="translate(1 1)"/><path class="cls-62" d="M340.51,803.06c1.28.24,2.2,1,2.07,1.69s-1.28,1-2.55.8-2.21-1-2.08-1.69S339.23,802.81,340.51,803.06Z" transform="translate(1 1)"/><path class="cls-64" d="M355.76,803.64c3.21,10,17.66,14.29,32.3,9.6s23.89-16.59,20.69-26.58-17.65-14.29-32.29-9.61S352.56,793.64,355.76,803.64Z" transform="translate(1 1)"/><path class="cls-61" d="M360.32,798.49c2.34,7.29,13.57,10.21,25.1,6.52s19-12.6,16.63-19.89S388.48,774.9,377,778.59,358,791.19,360.32,798.49Z" transform="translate(1 1)"/><path class="cls-62" d="M379.58,802.09c.4,1.24,1.26,2.07,1.93,1.86s.89-1.39.49-2.63-1.26-2.07-1.93-1.86S379.18,800.85,379.58,802.09Z" transform="translate(1 1)"/><path class="cls-62" d="M372,798.62c-.8,1-1,2.21-.44,2.64s1.65,0,2.45-1.08,1-2.21.44-2.64S372.8,797.59,372,798.62Z" transform="translate(1 1)"/><path class="cls-62" d="M389.18,798.79c.4-1.24.18-2.42-.49-2.63s-1.53.61-1.93,1.85-.18,2.42.49,2.64S388.79,800,389.18,798.79Z" transform="translate(1 1)"/><path class="cls-62" d="M386.57,781.16c-.22-1.28-1-2.22-1.66-2.1s-1.07,1.26-.84,2.54,1,2.22,1.66,2.1S386.8,782.44,386.57,781.16Z" transform="translate(1 1)"/><path class="cls-62" d="M395.7,785.27c.93-.91,1.29-2.06.8-2.56s-1.64-.17-2.57.74-1.29,2-.8,2.55S394.77,786.18,395.7,785.27Z" transform="translate(1 1)"/><path class="cls-62" d="M376,785c1.29-.19,2.25-.9,2.15-1.6s-1.23-1.1-2.52-.92-2.25.91-2.15,1.6S374.75,785.16,376,785Z" transform="translate(1 1)"/><path class="cls-62" d="M375.33,793.64c.66,1.12,1.68,1.75,2.29,1.39s.56-1.55-.1-2.68-1.68-1.74-2.28-1.39S374.67,792.52,375.33,793.64Z" transform="translate(1 1)"/><path class="cls-62" d="M365.34,793c-.55,1.18-.49,2.38.14,2.68s1.6-.41,2.16-1.59.49-2.37-.14-2.67S365.9,791.8,365.34,793Z" transform="translate(1 1)"/><path class="cls-62" d="M392.67,791c-1.3,0-2.35.59-2.35,1.29s1.06,1.26,2.36,1.26,2.36-.58,2.35-1.29S394,791,392.67,791Z" transform="translate(1 1)"/><path class="cls-62" d="M383.87,786.4c-1.14.62-1.79,1.63-1.45,2.24s1.53.61,2.67,0,1.8-1.63,1.46-2.25S385,785.77,383.87,786.4Z" transform="translate(1 1)"/><g class="cls-65"><polygon class="cls-7" points="843.64 799.95 754.64 852.5 687.76 813.24 694.54 796.65 771.48 753.13 844.28 789.93 843.64 799.95"/></g><path class="cls-66" d="M755,843.07c1.74-1.87,5-4.77,5-12.91,0-10-6-12.95-6-12.95l87.31-50.74s6.07,4.87,5.64,14.89c-.39,9-5.72,12-5.72,12l-87.32,50.74Z" transform="translate(1 1)"/><polygon class="cls-67" points="842.32 767.47 755.01 818.21 689.76 780.54 777.08 729.8 842.32 767.47"/><path class="cls-25" d="M756.44,830.16c0,3.42-.57,3.71-1.3,5.74l-62.9-35.82,0-14.41L752,820.16C752.66,820.7,756.44,822.83,756.44,830.16Z" transform="translate(1 1)"/><path class="cls-68" d="M688.68,802.22l3.55,2.12,61,35.24a19.11,19.11,0,0,0,3.19-9.42c0-7.33-3.78-9.46-4.42-10l-59.73-34.49-3.54-2.28v-3.85L754,817.21s6,2.94,6,12.95c0,8.14-3.26,11-5,12.91l-1.06,1-65.25-37.67Z" transform="translate(1 1)"/><path class="cls-67" d="M692.24,800.08h0l62.9,35.82a15.65,15.65,0,0,1-1.89,3.68l-61-35.24-3.55-2.12Z" transform="translate(1 1)"/><g class="cls-65"><polygon class="cls-69" points="106.9 776.45 190.9 826 257.78 786.74 251 770.15 174.06 726.63 106.26 766.43 106.9 776.45"/></g><path class="cls-70" d="M191.56,817.15c-1.67-1.79-4.82-4.54-4.87-12.32-.07-9.59,5.63-12.44,5.63-12.44l-83.93-48s-5.36,4.69-5.29,14.29c.07,10.18,5.56,11.41,5.56,11.41l83.92,48Z" transform="translate(1 1)"/><polygon class="cls-71" points="109.39 745.42 193.32 793.39 255.51 756.88 171.58 708.91 109.39 745.42"/><path class="cls-58" d="M190.08,804.8c0,3.27.57,3.55,1.28,5.48l60-34.71-.15-13.79L194.24,795.2C193.63,795.72,190,797.78,190.08,804.8Z" transform="translate(1 1)"/><path class="cls-72" d="M254.74,777.58l-3.38,2.07-58.17,34.14a18.28,18.28,0,0,1-3.11-9c-.05-7,3.55-9.08,4.16-9.6l56.93-33.42,3.38-2.22,0-3.68-62.19,36.51s-5.7,2.85-5.63,12.44c.05,7.78,3.2,10.53,4.87,12.32l1,.94,62.2-36.51Z" transform="translate(1 1)"/><path class="cls-73" d="M251.32,775.57h0l-60,34.71a15.1,15.1,0,0,0,1.83,3.51l58.17-34.14,3.38-2.07Z" transform="translate(1 1)"/><path class="cls-25" d="M179.34,727.67a3.56,3.56,0,0,0-3.22.09l-27.76,16.08c-.94.54-1,1.39-.19,1.88a3.58,3.58,0,0,0,3.23-.09l27.75-16.08C180.09,729,180.18,728.16,179.34,727.67Z" transform="translate(1 1)"/><path class="cls-25" d="M178.61,734.56A3.19,3.19,0,0,0,176,735l-15.38,8.91c-.94.54-1.29,1.23-.79,1.52a3.15,3.15,0,0,0,2.62-.45l15.38-8.91C178.76,735.54,179.12,734.85,178.61,734.56Z" transform="translate(1 1)"/><path class="cls-74" d="M108.66,770.12l83.92,48-1-.94a14.45,14.45,0,0,1-4.44-7.9l-83.87-47.93C104.14,769.11,108.66,770.12,108.66,770.12Z" transform="translate(1 1)"/><path class="cls-75" d="M176.13,808.65l-1-.94c-1.68-1.78-4.82-4.54-4.88-12.32-.06-9.59,5.63-12.44,5.63-12.44l4.31,2.5s-5.7,2.86-5.63,12.44c.06,7.79,3.2,10.54,4.88,12.32l1,.94Z" transform="translate(1 1)"/><path class="cls-75" d="M118,775.3l-1-.94c-1.67-1.78-4.82-4.53-4.88-12.32-.06-9.58,5.63-12.44,5.63-12.44l4.31,2.51s-5.7,2.85-5.63,12.43c.06,7.79,3.2,10.54,4.88,12.32l1,.95Z" transform="translate(1 1)"/><path class="cls-76" d="M223,791.61l0-4,1-.66a1,1,0,0,0,.33-1.4,1,1,0,0,0-1.41-.34L212.08,792a1,1,0,0,0-.33,1.4.39.39,0,0,0,.08.1l0,4.88,3.93,2.31,0,4.36,12-7.23.15-4Z" transform="translate(1 1)"/><polygon class="cls-77" points="229.88 794.07 229.76 801.59 224.24 801.63 217.74 808.99 217.69 800.96 213.72 793.59 224.9 786.71 229.88 794.07"/><polygon class="cls-78" points="217.69 800.96 213.72 793.59 224.9 786.71 229.88 794.07 217.69 800.96"/></g></g></svg>