<svg xmlns="http://www.w3.org/2000/svg" xmlns:xlink="http://www.w3.org/1999/xlink" viewBox="0 0 842.61 838.65"><defs><style>.cls-1,.cls-35,.cls-61{fill:none;}.cls-2{isolation:isolate;}.cls-3{clip-path:url(#clip-path);}.cls-4{fill:#b8e4fa;}.cls-5{fill:#77d1f6;}.cls-6{fill:#fff;}.cls-7{fill:#93c83d;}.cls-8{fill:#98be78;}.cls-9{fill:#86b637;}.cls-10{fill:#a87859;}.cls-11{fill:#a9d383;}.cls-12{fill:#acd15e;}.cls-13{fill:#fff7a5;}.cls-14{fill:#cadc61;}.cls-15{fill:#faad3f;}.cls-16{fill:#fff100;}.cls-17{fill:#231f20;opacity:0.14;mix-blend-mode:multiply;}.cls-18{fill:#ffd398;}.cls-19{fill:#aec99d;}.cls-20{fill:#58595b;}.cls-21{fill:#faaf40;}.cls-22{fill:#c4342b;}.cls-23{fill:#ee4036;}.cls-24{fill:#d63930;}.cls-25{fill:#ba5080;}.cls-26{fill:#a6a8ab;}.cls-27{fill:#f9a948;}.cls-28{fill:#716558;}.cls-29{fill:#84bbb1;}.cls-30{fill:#c1dfad;}.cls-31{fill:#00a69c;}.cls-32{fill:#fbbe90;}.cls-33{fill:#f69b83;}.cls-34{fill:#fab68d;}.cls-35{stroke:#6d6e70;}.cls-35,.cls-61{stroke-linecap:round;stroke-linejoin:round;}.cls-36{fill:#f1f1f2;}.cls-37{fill:#dd9b38;}.cls-38{fill:#ada28b;}.cls-39{fill:#37b34a;}.cls-40{fill:#c1b49a;}.cls-41{fill:#a87c4f;}.cls-42{fill:#999;}.cls-43{fill:#f05a28;}.cls-44{fill:#9a8479;}.cls-45{fill:#e6e7e8;}.cls-46{fill:#fbbf82;}.cls-47{fill:#f5999d;}.cls-48{fill:#f06675;}.cls-49{fill:#4e4f51;}.cls-50{fill:#333;}.cls-51{fill:#28b1ac;}.cls-52{fill:#2bbbb6;}.cls-53{fill:#00968d;}.cls-54{fill:#d79737;}.cls-55{fill:#fdc877;}.cls-56{fill:#e39f3a;}.cls-57{fill:#d09335;}.cls-58{fill:#404041;}.cls-59{fill:#51493f;}.cls-60{fill:#8f8070;}.cls-61{stroke:#404041;stroke-width:0.25px;}.cls-62{fill:#f27f8e;}.cls-63{fill:#aad7ad;}.cls-64{fill:#d1eade;}.cls-65{fill:#fffbdd;}</style><clipPath id="clip-path" transform="translate(24.04 13)"><rect class="cls-1" width="800" height="800"/></clipPath></defs><title>bebeetenfants</title><g class="cls-2"><g id="BACKGROUND"><g class="cls-3"><rect class="cls-4" width="842.61" height="609"/><path class="cls-5" d="M340.55,423s-.71-218.68,9.75-217,71-6.71,74.82,7.25S410.93,419,410.93,419Z" transform="translate(24.04 13)"/><rect class="cls-6" x="392.53" y="231.18" width="14.91" height="28.11" rx="5" ry="5" transform="translate(54.12 -30.38) rotate(6.45)"/><rect class="cls-6" x="364.76" y="228.43" width="14.91" height="28.11" rx="5" ry="5" transform="translate(53.63 -27.27) rotate(6.45)"/><rect class="cls-6" x="361.5" y="269.04" width="14.91" height="28.11" rx="5" ry="5" transform="translate(58.17 -26.65) rotate(6.45)"/><rect class="cls-6" x="390.56" y="303.6" width="14.91" height="28.11" rx="5" ry="5" transform="translate(55.03 -22.35) rotate(5.29)"/><rect class="cls-6" x="361.5" y="337.28" width="14.91" height="28.11" rx="5" ry="5" transform="translate(58 -19.52) rotate(5.29)"/><rect class="cls-6" x="384.04" y="339.39" width="14.91" height="28.11" rx="5" ry="5" transform="translate(58.3 -21.59) rotate(5.29)"/><rect class="cls-6" x="382.25" y="377.73" width="14.91" height="28.11" rx="5" ry="5" transform="translate(61.83 -21.26) rotate(5.29)"/><path class="cls-5" d="M133.35,205.26c-1.89-.21-7.6.36-15.4,1.43-7.43-15.6-30.35-26.1-52.49-23.46-22.74,2.7-32-24.14-34.48-22.72s6.4,62.65,6.4,62.65h0c-3.83,1.34-6.17,2.56-6.36,3.56-1.26,6.52,26.75,219.59,26.75,219.59l98.94-30.88S142.2,206.23,133.35,205.26Z" transform="translate(24.04 13)"/><rect class="cls-6" x="46.18" y="245.47" width="14.91" height="28.11" rx="5" ry="5" transform="translate(-1.8 19.71) rotate(-5.77)"/><rect class="cls-6" x="67.92" y="241.51" width="14.91" height="28.11" rx="5" ry="5" transform="translate(-1.28 21.88) rotate(-5.77)"/><rect class="cls-6" x="98.97" y="269.74" width="14.91" height="28.11" rx="5" ry="5" transform="translate(-3.97 25.15) rotate(-5.77)"/><rect class="cls-6" x="112.95" y="235.24" width="14.91" height="28.11" rx="5" ry="5" transform="translate(-0.43 26.38) rotate(-5.77)"/><rect class="cls-6" x="78.17" y="300.61" width="14.91" height="28.11" rx="5" ry="5" transform="translate(-7.18 23.21) rotate(-5.77)"/><rect class="cls-6" x="59.54" y="340.79" width="14.91" height="28.11" rx="5" ry="5" transform="translate(-11.32 21.54) rotate(-5.77)"/><rect class="cls-6" x="81.51" y="337.28" width="14.91" height="28.11" rx="5" ry="5" transform="translate(-10.85 23.73) rotate(-5.77)"/><rect class="cls-6" x="121.33" y="295.99" width="14.91" height="28.11" rx="5" ry="5" transform="translate(-6.49 27.53) rotate(-5.77)"/><path class="cls-5" d="M167.34,393.33s-11.29-210.87-10.63-215,75-4.59,81.42-4.39,14.32,225.76,14.32,225.76Z" transform="translate(24.04 13)"/><rect class="cls-6" x="171.01" y="214.31" width="14.91" height="28.11" rx="5" ry="5" transform="translate(18.51 17.43) rotate(-1.4)"/><rect class="cls-6" x="194.57" y="214.31" width="14.91" height="28.11" rx="5" ry="5" transform="translate(18.52 18.01) rotate(-1.4)"/><rect class="cls-6" x="219.94" y="248.41" width="14.91" height="28.11" rx="5" ry="5" transform="translate(17.69 18.64) rotate(-1.4)"/><rect class="cls-6" x="197.11" y="272.69" width="14.91" height="28.11" rx="5" ry="5" transform="translate(17.09 18.09) rotate(-1.4)"/><rect class="cls-6" x="174.9" y="306.97" width="14.91" height="28.11" rx="5" ry="5" transform="translate(16.24 17.56) rotate(-1.4)"/><rect class="cls-6" x="197.11" y="306.97" width="14.91" height="28.11" rx="5" ry="5" transform="translate(16.25 18.1) rotate(-1.4)"/><rect class="cls-6" x="222.41" y="335.22" width="14.91" height="28.11" rx="5" ry="5" transform="translate(15.57 18.73) rotate(-1.4)"/><path class="cls-5" d="M266.77,406.94S257.17,275.26,261,267.2s61.23-3.35,67.88-3.48,0,147.9,0,147.9Z" transform="translate(24.04 13)"/><rect class="cls-6" x="276.68" y="284.03" width="14.91" height="28.11" rx="5" ry="5" transform="translate(16.84 20.04) rotate(-1.4)"/><rect class="cls-6" x="301.83" y="283.17" width="14.91" height="28.11" rx="5" ry="5" transform="translate(16.86 20.65) rotate(-1.4)"/><rect class="cls-6" x="301.83" y="322.99" width="14.91" height="28.11" rx="5" ry="5" transform="translate(15.89 20.67) rotate(-1.4)"/><rect class="cls-6" x="279.93" y="349.34" width="14.91" height="28.11" rx="5" ry="5" transform="translate(15.24 20.14) rotate(-1.4)"/><path class="cls-7" d="M-24,357.44s11.68-34.09,36.83-33.72,27,24.83,27,24.83,5.39-15.49,29.64-10.09,14.13,28.75,14.13,28.75S100.82,351,115.2,373.5c0,0,.9-17.74,20.66-16.06s18.73,16.06,18.73,16.06,20.33-17.07,32.69,3.6c0,0-2.19-17.75,16.32-19.66s20.29,14.27,20.29,14.27,19.77-10.78,28.75,9.88c0,0,18-24.26,35.93,6.29,0,0,.9-20.67,18.87-20.67s20.21,9.89,20.21,9.89,22-10.78,27.4,15.27c0,0,26.05-8.09,29.64,18.86L-24,555.86Z" transform="translate(24.04 13)"/><path class="cls-8" d="M536.41,160.58s-9.08-16.13-23.36-13.58-11.61,22.92-11.61,22.92-16.08-20.37-34.83-8.49,0,28.47,0,28.47-25.9-3.86-30.36,16.51,16.07,23.76,16.07,23.76-27.68-2.54-27.68,24.62,42,20.37,42,20.37-18.75,2.57-15.18,21.65,35.27,9.75,35.27,9.75-19.05,12-6.17,21.71,30.73-5.73,30.73-5.73,3,19.11,25.15,15.14,14.48-24.95,14.48-24.95,21.1,13.82,33.6,0,0-29.09,0-29.09,25,9.34,31.25-17.82-26.79-30-26.79-30,30.3-2.25,26.79-20.39-28.57-9.9-28.57-9.9,38.4-13.58,28.57-29.7-40.33,0-40.33,0,12.65-20.92-2.53-29.13S536.41,160.58,536.41,160.58Z" transform="translate(24.04 13)"/><path class="cls-9" d="M-24,441.72s5.65-42.7,41.65-20.42c0,0,10.83-38.57,37.66-8.14,0,0,27.58-23.06,37.45,12.4,0,0,4.39-35,31.38-19,0,0,30.5-19.23,37.75,10.39,0,0,17.54-28.89,36.39,4.11,0,0,15.78-15.28,24.62,2L-24,555.86Z" transform="translate(24.04 13)"/><path class="cls-10" d="M500.54,430s9.59-98.86,10.33-112.25-28.72-49.12-28.72-49.12l14.37-7.14s16,30.36,21.35,25-7-62.51-7-62.51h13.25s3.52,46.44,8,44.65S542,241.56,542,241.56l13.4,5.64s-23.22,43.92-25,49.2,25-11.7,25-11.7l4.46,11.7s-29.16,15.59-31.1,26.06S532.13,430,532.13,430Z" transform="translate(24.04 13)"/><path class="cls-11" d="M693.28,143.63s-14-24.25-34.16-19.26-17.48,33.54-17.48,33.54S624,124.17,600.3,135.16,596,174.5,596,174.5s-24.44-3.29-28.93,20.87S585.83,224,585.83,224s-29.14,2.72-30.66,26.55,21.75,27.74,21.75,27.74-16.58,7.92-10.44,24.52S601.05,306,601.05,306s-8.15,16.17,11.59,24.28,30.74-18.8,30.74-18.8-9.72,31.64,13.83,36.15,29.9-24.34,29.9-24.34,7.86,22.13,28,11.78,6.27-24.48,6.27-24.48,23.53,27.12,45.3,4.85S754.9,275.1,754.9,275.1s23.29,5.69,28.42-14-20.46-19.42-20.46-19.42,27.33-5.07,26.48-27.09-33-18.08-33-18.08,15.36-10.89,8.06-24.51-25.08-6.26-25.08-6.26,13.55-13.25,4.43-29.22S704.3,117.9,693.28,143.63Z" transform="translate(24.04 13)"/><path class="cls-10" d="M625.39,434.47s31.4-104.79,32-128.47-44.61-75-44.61-75l16-10s22.94,54.21,34.48,47.83-12.48-76.66-12.48-76.66l14.81-4.63s10.11,75.79,16.33,73,28.29-25.33,28.29-25.33L724,246.73s-34.57,46.8-41.52,63.86-7.84,135.46-7.84,135.46Z" transform="translate(24.04 13)"/><path class="cls-12" d="M-21.39,528.08s160.49-124.67,420-124.67,420,108.67,420,108.67V825.65h-840Z" transform="translate(24.04 13)"/><path class="cls-13" d="M-21.39,544.35V618.3C30.7,581.53,168.41,503.59,400,503.59c232.28,0,367.89,76.64,418.57,112.45V524.61c-60.32-31.82-218.27-103.31-420-103.31C194.32,421.3,36.51,507.63-21.39,544.35Z" transform="translate(24.04 13)"/><ellipse class="cls-14" cx="270.67" cy="550.99" rx="16.5" ry="8.76"/><ellipse class="cls-14" cx="322.04" cy="574.5" rx="13" ry="7.5"/><ellipse class="cls-14" cx="378.54" cy="543.87" rx="16.5" ry="7.12"/><ellipse class="cls-14" cx="204.37" cy="609" rx="12.63" ry="7"/><ellipse class="cls-14" cx="318.04" cy="635.27" rx="17" ry="7.73"/><ellipse class="cls-14" cx="271.39" cy="606.5" rx="15.78" ry="9.5"/><ellipse class="cls-14" cx="367.29" cy="599.25" rx="11.25" ry="7.25"/><ellipse class="cls-14" cx="460.04" cy="574.5" rx="15" ry="7.5"/><ellipse class="cls-14" cx="395.04" cy="578.25" rx="7" ry="3.75"/><ellipse class="cls-14" cx="442.04" cy="611" rx="18" ry="9"/><ellipse class="cls-14" cx="449.04" cy="539.12" rx="7" ry="4.75"/><ellipse class="cls-14" cx="565.54" cy="590.63" rx="19.5" ry="8.63"/><ellipse class="cls-14" cx="523.04" cy="554.62" rx="9" ry="5.13"/><ellipse class="cls-14" cx="663.04" cy="596.31" rx="9" ry="5.69"/><path class="cls-14" d="M530,624.15c0,3.23-4.92,5.85-11,5.85s-11-2.62-11-5.85,4.92-5.85,11-5.85S530,620.92,530,624.15Z" transform="translate(24.04 13)"/><ellipse class="cls-14" cx="620.54" cy="650.5" rx="10.5" ry="7.5"/><ellipse class="cls-14" cx="689.04" cy="635.27" rx="12" ry="7.73"/><ellipse class="cls-14" cx="620.54" cy="563.37" rx="10.5" ry="3.63"/><path class="cls-14" d="M107.45,624.15c0,3.23-6.59,5.85-14.73,5.85S78,627.38,78,624.15s6.59-5.85,14.72-5.85S107.45,620.92,107.45,624.15Z" transform="translate(24.04 13)"/><path class="cls-6" d="M157.78,740.61s-6.23-8.92,4.82-9.13,3.68,9.13,3.68,9.13,8.5-5.1,12.75-1.7-2.27,6.8-8.78,5.73c0,0,11.33,2,5.77,6-6.07,4.32-10.31-2-10.31-2s5.14,8.25-3.36,8.25-4.57-8.46-4.57-8.46-4,6.53-9.07,2.12,5.95-5.1,5.95-5.1-10.73-.63-8-5.73S157.78,740.61,157.78,740.61Z" transform="translate(24.04 13)"/><path class="cls-15" d="M164.82,744.2c0,.9-1.33,1.63-3,1.63s-3-.73-3-1.63,1.33-1.63,3-1.63S164.82,743.3,164.82,744.2Z" transform="translate(24.04 13)"/><path class="cls-6" d="M53.87,664.78S45.92,653.4,60,653.13s4.7,11.65,4.7,11.65,10.85-6.5,16.28-2.17-2.9,8.68-11.21,7.32c0,0,14.46,2.58,7.36,7.64C69.41,683.09,64,675.09,64,675.09s6.56,10.53-4.29,10.53-5.84-10.8-5.84-10.8-5.14,8.33-11.57,2.71S49.9,671,49.9,671s-13.7-.81-10.29-7.32S53.87,664.78,53.87,664.78Z" transform="translate(24.04 13)"/><ellipse class="cls-15" cx="83.11" cy="682.37" rx="3.8" ry="2.08"/><path class="cls-6" d="M721.17,761.93s-8-11.39,6.15-11.66,4.7,11.66,4.7,11.66,10.85-6.51,16.27-2.17-2.89,8.68-11.21,7.32c0,0,14.47,2.58,7.37,7.64-7.74,5.52-13.16-2.49-13.16-2.49s6.57,10.53-4.28,10.53-5.84-10.8-5.84-10.8-5.15,8.34-11.57,2.71,7.59-6.5,7.59-6.5-13.7-.82-10.28-7.32S721.17,761.93,721.17,761.93Z" transform="translate(24.04 13)"/><path class="cls-15" d="M730.16,766.51c0,1.15-1.7,2.08-3.8,2.08s-3.79-.93-3.79-2.08,1.7-2.07,3.79-2.07S730.16,765.37,730.16,766.51Z" transform="translate(24.04 13)"/><path class="cls-6" d="M425,564.42s-8-11.39,6.15-11.66,4.7,11.66,4.7,11.66,10.85-6.51,16.27-2.17-2.89,8.67-11.21,7.32c0,0,14.47,2.57,7.36,7.64-7.73,5.51-13.15-2.49-13.15-2.49s6.57,10.53-4.28,10.53-5.84-10.8-5.84-10.8-5.15,8.33-11.57,2.71,7.59-6.51,7.59-6.51-13.7-.81-10.29-7.32S425,564.42,425,564.42Z" transform="translate(24.04 13)"/><path class="cls-15" d="M434,569c0,1.15-1.7,2.08-3.8,2.08s-3.79-.93-3.79-2.08,1.7-2.08,3.79-2.08S434,567.85,434,569Z" transform="translate(24.04 13)"/><path class="cls-6" d="M197.32,634.47s-5.26-7.53,4.07-7.71,3.11,7.71,3.11,7.71,7.17-4.31,10.76-1.44-1.91,5.74-7.42,4.84c0,0,9.57,1.71,4.88,5.06-5.12,3.65-8.7-1.65-8.7-1.65s4.34,7-2.84,7-3.86-7.15-3.86-7.15-3.4,5.51-7.66,1.8,5-4.31,5-4.31-9.06-.54-6.81-4.84S197.32,634.47,197.32,634.47Z" transform="translate(24.04 13)"/><path class="cls-15" d="M203.27,637.5c0,.76-1.13,1.38-2.51,1.38s-2.52-.62-2.52-1.38,1.13-1.38,2.52-1.38S203.27,636.74,203.27,637.5Z" transform="translate(24.04 13)"/><circle class="cls-16" cx="246.9" cy="74.11" r="33.23"/><path class="cls-6" d="M325.05,71.18H224.93c-23,0-22.42-18.5,7.85-14.57,0,0,1.14-20.74,20.47-9.53,0,0,1.77-16.82,18.68-16.26s19.19,12.89,19.19,12.89,19-12.9,24.62,7.28c0,0,15.77-15.69,25.83,3.37,0,0,43.35-5.6,43.8,5.61S325.05,71.18,325.05,71.18Z" transform="translate(24.04 13)"/><path class="cls-6" d="M426.38,128.14c-39.8,0-38.44-.63-38.44-10s27-5.3,27-5.3,2.85-17.56,14.14-14.91,11.3,6,11.3,6,7-13,18.15-8.53,9.1,15.9,9.1,15.9,23.85-7.63,27.26,0-.68,16-23.17,16S426.38,128.14,426.38,128.14Z" transform="translate(24.04 13)"/><path class="cls-6" d="M101.88,121.3c-39.81,0-38.44-.63-38.44-10s27-5.31,27-5.31,2.84-17.56,14.14-14.91,11.3,6,11.3,6,7-13,18.14-8.53,9.11,15.9,9.11,15.9,23.85-7.63,27.26,0-.69,16-23.17,16S101.88,121.3,101.88,121.3Z" transform="translate(24.04 13)"/></g><path class="cls-6" d="M552.42,750.19s-6.23-8.92,4.82-9.13,3.68,9.13,3.68,9.13,8.5-5.09,12.75-1.69-2.27,6.79-8.78,5.73c0,0,11.33,2,5.77,6-6.07,4.32-10.31-2-10.31-2s5.14,8.24-3.36,8.24-4.57-8.46-4.57-8.46-4,6.53-9.07,2.13,5.95-5.1,5.95-5.1-10.73-.64-8-5.73S552.42,750.19,552.42,750.19Z" transform="translate(24.04 13)"/><path class="cls-15" d="M559.46,753.79c0,.9-1.33,1.63-3,1.63s-3-.73-3-1.63,1.33-1.63,3-1.63S559.46,752.89,559.46,753.79Z" transform="translate(24.04 13)"/><path class="cls-6" d="M632,737.47s-6.23-8.92,4.82-9.14,3.68,9.14,3.68,9.14,8.5-5.1,12.75-1.7-2.26,6.79-8.78,5.73c0,0,11.33,2,5.77,6-6.06,4.32-10.3-2-10.3-2s5.14,8.25-3.36,8.25-4.58-8.46-4.58-8.46-4,6.52-9.06,2.12,5.95-5.1,5.95-5.1-10.74-.64-8.06-5.73S632,737.47,632,737.47Z" transform="translate(24.04 13)"/><path class="cls-15" d="M639.07,741.06c0,.9-1.33,1.63-3,1.63s-3-.73-3-1.63,1.33-1.63,3-1.63S639.07,740.16,639.07,741.06Z" transform="translate(24.04 13)"/><path class="cls-6" d="M624.07,557.75s-5.26-7.53,4.07-7.71,3.11,7.71,3.11,7.71,7.17-4.3,10.76-1.43-1.91,5.74-7.42,4.84c0,0,9.57,1.71,4.88,5.05-5.12,3.65-8.7-1.64-8.7-1.64s4.34,7-2.84,7-3.86-7.14-3.86-7.14-3.4,5.51-7.65,1.79,5-4.3,5-4.3-9.06-.54-6.8-4.84S624.07,557.75,624.07,557.75Z" transform="translate(24.04 13)"/><path class="cls-15" d="M630,560.79c0,.76-1.13,1.37-2.51,1.37s-2.52-.61-2.52-1.37,1.13-1.38,2.52-1.38S630,560,630,560.79Z" transform="translate(24.04 13)"/></g><g id="OBJECTS"><ellipse class="cls-17" cx="433.5" cy="486.21" rx="95.63" ry="26.64"/><path class="cls-18" d="M416.83,402s10.8-.67,13.82,4.63,4.6,14.36,4.6,14.36l-10.18,3.24s.72-9.44-9-12.05Z" transform="translate(24.04 13)"/><polygon class="cls-19" points="415.34 428.65 442.07 427.24 442.25 413.37 420.94 410.86 415.34 428.65"/><path class="cls-20" d="M383.41,410.86a21.16,21.16,0,1,0,19.5,22.7A21.17,21.17,0,0,0,383.41,410.86Zm-2.68,35.41a14.35,14.35,0,1,1,15.39-13.22A14.35,14.35,0,0,1,380.73,446.27Z" transform="translate(24.04 13)"/><path class="cls-21" d="M382.23,426.8a5.17,5.17,0,1,0,4.77,5.55A5.17,5.17,0,0,0,382.23,426.8Z" transform="translate(24.04 13)"/><path class="cls-6" d="M382,429.3a2.67,2.67,0,1,0,2.46,2.86A2.67,2.67,0,0,0,382,429.3Z" transform="translate(24.04 13)"/><path class="cls-20" d="M381.89,431.24a.72.72,0,1,0,.67.77A.72.72,0,0,0,381.89,431.24Z" transform="translate(24.04 13)"/><path class="cls-20" d="M382.39,424.62a9.45,9.45,0,0,1-.13-1.14c0-.35,0-.75,0-1.17s0-.88.06-1.33.08-.91.15-1.33.13-.81.2-1.15a9.93,9.93,0,0,1,.31-1.11,8.19,8.19,0,0,1,.14,1.14,10.91,10.91,0,0,1,0,1.17c0,.43,0,.88-.05,1.33s-.09.91-.15,1.33-.13.81-.21,1.15A7.84,7.84,0,0,1,382.39,424.62Z" transform="translate(24.04 13)"/><path class="cls-20" d="M387.41,427.19a8.16,8.16,0,0,1,.72-.91c.22-.26.5-.55.8-.85s.64-.61,1-.91.7-.58,1-.83.67-.48,1-.67a8.42,8.42,0,0,1,1-.56,9.43,9.43,0,0,1-.72.91,10.06,10.06,0,0,1-.8.84c-.3.3-.63.61-1,.91s-.7.58-1,.83-.67.48-1,.67A9.69,9.69,0,0,1,387.41,427.19Z" transform="translate(24.04 13)"/><path class="cls-20" d="M389.15,432.54a9.47,9.47,0,0,1,1.15-.13c.34,0,.74,0,1.17,0s.88,0,1.33.06.9.08,1.32.15.82.13,1.15.2a10.61,10.61,0,0,1,1.12.31,8.51,8.51,0,0,1-1.15.14,10.77,10.77,0,0,1-1.17,0c-.43,0-.88,0-1.33-.05s-.9-.09-1.33-.15-.81-.13-1.15-.21A7.84,7.84,0,0,1,389.15,432.54Z" transform="translate(24.04 13)"/><path class="cls-20" d="M386.59,437.56a9.43,9.43,0,0,1,.91.72c.26.22.55.5.85.8s.6.64.9,1,.58.7.83,1,.49.67.67,1a9.69,9.69,0,0,1,.57,1,8.16,8.16,0,0,1-.91-.72c-.26-.22-.55-.49-.85-.8s-.61-.63-.9-1-.58-.7-.84-1-.48-.67-.66-1A7.83,7.83,0,0,1,386.59,437.56Z" transform="translate(24.04 13)"/><path class="cls-20" d="M381.23,439.3a8.21,8.21,0,0,1,.14,1.15c0,.34,0,.74,0,1.17s0,.88,0,1.33-.09.9-.15,1.32-.13.82-.21,1.15a8.29,8.29,0,0,1-.31,1.12,8.51,8.51,0,0,1-.14-1.15c0-.34,0-.74,0-1.17s0-.88.05-1.33.09-.9.15-1.33.13-.81.21-1.15A7.84,7.84,0,0,1,381.23,439.3Z" transform="translate(24.04 13)"/><path class="cls-20" d="M376.21,436.74a10.2,10.2,0,0,1-.71.91c-.23.26-.5.55-.81.85s-.63.6-1,.9-.7.58-1,.83-.67.49-1,.67a9.08,9.08,0,0,1-1,.57,7.29,7.29,0,0,1,.71-.91c.22-.26.5-.55.8-.85s.64-.61,1-.9.7-.58,1-.84.67-.48,1-.66A7.83,7.83,0,0,1,376.21,436.74Z" transform="translate(24.04 13)"/><path class="cls-20" d="M374.47,431.38a8.19,8.19,0,0,1-1.14.14c-.35,0-.75,0-1.17,0s-.88,0-1.33-.05-.91-.09-1.33-.15-.81-.13-1.15-.21a7.84,7.84,0,0,1-1.11-.31,8.19,8.19,0,0,1,1.14-.14c.35,0,.75,0,1.17,0s.88,0,1.34,0,.9.09,1.32.15.81.13,1.15.21A7.84,7.84,0,0,1,374.47,431.38Z" transform="translate(24.04 13)"/><path class="cls-20" d="M377,426.36a8.72,8.72,0,0,1-.91-.71c-.26-.23-.55-.5-.85-.81s-.61-.63-.91-1-.58-.7-.83-1-.48-.67-.67-1a8,8,0,0,1-.56-1,8.28,8.28,0,0,1,.91.71c.26.22.55.5.84.8s.61.64.91,1,.58.7.83,1,.48.67.67,1A9.69,9.69,0,0,1,377,426.36Z" transform="translate(24.04 13)"/><path class="cls-20" d="M385,425.35a8.14,8.14,0,0,1,.3-1.12c.1-.33.23-.7.39-1.1s.34-.81.54-1.22.41-.81.62-1.18a11.55,11.55,0,0,1,.62-1,8.39,8.39,0,0,1,.7-.92,8.26,8.26,0,0,1-.3,1.11c-.1.33-.23.71-.39,1.1s-.34.81-.54,1.22-.41.81-.63,1.18-.42.71-.61,1A8,8,0,0,1,385,425.35Z" transform="translate(24.04 13)"/><path class="cls-20" d="M388.77,429.57a9.46,9.46,0,0,1,1-.58c.31-.16.67-.33,1.06-.5s.81-.33,1.24-.48.86-.28,1.28-.4.8-.2,1.13-.26a8,8,0,0,1,1.15-.16,9.46,9.46,0,0,1-1,.58c-.3.16-.66.33-1.06.5s-.81.33-1.24.48-.86.28-1.27.39-.8.21-1.14.27A10.27,10.27,0,0,1,388.77,429.57Z" transform="translate(24.04 13)"/><path class="cls-20" d="M388.43,435.19a8.26,8.26,0,0,1,1.11.3c.33.1.71.23,1.1.39s.81.34,1.22.54.81.41,1.18.62.71.42,1,.62a8.39,8.39,0,0,1,.92.7,8.14,8.14,0,0,1-1.12-.3c-.33-.1-.7-.23-1.1-.39s-.81-.35-1.22-.54-.81-.41-1.18-.63-.71-.42-1-.61A8.39,8.39,0,0,1,388.43,435.19Z" transform="translate(24.04 13)"/><path class="cls-20" d="M384.2,438.92a8.43,8.43,0,0,1,.59,1c.16.31.33.67.49,1.06s.34.81.49,1.24.28.86.39,1.28.2.8.27,1.13a10.27,10.27,0,0,1,.16,1.15,8.43,8.43,0,0,1-.59-1,10.8,10.8,0,0,1-.49-1.06c-.17-.39-.34-.81-.49-1.24s-.28-.86-.39-1.27-.2-.8-.27-1.14A10,10,0,0,1,384.2,438.92Z" transform="translate(24.04 13)"/><path class="cls-20" d="M378.58,438.58a9.05,9.05,0,0,1-.29,1.11c-.1.33-.24.71-.4,1.1s-.34.81-.54,1.22-.41.81-.62,1.18-.42.71-.62,1a9.3,9.3,0,0,1-.69.92,8.9,8.9,0,0,1,.29-1.12c.1-.33.24-.7.4-1.1s.34-.81.54-1.22.41-.81.62-1.18.42-.71.61-1A8.39,8.39,0,0,1,378.58,438.58Z" transform="translate(24.04 13)"/><path class="cls-20" d="M374.85,434.35a8.43,8.43,0,0,1-1,.59,10.8,10.8,0,0,1-1.06.49c-.39.17-.81.34-1.24.49s-.86.28-1.27.39-.8.2-1.14.27a10,10,0,0,1-1.15.16,8.43,8.43,0,0,1,1-.59c.31-.16.67-.33,1.06-.49s.82-.34,1.24-.49.87-.28,1.28-.39.8-.2,1.14-.27A10,10,0,0,1,374.85,434.35Z" transform="translate(24.04 13)"/><path class="cls-20" d="M375.2,428.73a8.9,8.9,0,0,1-1.12-.29c-.33-.1-.7-.24-1.1-.4s-.81-.34-1.22-.54-.81-.41-1.18-.62a11.55,11.55,0,0,1-1-.62,9.3,9.3,0,0,1-.92-.69,9.05,9.05,0,0,1,1.11.29c.33.1.71.24,1.1.4s.81.34,1.22.54.81.41,1.18.62.71.42,1,.61A8,8,0,0,1,375.2,428.73Z" transform="translate(24.04 13)"/><path class="cls-20" d="M379.42,425a9.46,9.46,0,0,1-.58-1c-.16-.3-.33-.66-.5-1.06s-.33-.81-.48-1.24-.28-.86-.4-1.27-.2-.8-.26-1.14a7.82,7.82,0,0,1-.16-1.15,9.46,9.46,0,0,1,.58,1c.16.31.33.67.5,1.06s.33.82.48,1.24.28.87.39,1.28.21.8.27,1.14A10,10,0,0,1,379.42,425Z" transform="translate(24.04 13)"/><polygon class="cls-22" points="392.86 482.1 418.19 451.02 418.64 445.03 393.33 476.97 392.86 482.1"/><polygon class="cls-23" points="386.91 445.3 362.13 474.6 393.33 476.97 418.64 445.03 389.06 442.79 386.91 445.3"/><polygon class="cls-24" points="362.13 474.6 361.74 479.74 392.86 482.1 393.33 476.97 362.13 474.6"/><path class="cls-25" d="M451.49,398.38s-29,4.23-87.45,44.86c0,0,6.26,10.87,20,.41,23.59-18,40.26-31,67.72-34.57C451.72,409.08,455.66,398.13,451.49,398.38Z" transform="translate(24.04 13)"/><path class="cls-20" d="M452.48,421.58a35.17,35.17,0,1,0,32.41,37.72A35.16,35.16,0,0,0,452.48,421.58Zm-4.64,61.19A26.2,26.2,0,1,1,476,458.62,26.2,26.2,0,0,1,447.84,482.77Z" transform="translate(24.04 13)"/><circle class="cls-26" cx="449.87" cy="456.64" r="8.6" transform="translate(-7.33 46.2) rotate(-4.08)"/><path class="cls-6" d="M450.2,452.21a4.44,4.44,0,1,0,4.09,4.76A4.43,4.43,0,0,0,450.2,452.21Z" transform="translate(24.04 13)"/><path class="cls-20" d="M450,455.44a1.2,1.2,0,1,0,1.1,1.29A1.2,1.2,0,0,0,450,455.44Z" transform="translate(24.04 13)"/><path class="cls-20" d="M450.79,444.45a14.84,14.84,0,0,1-.23-1.91c0-.57-.06-1.23-.05-1.94s0-1.47.09-2.22.14-1.5.24-2.2.22-1.35.35-1.91a14.84,14.84,0,0,1,.51-1.85,13.67,13.67,0,0,1,.24,1.91c0,.57.06,1.23.05,1.94s0,1.46-.09,2.21-.14,1.5-.25,2.2-.22,1.36-.34,1.91A14.2,14.2,0,0,1,450.79,444.45Z" transform="translate(24.04 13)"/><path class="cls-20" d="M459.13,448.7a15.28,15.28,0,0,1,1.19-1.51c.37-.43.83-.91,1.33-1.41s1.06-1,1.63-1.5,1.16-1,1.73-1.39,1.11-.8,1.6-1.1a15.38,15.38,0,0,1,1.67-1,15.25,15.25,0,0,1-1.18,1.52c-.38.43-.83.91-1.34,1.41s-1.06,1-1.63,1.5-1.16,1-1.73,1.38-1.11.8-1.59,1.11A13.73,13.73,0,0,1,459.13,448.7Z" transform="translate(24.04 13)"/><path class="cls-20" d="M462,457.61a14.84,14.84,0,0,1,1.91-.23c.57,0,1.23-.06,1.94-.05s1.46,0,2.21.09,1.5.14,2.2.24,1.36.22,1.92.35a15.52,15.52,0,0,1,1.85.51,14.84,14.84,0,0,1-1.91.23c-.57,0-1.23.06-1.94.06s-1.46,0-2.22-.09-1.5-.15-2.2-.25-1.35-.22-1.91-.35A13,13,0,0,1,462,457.61Z" transform="translate(24.04 13)"/><path class="cls-20" d="M457.76,466a14,14,0,0,1,1.51,1.19c.44.37.92.83,1.41,1.33s1,1.06,1.51,1.63,1,1.16,1.38,1.73.8,1.11,1.11,1.6a13.26,13.26,0,0,1,.94,1.67,14,14,0,0,1-1.51-1.19c-.43-.37-.92-.82-1.41-1.33s-1-1.06-1.5-1.63-1-1.16-1.39-1.73-.8-1.11-1.1-1.6A15.38,15.38,0,0,1,457.76,466Z" transform="translate(24.04 13)"/><path class="cls-20" d="M448.85,468.84a14.82,14.82,0,0,1,.23,1.9c0,.57.06,1.24.06,1.95s0,1.46-.09,2.21-.14,1.5-.25,2.2-.21,1.36-.34,1.91a13.71,13.71,0,0,1-.52,1.85,14.49,14.49,0,0,1-.23-1.9c0-.57-.06-1.24,0-1.94s0-1.47.09-2.22.14-1.5.25-2.2.21-1.35.34-1.91A14.84,14.84,0,0,1,448.85,468.84Z" transform="translate(24.04 13)"/><path class="cls-20" d="M440.51,464.58a14.58,14.58,0,0,1-1.18,1.51c-.38.43-.83.92-1.34,1.41s-1.05,1-1.63,1.5-1.16,1-1.73,1.39-1.11.8-1.59,1.11a16.2,16.2,0,0,1-1.67.94,13,13,0,0,1,1.18-1.51c.37-.43.83-.92,1.34-1.41s1.05-1,1.63-1.5,1.16-1,1.73-1.39,1.11-.8,1.59-1.1A15.38,15.38,0,0,1,440.51,464.58Z" transform="translate(24.04 13)"/><path class="cls-20" d="M437.63,455.67a14.84,14.84,0,0,1-1.91.23c-.57,0-1.23.06-1.94.05s-1.46,0-2.21-.08-1.51-.15-2.21-.25-1.35-.22-1.91-.34a14.3,14.3,0,0,1-1.85-.52,14.84,14.84,0,0,1,1.91-.23c.57,0,1.23-.06,1.94,0s1.46,0,2.21.09,1.5.14,2.21.24,1.35.22,1.91.35A15.52,15.52,0,0,1,437.63,455.67Z" transform="translate(24.04 13)"/><path class="cls-20" d="M441.89,447.33a15.25,15.25,0,0,1-1.52-1.18c-.43-.38-.91-.83-1.41-1.34s-1-1.06-1.5-1.63-1-1.16-1.38-1.73-.81-1.11-1.11-1.59a13.73,13.73,0,0,1-.94-1.68,15.28,15.28,0,0,1,1.51,1.19c.43.37.91.83,1.41,1.33s1,1.06,1.5,1.63,1,1.17,1.38,1.73.81,1.12,1.11,1.6A15.38,15.38,0,0,1,441.89,447.33Z" transform="translate(24.04 13)"/><path class="cls-20" d="M455.19,445.65a16.28,16.28,0,0,1,.49-1.86c.17-.55.4-1.17.66-1.83s.57-1.35.9-2,.68-1.35,1-2,.7-1.18,1-1.65a14.59,14.59,0,0,1,1.16-1.54,14.35,14.35,0,0,1-.48,1.86c-.17.55-.4,1.17-.67,1.83s-.56,1.35-.89,2-.68,1.35-1,2-.7,1.18-1,1.65A13.37,13.37,0,0,1,455.19,445.65Z" transform="translate(24.04 13)"/><path class="cls-20" d="M461.39,452.67a13.34,13.34,0,0,1,1.66-1c.51-.27,1.11-.55,1.76-.83s1.35-.55,2.07-.8,1.43-.47,2.11-.65,1.33-.34,1.89-.45a14.89,14.89,0,0,1,1.91-.26,15.06,15.06,0,0,1-1.66,1c-.51.26-1.11.55-1.76.82s-1.35.55-2.07.8-1.43.47-2.11.65-1.33.34-1.89.45A16.34,16.34,0,0,1,461.39,452.67Z" transform="translate(24.04 13)"/><path class="cls-20" d="M460.82,462a13.71,13.71,0,0,1,1.85.49c.55.17,1.17.39,1.83.66s1.35.56,2,.89,1.34.68,2,1,1.18.7,1.65,1a13.73,13.73,0,0,1,1.53,1.16,14,14,0,0,1-1.86-.49c-.54-.17-1.17-.39-1.82-.66s-1.35-.56-2-.89-1.34-.69-2-1-1.18-.7-1.65-1A13.73,13.73,0,0,1,460.82,462Z" transform="translate(24.04 13)"/><path class="cls-20" d="M453.8,468.21a15.06,15.06,0,0,1,1,1.66c.26.51.55,1.11.82,1.76s.56,1.35.81,2.06.46,1.44.65,2.12.34,1.33.44,1.89a14,14,0,0,1,.27,1.9,13.62,13.62,0,0,1-1-1.65c-.27-.51-.55-1.11-.83-1.76s-.55-1.36-.8-2.07-.46-1.43-.65-2.12-.34-1.32-.44-1.89A13.82,13.82,0,0,1,453.8,468.21Z" transform="translate(24.04 13)"/><path class="cls-20" d="M444.45,467.63a14.35,14.35,0,0,1-.48,1.86c-.17.55-.4,1.17-.66,1.83s-.57,1.35-.9,2-.68,1.34-1,2-.7,1.18-1,1.65a15.4,15.4,0,0,1-1.16,1.53,14.83,14.83,0,0,1,.48-1.86c.17-.54.4-1.17.66-1.82s.57-1.35.9-2,.68-1.35,1-2,.7-1.18,1-1.65A15.55,15.55,0,0,1,444.45,467.63Z" transform="translate(24.04 13)"/><path class="cls-20" d="M438.25,460.62a15.43,15.43,0,0,1-1.65,1c-.51.26-1.11.54-1.76.82s-1.36.56-2.07.8-1.43.47-2.12.66-1.32.34-1.89.44a14,14,0,0,1-1.9.27,14.07,14.07,0,0,1,1.66-1c.5-.26,1.1-.54,1.76-.82s1.35-.55,2.06-.8,1.44-.47,2.12-.65,1.33-.34,1.89-.45A14.88,14.88,0,0,1,438.25,460.62Z" transform="translate(24.04 13)"/><path class="cls-20" d="M438.83,451.27a14,14,0,0,1-1.86-.49c-.54-.17-1.17-.39-1.82-.66s-1.35-.56-2-.89-1.35-.68-2-1a17.79,17.79,0,0,1-1.65-1A15.55,15.55,0,0,1,428,446a14.35,14.35,0,0,1,1.86.48c.55.17,1.17.39,1.83.66s1.35.57,2,.9,1.34.68,2,1,1.18.7,1.65,1A15.4,15.4,0,0,1,438.83,451.27Z" transform="translate(24.04 13)"/><path class="cls-20" d="M445.85,445.07a15.06,15.06,0,0,1-1-1.66c-.27-.5-.55-1.1-.83-1.76s-.55-1.35-.8-2.06-.47-1.43-.65-2.12-.34-1.33-.45-1.89a14.88,14.88,0,0,1-.26-1.9,15.06,15.06,0,0,1,1,1.66c.27.5.55,1.1.82,1.75s.56,1.36.8,2.07.47,1.43.66,2.12.34,1.33.44,1.89A14,14,0,0,1,445.85,445.07Z" transform="translate(24.04 13)"/><path class="cls-20" d="M355.42,442.36a23.12,23.12,0,1,0,21.3,24.8A23.13,23.13,0,0,0,355.42,442.36Zm-2.94,38.69A15.68,15.68,0,1,1,369.3,466.6,15.69,15.69,0,0,1,352.48,481.05Z" transform="translate(24.04 13)"/><path class="cls-21" d="M354.13,459.77a5.65,5.65,0,1,0,5.2,6.07A5.66,5.66,0,0,0,354.13,459.77Z" transform="translate(24.04 13)"/><circle class="cls-6" cx="353.7" cy="465.41" r="2.92" transform="translate(-193.34 353.62) rotate(-40.44)"/><path class="cls-20" d="M353.76,464.62a.81.81,0,0,0-.85.73.79.79,0,0,0,.73.84.78.78,0,0,0,.84-.72A.79.79,0,0,0,353.76,464.62Z" transform="translate(24.04 13)"/><path class="cls-20" d="M354.31,457.4a8.83,8.83,0,0,1-.15-1.26c0-.37,0-.81,0-1.27s0-1,.06-1.46.09-1,.16-1.45.14-.89.23-1.25a9.61,9.61,0,0,1,.34-1.22,11.06,11.06,0,0,1,.15,1.25c0,.38,0,.81,0,1.28s0,1-.06,1.46-.09,1-.16,1.44a12,12,0,0,1-.23,1.26A9.37,9.37,0,0,1,354.31,457.4Z" transform="translate(24.04 13)"/><path class="cls-20" d="M359.79,460.19a9.2,9.2,0,0,1,.78-1c.24-.28.54-.6.88-.93s.69-.66,1.07-1,.76-.64,1.13-.91.73-.53,1.05-.73a8.92,8.92,0,0,1,1.1-.62,9.2,9.2,0,0,1-.78,1c-.24.29-.54.6-.87.93s-.7.66-1.08,1-.76.63-1.13.91-.73.52-1.05.72A8.92,8.92,0,0,1,359.79,460.19Z" transform="translate(24.04 13)"/><path class="cls-20" d="M361.69,466.05a8.54,8.54,0,0,1,1.25-.15c.37,0,.81,0,1.28,0s1,0,1.45.06,1,.09,1.45.16.89.15,1.26.23a9.73,9.73,0,0,1,1.21.34,8.54,8.54,0,0,1-1.25.15c-.38,0-.81,0-1.28,0l-1.45-.06c-.5,0-1-.1-1.45-.17s-.89-.14-1.26-.22A9.73,9.73,0,0,1,361.69,466.05Z" transform="translate(24.04 13)"/><path class="cls-20" d="M358.89,471.53a9.2,9.2,0,0,1,1,.78c.28.25.6.55.93.88s.66.69,1,1.07.63.76.91,1.14.52.73.72,1.05a8.92,8.92,0,0,1,.62,1.1,11.13,11.13,0,0,1-1-.78c-.28-.25-.6-.55-.93-.88s-.66-.7-1-1.07-.63-.77-.91-1.14-.53-.73-.73-1.05A8.92,8.92,0,0,1,358.89,471.53Z" transform="translate(24.04 13)"/><path class="cls-20" d="M353,473.43a8.54,8.54,0,0,1,.15,1.25c0,.38,0,.81,0,1.28s0,1-.06,1.45-.09,1-.16,1.45-.14.89-.23,1.26a9.73,9.73,0,0,1-.34,1.21,10.65,10.65,0,0,1-.15-1.25c0-.37,0-.81,0-1.28s0-1,.06-1.45.09-1,.16-1.45.14-.89.22-1.25A9.61,9.61,0,0,1,353,473.43Z" transform="translate(24.04 13)"/><path class="cls-20" d="M347.55,470.63a9.2,9.2,0,0,1-.78,1c-.25.29-.54.6-.88.93s-.69.67-1.07,1-.76.63-1.13.91-.74.53-1.05.73a10.93,10.93,0,0,1-1.1.62,8.66,8.66,0,0,1,.78-1c.24-.28.54-.6.87-.92s.7-.67,1.07-1,.77-.63,1.14-.91.73-.53,1.05-.73A8.92,8.92,0,0,1,347.55,470.63Z" transform="translate(24.04 13)"/><path class="cls-20" d="M345.65,464.78a10.65,10.65,0,0,1-1.25.15c-.38,0-.81,0-1.28,0s-1,0-1.45-.06-1-.09-1.45-.16a12,12,0,0,1-1.26-.23,8.89,8.89,0,0,1-1.21-.33A9.3,9.3,0,0,1,339,464c.38,0,.81,0,1.28,0s1,0,1.45.06,1,.09,1.45.16.89.14,1.26.23A8,8,0,0,1,345.65,464.78Z" transform="translate(24.04 13)"/><path class="cls-20" d="M348.45,459.29a9.2,9.2,0,0,1-1-.78c-.29-.24-.6-.54-.93-.87s-.66-.7-1-1.07-.63-.77-.91-1.14-.52-.73-.72-1.05a8.92,8.92,0,0,1-.62-1.1,9.2,9.2,0,0,1,1,.78c.28.24.6.54.93.88s.66.69,1,1.07.63.76.91,1.14.53.73.73,1A8.92,8.92,0,0,1,348.45,459.29Z" transform="translate(24.04 13)"/><path class="cls-20" d="M357.2,458.19a10.08,10.08,0,0,1,.32-1.22c.11-.36.26-.77.43-1.2s.38-.89.59-1.34.45-.88.68-1.29.46-.77.67-1.08a9.86,9.86,0,0,1,.76-1,8.84,8.84,0,0,1-.31,1.22c-.12.36-.26.77-.44,1.2s-.37.89-.59,1.34-.45.88-.68,1.28-.46.78-.67,1.09A11.51,11.51,0,0,1,357.2,458.19Z" transform="translate(24.04 13)"/><path class="cls-20" d="M361.28,462.8a9.62,9.62,0,0,1,1.08-.64c.34-.17.73-.36,1.16-.54s.89-.36,1.36-.53.94-.31,1.39-.43.87-.22,1.24-.29a8.68,8.68,0,0,1,1.25-.17,9.29,9.29,0,0,1-1.09.64c-.33.17-.72.36-1.15.54s-.89.36-1.36.52-.94.31-1.39.43-.88.22-1.24.29A9.9,9.9,0,0,1,361.28,462.8Z" transform="translate(24.04 13)"/><path class="cls-20" d="M360.9,468.94a10.65,10.65,0,0,1,1.22.32c.36.11.77.26,1.2.44s.88.37,1.33.58.88.45,1.29.68.77.46,1.08.68a8.36,8.36,0,0,1,1,.76,10.08,10.08,0,0,1-1.22-.32c-.36-.11-.77-.26-1.2-.44s-.89-.37-1.33-.58-.89-.45-1.29-.69-.78-.46-1.09-.67A8.69,8.69,0,0,1,360.9,468.94Z" transform="translate(24.04 13)"/><path class="cls-20" d="M356.28,473a9.29,9.29,0,0,1,.64,1.09,12.63,12.63,0,0,1,.54,1.15c.19.43.37.89.53,1.36s.31.94.43,1.39.22.88.29,1.25a9.64,9.64,0,0,1,.18,1.25,9.29,9.29,0,0,1-.64-1.09c-.18-.34-.36-.73-.54-1.16s-.37-.89-.53-1.36-.31-.94-.43-1.39-.22-.87-.29-1.24A9.9,9.9,0,0,1,356.28,473Z" transform="translate(24.04 13)"/><path class="cls-20" d="M350.14,472.64a10.08,10.08,0,0,1-.32,1.22c-.11.36-.26.77-.43,1.2s-.38.89-.59,1.33-.45.89-.68,1.29-.46.78-.67,1.09a10.34,10.34,0,0,1-.76,1,9.25,9.25,0,0,1,.31-1.22c.12-.36.26-.77.44-1.2s.37-.88.59-1.33.45-.88.68-1.29.46-.77.67-1.08A8.36,8.36,0,0,1,350.14,472.64Z" transform="translate(24.04 13)"/><path class="cls-20" d="M346.06,468a10.35,10.35,0,0,1-1.09.63,12.63,12.63,0,0,1-1.15.54c-.43.19-.89.37-1.36.53s-.94.31-1.39.43-.87.22-1.24.29a9.9,9.9,0,0,1-1.25.18,9.62,9.62,0,0,1,1.08-.64c.34-.17.73-.36,1.16-.54s.89-.37,1.36-.53.94-.3,1.39-.43.87-.22,1.24-.29A8.68,8.68,0,0,1,346.06,468Z" transform="translate(24.04 13)"/><path class="cls-20" d="M346.44,461.88a8.56,8.56,0,0,1-1.22-.32c-.36-.11-.77-.26-1.2-.43s-.88-.37-1.33-.59-.88-.45-1.29-.68-.77-.46-1.08-.67a9.86,9.86,0,0,1-1-.76,8.19,8.19,0,0,1,1.22.32c.36.11.77.26,1.2.43s.89.37,1.33.59.89.45,1.29.68.78.46,1.09.67A10.34,10.34,0,0,1,346.44,461.88Z" transform="translate(24.04 13)"/><path class="cls-20" d="M351.06,457.81a9.29,9.29,0,0,1-.64-1.09c-.18-.34-.36-.73-.54-1.16s-.37-.89-.53-1.36-.31-.94-.43-1.39-.22-.87-.29-1.24a9.9,9.9,0,0,1-.18-1.25,9.29,9.29,0,0,1,.64,1.09c.18.33.36.73.54,1.15s.37.89.53,1.36.31.94.43,1.39.22.88.29,1.25A9.64,9.64,0,0,1,351.06,457.81Z" transform="translate(24.04 13)"/><path class="cls-23" d="M440.54,424.86c11.91-2,32-1.77,41.59,19.52,0,0,2.45,4.44,6.58,1.65s.81-8.48-.08-9.76-9-19.62-33.52-21.49c-20.8-1.57-35,6.72-41.56,18.49-2.57,4.64,4.92,8.6,7.81,4.22l.13-.2A28.67,28.67,0,0,1,440.54,424.86Z" transform="translate(24.04 13)"/><path class="cls-25" d="M461.14,360.72a8.7,8.7,0,0,0-3,7.7c.37,5.31-2.36,10.05-6.28,13.31s-6.43,3.5-9.32,7.83l3.76,2.78a12.86,12.86,0,0,1,6.11-4.58c4.27-1.62,10.35-9.88,10.16-14.07a19.72,19.72,0,0,1,2.88-10.91C467.13,360,461.14,360.72,461.14,360.72Z" transform="translate(24.04 13)"/><path class="cls-27" d="M443.59,383.4s-8.89,13.34-11.82,17.83,3.82,10.68,7.62,5.64,9.42-14.08,11.31-16.71S447,382.21,443.59,383.4Z" transform="translate(24.04 13)"/><path class="cls-27" d="M465.86,366.3s7.38-12.2,9.8-16.31-3.78-9.36-7-4.74-7.82,12.88-9.4,15.3S462.88,367.48,465.86,366.3Z" transform="translate(24.04 13)"/><path class="cls-25" d="M460.54,379.4l-2.88,38a4.35,4.35,0,0,1-4.48,4.19h0a4.36,4.36,0,0,1-3.78-5l4-33.23Z" transform="translate(24.04 13)"/><path class="cls-15" d="M374.9,442.55l-5.55-28,11,.84,5.83,22.89S380.31,446.46,374.9,442.55Z" transform="translate(24.04 13)"/><path class="cls-28" d="M357.74,404.72c-5.57,3.12-4.45,9.26-2.51,12.24s5.83,4.9,15.87,3.51,27,2.72,25.83-2-7.07-8.24-14.8-7.74-17.24-5.95-19.15-6.82S359.45,403.77,357.74,404.72Z" transform="translate(24.04 13)"/><path class="cls-18" d="M455.45,358.38a8.33,8.33,0,0,0,4.36,1.37c2.26-.09,1.89-2.87,6.14-.58s1.51,4.47,1.33,4.77,1.09,2.53,3.37.26,6.19-7.35,6-10.51-6.86-8.92-9.69-8.35-5.74,3.24-9.49,2.17S453.64,357.47,455.45,358.38Z" transform="translate(24.04 13)"/><path class="cls-29" d="M416.76,333.52c-5.49,2.13-8.81,13.07-1,17.87s11.22,4.52,17.37,6.09S453.43,360,456,360.11s4.54-10.93,2.36-13.85-26.06-7.87-30.05-8.79S421.73,331.58,416.76,333.52Z" transform="translate(24.04 13)"/><path class="cls-30" d="M356.94,392.34s-1.89,17.41,14.2,23.35,31.49,1.44,42.07-16.05Z" transform="translate(24.04 13)"/><path class="cls-31" d="M396,332s-30.67,16-40.25,54.73c0,0-4.22,10.45,24.17,16.71s37.32-5.38,37.82-12,6.82-51.21,2.66-58.42C416.45,326.12,399.33,328.6,396,332Z" transform="translate(24.04 13)"/><path class="cls-29" d="M421.79,341.38c-.11-3.9-.53-6.9-1.37-8.36-4-6.9-21.09-4.42-24.4-1,0,0-.93.49-2.53,1.5,1.62,4.1,8,17.7,20,14.7C418.38,347,420.76,344.33,421.79,341.38Z" transform="translate(24.04 13)"/><path class="cls-32" d="M396,332s4.59,14.9,15.33,13.77c12.91-1.35,7.81-14.3,7.81-14.3Z" transform="translate(24.04 13)"/><path class="cls-18" d="M437.35,382.66s1.4,1.7,5.56,1.77,7.69,6.12,6.83,9.33-5.33,8.39-6.48,9.75-2.41-.05-1.64-2.09a4.81,4.81,0,0,0-1.86-5.47c-1.51-.83-3.13-.71-4.92.61s-1.56-3.36-3.9-5.39S435.39,382.33,437.35,382.66Z" transform="translate(24.04 13)"/><path class="cls-20" d="M460.87,264.7s-1-26.24-32.95-37.42C398.85,217.11,370.48,234.65,371,245c0,0-21,6.46-22.69,32.22-2.39,35.51,16.52,46.53,37.39,51.55C406.15,333.72,460.87,264.7,460.87,264.7Z" transform="translate(24.04 13)"/><path class="cls-18" d="M393.74,241.5c-30.53,10.74-29.92,51.26-29.92,51.26s-10-3.9-10.24,8,11.45,10,11.45,10,11.71,27.83,58.75,21.95,41.39-54.25,32.09-71.4C448,246.67,429.73,228.83,393.74,241.5Z" transform="translate(24.04 13)"/><path class="cls-20" d="M388.58,263s17.11,15.82,51.7,13.2c0,0-.35-8.08-6.11-12.71,0,0,15,13.73,31.06,14.25,0,0-6.37-34.78-37.58-42.74s-57,14.22-61.13,30.71a121.78,121.78,0,0,0-3.35,31.93S385.18,290.88,388.58,263Z" transform="translate(24.04 13)"/><path class="cls-20" d="M414.8,294.17c0,3.71-2.35,6.73-5.3,6.75s-5.36-3-5.38-6.68,2.34-6.73,5.29-6.75S414.77,290.46,414.8,294.17Z" transform="translate(24.04 13)"/><path class="cls-20" d="M451.57,290.23c0,3.71-2.34,6.73-5.29,6.75s-5.36-3-5.39-6.68,2.35-6.73,5.3-6.75S451.55,286.52,451.57,290.23Z" transform="translate(24.04 13)"/><path class="cls-6" d="M413.37,292.51c-.09,1.09-.74,1.94-1.46,1.88s-1.24-1-1.15-2.08.73-1.93,1.45-1.88S413.45,291.42,413.37,292.51Z" transform="translate(24.04 13)"/><path class="cls-6" d="M449.88,288.55c-.08,1.1-.73,1.94-1.45,1.88s-1.24-1-1.16-2.08.74-1.93,1.46-1.88S450,287.46,449.88,288.55Z" transform="translate(24.04 13)"/><path class="cls-33" d="M427.77,298a4.6,4.6,0,0,0,.79.55,5.41,5.41,0,0,0,2.17.65,7,7,0,0,0,1.44,0,9,9,0,0,0,1.58-.34l.21-.05.05,0,.14,0,.12,0,.24-.06a3.63,3.63,0,0,1,.39,0,3.92,3.92,0,0,1,1.56.19,3.85,3.85,0,0,1,1.4.84,4.42,4.42,0,0,1,.92,1.29,5,5,0,0,1-.81,5.27,5,5,0,0,1-2,1.37,5.33,5.33,0,0,1-2,.34,6.05,6.05,0,0,1-1.57-.2,7.18,7.18,0,0,1-1.11-.37c-.29-.12-.51-.26-.66-.33l-.23-.13s.37-.06,1-.13c.3,0,.66-.1,1.06-.19a9.69,9.69,0,0,0,1.26-.36,4.07,4.07,0,0,0,2.11-1.62,2.67,2.67,0,0,0,.19-2.4,1.27,1.27,0,0,0-.59-.65,1.79,1.79,0,0,0-.42-.12s0,0-.11,0l-.25,0h-.17l-.28,0a8.41,8.41,0,0,1-2.13,0,6.29,6.29,0,0,1-1.87-.56,4.73,4.73,0,0,1-2.09-1.89A2.76,2.76,0,0,1,427.77,298Z" transform="translate(24.04 13)"/><path class="cls-33" d="M432.5,312.79c-7.09,1.32-14.11-.81-14.76,3.36s5.73,10,14.4,8.67,12.26-7.36,13.18-11.65S438.55,311.66,432.5,312.79Z" transform="translate(24.04 13)"/><path class="cls-6" d="M442.18,310.88c-2.61.19-6.38,1.29-9.68,1.91-7.09,1.32-14.11-.81-14.76,3.36a4.53,4.53,0,0,0,.24,2.19,10.24,10.24,0,0,0,1.62.43c6.47,1.19,19.41-2.2,21.46-2.66C442.59,315.77,442.38,312.51,442.18,310.88Z" transform="translate(24.04 13)"/><path class="cls-34" d="M414.21,307.59c.17,2.24-2.94,4.3-6.94,4.59s-7.38-1.3-7.54-3.54,2.95-4.3,6.95-4.59S414.05,305.34,414.21,307.59Z" transform="translate(24.04 13)"/><path class="cls-34" d="M459.34,301.24c.16,2.17-2.84,4.15-6.7,4.43s-7.12-1.25-7.28-3.41,2.85-4.15,6.71-4.43S459.19,299.08,459.34,301.24Z" transform="translate(24.04 13)"/><path class="cls-35" d="M412.32,282s-5.05-4.93-8.68,1.44" transform="translate(24.04 13)"/><path class="cls-35" d="M440.75,279.74s3.3-6.62,8.52-.45" transform="translate(24.04 13)"/><path class="cls-29" d="M395.56,349.78c-6.47.45-12.81,10.06-5.57,17s15,14.92,21.22,18.25a184.26,184.26,0,0,0,20,8.67c2.73.9,7.47-9.67,5.85-13.13s-18.21-14.78-22.29-16.85S401.41,349.37,395.56,349.78Z" transform="translate(24.04 13)"/><path class="cls-18" d="M407.9,418s8,7.15,9.61,9.5,5.28,8.22,5.28,8.22l-7.92,6.17a126,126,0,0,0-13-15.66Z" transform="translate(24.04 13)"/><polygon class="cls-30" points="404.12 427.85 426.16 443.05 434.76 432.16 422.73 419.88 404.12 427.85"/><path class="cls-31" d="M427.53,440s.67,1,5.52.57,7.12-1,9.62,3.1c0,0,.17,3.37-8.27,7.43s-6.67,5.43-11.61,6.5-6.27-11.05-6.27-11.05Z" transform="translate(24.04 13)"/><path class="cls-36" d="M414,440.06a12,12,0,0,0,5.36-2.21c2.21-1.82,2.05-4.31,3.16-4s5.36,5,5,6.11a11,11,0,0,1-3.39,5,10,10,0,0,1-5.91,2.33C415.72,447.59,412.81,440.29,414,440.06Z" transform="translate(24.04 13)"/><path class="cls-37" d="M447.71,461a3.83,3.83,0,0,1-1.24-.33c-1.91-.86-10.8-6.32-11.8-6.94a1.57,1.57,0,1,1,1.64-2.68c2.69,1.66,10,6.1,11.45,6.76l.11,0a3.36,3.36,0,0,0,.44-1.33,1.57,1.57,0,1,1,3.12.31c-.05.47-.36,2.82-2,3.79A2.87,2.87,0,0,1,447.71,461Z" transform="translate(24.04 13)"/><polygon class="cls-21" points="452.73 470.69 465.38 463.32 463.61 460.76 450.74 468.08 452.73 470.69"/><path class="cls-17" d="M319.2,687.78c-22.71,0-42.92,4-56,10.13a12.71,12.71,0,0,0,3.62-8.38c0-14.71-32-26.64-71.42-26.64-35.73,0-65.33,9.79-70.58,22.57-4.78-1.88-11.54-3.06-19-3.06-14.48,0-26.22,4.38-26.22,9.78S91.29,702,105.77,702c9,0,16.94-1.69,21.66-4.27,9.25,10.71,36.18,18.47,68,18.47,22.71,0,42.93-4,56-10.12a12.62,12.62,0,0,0-3.62,8.37c0,14.71,32,26.64,71.41,26.64s71.42-11.93,71.42-26.64S358.65,687.78,319.2,687.78Z" transform="translate(24.04 13)"/><path class="cls-32" d="M174.09,599.55c3.37,2.62,21.23-7.3,23.11-6.71,1.58.5,11.77,7.64,16,10.57,1.22.79.69,3.63,2.37,5.65s4.71,4.9,6.91,3.78,5.84-3.39,6.77-6.36-2.57-6.63-5.38-8.55-4.12-1.71-5-2.57a.2.2,0,0,0-.15-.05c-4-4.08-12.49-11.1-17.61-12.23-6.73-1.47-16.75.31-23.12,3S168,594.84,174.09,599.55Z" transform="translate(24.04 13)"/><path class="cls-32" d="M212.49,666.91s9.3,3.72,10.16,4.11,6.65.21,7-.28.57-7.58,0-8.5-5.57-.65-6.54-1.36-8.41-4-8.41-4S211.18,664.14,212.49,666.91Z" transform="translate(24.04 13)"/><path class="cls-38" d="M196.72,662s15.48,5.83,15.93,6.55,4.13-12.37,3-13.54-20.24-12.42-20.24-12.42Z" transform="translate(24.04 13)"/><path class="cls-39" d="M236.58,671.9s1.23-.08,3.76,4.08,3.44,6.32,8.26,5.84c0,0,2.8-1.89,1-11.08s.35-8.59-1.76-13.19-12.6,1.62-12.6,1.62Z" transform="translate(24.04 13)"/><path class="cls-36" d="M228.5,661a12,12,0,0,1,1.45,5.61c-.13,2.86-2.23,4.22-1.28,4.91s7.2,1.29,7.9.34a11,11,0,0,0,2-5.71,10,10,0,0,0-1.67-6.13C235.57,657.9,228,660,228.5,661Z" transform="translate(24.04 13)"/><path class="cls-32" d="M162.62,668.67s-6.72,7.43-7.38,8.1-2.5,6.17-2.17,6.67,6.91,3.16,8,3,2.55-5,3.55-5.67,6.68-6.5,6.68-6.5S165.67,668.4,162.62,668.67Z" transform="translate(24.04 13)"/><path class="cls-40" d="M162.62,647.14a19.71,19.71,0,0,0,16.45,16.3c14.83,2.66,33.1-4.43,34.55-22Z" transform="translate(24.04 13)"/><path class="cls-39" d="M192.36,581.82s22.54,30.28,22.21,58.28c0,0-4.67,9-22,10.67-22.93,2.21-31.67-4.67-31.67-4.67a194.18,194.18,0,0,1,3.83-61.8C172.34,551,192.36,581.82,192.36,581.82Z" transform="translate(24.04 13)"/><path class="cls-32" d="M189.36,581.82s-3.69,15.14-14.47,14.67c-13-.58-8.66-13.82-8.66-13.82Z" transform="translate(24.04 13)"/><path class="cls-41" d="M117.34,523.36s-8.36-8.79-2.53-27.48c0,0,5.38,6.47,16.48-6.24s57.27-20,62.5-3.48c0,0,19-6,28.42,25.11s2.36,45.67-5.88,51S117.34,523.36,117.34,523.36Z" transform="translate(24.04 13)"/><path class="cls-18" d="M176.89,492c32.15,3.77,40.47,43.43,40.47,43.43s8.88-6,11.75,5.52-9,12.24-9,12.24-5.3,29.73-52.48,34.35-52.31-43.81-47-62.59C125.14,509,139,487.56,176.89,492Z" transform="translate(24.04 13)"/><path class="cls-20" d="M168,548c.79,3.62,3.77,6,6.65,5.42s4.57-4.07,3.78-7.7-3.77-6.05-6.65-5.42S167.16,544.38,168,548Z" transform="translate(24.04 13)"/><path class="cls-20" d="M131.21,552.26c.79,3.63,3.76,6,6.65,5.43s4.57-4.08,3.78-7.71-3.77-6.05-6.65-5.42S130.42,548.64,131.21,552.26Z" transform="translate(24.04 13)"/><path class="cls-6" d="M169.82,549.48c.32,1,1.14,1.72,1.83,1.51s1-1.23.67-2.28-1.14-1.73-1.83-1.51S169.5,548.43,169.82,549.48Z" transform="translate(24.04 13)"/><path class="cls-6" d="M133,553.6c.33,1,1.15,1.73,1.84,1.52s1-1.24.67-2.28-1.15-1.73-1.84-1.52S132.71,552.56,133,553.6Z" transform="translate(24.04 13)"/><path class="cls-33" d="M156.14,554.65a2.68,2.68,0,0,1-.23,1,4.71,4.71,0,0,1-1.68,2.1,5.82,5.82,0,0,1-1.65.84,7.65,7.65,0,0,1-2,.42l-.26,0h-.08l-.12,0a1.38,1.38,0,0,0-.4.07,2.94,2.94,0,0,0-.57.27,1.72,1.72,0,0,0-.66,1.07,2.76,2.76,0,0,0,.12,1.47,3.06,3.06,0,0,0,.8,1.28,4.28,4.28,0,0,0,2.73,1.06,9.58,9.58,0,0,0,1.33,0c.41,0,.77-.1,1.07-.15l.94-.18-.2.15c-.14.09-.33.25-.6.41a7.41,7.41,0,0,1-1,.51,5.79,5.79,0,0,1-1.45.43,4.92,4.92,0,0,1-1.88,0,4.51,4.51,0,0,1-2-.87,4.56,4.56,0,0,1-1.75-4.52,4.19,4.19,0,0,1,.53-1.28,3.63,3.63,0,0,1,1-1,3.55,3.55,0,0,1,1.31-.47,3.42,3.42,0,0,1,.58,0h.52a10.36,10.36,0,0,0,1.7-.1,6.83,6.83,0,0,0,1.45-.39,5.3,5.3,0,0,0,1.91-1.32A3.5,3.5,0,0,0,156.14,554.65Z" transform="translate(24.04 13)"/><path class="cls-33" d="M154.78,570.07c7.2-.27,13.59-3.89,15.14,0s-3.39,11-12.15,11.63-13.58-4.48-15.41-8.47S148.62,570.3,154.78,570.07Z" transform="translate(24.04 13)"/><path class="cls-6" d="M144.91,570.34c2.59-.39,6.52-.14,9.87-.27,7.2-.27,13.59-3.89,15.14,0a4.66,4.66,0,0,1,.24,2.19,10.16,10.16,0,0,1-1.48.77c-6.05,2.59-19.42,2.13-21.52,2.13C145.59,575.2,145.08,572,144.91,570.34Z" transform="translate(24.04 13)"/><path class="cls-34" d="M171.47,561c.34,2.23,3.82,3.55,7.79,2.95s6.91-2.89,6.57-5.11-3.82-3.55-7.79-2.95S171.14,558.74,171.47,561Z" transform="translate(24.04 13)"/><path class="cls-34" d="M126.05,564.72c.33,2.14,3.69,3.42,7.52,2.84s6.67-2.78,6.34-4.93-3.69-3.42-7.51-2.85S125.73,562.57,126.05,564.72Z" transform="translate(24.04 13)"/><path class="cls-35" d="M167.68,535.57s3.84-5.92,8.79-.51" transform="translate(24.04 13)"/><path class="cls-35" d="M139.45,539.65s-4.67-5.73-8.41,1.44" transform="translate(24.04 13)"/><path class="cls-41" d="M116.18,535.17s42.91-.92,58.58-18.18c0,0,26.05,27.57,42,24.64,0,0,5.14-15.11-14.74-42.26S114.77,487.78,116.18,535.17Z" transform="translate(24.04 13)"/><path class="cls-40" d="M172.74,655.6s-10.84,12.5-11.67,12.67,10.17,8.17,11.67,7.5S191.4,661.1,191.4,661.1Z" transform="translate(24.04 13)"/><path class="cls-39" d="M149.58,689.53s-.36,1.19-5.14,2.12-7.11,1-8.34,5.71c0,0,.8,3.29,10.05,4.77s7.94,3.31,13,2.92S162,692.68,162,692.68Z" transform="translate(24.04 13)"/><path class="cls-36" d="M162.58,685.73a11.94,11.94,0,0,1-5.77-.59c-2.63-1.11-3.19-3.55-4.16-2.9s-3.71,6.3-3.06,7.28a11,11,0,0,0,4.67,3.82,10,10,0,0,0,6.33.56C163.06,693.45,163.77,685.62,162.58,685.73Z" transform="translate(24.04 13)"/><path class="cls-32" d="M189.39,593.61c-4.13-1.11-16.75,15-18.71,15.14-1.65.15-13.81-2.48-18.87-3.53-1.43-.26-2.05-3.07-4.37-4.28s-6.25-2.7-7.84-.81-4.07,5.39-3.78,8.48,4.94,5.12,8.28,5.8,4.46,0,5.63.42a.22.22,0,0,0,.16,0c5.27,2.2,15.81,5.39,21,4.44,6.77-1.25,15.32-6.77,20.13-11.76S196.81,595.6,189.39,593.61Z" transform="translate(24.04 13)"/><circle class="cls-36" cx="129.82" cy="684.23" r="19.85"/><path class="cls-1" d="M116.42,686.67a3.46,3.46,0,0,1,.85-3.34l2-2.06a3.46,3.46,0,0,1,3.33-.93l.72.18a19.76,19.76,0,0,0,2.31-9.29c0-.66,0-1.31-.1-2a3.43,3.43,0,0,1-.88,1.6l-2,2a3.44,3.44,0,0,1-3.32.94l-2.78-.71a3.46,3.46,0,0,1-2.47-2.41l-.78-2.76a3.45,3.45,0,0,1,.86-3.34l2-2.06a3.44,3.44,0,0,1,3.32-.93l2.78.7a3.5,3.5,0,0,1,1.82,1.17,19.93,19.93,0,0,0-8.88-9.77l-.8.81a3.44,3.44,0,0,1-3.32.94l-2.78-.71a3.46,3.46,0,0,1-2.47-2.41l-.28-1a19.86,19.86,0,0,0-19.62,19.84c0,.17,0,.33,0,.5l1.68.43a3.46,3.46,0,0,1,2.47,2.4l.77,2.77a3.43,3.43,0,0,1-.85,3.34L89,681.76a19.81,19.81,0,0,0,27.77,6ZM94.2,668.06l-.78-2.76a3.45,3.45,0,0,1,.85-3.34l2-2.06A3.43,3.43,0,0,1,99.6,659l2.78.7a3.47,3.47,0,0,1,2.47,2.41l.78,2.77a3.46,3.46,0,0,1-.85,3.34l-2,2a3.44,3.44,0,0,1-3.32.94l-2.78-.71A3.44,3.44,0,0,1,94.2,668.06ZM109.53,686l-2,2a3.43,3.43,0,0,1-3.32.93l-2.78-.7A3.47,3.47,0,0,1,99,685.87l-.78-2.77a3.46,3.46,0,0,1,.85-3.34l2-2a3.44,3.44,0,0,1,3.32-.94l2.78.71a3.44,3.44,0,0,1,2.47,2.41l.78,2.76A3.47,3.47,0,0,1,109.53,686Z" transform="translate(24.04 13)"/><path class="cls-42" d="M102.77,670.24l2-2a3.46,3.46,0,0,0,.85-3.34l-.78-2.77a3.47,3.47,0,0,0-2.47-2.41L99.6,659a3.43,3.43,0,0,0-3.32.93l-2,2.06a3.45,3.45,0,0,0-.85,3.34l.78,2.76a3.44,3.44,0,0,0,2.47,2.41l2.78.71A3.44,3.44,0,0,0,102.77,670.24Z" transform="translate(24.04 13)"/><path class="cls-42" d="M109.6,679.89a3.44,3.44,0,0,0-2.47-2.41l-2.78-.71a3.44,3.44,0,0,0-3.32.94l-2,2a3.46,3.46,0,0,0-.85,3.34l.78,2.77a3.47,3.47,0,0,0,2.47,2.41l2.78.7a3.43,3.43,0,0,0,3.32-.93l2-2a3.47,3.47,0,0,0,.85-3.35Z" transform="translate(24.04 13)"/><path class="cls-42" d="M122.25,662.35l-2.78-.7a3.44,3.44,0,0,0-3.32.93l-2,2.06a3.45,3.45,0,0,0-.86,3.34l.78,2.76a3.46,3.46,0,0,0,2.47,2.41l2.78.71a3.44,3.44,0,0,0,3.32-.94l2-2a3.43,3.43,0,0,0,.88-1.6,19.76,19.76,0,0,0-1.46-5.75A3.5,3.5,0,0,0,122.25,662.35Z" transform="translate(24.04 13)"/><path class="cls-42" d="M119.27,681.27l-2,2.06a3.46,3.46,0,0,0-.85,3.34l.31,1.11a19.83,19.83,0,0,0,6.59-7.26l-.72-.18A3.46,3.46,0,0,0,119.27,681.27Z" transform="translate(24.04 13)"/><path class="cls-42" d="M108.29,654.79l2.78.71a3.44,3.44,0,0,0,3.32-.94l.8-.81a19.82,19.82,0,0,0-9.42-2.37h-.23l.28,1A3.46,3.46,0,0,0,108.29,654.79Z" transform="translate(24.04 13)"/><path class="cls-42" d="M90.87,677.33l-.77-2.77a3.46,3.46,0,0,0-2.47-2.4L86,671.73a19.74,19.74,0,0,0,3,10L90,680.67A3.43,3.43,0,0,0,90.87,677.33Z" transform="translate(24.04 13)"/><path class="cls-32" d="M294.38,615.05c-4.24-.59-14.79,16.91-16.71,17.32-1.63.35-14-.77-19.17-1.19-1.45-.08-2.41-2.8-4.86-3.72s-6.53-1.91-7.88.16-3.38,5.85-2.71,8.89,5.53,4.47,8.92,4.73,4.43-.56,5.64-.27a.22.22,0,0,0,.16,0c5.5,1.54,16.35,3.42,21.36,1.84,6.56-2.06,14.37-8.59,18.54-14.13S302,616.12,294.38,615.05Z" transform="translate(24.04 13)"/><path class="cls-32" d="M334.25,690.21s9.3,3.72,10.16,4.12,6.65.2,7-.28.58-7.58.06-8.51-5.58-.65-6.55-1.35-8.41-4-8.41-4S332.94,687.45,334.25,690.21Z" transform="translate(24.04 13)"/><path class="cls-28" d="M318.48,685.26s15.49,5.82,15.93,6.55,4.13-12.37,3-13.55-20.23-12.42-20.23-12.42Z" transform="translate(24.04 13)"/><path class="cls-43" d="M358.34,695.21s1.23-.08,3.77,4.08,3.43,6.31,8.25,5.84c0,0,2.8-1.89,1-11.08s.34-8.59-1.77-13.19-12.6,1.61-12.6,1.61Z" transform="translate(24.04 13)"/><path class="cls-36" d="M350.27,684.33a12.06,12.06,0,0,1,1.44,5.61c-.13,2.86-2.22,4.23-1.28,4.92s7.2,1.29,7.9.34a11.07,11.07,0,0,0,2-5.71,10,10,0,0,0-1.67-6.13C357.34,681.2,349.75,683.25,350.27,684.33Z" transform="translate(24.04 13)"/><path class="cls-32" d="M284.38,692s-6.72,7.43-7.38,8.1-2.5,6.16-2.17,6.66,6.91,3.17,8,3,2.54-5,3.54-5.66,6.69-6.5,6.69-6.5S287.43,691.71,284.38,692Z" transform="translate(24.04 13)"/><path class="cls-28" d="M284.38,670.44a19.7,19.7,0,0,0,16.45,16.3c14.83,2.67,33.1-4.42,34.55-22Z" transform="translate(24.04 13)"/><path class="cls-43" d="M314.12,605.12s22.54,30.29,22.21,58.29c0,0-4.67,9-22,10.67-22.93,2.2-31.67-4.67-31.67-4.67a194,194,0,0,1,3.84-61.8C294.11,574.32,314.12,605.12,314.12,605.12Z" transform="translate(24.04 13)"/><path class="cls-21" d="M311.12,611.14a64,64,0,0,0,2.48-6.77l-.18-.27-6.9-2.78-20.78,9.77v.06c-.13.8-1.2,9.11,8.79,10.42C305,623,309.33,615.33,311.12,611.14Z" transform="translate(24.04 13)"/><path class="cls-32" d="M311.12,605.12s-3.69,15.15-14.47,14.67C283.68,619.22,288,606,288,606Z" transform="translate(24.04 13)"/><path class="cls-18" d="M298.66,515.3c32.14,3.76,40.46,43.42,40.46,43.42s8.89-6,11.75,5.52-9,12.25-9,12.25-5.29,29.72-52.48,34.34-52.31-43.8-47-62.58C246.91,532.28,260.76,510.86,298.66,515.3Z" transform="translate(24.04 13)"/><path class="cls-33" d="M277.9,578a2.71,2.71,0,0,1-.23,1A4.64,4.64,0,0,1,276,581a6.09,6.09,0,0,1-1.65.84,7.64,7.64,0,0,1-2,.41l-.26,0h-.2a1.31,1.31,0,0,0-.4.08,2.18,2.18,0,0,0-.56.26,1.73,1.73,0,0,0-.66,1.08,2.75,2.75,0,0,0,.11,1.47,3.13,3.13,0,0,0,.8,1.27,4.32,4.32,0,0,0,2.73,1.06,8.25,8.25,0,0,0,1.33,0c.41,0,.77-.1,1.07-.14l.95-.18-.21.14a7.24,7.24,0,0,1-.6.41,6.42,6.42,0,0,1-1,.51,6.22,6.22,0,0,1-1.45.44,5.35,5.35,0,0,1-1.88,0,4.6,4.6,0,0,1-3.79-5.39,3.94,3.94,0,0,1,.54-1.29,3.44,3.44,0,0,1,1-1,3.38,3.38,0,0,1,1.31-.47,2.75,2.75,0,0,1,.58-.05h.52a10.3,10.3,0,0,0,1.7-.1,6.67,6.67,0,0,0,1.45-.4,5.22,5.22,0,0,0,1.92-1.31A3.81,3.81,0,0,0,277.9,578Z" transform="translate(24.04 13)"/><path class="cls-33" d="M276.54,593.38c7.21-.27,13.59-3.9,15.14,0s-3.39,11-12.14,11.63-13.58-4.49-15.42-8.47S270.39,593.61,276.54,593.38Z" transform="translate(24.04 13)"/><path class="cls-6" d="M266.68,593.65c2.58-.39,6.51-.15,9.86-.27,7.21-.27,13.59-3.9,15.14,0a4.49,4.49,0,0,1,.24,2.18,8.85,8.85,0,0,1-1.48.78c-6.05,2.58-19.42,2.12-21.52,2.13C267.36,598.5,266.84,595.28,266.68,593.65Z" transform="translate(24.04 13)"/><path class="cls-34" d="M293.23,584.27c.34,2.23,3.82,3.55,7.79,3s6.91-2.88,6.57-5.11-3.82-3.55-7.78-3S292.9,582.05,293.23,584.27Z" transform="translate(24.04 13)"/><path class="cls-34" d="M247.81,588c.33,2.15,3.69,3.42,7.52,2.85s6.67-2.79,6.34-4.94-3.68-3.42-7.51-2.84S247.49,585.87,247.81,588Z" transform="translate(24.04 13)"/><path class="cls-35" d="M289.44,558.87s3.84-5.92,8.79-.5" transform="translate(24.04 13)"/><path class="cls-35" d="M261.22,563s-4.68-5.73-8.41,1.43" transform="translate(24.04 13)"/><path class="cls-35" d="M254.74,575s3.59-12.22,11.94-1" transform="translate(24.04 13)"/><path class="cls-35" d="M285.77,571.75s2.66-11,12.46-2.44" transform="translate(24.04 13)"/><path class="cls-44" d="M240.85,566.07s5-5.46,6.94-17,8.08-17.28,13.91-13.52,26.23,2.75,36.53-4.75,21-1.41,25.29,8.8,15.6,19.1,15.6,19.1,4.65-24.55-19.68-42.23c-21.32-15.5-60.67-5.53-71.65,11.33C239.92,539.91,238.73,552.85,240.85,566.07Z" transform="translate(24.04 13)"/><path class="cls-28" d="M294.5,678.91s-10.84,12.5-11.67,12.67,10.17,8.16,11.67,7.5,18.66-14.67,18.66-14.67Z" transform="translate(24.04 13)"/><path class="cls-43" d="M271.34,712.83S271,714,266.21,715s-7.12,1-8.35,5.72c0,0,.81,3.28,10.06,4.77s7.93,3.3,13,2.92S283.76,716,283.76,716Z" transform="translate(24.04 13)"/><path class="cls-36" d="M284.34,709a12,12,0,0,1-5.76-.6c-2.64-1.1-3.19-3.55-4.17-2.9s-3.71,6.31-3.06,7.29a11,11,0,0,0,4.68,3.82,10.09,10.09,0,0,0,6.33.56C284.82,716.75,285.53,708.93,284.34,709Z" transform="translate(24.04 13)"/><path class="cls-32" d="M310.18,622.91c2,3.76,22.38,1.81,23.86,3.11,1.25,1.09,7.73,11.71,10.46,16.1.8,1.22-.82,3.6-.09,6.12s2.35,6.38,4.82,6.24,6.71-.77,8.75-3.12.3-7.11-1.51-10-3.09-3.22-3.58-4.37a.22.22,0,0,0-.12-.11c-2-5.33-7-15.17-11.24-18.25-5.57-4-15.47-6.43-22.4-6.47S306.5,616.16,310.18,622.91Z" transform="translate(24.04 13)"/><path class="cls-21" d="M278.94,726.32s-1.25.5-4.15-1.41-10.35-2.42-10.35-2.42c2.07-5.72-.92-7-1-7-3,.65-4.65,1.49-5.62,5.18,0,0,.81,3.28,10.06,4.77s7.93,3.3,13,2.92c2.2-.17,3-2.54,3.26-5.16C280.56,722.52,278.94,726.32,278.94,726.32Z" transform="translate(24.04 13)"/><path class="cls-21" d="M368.31,683.4s.9,1,.11,4.39,1.31,10.55,1.31,10.55c-6.08,0-6.23,3.28-6.23,3.32,1.64,2.58,3,3.85,6.8,3.48,0,0,2.8-1.89,1-11.08s.35-8.59-1.75-13.19c-.92-2-3.43-2-6-1.27C364.18,683.2,368.31,683.4,368.31,683.4Z" transform="translate(24.04 13)"/><path class="cls-45" d="M478.79,604.62s-19.18,39.29-36.63,54-40.6,61.44-40.6,61.44,49.29-6.69,97,2.5,95.56-6.34,123.44-6.26,53.39,8,74.89,5.91,77.22-4.47,88.68-1.55c0,0-20.34-35.07-27.7-54.58s-29.5-49.23-29.65-57-70.87,5.08-90,.08-35.18-6.3-74.08-3.05S478.79,604.62,478.79,604.62Z" transform="translate(24.04 13)"/><path class="cls-46" d="M533.66,605.47a75.34,75.34,0,0,0,6.85,4.84c1.63.79,14.46,4.4,14.46,4.4L553.1,623s-10.48.7-13.57,0-10.88-6.48-10.88-6.48Z" transform="translate(24.04 13)"/><path class="cls-47" d="M530.06,601.28l5.05,2.65s-1.65,11.75-3.49,12.55S530.06,601.28,530.06,601.28Z" transform="translate(24.04 13)"/><path class="cls-18" d="M545.81,654.37s10.06,1.67,12.55,2.73,8.43,3.91,8.43,3.91l-3.22,9a120.1,120.1,0,0,0-18.43-5.93Z" transform="translate(24.04 13)"/><path class="cls-48" d="M572.78,662.06s1.07.49,4.72-2.35,5.18-4.45,9.3-2.41c0,0,1.85,2.63-2.86,10.18s-2.59,7.75-6,11.12-10.65-5.68-10.65-5.68Z" transform="translate(24.04 13)"/><path class="cls-36" d="M561.94,669a11.28,11.28,0,0,0,3.17-4.49c.86-2.59-.55-4.51.52-4.8s6.84,1.28,7.13,2.36a10.36,10.36,0,0,1-.18,5.73,9.6,9.6,0,0,1-3.55,4.89C567.16,674.17,561.12,669.79,561.94,669Z" transform="translate(24.04 13)"/><path class="cls-18" d="M529.82,666.42s9.06,4.68,11.1,6.46,6.81,6.3,6.81,6.3l-5.82,7.56a119.37,119.37,0,0,0-15.71-11.31Z" transform="translate(24.04 13)"/><path class="cls-48" d="M553.11,682s.87.79,5.22-.79,6.3-2.64,9.59.57c0,0,1,3.07-5.85,8.81s-4.85,6.57-9.14,8.73-8.39-8.68-8.39-8.68Z" transform="translate(24.04 13)"/><path class="cls-36" d="M540.66,685.3a11.36,11.36,0,0,0,4.41-3.31c1.6-2.19.86-4.45,2-4.4s6.11,3.32,6.06,4.44a10.49,10.49,0,0,1-1.94,5.4,9.5,9.5,0,0,1-4.88,3.55C544.05,691.82,539.64,685.79,540.66,685.3Z" transform="translate(24.04 13)"/><ellipse class="cls-49" cx="573.13" cy="510.87" rx="12.83" ry="13.18"/><path class="cls-50" d="M567,528c-8.61-26.72-48.73-48.78-83.81-21.85,0,0-19.08,4.57-20.76,31s14.52,52.23,33.8,52.25c15.85,0,41.9-15.19,57.66-8.79l2-31.1,6.56,38.64S577.54,560.88,567,528Z" transform="translate(24.04 13)"/><path class="cls-47" d="M533.66,645.86s24.24,5.39,25.51,9.5-5.52,16.48-13.69,14.58-11.23,5.7-16.83,8.23-16,10.14-22.85,4.75-13.47-1.58-19.81,0-31.36-8.55-21.22-14.57a42.08,42.08,0,0,0,14.89-15.52Z" transform="translate(24.04 13)"/><path class="cls-48" d="M502.82,591.07s-25.24,21-26.31,59c0,0-1.81,10.56,25.82,10.63S535.9,648.12,535,641.9s-4-48.94-9.34-54.79C520.6,581.5,505.21,587.26,502.82,591.07Z" transform="translate(24.04 13)"/><path class="cls-6" d="M528.65,594.59c-.89-3.6-1.88-6.3-3-7.48-5.09-5.61-20.48.15-22.87,4,0,0-.77.65-2,1.91,2.33,3.48,11,14.82,21.56,9.6C526.61,600.48,528.29,597.54,528.65,594.59Z" transform="translate(24.04 13)"/><path class="cls-32" d="M502.82,591.07s7.28,12.91,17,9.7c11.71-3.87,4.36-14.87,4.36-14.87Z" transform="translate(24.04 13)"/><path class="cls-18" d="M504.46,504.88c-29.69,8-32,46.47-32,46.47s-9.18-4.41-10.27,6.83,10.15,10.25,10.15,10.25,9.13,27.2,54.13,25,43.06-48.48,35.45-65.39C555.48,513.62,539.46,495.42,504.46,504.88Z" transform="translate(24.04 13)"/><path class="cls-20" d="M520.69,556.28c-.24,3.52-2.7,6.22-5.49,6s-4.87-3.19-4.64-6.71,2.7-6.21,5.5-6S520.93,552.77,520.69,556.28Z" transform="translate(24.04 13)"/><path class="cls-20" d="M555.82,555.15c-.24,3.52-2.7,6.22-5.49,6s-4.87-3.19-4.64-6.71,2.7-6.22,5.5-6S556.06,551.63,555.82,555.15Z" transform="translate(24.04 13)"/><path class="cls-6" d="M519.45,554.61c-.15,1-.83,1.79-1.51,1.68s-1.1-1-1-2,.84-1.78,1.51-1.68S519.61,553.58,519.45,554.61Z" transform="translate(24.04 13)"/><path class="cls-6" d="M554.34,553.44c-.16,1-.84,1.79-1.52,1.68s-1.1-1-.94-2,.83-1.78,1.51-1.68S554.49,552.41,554.34,553.44Z" transform="translate(24.04 13)"/><path class="cls-33" d="M532.71,560.88a4.81,4.81,0,0,0,.73.56,5.16,5.16,0,0,0,2,.74,6.61,6.61,0,0,0,1.35.05,9.33,9.33,0,0,0,1.51-.22l.2,0h0l.14,0,.12,0,.23,0h.37a3.62,3.62,0,0,1,1.5.29,3.69,3.69,0,0,1,1.29.91,4.36,4.36,0,0,1,.8,1.31,4.78,4.78,0,0,1-1.17,5,4.68,4.68,0,0,1-2,1.16,5.16,5.16,0,0,1-1.9.18,5.81,5.81,0,0,1-1.48-.32,6.48,6.48,0,0,1-1-.44c-.27-.14-.47-.29-.6-.37l-.21-.15.94-.06c.29,0,.64-.06,1-.12a8.3,8.3,0,0,0,1.21-.27,3.72,3.72,0,0,0,2.07-1.38,2.5,2.5,0,0,0,.34-2.19,1.23,1.23,0,0,0-.48-.63,2,2,0,0,0-.36-.13s0,0-.1,0h-.66a7.64,7.64,0,0,1-2-.19,6.24,6.24,0,0,1-1.74-.67,4.54,4.54,0,0,1-1.84-2A2.48,2.48,0,0,1,532.71,560.88Z" transform="translate(24.04 13)"/><path class="cls-33" d="M536.15,575.18c-6.81.76-13.32-1.76-14.23,2.15s4.73,9.86,13,9.23,12.14-6.11,13.31-10.11S542,574.54,536.15,575.18Z" transform="translate(24.04 13)"/><path class="cls-6" d="M545.46,574.06c-2.49,0-6.14.77-9.31,1.12-6.81.76-13.32-1.76-14.23,2.15a4.34,4.34,0,0,0,.08,2.08,9.68,9.68,0,0,0,1.5.53c6,1.58,18.55-.72,20.52-1C545.5,578.72,545.54,575.62,545.46,574.06Z" transform="translate(24.04 13)"/><path class="cls-34" d="M519.19,569c0,2.14-3.1,3.87-6.91,3.86s-6.9-1.75-6.89-3.89,3.1-3.87,6.91-3.86S519.19,566.82,519.19,569Z" transform="translate(24.04 13)"/><path class="cls-34" d="M562.4,566.14c0,2.06-3,3.73-6.66,3.72s-6.66-1.68-6.66-3.75,3-3.73,6.67-3.72S562.41,564.08,562.4,566.14Z" transform="translate(24.04 13)"/><path class="cls-35" d="M519.21,544.55s-4.44-5-8.33.75" transform="translate(24.04 13)"/><path class="cls-35" d="M546.31,544.45s3.59-6,8.1.17" transform="translate(24.04 13)"/><path class="cls-20" d="M497.71,502.27c-33.57,11.62-27.24,45.62-27.24,45.62l4.44,38,7.92-25,7.92-23c44-23.12,75.4-6.65,75.4-6.65C559.51,502.68,531.29,490.64,497.71,502.27Z" transform="translate(24.04 13)"/><path class="cls-18" d="M520.05,614.82s8.76,4.27,10.29,5.22,17.09-2,18-1.74,3.17,7.76.64,9.19-18.1,4.43-20.38,3.48-10.75-2.69-14.51-5.54S517.2,614,520.05,614.82Z" transform="translate(24.04 13)"/><ellipse class="cls-20" cx="491.82" cy="524.05" rx="12.83" ry="13.18"/><path class="cls-47" d="M500.78,607.06c-4.43,3.71,2.59,18.05,13.36,20.43,0,0,7.42-8.08,6.7-13.46C520.84,614,508,601,500.78,607.06Z" transform="translate(24.04 13)"/><path class="cls-51" d="M566,608.78l-7.75,1.52-.12,0-7.75,1.51a91.06,91.06,0,0,0,2.24,14.38c1.56,5.48,7.69,4.49,9.44,4.16h.06l.06,0h0c1.75-.35,7.8-1.74,7.17-7.41A90.39,90.39,0,0,0,566,608.78Z" transform="translate(24.04 13)"/><path class="cls-52" d="M566,608.77c.24,1.22-3.09,2.91-7.44,3.76s-8.05.55-8.29-.68,3.08-2.9,7.43-3.75S565.8,607.55,566,608.77Z" transform="translate(24.04 13)"/><path class="cls-53" d="M565.08,609c.18.89-2.78,2.22-6.59,3s-7.06.63-7.23-.26,2.78-2.23,6.59-3S564.91,608.07,565.08,609Z" transform="translate(24.04 13)"/><path class="cls-18" d="M548.39,618.3a2.4,2.4,0,0,1,2.48-1.47c2,0,11.52-1.24,13.78-2.06s4.1,8.26,2,10.34-7.79,4.46-12.27,4-4.18-1.6-5.37-1.66S548.39,618.3,548.39,618.3Z" transform="translate(24.04 13)"/><path class="cls-54" d="M694.74,635.12c-3.52-4.26-16.48.5-18.88,1.26,0,0-8-1.63-7.5,6,.5,8.26,6.43,6.86,8.93,5.19,0,0,9.16,0,13.45-1.74S698.91,640.16,694.74,635.12Z" transform="translate(24.04 13)"/><path class="cls-54" d="M694.06,651c-5.66-1.7-26.3-.06-28.19.6s-.89-4.73-6.92-2.08-5.33,15.17,2.39,16.11,22.79,3,31.85.5S699,652.5,694.06,651Z" transform="translate(24.04 13)"/><path class="cls-55" d="M662.19,657.65c0,2.49-1.3,4.48-2.8,4.46s-2.68-2.07-2.64-4.56,1.3-4.48,2.8-4.45S662.24,655.16,662.19,657.65Z" transform="translate(24.04 13)"/><path class="cls-56" d="M687.21,633.83s-7.92,11.68-6.25,24.94,23.34,19.4,34.12,8.12,1-35.84.09-36.68S689.61,629.48,687.21,633.83Z" transform="translate(24.04 13)"/><path class="cls-55" d="M688.36,634.32a50.88,50.88,0,0,0-5.81,16.95c-1.25,9.21,7.58,17.34,15.47,11.91s7.42-24.6,6.68-28.83S690.11,628.88,688.36,634.32Z" transform="translate(24.04 13)"/><path class="cls-57" d="M696,589.73c1.8,5.32-1.86,11.37-8.18,13.51s-12.92-.42-14.72-5.74S675,586.14,681.27,584,694.19,584.42,696,589.73Z" transform="translate(24.04 13)"/><ellipse class="cls-56" cx="701.42" cy="617.13" rx="22" ry="25.22" transform="matrix(0, -1, 1, 0, 106.69, 1330.11)"/><ellipse class="cls-56" cx="724.09" cy="597.25" rx="10.16" ry="12.09" transform="translate(-28.54 1137.32) rotate(-73.68)"/><path class="cls-55" d="M726.05,600.54c-1.43,2.27-4.78,2.74-7.49,1s-3.74-4.93-2.31-7.2,4.78-2.74,7.49-1S727.48,598.26,726.05,600.54Z" transform="translate(24.04 13)"/><path class="cls-55" d="M686.9,592.11c1.34,2.32.19,5.51-2.58,7.1s-6.11,1-7.45-1.32-.19-5.51,2.58-7.1S685.56,589.78,686.9,592.11Z" transform="translate(24.04 13)"/><path class="cls-58" d="M691.86,610.55a4.33,4.33,0,1,1-5.56-1.06C688.35,608.31,690.84,608.78,691.86,610.55Z" transform="translate(24.04 13)"/><path class="cls-58" d="M711.92,617.41c-1.46,1.42-4,1.19-5.63-.51s-1.79-4.23-.32-5.65a4.33,4.33,0,0,1,5.95,6.16Z" transform="translate(24.04 13)"/><path class="cls-6" d="M687.73,611.76a1,1,0,1,1-1-.88A.95.95,0,0,1,687.73,611.76Z" transform="translate(24.04 13)"/><path class="cls-6" d="M708.25,613.42a1,1,0,0,1-.89,1,1,1,0,0,1-1-.88,1,1,0,1,1,1.91-.14Z" transform="translate(24.04 13)"/><path class="cls-59" d="M698.82,621a2.91,2.91,0,0,1-5.71-1c.15-.9,1.47-.93,3-.67S699,620.07,698.82,621Z" transform="translate(24.04 13)"/><path class="cls-60" d="M696.9,620.43c0,.22-.47.34-1,.28s-.93-.29-.9-.5.47-.34,1-.28S696.93,620.22,696.9,620.43Z" transform="translate(24.04 13)"/><path class="cls-61" d="M687.54,624.69s-.15,3,2.07,4.1,4.57-2.46,5.18-3.47c0,0,.1,3.91,3.17,5.07s4.94-2.65,4.94-2.65" transform="translate(24.04 13)"/><path class="cls-21" d="M705.43,662.5c-5.91,0-25.21,7.51-26.83,8.69s-2.21-4.27-7.22,0-.74,16.06,6.93,14.74,22.69-3.69,30.65-8.7S710.6,662.5,705.43,662.5Z" transform="translate(24.04 13)"/><path class="cls-55" d="M676.82,678c.68,2.4,0,4.67-1.4,5.08s-3.16-1.21-3.84-3.6-.05-4.67,1.4-5.08S676.15,675.64,676.82,678Z" transform="translate(24.04 13)"/><path class="cls-21" d="M707.29,643.39c-3.78,5,4.87,18.08,6.34,20.53,0,0,.3,9.23,8.55,6.73,9-2.73,5.9-8.91,3.39-11.23,0,0-2.36-10.14-5.45-14.41S711.77,637.46,707.29,643.39Z" transform="translate(24.04 13)"/><path class="cls-51" d="M615.43,640l-6.84,0h-.11l-6.85,0a78.12,78.12,0,0,0-.55,12.6c.38,4.93,5.76,5.14,7.31,5.15h.1c1.55,0,6.93-.15,7.37-5.08A77.83,77.83,0,0,0,615.43,640Z" transform="translate(24.04 13)"/><path class="cls-52" d="M615.48,640c0,1.08-3.12,1.93-7,1.91s-6.94-.91-6.94-2,3.13-1.94,7-1.92S615.49,638.89,615.48,640Z" transform="translate(24.04 13)"/><path class="cls-53" d="M614.64,640c0,.79-2.74,1.42-6.11,1.4s-6.11-.67-6.1-1.46,2.74-1.42,6.11-1.4S614.64,639.17,614.64,640Z" transform="translate(24.04 13)"/><path class="cls-51" d="M637,640l-6.85,0H630l-6.85,0a78.12,78.12,0,0,0-.55,12.6c.38,4.93,5.76,5.14,7.31,5.15h.1c1.55,0,6.93-.15,7.37-5.08A77.83,77.83,0,0,0,637,640Z" transform="translate(24.04 13)"/><path class="cls-52" d="M637,640c0,1.08-3.12,1.93-7,1.91s-6.94-.91-6.94-2,3.12-1.94,7-1.92S637,638.89,637,640Z" transform="translate(24.04 13)"/><path class="cls-53" d="M636.18,640c0,.79-2.74,1.42-6.11,1.4s-6.11-.67-6.1-1.46,2.74-1.42,6.11-1.4S636.18,639.17,636.18,640Z" transform="translate(24.04 13)"/><ellipse class="cls-48" cx="642.34" cy="679.97" rx="16.31" ry="7.3"/><ellipse class="cls-62" cx="642.34" cy="679.97" rx="11.72" ry="4.79"/><ellipse class="cls-63" cx="625.02" cy="695.99" rx="16.31" ry="7.3"/><path class="cls-64" d="M612.7,683c0,2.65-5.25,4.79-11.72,4.79s-11.72-2.14-11.72-4.79,5.25-4.78,11.72-4.78S612.7,680.35,612.7,683Z" transform="translate(24.04 13)"/><ellipse class="cls-55" cx="664.48" cy="695.99" rx="16.31" ry="7.3"/><ellipse class="cls-65" cx="664.48" cy="695.99" rx="11.72" ry="4.79"/></g></g></svg>