<svg xmlns="http://www.w3.org/2000/svg" viewBox="0 0 559.34 500"><defs><style>.cls-1{fill:#e2bc79;}.cls-2{font-size:59.17px;}.cls-2,.cls-3,.cls-8{fill:#3e2c38;}.cls-2,.cls-3{font-family:MyriadPro-Regular, Myriad Pro;}.cls-3{font-size:22px;}.cls-4{letter-spacing:-0.01em;}.cls-5{fill:#e2dcdc;}.cls-6{fill:#fff;}.cls-7{fill:#aaa9a9;}.cls-9{fill:#a6def4;}</style></defs><title>electromenager</title><g id="BACKGROUND"><rect class="cls-1" x="59.34" width="500" height="500"/></g><g id="OBJECTS"><text class="cls-2" transform="translate(251.84 75.87)">Chef</text><text class="cls-3" transform="translate(260.48 101.62)">ELEMEN<tspan class="cls-4" x="75.02" y="0">T</tspan><tspan x="85.82" y="0">S</tspan></text><rect class="cls-5" x="103.67" y="128.93" width="129.62" height="77.91" rx="11.04" ry="11.04"/><path class="cls-6" d="M162.91,128.93H139.42v77.91h23.49a11,11,0,0,0,11-11V140A11,11,0,0,0,162.91,128.93Z" transform="translate(59.34)"/><rect class="cls-7" x="137.63" y="128.93" width="1.79" height="77.91" transform="translate(336.39 335.77) rotate(180)"/><rect class="cls-8" x="201.83" y="143" width="26.33" height="50.33"/><rect class="cls-6" x="204" y="145.67" width="21.83" height="9.75"/><rect class="cls-9" x="113.25" y="140.38" width="76" height="55" rx="3.44" ry="3.44"/><path class="cls-6" d="M76.28,195.39l53.2-53.2a3.42,3.42,0,0,0-2-1.65L72.61,195.39Z" transform="translate(59.34)"/><path class="cls-6" d="M122.75,140.38H105.62l-51.7,51.7a3.44,3.44,0,0,0,3.43,3.31H67.74Z" transform="translate(59.34)"/><path class="cls-8" d="M128.5,200h0a4.17,4.17,0,0,1-4.17-4.16V140.5a4.17,4.17,0,0,1,4.17-4.16h0a4.17,4.17,0,0,1,4.16,4.16v55.34A4.17,4.17,0,0,1,128.5,200Z" transform="translate(59.34)"/><circle class="cls-5" cx="207.73" cy="163.25" r="2.67"/><circle class="cls-5" cx="214.92" cy="163.25" r="2.67"/><circle class="cls-5" cx="222.11" cy="163.25" r="2.67"/><path class="cls-5" d="M148.39,168.34a2.67,2.67,0,1,0,2.66,2.66A2.67,2.67,0,0,0,148.39,168.34Z" transform="translate(59.34)"/><path class="cls-5" d="M155.58,168.34a2.67,2.67,0,1,0,2.67,2.66A2.67,2.67,0,0,0,155.58,168.34Z" transform="translate(59.34)"/><path class="cls-5" d="M162.77,168.34a2.67,2.67,0,1,0,2.67,2.66A2.67,2.67,0,0,0,162.77,168.34Z" transform="translate(59.34)"/><circle class="cls-5" cx="207.73" cy="178.75" r="2.67"/><circle class="cls-5" cx="214.92" cy="178.75" r="2.67"/><circle class="cls-5" cx="222.11" cy="178.75" r="2.67"/><circle class="cls-5" cx="207.73" cy="186.5" r="2.67"/><circle class="cls-5" cx="214.92" cy="186.5" r="2.67"/><circle class="cls-5" cx="222.11" cy="186.5" r="2.67"/><path class="cls-8" d="M234.22,143.11V131.7a2.72,2.72,0,0,1,2.71-2.71h0a2.72,2.72,0,0,1,2.71,2.71v11.41a2.72,2.72,0,0,1-2.71,2.71h0A2.72,2.72,0,0,1,234.22,143.11Z" transform="translate(59.34)"/><path class="cls-8" d="M259.74,143.11V131.7a2.72,2.72,0,0,1,2.71-2.71h0a2.72,2.72,0,0,1,2.72,2.71v11.41a2.72,2.72,0,0,1-2.72,2.71h0A2.72,2.72,0,0,1,259.74,143.11Z" transform="translate(59.34)"/><path class="cls-7" d="M280.08,209.22H219.33V201.3a5.77,5.77,0,0,1,5.75-5.75h49.45a5.56,5.56,0,0,1,5.55,5.54Z" transform="translate(59.34)"/><circle class="cls-5" cx="309.34" cy="170.97" r="30.67"/><circle class="cls-6" cx="250" cy="170.97" r="23.25" transform="translate(100.02 389.86) rotate(-80.65)"/><path class="cls-8" d="M248.23,173.61c0-1.1,2-10.77,2-10.77s2,9.67,2,10.77a2,2,0,0,1-4,0Z" transform="translate(59.34)"/><rect class="cls-8" x="308.28" y="150" width="1.44" height="6.12" rx="0.72" ry="0.72"/><rect class="cls-8" x="308.28" y="186.62" width="1.44" height="6.12" rx="0.72" ry="0.72"/><path class="cls-8" d="M270.32,170.65h-4.69a.72.72,0,0,0,0,1.44h4.69a.72.72,0,0,0,0-1.44Z" transform="translate(59.34)"/><path class="cls-8" d="M233.69,170.65H229a.72.72,0,0,0,0,1.44h4.68a.72.72,0,0,0,0-1.44Z" transform="translate(59.34)"/><path class="cls-7" d="M277.37,131.22H222.05a2.72,2.72,0,0,1-2.72-2.72h0a2.72,2.72,0,0,1,2.72-2.71h55.32a2.72,2.72,0,0,1,2.71,2.71h0A2.72,2.72,0,0,1,277.37,131.22Z" transform="translate(59.34)"/><path class="cls-5" d="M412.12,137.59h71.46a7.68,7.68,0,0,1,7.68,7.68v48.65a0,0,0,0,1,0,0H404.44a0,0,0,0,1,0,0V145.27A7.68,7.68,0,0,1,412.12,137.59Z"/><path class="cls-6" d="M370.28,193.92h3.49L428.68,139a7.92,7.92,0,0,0-2.36-1.13Z" transform="translate(59.34)"/><polygon class="cls-6" points="481.66 137.59 459.08 137.59 404.44 192.23 404.44 193.92 425.33 193.92 481.66 137.59"/><path class="cls-8" d="M407.88,193.92h9.38a0,0,0,0,1,0,0v3.89a3.69,3.69,0,0,1-3.69,3.69h-2a3.69,3.69,0,0,1-3.69-3.69v-3.89A0,0,0,0,1,407.88,193.92Z"/><path class="cls-8" d="M421.38,193.92h9.38a0,0,0,0,1,0,0v3.89a3.69,3.69,0,0,1-3.69,3.69h-2a3.69,3.69,0,0,1-3.69-3.69v-3.89A0,0,0,0,1,421.38,193.92Z"/><path class="cls-8" d="M465.63,193.92H475a0,0,0,0,1,0,0v3.89a3.69,3.69,0,0,1-3.69,3.69h-2a3.69,3.69,0,0,1-3.69-3.69v-3.89A0,0,0,0,1,465.63,193.92Z"/><path class="cls-8" d="M479.13,193.92h9.38a0,0,0,0,1,0,0v3.89a3.69,3.69,0,0,1-3.69,3.69h-2a3.69,3.69,0,0,1-3.69-3.69v-3.89A0,0,0,0,1,479.13,193.92Z"/><path class="cls-7" d="M408.25,143H359.41a1.5,1.5,0,0,1-1.5-1.5h0a1.5,1.5,0,0,1,1.5-1.5h48.84a1.51,1.51,0,0,1,1.5,1.5h0A1.5,1.5,0,0,1,408.25,143Z" transform="translate(59.34)"/><path class="cls-7" d="M427.91,187.38h0a1.25,1.25,0,0,1-1.25-1.25V148.88a1.25,1.25,0,0,1,1.25-1.25h0a1.25,1.25,0,0,1,1.25,1.25v37.25A1.25,1.25,0,0,1,427.91,187.38Z" transform="translate(59.34)"/><rect class="cls-8" x="486" y="153.57" width="10.63" height="6.11"/><path class="cls-5" d="M495.16,151.71h6.3a2.73,2.73,0,0,1,2.73,2.73v4.51a2.79,2.79,0,0,1-2.79,2.79h-6.23a0,0,0,0,1,0,0v-10A0,0,0,0,1,495.16,151.71Z"/><circle class="cls-8" cx="359.33" cy="170.5" r="7.56" transform="translate(170.17 481.05) rotate(-76.72)"/><rect class="cls-6" x="106.82" y="223.31" width="121.35" height="209.19" rx="12" ry="12"/><rect class="cls-7" x="106.82" y="281.67" width="121.35" height="2.13"/><path class="cls-8" d="M61.16,269.5h0A3.17,3.17,0,0,1,58,266.34V245a3.17,3.17,0,0,1,3.16-3.16h0A3.18,3.18,0,0,1,64.33,245v21.34A3.18,3.18,0,0,1,61.16,269.5Z" transform="translate(59.34)"/><path class="cls-8" d="M61.16,357.34h0A3.18,3.18,0,0,1,58,354.17V303.79a3.18,3.18,0,0,1,3.16-3.17h0a3.18,3.18,0,0,1,3.17,3.17v50.38A3.18,3.18,0,0,1,61.16,357.34Z" transform="translate(59.34)"/><rect class="cls-8" x="123.78" y="432.5" width="87.43" height="11.09"/><path class="cls-7" d="M271.13,248.1l-9.61,9.61a2.25,2.25,0,0,1-3.17,0h0a2.25,2.25,0,0,1,0-3.17l9.61-9.61a2.25,2.25,0,0,1,3.17,0h0A2.25,2.25,0,0,1,271.13,248.1Z" transform="translate(59.34)"/><path class="cls-7" d="M285.12,262.09l-9.61,9.61a2.25,2.25,0,0,1-3.17,0h0a2.25,2.25,0,0,1,0-3.17l9.61-9.61a2.25,2.25,0,0,1,3.17,0h0A2.25,2.25,0,0,1,285.12,262.09Z" transform="translate(59.34)"/><path class="cls-6" d="M218.79,306.94H283s3.44-53.11-33-53.11S218.79,306.94,218.79,306.94Z" transform="translate(59.34)"/><rect class="cls-8" x="273.18" y="302.53" width="72.99" height="7.66"/><path class="cls-8" d="M228.66,268.66l-6-6H210.93a4.07,4.07,0,0,0,.53.65l11.27,11.27a4.19,4.19,0,0,0,5.93-5.93Z" transform="translate(59.34)"/><path class="cls-8" d="M292.78,271.63a4.64,4.64,0,0,1-4.12-2.51c-10.93-21.15-29.75-25.52-29.94-25.56a4.64,4.64,0,1,1,2-9.06c.94.21,23.27,5.39,36.17,30.36a4.64,4.64,0,0,1-4.11,6.77Z" transform="translate(59.34)"/><path class="cls-8" d="M424.66,435.37h10.15a0,0,0,0,1,0,0v4.21a4,4,0,0,1-4,4h-2.15a4,4,0,0,1-4-4v-4.21A0,0,0,0,1,424.66,435.37Z"/><path class="cls-8" d="M466.49,435.37h10.15a0,0,0,0,1,0,0v4.21a4,4,0,0,1-4,4h-2.15a4,4,0,0,1-4-4v-4.21A0,0,0,0,1,466.49,435.37Z"/><polygon class="cls-9" points="475.92 408.66 425.38 408.66 419.6 321.3 481.7 321.3 475.92 408.66"/><path class="cls-8" d="M427.08,324.19H355.45a4.63,4.63,0,0,1-4.62-4.62h0a4.63,4.63,0,0,1,4.62-4.62h71.63a4.63,4.63,0,0,1,4.62,4.62h0A4.63,4.63,0,0,1,427.08,324.19Z" transform="translate(59.34)"/><path class="cls-6" d="M417,435.37H365.51a5.64,5.64,0,0,1-5.46-5.77l-3.8-20.22a5.64,5.64,0,0,1,5.46-5.77h59.11a5.64,5.64,0,0,1,5.46,5.77l-3.8,20.22A5.64,5.64,0,0,1,417,435.37Z" transform="translate(59.34)"/><circle class="cls-8" cx="391.27" cy="420.39" r="8.03" transform="translate(-48.67 704.2) rotate(-76.67)"/><circle class="cls-7" cx="450.6" cy="420.39" r="4.96"/><polygon class="cls-8" points="452.45 415.43 450.6 406.45 449.02 415.43 452.45 415.43"/><path class="cls-6" d="M399.37,342.64a.95.95,0,0,0,0-1.89H392V331.2h7.4a.95.95,0,0,0,0-1.89H383.21a.95.95,0,1,0,0,1.89h7v9.55h-7a.95.95,0,1,0,0,1.89h7v9.55h-7a.95.95,0,1,0,0,1.89h7v9.54h-7a.95.95,0,0,0,0,1.9h7v9.54h-7a.95.95,0,0,0,0,1.9h7v9.54h-7a.95.95,0,0,0,0,1.9h7v9.54h-7a.95.95,0,0,0,0,1.9h16.16a1,1,0,0,0,0-1.9H392V388.4h7.4a1,1,0,0,0,0-1.9H392V377h7.4a1,1,0,0,0,0-1.9H392v-9.54h7.4a1,1,0,0,0,0-1.9H392v-9.54h7.4a.95.95,0,0,0,0-1.89H392v-9.55Z" transform="translate(59.34)"/><rect class="cls-6" x="419.6" y="305.5" width="62.09" height="9.44" rx="4.72" ry="4.72"/><path class="cls-5" d="M241.82,359.73h0a1.17,1.17,0,0,1-1.18-1.17V347.79a1.18,1.18,0,0,1,1.18-1.17h0a1.18,1.18,0,0,1,1.17,1.17v10.77A1.17,1.17,0,0,1,241.82,359.73Z" transform="translate(59.34)"/><path class="cls-5" d="M257.52,359.73h0a1.17,1.17,0,0,1-1.18-1.17V347.79a1.18,1.18,0,0,1,1.18-1.17h0a1.18,1.18,0,0,1,1.17,1.17v10.77A1.17,1.17,0,0,1,257.52,359.73Z" transform="translate(59.34)"/><polygon class="cls-5" points="338.33 443.78 279.58 443.78 285.43 361.76 332.48 361.76 338.33 443.78"/><polygon class="cls-6" points="334.16 385.31 279.88 439.58 279.58 443.78 280.18 443.78 334.46 389.51 334.16 385.31"/><polygon class="cls-6" points="281.82 412.45 280.28 434.07 333.82 380.54 332.48 361.79 281.82 412.45"/><path class="cls-8" d="M259.39,388.94h0a1.82,1.82,0,0,1-1.82-1.81V382.8a1.82,1.82,0,0,1,1.82-1.81h0a1.82,1.82,0,0,1,1.81,1.81v4.33A1.81,1.81,0,0,1,259.39,388.94Z" transform="translate(59.34)"/><path class="cls-8" d="M235.08,367.59a1.82,1.82,0,0,0-1.81,1.82v4.32a1.82,1.82,0,1,0,3.63,0v-4.32A1.83,1.83,0,0,0,235.08,367.59Z" transform="translate(59.34)"/><path class="cls-8" d="M244.81,367.59a1.83,1.83,0,0,0-1.82,1.82v4.32a1.82,1.82,0,1,0,3.63,0v-4.32A1.82,1.82,0,0,0,244.81,367.59Z" transform="translate(59.34)"/><path class="cls-8" d="M254.53,367.59a1.83,1.83,0,0,0-1.82,1.82v4.32a1.82,1.82,0,1,0,3.63,0v-4.32A1.82,1.82,0,0,0,254.53,367.59Z" transform="translate(59.34)"/><path class="cls-8" d="M264.25,367.59a1.82,1.82,0,0,0-1.81,1.82v4.32a1.81,1.81,0,1,0,3.62,0v-4.32A1.82,1.82,0,0,0,264.25,367.59Z" transform="translate(59.34)"/><path class="cls-8" d="M230.22,381a1.82,1.82,0,0,0-1.81,1.81v4.33a1.82,1.82,0,0,0,3.63,0V382.8A1.82,1.82,0,0,0,230.22,381Z" transform="translate(59.34)"/><path class="cls-8" d="M240,381a1.82,1.82,0,0,0-1.82,1.81v4.33a1.82,1.82,0,0,0,3.63,0V382.8A1.82,1.82,0,0,0,240,381Z" transform="translate(59.34)"/><path class="cls-8" d="M249.67,381a1.82,1.82,0,0,0-1.82,1.81v4.33a1.82,1.82,0,0,0,3.63,0V382.8A1.82,1.82,0,0,0,249.67,381Z" transform="translate(59.34)"/><path class="cls-8" d="M259.39,381a1.82,1.82,0,0,0-1.82,1.81v4.33a1.82,1.82,0,0,0,3.63,0V382.8A1.82,1.82,0,0,0,259.39,381Z" transform="translate(59.34)"/><path class="cls-8" d="M269.11,381a1.82,1.82,0,0,0-1.81,1.81v4.33a1.81,1.81,0,0,0,3.62,0V382.8A1.82,1.82,0,0,0,269.11,381Z" transform="translate(59.34)"/><path class="cls-8" d="M235.08,393.55a1.82,1.82,0,0,0-1.81,1.81v4.33a1.82,1.82,0,0,0,3.63,0v-4.33A1.82,1.82,0,0,0,235.08,393.55Z" transform="translate(59.34)"/><path class="cls-8" d="M244.81,393.55a1.82,1.82,0,0,0-1.82,1.81v4.33a1.82,1.82,0,0,0,3.63,0v-4.33A1.82,1.82,0,0,0,244.81,393.55Z" transform="translate(59.34)"/><path class="cls-8" d="M254.53,393.55a1.82,1.82,0,0,0-1.82,1.81v4.33a1.82,1.82,0,0,0,3.63,0v-4.33A1.81,1.81,0,0,0,254.53,393.55Z" transform="translate(59.34)"/><path class="cls-8" d="M264.25,393.55a1.81,1.81,0,0,0-1.81,1.81v4.33a1.81,1.81,0,1,0,3.62,0v-4.33A1.81,1.81,0,0,0,264.25,393.55Z" transform="translate(59.34)"/><path class="cls-8" d="M230.22,406.94a1.82,1.82,0,0,0-1.81,1.82v4.32a1.82,1.82,0,1,0,3.63,0v-4.32A1.83,1.83,0,0,0,230.22,406.94Z" transform="translate(59.34)"/><path class="cls-8" d="M240,406.94a1.83,1.83,0,0,0-1.82,1.82v4.32a1.82,1.82,0,1,0,3.63,0v-4.32A1.82,1.82,0,0,0,240,406.94Z" transform="translate(59.34)"/><path class="cls-8" d="M249.67,406.94a1.83,1.83,0,0,0-1.82,1.82v4.32a1.82,1.82,0,1,0,3.63,0v-4.32A1.82,1.82,0,0,0,249.67,406.94Z" transform="translate(59.34)"/><path class="cls-8" d="M259.39,406.94a1.83,1.83,0,0,0-1.82,1.82v4.32a1.82,1.82,0,1,0,3.63,0v-4.32A1.82,1.82,0,0,0,259.39,406.94Z" transform="translate(59.34)"/><path class="cls-8" d="M269.11,406.94a1.82,1.82,0,0,0-1.81,1.82v4.32a1.81,1.81,0,1,0,3.62,0v-4.32A1.82,1.82,0,0,0,269.11,406.94Z" transform="translate(59.34)"/><path class="cls-8" d="M235.08,419.5a1.82,1.82,0,0,0-1.81,1.82v4.32a1.82,1.82,0,1,0,3.63,0v-4.32A1.83,1.83,0,0,0,235.08,419.5Z" transform="translate(59.34)"/><path class="cls-8" d="M244.81,419.5a1.83,1.83,0,0,0-1.82,1.82v4.32a1.82,1.82,0,1,0,3.63,0v-4.32A1.82,1.82,0,0,0,244.81,419.5Z" transform="translate(59.34)"/><path class="cls-8" d="M254.53,419.5a1.83,1.83,0,0,0-1.82,1.82v4.32a1.82,1.82,0,1,0,3.63,0v-4.32A1.82,1.82,0,0,0,254.53,419.5Z" transform="translate(59.34)"/><path class="cls-8" d="M264.25,419.5a1.82,1.82,0,0,0-1.81,1.82v4.32a1.81,1.81,0,1,0,3.62,0v-4.32A1.82,1.82,0,0,0,264.25,419.5Z" transform="translate(59.34)"/><path class="cls-8" d="M230.22,432.9a1.82,1.82,0,0,0-1.81,1.81V439a1.82,1.82,0,0,0,3.63,0v-4.33A1.82,1.82,0,0,0,230.22,432.9Z" transform="translate(59.34)"/><path class="cls-8" d="M240,432.9a1.82,1.82,0,0,0-1.82,1.81V439a1.82,1.82,0,0,0,3.63,0v-4.33A1.82,1.82,0,0,0,240,432.9Z" transform="translate(59.34)"/><path class="cls-8" d="M249.67,432.9a1.82,1.82,0,0,0-1.82,1.81V439a1.82,1.82,0,0,0,3.63,0v-4.33A1.82,1.82,0,0,0,249.67,432.9Z" transform="translate(59.34)"/><path class="cls-8" d="M259.39,432.9a1.82,1.82,0,0,0-1.82,1.81V439a1.82,1.82,0,0,0,3.63,0v-4.33A1.82,1.82,0,0,0,259.39,432.9Z" transform="translate(59.34)"/><path class="cls-8" d="M269.11,432.9a1.82,1.82,0,0,0-1.81,1.81V439a1.81,1.81,0,1,0,3.62,0v-4.33A1.82,1.82,0,0,0,269.11,432.9Z" transform="translate(59.34)"/><path class="cls-8" d="M274.6,363.18H224.92a3,3,0,0,1-3-3h0a3,3,0,0,1,3-3H274.6a3,3,0,0,1,3,3h0A3,3,0,0,1,274.6,363.18Z" transform="translate(59.34)"/><path class="cls-8" d="M259.74,349h-20a3,3,0,0,1-3-3h0a3,3,0,0,1,3-3h20a3,3,0,0,1,3,3h0A3,3,0,0,1,259.74,349Z" transform="translate(59.34)"/><rect class="cls-6" x="394.05" y="242.72" width="25.36" height="1.47"/><rect class="cls-6" x="394.05" y="245.61" width="25.36" height="1.47"/><rect class="cls-6" x="394.05" y="248.51" width="25.36" height="1.47"/><rect class="cls-6" x="394.05" y="251.4" width="25.36" height="1.47"/><rect class="cls-6" x="394.05" y="254.29" width="25.36" height="1.47"/><rect class="cls-6" x="394.05" y="257.19" width="25.36" height="1.47"/><rect class="cls-6" x="394.05" y="260.08" width="25.36" height="1.47"/><rect class="cls-6" x="394.05" y="262.98" width="25.36" height="1.47"/><rect class="cls-6" x="394.05" y="265.87" width="25.36" height="1.47"/><rect class="cls-6" x="394.05" y="268.76" width="25.36" height="1.47"/><path class="cls-8" d="M442,262.47h-70.5a6.12,6.12,0,0,1-6.1-6.1h0a6.12,6.12,0,0,1,6.1-6.09H442a6.12,6.12,0,0,1,6.1,6.09h0A6.12,6.12,0,0,1,442,262.47Z" transform="translate(59.34)"/><path class="cls-8" d="M374.86,247.12v18.5c0,1.8-8.16,4.62-11.34,5.65a5,5,0,0,1-4.34-.53,3.84,3.84,0,0,1-1.77-3.13V245.13a3.84,3.84,0,0,1,1.77-3.13,5,5,0,0,1,4.34-.53C366.7,242.5,374.86,245.32,374.86,247.12Z" transform="translate(59.34)"/><path class="cls-6" d="M439.68,256.37a2.32,2.32,0,1,1,2.32,2.32A2.32,2.32,0,0,1,439.68,256.37Z" transform="translate(59.34)"/><text x="59.34"></text></g></svg>