<svg id="Layer_1" data-name="Layer 1" xmlns="http://www.w3.org/2000/svg" viewBox="0 0 512 512"><defs><style>.cls-1{fill:#212a54;}.cls-2{fill:#1e2c33;}.cls-3{fill:#f5f5f5;}.cls-4{fill:#586874;}.cls-5{fill:#e6e6e6;}.cls-6{fill:#ccc;}.cls-7{fill:#cc584c;}</style></defs><title>informatique</title><circle class="cls-1" cx="256" cy="256" r="256"/><path class="cls-2" d="M60,304V128.36c0-5,3.22-8.36,8-8.36H396c4.78,0,8,3.36,8,8.36V304Z"/><path class="cls-3" d="M60,304v32a7.58,7.58,0,0,0,8,8H396a7.58,7.58,0,0,0,8-8V304Z"/><rect class="cls-4" x="76" y="140" width="312" height="148"/><rect class="cls-5" x="188" y="344" width="88" height="36"/><path class="cls-3" d="M304,388a8,8,0,0,0-8-8H168a8,8,0,0,0-8,8h0a8,8,0,0,0,8,8H296a8,8,0,0,0,8-8Z"/><circle class="cls-2" cx="232" cy="324" r="8"/><path class="cls-3" d="M224,400H452v8c0,4.24-3.76,4-8,4H232c-4.23,0-8,.24-8-4Z"/><path class="cls-6" d="M364.5,400s-2.3,4-5.12,4h-35.9c-2.83,0-5.12-4-5.12-4Z"/><path class="cls-2" d="M244,400V284a8.25,8.25,0,0,1,8-8H424a8.25,8.25,0,0,1,8,8V400Z"/><rect class="cls-4" x="256" y="292" width="164" height="108"/><circle class="cls-7" cx="338" cy="284" r="4"/></svg>