<svg xmlns="http://www.w3.org/2000/svg" xmlns:xlink="http://www.w3.org/1999/xlink" viewBox="0 0 899.63 808"><defs><style>.cls-1,.cls-3,.cls-30,.cls-4{fill:none;}.cls-2{fill:#cfe0e2;}.cls-3{stroke:#d8d4b8;}.cls-3,.cls-30,.cls-4{stroke-miterlimit:10;}.cls-4{stroke:#e5f4f9;stroke-width:2px;}.cls-5{isolation:isolate;}.cls-50,.cls-6{fill:#beb914;}.cls-7{fill:#fcfae6;}.cls-8{fill:#cde9f2;}.cls-9{fill:#8dcfff;}.cls-10{clip-path:url(#clip-path);}.cls-11{fill:#d7eef6;}.cls-12{fill:#004e6d;}.cls-13{fill:#726f0c;}.cls-14{fill:#5b3500;}.cls-15{fill:#076aa8;}.cls-16{fill:#0f7fb7;}.cls-17{fill:#baba42;}.cls-18{fill:#6d6d6d;}.cls-19{fill:#9b9a9a;}.cls-20{fill:#cec8aa;}.cls-21{fill:#b51a1a;}.cls-22{fill:#680405;}.cls-23{clip-path:url(#clip-path-2);}.cls-24{fill:#8c4222;}.cls-25{opacity:0.1;fill:url(#New_Pattern_7);}.cls-26{opacity:0.2;fill:url(#New_Pattern_5);}.cls-27,.cls-54{fill:#adaca6;}.cls-28{fill:#6d6d69;}.cls-29{fill:#f2edd1;}.cls-30{stroke:#6d6d69;}.cls-31{fill:#dddcd7;}.cls-32{fill:url(#New_Pattern_2);}.cls-33{fill:#97aaaf;}.cls-34{fill:#ebf5f7;}.cls-35{fill:#f9f9f9;}.cls-36{fill:#e2dfda;}.cls-37{fill:#353535;}.cls-38{fill:#b2c0c1;}.cls-39{fill:#c3c062;}.cls-40{clip-path:url(#clip-path-3);}.cls-41{fill:#3f3d07;}.cls-42{fill:#a59e14;}.cls-43{fill:#d9f2fc;}.cls-44{fill:#c1d9e0;}.cls-45{fill:#ada890;}.cls-46{fill:#698908;}.cls-47{clip-path:url(#clip-path-5);}.cls-48{fill:#3a3a37;}.cls-49{clip-path:url(#clip-path-6);}.cls-50,.cls-54{mix-blend-mode:multiply;}.cls-51{clip-path:url(#clip-path-7);}.cls-52{clip-path:url(#clip-path-8);}.cls-53{clip-path:url(#clip-path-9);}.cls-54{opacity:0.5;}.cls-55{clip-path:url(#clip-path-10);}</style><clipPath id="clip-path" transform="translate(59)"><rect class="cls-1" x="400" width="400" height="400"/></clipPath><clipPath id="clip-path-2" transform="translate(59)"><rect class="cls-1" width="400" height="400"/></clipPath><pattern id="New_Pattern_7" data-name="New Pattern 7" x="59" width="72.95" height="72.95" patternUnits="userSpaceOnUse" viewBox="0 0 72.95 72.95"><rect class="cls-1" width="72.95" height="72.95"/><rect class="cls-4" x="37.47" y="55.71" width="34.47" height="34.47"/><rect class="cls-4" x="1" y="55.71" width="34.47" height="34.47"/><rect class="cls-4" x="55.71" y="19.24" width="34.47" height="34.47"/><rect class="cls-4" x="19.24" y="19.24" width="34.47" height="34.47"/><rect class="cls-4" x="-17.24" y="19.24" width="34.47" height="34.47"/><rect class="cls-4" x="37.47" y="-17.24" width="34.47" height="34.47"/><rect class="cls-4" x="1" y="-17.24" width="34.47" height="34.47"/></pattern><pattern id="New_Pattern_5" data-name="New Pattern 5" x="59" width="39" height="35.41" patternUnits="userSpaceOnUse" viewBox="0 0 39 35.41"><rect class="cls-1" width="39" height="35.41"/><rect class="cls-3" x="20" y="27.06" width="38" height="16.7"/><rect class="cls-3" x="-19" y="27.06" width="38" height="16.7"/><rect class="cls-3" x="0.5" y="9.35" width="38" height="16.7"/><rect class="cls-3" x="20" y="-8.35" width="38" height="16.7"/><rect class="cls-3" x="-19" y="-8.35" width="38" height="16.7"/></pattern><pattern id="New_Pattern_2" data-name="New Pattern 2" x="59" width="80.54" height="10" patternUnits="userSpaceOnUse" viewBox="0 0 80.54 10"><rect class="cls-1" width="80.54" height="10"/><rect class="cls-2" y="8.5" width="80.54" height="1"/><rect class="cls-2" y="6.5" width="80.54" height="1"/><rect class="cls-2" y="4.5" width="80.54" height="1"/><rect class="cls-2" y="2.5" width="80.54" height="1"/><rect class="cls-2" y="0.5" width="80.54" height="1"/></pattern><clipPath id="clip-path-3" transform="translate(59)"><rect class="cls-1" x="400" y="400" width="400" height="400"/></clipPath><clipPath id="clip-path-5" transform="translate(59)"><rect class="cls-1" y="400" width="400" height="400"/></clipPath><clipPath id="clip-path-6" transform="translate(59)"><path class="cls-1" d="M201.56,603.45c1.17-3.47-.52-7.32-.77-11,4.8,3.78,11.37,4.45,17.45,3.85s12-2.32,18.11-2.75c17-1.22,35,7.46,50.59.64-6.45,16.06-.63,37.89-4.07,53.56-4.56-2.25-12.32-2.59-17.23-1.28-23.48,6.24-48.2-1.86-72.49-1.58,3.66-2.58,5.06-7.4,5.16-11.88s-.83-8.94-.66-13.42C197.89,613.33,199.54,609.4,201.56,603.45Z"/></clipPath><clipPath id="clip-path-7" transform="translate(59)"><path class="cls-1" d="M190.45,591.27c3.19-.08,5.81-2.45,8.72-3.68-1.91,3.28-.28,7.26.71,10.87,4,14.54-3.13,30.71,3.08,44.57-6.86-2.32-14.27.87-21.25,2.86a64.94,64.94,0,0,1-37.83-.82c-3.3-1.1-6.61-2.49-10.13-2.46-4.74,0-9,2.66-13.65,3.45-1-1.2,1-2.53,2.16-3.59,2.24-2,1.8-5.37,1.08-8.16q-1.23-4.74-2.92-9.37a46,46,0,0,1-2.76-9c-1.24-8.47,3.31-17.82-1.22-25.29,3.34.14,6.49,1.4,9.79,1.86,4.41.63,8.9-.16,13.29-1C156.87,588.44,172.78,591.69,190.45,591.27Z"/></clipPath><clipPath id="clip-path-8" transform="translate(59)"><path class="cls-1" d="M257.12,632.75c11.15.66,22.65-.39,28.55.83,6.92,1.42,4.85,9.19,8.45,15.27,2.59,4.37,2.34,8.94,5.8,14,12.32,17.88,24.85,25.23,30.47,46.21,1.56,5.83,1.66,13.69-3.88,16.1-2.24,1-4.81.68-7.23.34-25.45-3.63-50.42-9.7-75.57-4.35-22.57,4.8-45.73-2-68.49-5.77-18-3-36.33-4.05-54.58-5.11-4.19-.24-8.66-.42-12.26,1.73-4.39,2.63-6.33,8-10.29,11.27-4.85,4-12.1,4-17.79,1.36a33.14,33.14,0,0,1-5.51-21.5c2.13-18.25,15.4-21.87,24.32-37.94,2.71-4.88,8.08-16.53,11.66-20.83,8.47-10.17,18.24-8.91,28.73-10.08,42-4.68,50.16,1.8,80.37,2.25C227.44,636.61,247.12,631.41,257.12,632.75Z"/></clipPath><clipPath id="clip-path-9" transform="translate(59)"><path class="cls-1" d="M257.12,632.75c11.15.66,22.65-.39,28.55.83,6.92,1.42,4.85,9.19,8.45,15.27,2.59,4.37,2.34,8.94,5.8,14,12.32,17.88,24.85,25.23,30.47,46.21,1.56,5.83,1.66,13.69-3.88,16.1-2.24,1-4.81.68-7.23.34-25.45-3.63-50.42-9.7-75.57-4.35-22.57,4.8-45.73-2-68.49-5.77-18-3-36.33-4.05-54.58-5.11-4.19-.24-8.66-.42-12.26,1.73-4.39,2.63-6.33,8-10.29,11.27-4.85,4-12.1,4-17.79,1.36a33.14,33.14,0,0,1-5.51-21.5c2.13-18.25,15.4-21.87,24.32-37.94,2.71-4.88,8.08-16.53,11.66-20.83,8.47-10.17,18.93-8.65,29.44-9.65,41.41-3.93,49.45,1.37,79.66,1.82C227.44,636.61,247.12,631.41,257.12,632.75Z"/></clipPath><clipPath id="clip-path-10" transform="translate(59)"><rect class="cls-1" x="43.32" y="446" width="313.37" height="106.33"/></clipPath></defs><title>maisonetjardin</title><g class="cls-5"><g id="BACKGROUND"><rect class="cls-6" x="459" width="400" height="400"/><rect class="cls-7" x="59" width="400" height="400"/><rect class="cls-8" x="59" y="400" width="400" height="400"/><rect class="cls-9" x="459" y="400" width="400" height="400"/></g><g id="OBJECTS"><g class="cls-10"><rect class="cls-8" x="459.42" y="0.01" width="399.58" height="282.11"/><rect class="cls-11" x="458.58" y="283.98" width="400" height="116.02"/><rect class="cls-7" x="459" y="282.12" width="399.58" height="9.9"/><ellipse class="cls-12" cx="659" cy="332.58" rx="175.36" ry="27.7"/><path class="cls-13" d="M600,309.81c45.25,0,87.78,2.48,119.76,7,46.65,6.57,48,14.09,48,14.93s-1.35,8.35-48,14.93c-32,4.5-74.51,7-119.76,7s-87.78-2.48-119.76-7c-46.65-6.58-48-14.09-48-14.93s1.35-8.36,48-14.93c32-4.5,74.51-7,119.76-7m0-2c-93.75,0-169.76,10.71-169.76,23.91s76,23.91,169.76,23.91,169.76-10.71,169.76-23.91-76-23.91-169.76-23.91Z" transform="translate(59)"/><path class="cls-14" d="M510.13,330.93h.22c.73,0,1.34-.34,1.37-.76l.93-13.06a2.14,2.14,0,0,0-2.21-2.23H510a2.14,2.14,0,0,0-2.21,2.23l.93,13.06C508.79,330.59,509.41,330.93,510.13,330.93Z" transform="translate(59)"/><path class="cls-14" d="M600.11,330.93h-.22c-.73,0-1.34-.34-1.37-.76l-.93-13.06a2.14,2.14,0,0,1,2.21-2.23h.4a2.14,2.14,0,0,1,2.21,2.23l-.93,13.06C601.45,330.59,600.84,330.93,600.11,330.93Z" transform="translate(59)"/><rect class="cls-12" x="579.24" y="210.55" width="69.76" height="55.73"/><rect class="cls-12" x="580.45" y="166.02" width="67.34" height="48.7" rx="3" ry="3"/><circle class="cls-15" cx="588.74" cy="217.15" r="1.54"/><circle class="cls-15" cx="601.59" cy="217.15" r="1.54"/><path class="cls-15" d="M557,217.15a1.54,1.54,0,1,1-1.54-1.54A1.54,1.54,0,0,1,557,217.15Z" transform="translate(59)"/><path class="cls-15" d="M569.84,217.15a1.54,1.54,0,1,1-1.54-1.54A1.54,1.54,0,0,1,569.84,217.15Z" transform="translate(59)"/><path class="cls-15" d="M582.7,217.15a1.54,1.54,0,1,1-1.54-1.54A1.54,1.54,0,0,1,582.7,217.15Z" transform="translate(59)"/><path class="cls-12" d="M514.49,164.8c-3.92,0-8.51,2.56-8.41,9.16.1,6,2,20.89,3.28,35.08l4,44.06V261a6.36,6.36,0,0,0,1,3.53v0c0,2.93-3.2,5.31-1,5.31h.22c1.71,0,3.16-1.49,3.71-3.55h.24c2.18,0,4-2.39,4-5.32V171.08C521.45,168.15,517.86,164.8,514.49,164.8Z" transform="translate(59)"/><path class="cls-16" d="M515.7,164.93l0,0c-3,.59-5.54,3.88-5.25,9.86.81,16.58,5.51,72.92,5.51,72.92l.48,13.2a6.77,6.77,0,0,0,.2,1.58c-.39,2.09-1,3.72.63,3.74h.24c2.18,0,4-2.39,4-5.32V171.08C521.45,168.5,518.67,165.59,515.7,164.93Z" transform="translate(59)"/><path class="cls-12" d="M595.75,164.93c3.92,0,8.52,2.57,8.41,9.17-.1,6-2,20.89-3.28,35.08l-4,44.06v7.86a6.36,6.36,0,0,1-1,3.53v0c0,2.93,3.2,5.31,1,5.31h-.22c-1.71,0-3.16-1.49-3.71-3.55h-.24c-2.18,0-4-2.39-4-5.32V171.21C588.79,168.29,592.38,164.93,595.75,164.93Z" transform="translate(59)"/><path class="cls-16" d="M594.54,165.07l0,.05c3,.59,5.53,3.88,5.24,9.86-.81,16.58-5.51,72.92-5.51,72.92l-.48,13.2a6.77,6.77,0,0,1-.2,1.58c.39,2.09,1,3.72-.63,3.74h-.24c-2.18,0-4-2.39-4-5.32V171.21C588.79,168.64,591.57,165.73,594.54,165.07Z" transform="translate(59)"/><path class="cls-16" d="M614.49,241.89c-7-1.94-9.46-3.18-15.86-4.35-5-.92-9.29,4.16-9.29,9.29a2.45,2.45,0,0,0,0,.27,1.94,1.94,0,0,0,0,.24v34.28l13.19,4V262a13.71,13.71,0,0,1,3.29-4.65C609.81,256.34,618.64,243,614.49,241.89Z" transform="translate(59)"/><path class="cls-12" d="M621.11,250.79a9.29,9.29,0,1,0-18.58,0c0,.09,0,.17,0,.26s0,.17,0,.25v34.28h7l3.4-21.54c.11-.85.5-3.86,1.3-4.28A9.29,9.29,0,0,0,621.11,250.79Z" transform="translate(59)"/><path class="cls-17" d="M495.75,241.89c7-1.94,9.46-3.18,15.86-4.35,5-.92,9.29,4.16,9.29,9.29,0,.09,0,.18,0,.27s0,.16,0,.24v34.28l-13.19,4V262a13.57,13.57,0,0,0-3.29-4.65C500.43,256.34,491.6,243,495.75,241.89Z" transform="translate(59)"/><path class="cls-17" d="M489.14,250.79a9.29,9.29,0,1,1,18.57,0c0,.09,0,.17,0,.26s0,.17,0,.25v34.28h-6.95L497.36,264c-.11-.85-.5-3.86-1.3-4.28A9.28,9.28,0,0,1,489.14,250.79Z" transform="translate(59)"/><path class="cls-16" d="M495.75,241.89c7-1.94,9.46-3.18,15.86-4.35,5-.92,9.29,4.16,9.29,9.29,0,.09,0,.18,0,.27s0,.16,0,.24v34.28l-13.19,4V262a13.57,13.57,0,0,0-3.29-4.65C500.43,256.34,491.6,243,495.75,241.89Z" transform="translate(59)"/><path class="cls-12" d="M489.14,250.79a9.29,9.29,0,1,1,18.57,0c0,.09,0,.17,0,.26s0,.17,0,.25v34.28h-6.95L497.36,264c-.11-.85-.5-3.86-1.3-4.28A9.28,9.28,0,0,1,489.14,250.79Z" transform="translate(59)"/><path class="cls-12" d="M607.8,291.37H502.44A2.65,2.65,0,0,0,499.8,294l2.64,21.75a2.65,2.65,0,0,0,2.64,2.64H605.16a2.65,2.65,0,0,0,2.64-2.64L610.44,294A2.65,2.65,0,0,0,607.8,291.37Z" transform="translate(59)"/><path class="cls-15" d="M589.66,263.54a5.49,5.49,0,0,0-4.17-1.18H524.75a5.49,5.49,0,0,0-4.17,1.18c-4.91,3.63-13,9.81-13,9.81a4,4,0,0,0,4,4h87.1a4,4,0,0,0,4-4S594.57,267.17,589.66,263.54Z" transform="translate(59)"/><rect class="cls-12" x="555.95" y="274.67" width="116.35" height="16.7" rx="3.96" ry="3.96"/><path class="cls-18" d="M620.54,312.53c2.43-2,11.28-3,20.9-3s18.48,1,20.91,3v1.74c0,2.61-9.36,4.73-20.91,4.73s-20.9-2.12-20.9-4.73Z" transform="translate(59)"/><ellipse class="cls-19" cx="700.45" cy="312.54" rx="20.91" ry="4.73"/><rect class="cls-18" x="699.34" y="143.85" width="2.23" height="168.4"/><polygon class="cls-7" points="735.05 143.85 665.83 143.85 675.06 100.19 725.82 100.19 735.05 143.85"/><path class="cls-20" d="M660.42,303.27c0-2.51,2-17.73,4.54-17.73s4.54,15.22,4.54,17.73a4.54,4.54,0,1,1-9.08,0Z" transform="translate(59)"/><path class="cls-20" d="M660.42,271.73c0,1.06,2,7.44,4.54,7.44s4.54-6.38,4.54-7.44-2-1.9-4.54-1.9S660.42,270.68,660.42,271.73Z" transform="translate(59)"/><path class="cls-20" d="M670.31,282.36c0,1-4.07,3.19-5.35,3.18s-5.35-2.15-5.35-3.18,4-3.19,5.35-3.19S670.31,281.32,670.31,282.36Z" transform="translate(59)"/><path class="cls-20" d="M668.69,311.21c0,.58-1.67,1.05-3.73,1.05s-3.74-.47-3.74-1.05,1.67-1,3.74-1S668.69,310.64,668.69,311.21Z" transform="translate(59)"/><ellipse class="cls-20" cx="723.96" cy="320.42" rx="2.56" ry="1.6"/><path class="cls-20" d="M666.88,312.07a2.68,2.68,0,0,0-1.65-.57v0l-.27,0-.28,0v0a2.65,2.65,0,0,0-1.64.57,21.11,21.11,0,0,1,.66,6.75A2.09,2.09,0,0,0,665,319a2.05,2.05,0,0,0,1.25-.21A21.42,21.42,0,0,1,666.88,312.07Z" transform="translate(59)"/><path class="cls-20" d="M666.88,307.16a2.74,2.74,0,0,0-1.65-.57v0a2.44,2.44,0,0,0-.27,0,2.62,2.62,0,0,0-.28,0v0a2.71,2.71,0,0,0-1.64.57c.66,2.44.69,2.31.66,2.79a2,2,0,0,0,1.26.22,2,2,0,0,0,1.25-.22C666.18,309.1,666.22,309.6,666.88,307.16Z" transform="translate(59)"/><path class="cls-7" d="M667.82,294v10.34s4.11-.82,5.45,4.78,3.34,15.58,3.51,16.41a13.81,13.81,0,0,0,3.58,6.72c1.27,1.19,3.48,3,4.11,2.18a3.67,3.67,0,0,0,.81-2.18c.08-1.64-1.27-2.08-2.24-2.61-1.84-1-2.91-2.43-3.48-7.35-.12-1-1.07-11.68-1.37-14.59S677.15,294.81,667.82,294Z" transform="translate(59)"/><path class="cls-20" d="M667.38,295.31v10.35s4.1-.82,5.44,4.77,3.34,15.58,3.51,16.42a13.86,13.86,0,0,0,3.58,6.71c2.12,2,4.85,1.64,4.92,0s-1.27-2.08-2.23-2.61c-1.85-1-2.91-2.43-3.49-7.34-.11-1-1.07-11.69-1.36-14.6S676.7,296.16,667.38,295.31Z" transform="translate(59)"/><path class="cls-7" d="M662.42,294v10.34s-4.1-.82-5.44,4.78-3.34,15.58-3.51,16.41a13.89,13.89,0,0,1-3.58,6.72c-1.28,1.19-3.48,3-4.12,2.18a3.74,3.74,0,0,1-.81-2.18c-.07-1.64,1.28-2.08,2.24-2.61,1.85-1,2.91-2.43,3.49-7.35.11-1,1.06-11.68,1.36-14.59S653.1,294.81,662.42,294Z" transform="translate(59)"/><path class="cls-20" d="M662.87,295.31v10.35s-4.1-.82-5.45,4.77-3.33,15.58-3.5,16.42a13.86,13.86,0,0,1-3.58,6.71c-2.12,2-4.85,1.64-4.93,0s1.28-2.08,2.24-2.61c1.85-1,2.91-2.43,3.48-7.34.12-1,1.07-11.69,1.37-14.6S653.54,296.16,662.87,295.31Z" transform="translate(59)"/><path class="cls-20" d="M620.54,266.72c5.17-2.72,24-4.06,44.5-4.06s39.34,1.34,44.51,4.06v2.36c0,3.54-19.93,6.41-44.51,6.41s-44.5-2.87-44.5-6.41Z" transform="translate(59)"/><path class="cls-7" d="M709.57,266.74c0,3.54-19.92,6.41-44.5,6.41s-44.51-2.87-44.51-6.41,19.93-6.42,44.51-6.42S709.57,263.19,709.57,266.74Z" transform="translate(59)"/><path class="cls-21" d="M656.14,265.71l-20.59,3c-1-1.06-5.33-5.54-5.33-6.27v-2.42a1.32,1.32,0,0,1,1.31-1.32h21.64a3.66,3.66,0,0,1,2.47.91c1.89,1.89,5.21,4.77,5.21,4.77C660.85,265.14,656.87,265.71,656.14,265.71Z" transform="translate(59)"/><path class="cls-22" d="M660.27,267.92h-1.72a.75.75,0,0,0,0-.16v-2.43a.75.75,0,0,0,0-.16h1.72a.58.58,0,0,0,0-1.16h-24.2a.57.57,0,0,0-.56.49l0,0v.07s0,0,0,0v3.81h0s0,.05,0,.07a.58.58,0,0,0,.58.58h24.2a.58.58,0,0,0,0-1.16Z" transform="translate(59)"/><path class="cls-20" d="M660.35,265.16H637.73a1.38,1.38,0,0,0-1.32,1.43v-.11a1.39,1.39,0,0,0,1.32,1.44h22.62Z" transform="translate(59)"/></g><g class="cls-23"><rect class="cls-24" x="59" y="292.02" width="400" height="107.98"/><rect class="cls-25" x="59" y="292.02" width="400" height="107.98"/><rect class="cls-26" x="59" y="0.23" width="400" height="291.79"/><rect class="cls-27" x="59.33" y="183.07" width="400" height="108.95"/><rect class="cls-28" x="59.08" y="278.17" width="400" height="13.85"/><rect class="cls-29" x="59" y="158.54" width="400" height="24.53"/><path class="cls-28" d="M43.33,198v80.17H-58V198H43.33m1-1H-59v82.17H44.33V197Z" transform="translate(59)"/><line class="cls-30" x1="0.55" y1="237.9" x2="103.33" y2="237.9"/><path class="cls-28" d="M35.71,205.84V229.9H-50.34V205.84H35.71m3-3H-53.34V232.9H38.71V202.84Z" transform="translate(59)"/><path class="cls-28" d="M30.43,210v15.72h-75.5V210h75.5m1-1h-77.5v17.72h77.5V209Z" transform="translate(59)"/><rect class="cls-31" x="39.31" y="212.43" width="24.75" height="2.5" rx="1" ry="1"/><path class="cls-28" d="M35.72,245.84V269.9H-50.34V245.84H35.72m3-3H-53.34V272.9H38.72V242.84Z" transform="translate(59)"/><path class="cls-28" d="M30.44,250v15.72h-75.5V250h75.5m1-1h-77.5v17.72h77.5V249Z" transform="translate(59)"/><rect class="cls-31" x="39.29" y="252.43" width="24.75" height="2.5" rx="1" ry="1"/><path class="cls-28" d="M43.33,183.39V197H-58V183.39H43.33m1-1H-59V198H44.33V182.39Z" transform="translate(59)"/><rect class="cls-31" x="8.41" y="189.43" width="24.75" height="2.5" rx="1" ry="1"/><rect class="cls-31" x="68.41" y="189.43" width="24.75" height="2.5" rx="1" ry="1"/><rect class="cls-2" x="103.83" y="197.5" width="102.33" height="81.17"/><path class="cls-28" d="M146.67,198v80.17H45.33V198H146.67m1-1H44.33v82.17H147.67V197Z" transform="translate(59)"/><rect class="cls-28" x="117.83" y="215.93" width="75" height="47.73" rx="1" ry="1"/><rect class="cls-32" x="117.83" y="215.93" width="75" height="47.73" rx="1" ry="1"/><rect class="cls-33" x="109" y="202.84" width="92.05" height="6.17" rx="1" ry="1"/><rect class="cls-2" x="103.83" y="182.89" width="102.33" height="14.58"/><path class="cls-28" d="M146.67,183.39V197H45.33V183.39H146.67m1-1H44.33V198H147.67V182.39Z" transform="translate(59)"/><circle class="cls-33" cx="130.28" cy="190.18" r="3.5"/><circle class="cls-33" cx="154.09" cy="190.18" r="3.5"/><circle class="cls-33" cx="177.9" cy="190.18" r="3.5"/><path class="cls-28" d="M250,198v80.17H148.67V198H250m1-1H147.67v82.17H251V197Z" transform="translate(59)"/><line class="cls-30" x1="258.33" y1="278.15" x2="258.33" y2="197.65"/><path class="cls-28" d="M186.63,205.84v64H156.41v-64h30.22m3-3H153.41v70h36.22v-70Z" transform="translate(59)"/><path class="cls-28" d="M182.71,210v55.71H160.33V210h22.38m1-1H159.33v57.71h24.38V209Z" transform="translate(59)"/><circle class="cls-31" cx="253.84" cy="205.25" r="2.41"/><path class="cls-28" d="M242.26,205.84v64H212v-64h30.22m3-3H209v70h36.22v-70Z" transform="translate(59)"/><path class="cls-28" d="M238.34,210v55.71H216V210h22.38m1-1H215v57.71h24.38V209Z" transform="translate(59)"/><path class="cls-31" d="M201.41,205.25a2.42,2.42,0,1,0,2.41-2.41A2.41,2.41,0,0,0,201.41,205.25Z" transform="translate(59)"/><path class="cls-28" d="M353.33,198v80.17H252V198H353.33m1-1H251v82.17H354.33V197Z" transform="translate(59)"/><line class="cls-30" x1="361.67" y1="278.15" x2="361.67" y2="197.65"/><path class="cls-28" d="M290,205.84v64H259.74v-64H290m3-3H256.74v70H293v-70Z" transform="translate(59)"/><path class="cls-28" d="M286,210v55.71H263.66V210H286m1-1H262.66v57.71H287V209Z" transform="translate(59)"/><path class="cls-31" d="M300.59,205.25a2.42,2.42,0,1,1-2.41-2.41A2.41,2.41,0,0,1,300.59,205.25Z" transform="translate(59)"/><path class="cls-28" d="M345.59,205.84v64H315.37v-64h30.22m3-3H312.37v70h36.22v-70Z" transform="translate(59)"/><path class="cls-28" d="M341.67,210v55.71H319.29V210h22.38m1-1H318.29v57.71h24.38V209Z" transform="translate(59)"/><circle class="cls-31" cx="366.16" cy="205.25" r="2.41"/><rect class="cls-27" x="245.09" y="34.5" width="209.35" height="3"/><path class="cls-28" d="M394.94,35v2H186.59V35H394.94m1-1H185.59v4H395.94V34Z" transform="translate(59)"/><rect class="cls-27" x="245.21" y="118.71" width="209.35" height="3"/><path class="cls-28" d="M395.06,119.21v2H186.71v-2H395.06m1-1H185.71v4H396.06v-4Z" transform="translate(59)"/><rect class="cls-27" x="246.93" y="37.5" width="102.33" height="81.17"/><path class="cls-28" d="M289.77,38v80.17H188.43V38H289.77m1-1H187.43v82.17H290.77V37Z" transform="translate(59)"/><line class="cls-30" x1="298.1" y1="118.15" x2="298.1" y2="37.65"/><rect class="cls-34" x="253.68" y="44.34" width="33.22" height="67.05"/><path class="cls-28" d="M226.4,45.84v64.05H196.18v-64H226.4m3-3H193.18v70.05H229.4v-70Z" transform="translate(59)"/><line class="cls-30" x1="270" y1="110.67" x2="270" y2="44.67"/><line class="cls-30" x1="253.83" y1="66.41" x2="287" y2="66.41"/><line class="cls-30" x1="253.04" y1="89.32" x2="286.2" y2="89.32"/><circle class="cls-31" cx="293.61" cy="110.25" r="2.41"/><rect class="cls-34" x="309.31" y="44.34" width="33.22" height="67.05"/><path class="cls-28" d="M282,45.84v64.05H251.81v-64H282m3-3H248.81v70.05H285v-70Z" transform="translate(59)"/><line class="cls-30" x1="325.64" y1="110.67" x2="325.64" y2="44.67"/><line class="cls-30" x1="309.47" y1="66.41" x2="342.64" y2="66.41"/><line class="cls-30" x1="308.67" y1="89.32" x2="341.84" y2="89.32"/><path class="cls-31" d="M241.18,110.25a2.42,2.42,0,1,0,2.41-2.41A2.41,2.41,0,0,0,241.18,110.25Z" transform="translate(59)"/><rect class="cls-27" x="350.27" y="37.5" width="102.33" height="81.17"/><path class="cls-28" d="M393.1,38v80.17H291.77V38H393.1m1-1H290.77v82.17H394.1V37Z" transform="translate(59)"/><line class="cls-30" x1="401.43" y1="118.15" x2="401.43" y2="37.65"/><rect class="cls-34" x="357.02" y="44.34" width="33.22" height="67.05"/><path class="cls-28" d="M329.73,45.84v64.05H299.52v-64h30.21m3-3H296.52v70.05h36.21v-70Z" transform="translate(59)"/><line class="cls-30" x1="373.34" y1="110.67" x2="373.34" y2="44.67"/><line class="cls-30" x1="357.17" y1="66.41" x2="390.34" y2="66.41"/><line class="cls-30" x1="356.38" y1="89.32" x2="389.54" y2="89.32"/><path class="cls-31" d="M340.36,110.25a2.42,2.42,0,1,1-2.42-2.41A2.42,2.42,0,0,1,340.36,110.25Z" transform="translate(59)"/><rect class="cls-34" x="412.65" y="44.34" width="33.22" height="67.05"/><path class="cls-28" d="M385.37,45.84v64.05H355.15v-64h30.22m3-3H352.15v70.05h36.22v-70Z" transform="translate(59)"/><line class="cls-30" x1="428.97" y1="110.67" x2="428.97" y2="44.67"/><line class="cls-30" x1="412.81" y1="66.41" x2="445.97" y2="66.41"/><line class="cls-30" x1="412.01" y1="89.32" x2="445.18" y2="89.32"/><circle class="cls-31" cx="405.92" cy="110.25" r="2.41"/><path class="cls-28" d="M353.33,183.39V197H252V183.39H353.33m1-1H251V198H354.33V182.39Z" transform="translate(59)"/><rect class="cls-31" x="318.41" y="189.43" width="24.75" height="2.5" rx="1" ry="1"/><rect class="cls-31" x="378.41" y="189.43" width="24.75" height="2.5" rx="1" ry="1"/><path class="cls-28" d="M456.67,198v80.17H355.33V198H456.67m1-1H354.33v82.17H457.67V197Z" transform="translate(59)"/><line class="cls-30" x1="413.88" y1="237.9" x2="516.67" y2="237.9"/><path class="cls-28" d="M449,205.84V229.9H363V205.84H449m3-3H360V232.9H452V202.84Z" transform="translate(59)"/><path class="cls-28" d="M443.77,210v15.72h-75.5V210h75.5m1-1h-77.5v17.72h77.5V209Z" transform="translate(59)"/><rect class="cls-31" x="452.64" y="212.43" width="24.75" height="2.5" rx="1" ry="1"/><path class="cls-28" d="M449.05,245.84V269.9H363V245.84h86.05m3-3H360V272.9h92.05V242.84Z" transform="translate(59)"/><path class="cls-28" d="M443.77,250v15.72H368.28V250h75.49m1-1H367.28v17.72h77.49V249Z" transform="translate(59)"/><rect class="cls-31" x="452.63" y="252.43" width="24.75" height="2.5" rx="1" ry="1"/><path class="cls-28" d="M456.67,183.39V197H355.33V183.39H456.67m1-1H354.33V198H457.67V182.39Z" transform="translate(59)"/><rect class="cls-31" x="421.74" y="189.43" width="24.75" height="2.5" rx="1" ry="1"/><rect class="cls-31" x="481.74" y="189.43" width="24.75" height="2.5" rx="1" ry="1"/><rect class="cls-20" x="59" y="176.39" width="400" height="7.78"/><path class="cls-27" d="M201.15,141.08a8.72,8.72,0,0,0-17.44,0,.41.41,0,0,0,.41.41h2.77a.41.41,0,0,0,.41-.41,5.12,5.12,0,0,1,10.22-.35v26.81a1,1,0,0,0,1,1h1.63a1,1,0,0,0,1-1V141.45a.91.91,0,0,0-.08-.37Z" transform="translate(59)"/><polygon class="cls-35" points="310 176.33 206.67 176.33 210.28 158.54 306.33 158.54 310 176.33"/><polygon class="cls-36" points="255.7 174.39 209.51 174.19 212.54 159.73 255.7 159.93 255.7 174.39"/><rect class="cls-36" x="206.67" y="176.33" width="103.33" height="20.67"/><polygon class="cls-27" points="212.56 159.73 212.54 159.73 209.51 174.19 212.56 174.2 212.56 159.73"/><polygon class="cls-36" points="260.96 174.39 307.16 174.19 304.12 159.73 260.96 159.93 260.96 174.39"/><polygon class="cls-27" points="304.11 159.73 304.12 159.73 307.16 174.19 304.11 174.2 304.11 159.73"/><polygon class="cls-37" points="196.97 174.13 115.51 174.19 126.55 159.73 200.97 159.67 196.97 174.13"/><path class="cls-33" d="M81.45,163.18c6.86,0,11.63,1.88,11.63,3.56s-5.14,3.88-12.52,3.88l-.9,0c-6-.14-9.71-1.62-10.57-2.93a1,1,0,0,1-.12-1c.7-1.67,5.67-3.48,12.48-3.48m0-.5c-6.36,0-12,1.64-12.94,3.79-1,2.32,3.88,4.47,11.14,4.63l.91,0c7.16,0,13-2,13-4.38s-5.53-4.06-12.13-4.06Z" transform="translate(59)"/><path class="cls-33" d="M122.45,163.18c6.86,0,11.63,1.88,11.63,3.56s-5.14,3.88-12.52,3.88l-.9,0c-6-.14-9.71-1.62-10.57-2.93a1,1,0,0,1-.12-1c.7-1.67,5.67-3.48,12.48-3.48m0-.5c-6.36,0-12,1.64-12.94,3.79-1,2.32,3.88,4.47,11.14,4.63l.91,0c7.16,0,13-2,13-4.38s-5.53-4.06-12.13-4.06Z" transform="translate(59)"/><polygon class="cls-38" points="181.71 81.18 147.52 81.18 134.72 112.95 188.83 113 193.49 110.39 181.71 81.18"/><rect class="cls-38" x="147.5" y="0.23" width="34.19" height="81"/><rect class="cls-2" x="145.5" y="0.23" width="34.19" height="81"/><polygon class="cls-2" points="179.69 81.23 145.5 81.23 132.7 113 188.83 113 179.69 81.23"/><rect class="cls-37" x="45" y="93.67" width="54" height="4.67" rx="1" ry="1"/><rect class="cls-37" x="83.35" y="99.48" width="4.67" height="30.67" rx="1" ry="1"/><rect class="cls-2" x="81.67" y="71" width="6.67" height="30.67" rx="1" ry="1"/><rect class="cls-37" x="72.35" y="99.48" width="4.67" height="20.67" rx="1" ry="1"/><path class="cls-2" d="M17.33,101.67H7.67a1,1,0,0,1-1-1V73.56a1.18,1.18,0,0,1,1-1.2C10.35,72,17.33,71,17.33,71a1,1,0,0,1,1,1v28.67A1,1,0,0,1,17.33,101.67Z" transform="translate(59)"/><path class="cls-36" d="M320.17,161.5l-26.71,2.78-2.29-2.46c-.45-.32-1.08-.71-1.18-1.2l-2-10a.91.91,0,0,1,.92-1.13H322.4c.63,0,.9.29,1.64.95l2.79,2.14-5.49,8A1.2,1.2,0,0,1,320.17,161.5Z" transform="translate(59)"/><path class="cls-39" d="M295.71,155.26c-2-1.4-5-1.87-6-4.14a1.35,1.35,0,0,1-.13-.65,1.09,1.09,0,0,1,1.13-.82,3,3,0,0,1,1.42.5,11.7,11.7,0,0,1-2.7-3.08,4.85,4.85,0,0,1,2.14.83,11,11,0,0,1-2-6.14,20.17,20.17,0,0,1,3,3.63c-1.28-3.84-3.68-7.64-2.92-11.62.12-.64.45-1.38,1.1-1.44s1,.4,1.28.86c2,3,1.18,7.39,3.52,10.14a4.71,4.71,0,0,1,.75-2.72,1.64,1.64,0,0,1,2.47-.22,2.29,2.29,0,0,1,.33,1.15,28.67,28.67,0,0,1,.1,3.82c.34.16.57-.34.85-.59.54-.47,1.42.16,1.53.87a6.64,6.64,0,0,1-.34,2.1.81.81,0,0,0,.13.73c.25.23.66.1,1,.19.69.18.72,1.18.46,1.85s-.69,1.41-.38,2.07a3.44,3.44,0,0,1,.37.68.93.93,0,0,1-.16.68c-1,1.55-3.63.69-4.93,2" transform="translate(59)"/><path class="cls-39" d="M311.2,155.28a10.63,10.63,0,0,1-3.39-2.31,1.49,1.49,0,0,1-.47-.72c-.14-.67.6-1.22,1.28-1.31a15.46,15.46,0,0,0,2.05-.12,10,10,0,0,1-2.25-2.19,1.29,1.29,0,0,1,.94-.49c-.6-.11-.7-1-.29-1.46a2.57,2.57,0,0,1,1.67-.6,8.27,8.27,0,0,0-1.9-1.29,3.54,3.54,0,0,1-1.6-1.6,1.51,1.51,0,0,1,.7-1.95,4.28,4.28,0,0,1,1.29-.05,1,1,0,0,0,1-.6c.11-.41-.23-.79-.5-1.12a11.55,11.55,0,0,1-1.88-4,3.5,3.5,0,0,1-.26-1.56,1.23,1.23,0,0,1,1-1.12c.7-.08,1.44.65,2.05.29a1.22,1.22,0,0,0,.49-.8,19.29,19.29,0,0,0,.27-3.73,4.88,4.88,0,0,1,1.31-3.4c1,2.34.52,5,.94,7.56a1,1,0,0,0,.21.54c.33.34.93.08,1.25-.28s.63-.82,1.11-.87,1.08.7,1,1.33a4,4,0,0,1-.94,1.63,2.22,2.22,0,0,0-.6,1.75c.19.88,1.21,1.26,2.1,1.4a5.21,5.21,0,0,1,2.07.59,1.42,1.42,0,0,1,.56,1.86,1.44,1.44,0,0,1,1.22,2.59c-.44.27-1.05.33-1.32.77a1.06,1.06,0,0,0,.61,1.4,3,3,0,0,0,1.72,0l-.57,1.54a1.47,1.47,0,0,1,1.62.67,1.26,1.26,0,0,1-.45,1.65c-.84.47-2.21-.12-2.7.72s.51,1.57.7,2.43c.27,1.21-1,2.18-2.15,2.61a11.39,11.39,0,0,1-7.25.22" transform="translate(59)"/><path class="cls-36" d="M324.17,164.5h-30a1.21,1.21,0,0,1-1.18-.88l-2-10a.91.91,0,0,1,.92-1.13H326.4a.91.91,0,0,1,.92,1.13l-2,10A1.2,1.2,0,0,1,324.17,164.5Z" transform="translate(59)"/></g><g class="cls-40"><path class="cls-41" d="M403.49,541.63a14.73,14.73,0,0,1-6.53-9.39c1.33-1.77,4.14-1.5,6-.35s3.37,2.92,5.36,3.89a14.22,14.22,0,0,1,.51-11.22c.36-.72.89-1.5,1.7-1.57,1.21-.12,1.88,1.34,2.19,2.52.64,2.47,1.27,4.94,1.91,7.41,1.53-2.26,1.4-6.15,4.07-6.72,1.58-.34,3.13,1,3.6,2.57a9.78,9.78,0,0,1-.18,4.8,9.89,9.89,0,0,1,4.74-2c1.73-.08,3.64,1,3.82,2.75.77-1.78,3.3-2.22,5-1.31a8.19,8.19,0,0,1,3.44,4.54,17.31,17.31,0,0,0-.47-5.76c-.32-1.92-.45-4,.52-5.68s3.39-2.63,4.92-1.44a5.33,5.33,0,0,1,1.44,2.27c1.09,2.66,2.19,5.31,3.29,8,.2-3.09,4.2-4.91,7-3.66s4.31,4.57,4.25,7.68a5.13,5.13,0,0,1,10.22.78c-.19-1.91-.85-4,.74-5.08s3.91-.08,5.3,1.33,2.43,3.24,4.17,4.19c.57-2.32-1.22-4.46-2.18-6.64s-.2-5.7,2.17-5.48c1.23.11,2.07,1.24,2.75,2.26q2.87,4.27,5.72,8.57a26.43,26.43,0,0,1,1-11.42c.5-1.6,2-3.48,3.45-2.59.83.52.92,1.67.91,2.65l0,7.72c-.07-1.71,1-3.62,2.66-3.85s3.22,2.21,1.92,3.33c1.7-1.56,3.51-3.19,5.76-3.67s5,.7,5.43,3a12.57,12.57,0,0,1,9.8.76c-.68-3-1.36-6-2-9,1.62-1.31,4.21-.51,5.5,1.12s1.63,3.81,1.92,5.87c.83-2.37,3.19-4.86,5.45-3.79,2.45,1.15,1.77,4.92,3.28,7.17,3.05-3.13,9-1.4,10.85,2.56a8.84,8.84,0,0,1,5.5-8.93,2,2,0,0,1,1.8,0,2.32,2.32,0,0,1,.79,1.41q.78,2.91,1.57,5.81a4.27,4.27,0,0,1,3-3.84,3.2,3.2,0,0,1,3.88,2.49l.42-8.17c.09-1.57,1-3.72,2.46-3.17.71.27,1,1.09,1.23,1.82.82,2.71,1.65,5.41,2.47,8.11a6.34,6.34,0,0,1,1.8-2.51,2.17,2.17,0,0,1,2.84.14,3.08,3.08,0,0,1,.52,1.25c.38,1.5.76,3,1.13,4.51a5.63,5.63,0,0,1,11.17-.29c2-3.4,7.92-3.67,10.21-.46l-.39-6.26a1.44,1.44,0,0,1,.25-1.15c.65-.67,1.67.3,2.08,1.14l2.62,5.41a15.27,15.27,0,0,1,3.94-11.84q1.43,5.24,2.35,10.6c1.27-2.31,3.41-4.42,6-4.52s5.22,2.8,4,5.15a14.91,14.91,0,0,1,5.48-3.43c2.1-.57,4.68,0,5.74,1.92-.67-3-1.35-6-2-9A13.69,13.69,0,0,1,633,533a15.34,15.34,0,0,1,1.57-5.51,5.18,5.18,0,0,1,4.7-2.76c1,1.5.17,3.57-.9,5.06s-2.38,3.07-2.16,4.89c1.34-2.22,3.42-4.78,5.94-4.13a3.11,3.11,0,0,1,2.26,2.56c1.1-1.72,3.62-.74,5.11.65s2.48,3.37,4.29,4.31a6.71,6.71,0,0,0,0-4.11,7.72,7.72,0,0,1-.17-4.12c.46-1.32,2-2.35,3.27-1.69a3.65,3.65,0,0,1,1.38,1.81l2.67,5.71a6.43,6.43,0,0,1,.47-3A2.2,2.2,0,0,1,664,531.4a11.49,11.49,0,0,1,.71,4.18,13.25,13.25,0,0,1,4.07-8c1-1,2.87-1.73,3.78-.62a3,3,0,0,1,.45,1.79l.21,5.65a4.37,4.37,0,0,1,8.4-.14q-.48-4.72-1-9.46c.82-1.07,2.46.12,3.21,1.25,1.41,2.1,2.81,4.21,4.22,6.32a3.83,3.83,0,0,1,3.11-2.65c2.15-.18,3.81,1.76,5.08,3.49a3.15,3.15,0,0,1,4.09-1.78c1.57.7,2.23,2.54,2.73,4.19,0-1.5,1.73-2.56,3.23-2.38a5.69,5.69,0,0,1,3.65,2.47c.91,1.2,1.59,2.57,2.57,3.71,1.13-2.32-1.2-5.65.65-7.46a2.92,2.92,0,0,1,3.74.08,7,7,0,0,1,2,3.49,15.88,15.88,0,0,0,1.43,3.83c-.35-2.06,2.33-4.11,4.4-3.89s3.79,1.65,5.36,3a8.43,8.43,0,0,1-1.27-3.71,2.89,2.89,0,0,1,2.09-3c2.82-.47,3.5,4.19,6.07,5.46a6.13,6.13,0,0,1,7.37-4.5c.38,1.54.77,3.07,1.16,4.6,1-1.69,1.08-3.82,2-5.6s3.39-3.12,4.79-1.71a4.2,4.2,0,0,1,.88,1.84l2.06,7.13a3,3,0,0,1,2.86-3.46,4,4,0,0,1,3.67,3.09,4.21,4.21,0,0,1,8.09-2.28q.1-3.66.19-7.31a3.86,3.86,0,0,1,.44-2c.75-1.16,2.56-1.17,3.69-.38a7.84,7.84,0,0,1,2.34,3.37,10.48,10.48,0,0,1,1.26-4.49,3.79,3.79,0,0,1,4-1.85c1.51.42,2.37,2.58,1.26,3.68,1-2,4.39-1.25,5.32.79s.24,4.42-.48,6.55c.94-2.24,4.39-2.45,6.13-.76s2,4.45,1.38,6.8c2.7-2.2,7-.92,9.23,1.76s2.87,6.29,3.45,9.72c2,11.52,3.92,23.16,3.38,34.84l-3.06,105.32-415.95-1.66,2.69-145.34Z" transform="translate(59)"/><path class="cls-42" d="M803.57,684.61c-.72.87-2.17.22-2.85-.69s-1.14-2.09-2.2-2.5a2.66,2.66,0,0,0-2.82.94,7.67,7.67,0,0,0-1.32,2.85,62.15,62.15,0,0,0-1.18-6.2c-.17-.66-.53-1.46-1.21-1.43a1.49,1.49,0,0,0-.92.57,26.16,26.16,0,0,0-3.39,4.52,7.79,7.79,0,0,0-3-3.83l-3,6.79a64.8,64.8,0,0,0-1.92-7.77l-4.94,6.88-1.86-7.28a8.45,8.45,0,0,0-2.91,4.73,24.67,24.67,0,0,1-2.55-4.13,8.08,8.08,0,0,0-3.33,5.16,23.48,23.48,0,0,1-3.29-8.16,37.48,37.48,0,0,0-2.94,6.9,39.25,39.25,0,0,0-3.52-5.17L750,683.64q-1.53-3.61-3.07-7.25a25.79,25.79,0,0,0-6,7.38,17,17,0,0,1-4.17-4.73c-.92,1.13-1.85,2.25-2.77,3.37a8.72,8.72,0,0,1-2.94-3.15,6.63,6.63,0,0,0-2.69,3.45,2.94,2.94,0,0,0-5.75-.93,3,3,0,0,0-4.88.61,7.13,7.13,0,0,0-3.66-4.13c-.81,1.33-1.61,2.66-2.42,4a20.06,20.06,0,0,0-3.63-5.38l-4,5.85-2.29-4.27q-1.34,3.06-2.68,6.1a8.86,8.86,0,0,1-3.92-4.76,13.53,13.53,0,0,0-3.69,4.68c-2.38.68-3.39-3.1-5.54-4.32a3.25,3.25,0,0,0-4.58,3,15,15,0,0,0-3.57-2.87l-4.11,4.86-3.55-5.35a16.48,16.48,0,0,0-3.4,4.67l-2.91-5.57a16.35,16.35,0,0,0-3.41,4.55l-2-3.5-2.78,3.78-4.12-6-4.19,4.75a2.45,2.45,0,0,1-1.11.86c-1.95.55-2.16-3.12-3.95-4.06a16.84,16.84,0,0,0-4.15,4.31l-3.4-4.23L631.24,684l-2.2-4.4-2.37,5.11q-1.62-2.69-3.25-5.37l-2.25,6q-1.62-2.89-3.23-5.79c-.23-.4-.53-.86-1-.88s-.85.44-1.11.85L612.36,685l-2.44-5.55a29.66,29.66,0,0,0-4.73,6.14c-1.68-2-3.37-3.9-5.05-5.86l-2.4,3c-.89-2.23-1.79-4.45-2.69-6.68-1.6,2.3-3.57,4.15-5.16,6.45a9.37,9.37,0,0,0-3.92-4.64,16.31,16.31,0,0,0-1.76,5.9l-3.61-5.83a25,25,0,0,0-3.62,5.58l-3-4.43a25,25,0,0,0-2.43,5.18c-.85-1.42-1.71-2.83-2.57-4.25l-1.54,1.33a7.36,7.36,0,0,0-2.69-3.08l-1.9,4.63a24,24,0,0,1-2.41-5.1c-.81,2.09-1.63,4.17-2.44,6.25l-2.23-5-1.18,3-2.17-2.61a9.85,9.85,0,0,1-1.41,3.05l-2-2.84-1.79,3.07-2.26-4a16.83,16.83,0,0,0-3,4.34,9.62,9.62,0,0,1-2.3-3.71c-1.18,1.27-2.31,2.59-3.37,4a7.9,7.9,0,0,0-2.36-3.12,2.7,2.7,0,0,0-3.57.33c-.45.61-.61,1.53-1.33,1.78-1.83.62-1.55-3.75-3.48-4-1.21,1.47-2.43,2.94-3.64,4.42l-1.89-4.56-4,3.55a8.3,8.3,0,0,0-1.49-3,11.68,11.68,0,0,1-2.66,3.15q-1.11-1.95-2.24-3.9c-1.14,1.43-1.57,2.21-3.38,2.48a9,9,0,0,0-3.57,1.35l-1.78-2.22a24.88,24.88,0,0,1-3.29,3.36,14,14,0,0,1-3-3.56A11.35,11.35,0,0,0,492,683c-.8-.91-1.59-1.83-2.39-2.75a4.61,4.61,0,0,0-2.42,2.9l-2.91-3.77a11,11,0,0,0-2.6,3l-2.07-3.13c-1,2.31-5.06,2.1-5.84-.3a16.5,16.5,0,0,0-3.48,4.15,4.63,4.63,0,0,1-1.68-3.38,9.66,9.66,0,0,0-2.9,4.32,7.19,7.19,0,0,1-3.39-4.44,9.22,9.22,0,0,0-3,3.43,10.86,10.86,0,0,1-1.43-3.73,8.31,8.31,0,0,0-3.21,3.91l-2-3.77a2.57,2.57,0,0,1-5.11.28l-4,3.4L442,678.6l-6.74,5.09-2.47-4.6a4.37,4.37,0,0,1-3.62,2.78,2.93,2.93,0,0,1-3-3c-.85,1.42-1.7,2.83-2.54,4.25a21.74,21.74,0,0,1-3.92-4.79l-3.86,5a8.07,8.07,0,0,1-3-4.69,10.8,10.8,0,0,1-3.54,4.16,8.38,8.38,0,0,0-3.07-3c-.47.87-.95,1.73-1.43,2.6L399.47,679l-3,6.4L397.82,808l405.75-4Z" transform="translate(59)"/><path class="cls-43" d="M388.07,481.86a28.12,28.12,0,0,0,18.67,7.35c9.19.06,18.14-4.41,27.26-3.31,5.57.67,10.87,3.39,16.47,3.14,7.31-.32,13.58-5.63,20.84-6.56,4.27-.54,8.56.46,12.81,1.11,11.11,1.7,22.43,1,33.64.24,4.12-.27,8.59-.68,11.6-3.51-8.16-1.16-16.83-2.55-23-8-3.24-2.87-5.75-6.84-9.81-8.34-2.49-.92-5.23-.77-7.84-1.28-10.79-2.12-16.54-14.66-26.85-18.48-11.53-4.27-26.46,3.14-35.81-4.84-2.15-1.84-3.69-4.32-5.95-6-4.27-3.23-10.41-3-15.27-.76s-8.66,6.25-12.15,10.31a15.9,15.9,0,0,0-3.23,4.92c-1.29,3.64,0,7.61.87,11.39a42.71,42.71,0,0,1-1.77,24" transform="translate(59)"/><path class="cls-44" d="M804.86,459.66a69.79,69.79,0,0,0-20.86-.19,23.39,23.39,0,0,1-7.26.41c-3.39-.57-6.32-2.83-9.72-3.37-4.4-.7-8.69,1.59-13.1,2.17-6.55.87-13-2-19.57-2.44-3.7-.23-7.4.32-11.1.57-11.08.74-22.13-1.29-33-3.31L714,450.31a17.06,17.06,0,0,0,5.24-1.28c2.56-1.24,4.3-3.66,6.11-5.86a58.32,58.32,0,0,1,10.76-10.12c7-5.08,15.68-8.63,24.22-7.22,5.07.84,10.26,3.38,15.12,1.71,2.63-.91,4.69-2.92,7-4.4s5.47-2.42,7.85-1c1.11.67,1.9,1.77,3,2.52,3.43,2.42,8.27.54,12.3,1.71,2.43.71,4.39,2.49,6.25,4.21l9.49,8.76c3.35,3.09,6.89,6.52,7.69,11a5.56,5.56,0,0,1-1,4.68c-1.17,1.29-3.05,1.59-4.77,1.81l-15.83,2" transform="translate(59)"/><path class="cls-43" d="M815.45,497.62c-9.78.66-19.4-5.62-29-3.49-6.27,1.39-11.36,6.22-17.63,7.58-3.7.8-7.53.33-11.28-.13l-33.15-4.13c-9.49-1.18-19.16-2.36-28.55-.58-6.86,1.29-13.39,4.14-20.32,5-8.06.95-16.14-.88-24.1-2.43a370.1,370.1,0,0,0-61.21-6.73c5.87-6.75,21-6.88,29.91-7.05,10.51-.2,23.41-1.44,33.85-2.62,15.35-1.74,23.69-9.95,39-12,13.24-1.78,26.64,2.7,37.69-4.81,4.06-2.76,7.64-6.16,11.64-9,8.7-6.22,19-9.62,29.23-12.93,3.4-1.11,7-2.23,10.5-1.66,3.73.6,6.89,3,10.38,4.48,9.59,4.06,22.39,1.52,29.18,9.42,2.47,2.88,3.67,6.76,6.49,9.29,2.65,2.38,6.4,3.25,9.06,5.62,5.19,4.63,4.14,13.61-.55,18.75s-11.83,7.24-18.68,8.44c-1.36.24-3,.78-3.15,2.15s2.85.86,1.84-.08" transform="translate(59)"/></g><g class="cls-40"><path class="cls-13" d="M434.58,683.24c-3.36-.28-6.69.64-9.95,1.51s-6.63,1.69-10,1.2-6.65-2.59-7.56-5.84,1.59-7.28,5-7.09c-3.35-1.5-6.71-3.22-9.11-6s-3.66-6.82-2.21-10.18,6.13-5.22,9.06-3c-2.5-2.74-5-5.53-6.53-8.92s-1.76-7.54.22-10.67,6.62-4.58,9.62-2.41a59.07,59.07,0,0,1,3.38-35.56c1.15-2.66,2.91-5.56,5.79-6,3.24-.45,5.93,2.62,7,5.7s1.36,6.52,3.11,9.28c-.57-4.14,3.88-7.84,8-7.28s7.3,4.42,8,8.54-.75,8.34-2.93,11.9c4.79-3.54,12.63-1.54,15.14,3.86s-1,12.68-6.81,14.05a12.26,12.26,0,0,1-2.43,24.36A13.15,13.15,0,0,1,457,684.36c-6.47,4.65-15.39,2.6-23,.35l2.52-.71" transform="translate(59)"/><path class="cls-6" d="M448.75,687.75a34.61,34.61,0,0,1-17.53,3.79,15.75,15.75,0,0,1-7.15-1.8,7.62,7.62,0,0,1-4-5.92c-.22-4,3.67-7.2,7.6-8.13s8-.34,12.05-.78a56.72,56.72,0,0,1-9.65-4.72,5,5,0,0,1-2.15-2c-.82-1.85.85-4,2.81-4.52s4,.18,5.91.85c-4.12-3.76-6.08-9.29-7.63-14.65-1.14-4-2-8.63.47-11.92,3.23-4.27,10.4-3.24,14.09.64s4.81,9.46,5.78,14.72c.89-4.35,3.95-8.45,8.24-9.59s9.51,1.53,10.27,5.9-2.57,8.15-5.64,11.26A12.57,12.57,0,0,1,477.31,665a4.47,4.47,0,0,1,1,2.73c-.09,1.68-1.66,2.88-3.15,3.67a26.05,26.05,0,0,1-7.11,2.55,18.67,18.67,0,0,1,15,5.44c2,2.06,3.51,5.46,1.69,7.69a6.66,6.66,0,0,1-3.79,1.89,48.54,48.54,0,0,1-18.64.68c1.47.36,1.92,2.46,1.08,3.72a5,5,0,0,1-4,1.83,10.81,10.81,0,0,1-10.6-7.47" transform="translate(59)"/><path class="cls-13" d="M767,686c8.21.33,16.28-.83,24.45-1.68a13.66,13.66,0,0,0,5.94-1.56c4.72-3,1.68-9.4-2.55-11.1s-8.78-.87-13.09-1.84c4.37,1,10.69-5.26,12.37-8.77a5.11,5.11,0,0,0-.15-5.12c-3.12-4.3-13.53-2.18-17.94-1.91a48.07,48.07,0,0,0,1.78-17.49,18.27,18.27,0,0,0-2.42-8.47c-1.61-2.49-4.46-4.36-7.41-4.07-3.42.32-5.92,3.23-8,5.92a15.87,15.87,0,0,0-7-17.84,7.23,7.23,0,0,0-5.39-1.08c-3,.83-4.36,4.29-5,7.35A58.93,58.93,0,0,0,741.28,635c-1.54-3.88-7.34-4.69-10.58-2s-4,7.47-2.86,11.49,3.85,7.39,6.63,10.51c-6.35-.07-11.86,6.6-10.59,12.83s9,10.2,14.77,7.65c-1.81,2-4.62,2.68-7.1,3.75s-5,3.08-5,5.78c.06,3.24,3.71,5.12,6.9,5.74a30.16,30.16,0,0,0,15.34-1,6.4,6.4,0,0,1,3.14-.56,6.86,6.86,0,0,1,3.14,2.15c3.73,3.53,19,10.34,22,2,2.51-7-7-7.22-10.11-7.28" transform="translate(59)"/><rect class="cls-7" x="497.97" y="595.09" width="5.16" height="52.56" transform="translate(1180.91 120.82) rotate(90)"/><rect class="cls-20" x="497.97" y="596.6" width="5.16" height="52.56" transform="translate(1182.42 122.33) rotate(90)"/><path class="cls-7" d="M531.31,597.38H469.83a6.07,6.07,0,0,1-5.33-4.16l-1.84-4.48c-.43-3.29.67-5.71,3.16-5.71h69.5c2.49,0,3.46,1.89,3.23,5l-1.91,5.23A6.07,6.07,0,0,1,531.31,597.38Z" transform="translate(59)"/><path class="cls-20" d="M531.31,598.89H469.83a6.07,6.07,0,0,1-5.33-4.16l-1.66-5.27c-.84-2.66.49-4.92,3-4.92h69.5c2.49,0,3.82,2.26,3,4.92l-1.66,5.27A6.07,6.07,0,0,1,531.31,598.89Z" transform="translate(59)"/><rect class="cls-20" x="530.61" y="595.87" width="3.53" height="48.64"/><rect class="cls-20" x="584.98" y="595.87" width="3.53" height="48.64"/><polygon class="cls-20" points="534.14 716.75 530.62 716.75 535.46 658.78 537.99 658.78 534.14 716.75"/><polygon class="cls-20" points="583.86 716.75 587.38 716.75 582.54 658.78 580.02 658.78 583.86 716.75"/><rect class="cls-7" x="498.81" y="658.98" width="3.53" height="50.81" transform="translate(1243.96 183.82) rotate(90)"/><rect class="cls-20" x="498.81" y="659.61" width="3.53" height="50.81" transform="translate(1244.59 184.45) rotate(90)"/><polygon class="cls-20" points="538.67 703.94 535.78 703.94 529.49 657.82 533.25 657.82 538.67 703.94"/><polygon class="cls-20" points="579.33 703.94 582.23 703.94 588.52 657.82 584.75 657.82 579.33 703.94"/><polygon class="cls-7" points="526.86 652.23 526.24 654.58 592.9 654.58 592.28 652.23 526.86 652.23"/><polygon class="cls-7" points="527.89 648.37 527.04 651.56 592.1 651.56 591.25 648.37 527.89 648.37"/><path class="cls-7" d="M530.91,644.72a1.77,1.77,0,0,0-1.1-.42H471.33a1.77,1.77,0,0,0-1.1.42Z" transform="translate(59)"/><path class="cls-7" d="M531.4,645.39H469.74a1.85,1.85,0,0,0-.13.29l-.54,2h63l-.54-2A1.85,1.85,0,0,0,531.4,645.39Z" transform="translate(59)"/><path class="cls-20" d="M532.55,658.78h-64a1.52,1.52,0,0,1-1.51-1.51v-2h67v2A1.52,1.52,0,0,1,532.55,658.78Z" transform="translate(59)"/><polygon class="cls-45" points="789.2 720.14 785.14 720.14 726.58 662.35 730.11 662.35 789.2 720.14"/><polygon class="cls-45" points="722.23 720.14 726.29 720.14 784.86 662.35 781.32 662.35 722.23 720.14"/><rect class="cls-7" x="753.8" y="689.21" width="3.65" height="13.06"/><polygon class="cls-20" points="789.2 732.24 785.14 732.24 722.23 671.72 726.29 671.72 789.2 732.24"/><polygon class="cls-20" points="722.23 732.24 726.29 732.24 789.2 671.72 785.14 671.72 722.23 732.24"/><polygon class="cls-20" points="789.32 636.86 790.55 631.7 795.07 635.79 793.84 640.95 789.32 636.86"/><polygon class="cls-20" points="784.75 663.34 781.72 663.34 793.27 610.72 796.29 610.72 784.75 663.34"/><path class="cls-7" d="M665.05,662.35c-.2.1-1.08.59-1.23.68s-.48.24-.56.6-3.78,9.3-3.78,9.3l1.47.61Z" transform="translate(59)"/><path class="cls-7" d="M669.64,660.66a24.77,24.77,0,0,0-3.79,1.4l-3.3,9.34c.34.06,0,.31.32.15.84-.44,1.32,1.41,3.16.76Z" transform="translate(59)"/><path class="cls-7" d="M674.43,659.62a31.75,31.75,0,0,0-4.07.83l-2.76,9.16c1.38-.45,2.23,1.55,4,1.27Z" transform="translate(59)"/><path class="cls-7" d="M676.13,670.5h.6L679,659.35h-.56a29.06,29.06,0,0,0-3.3.21l-2.23,9.11c1.18-.16,1.9,1.84,3.19,1.84Z" transform="translate(59)"/><path class="cls-7" d="M683.36,659.58c-1.41-.11-2.69-.18-3.77-.22l-1.75,9.13c1.22,0,2.3,2.18,3.92,2.3Z" transform="translate(59)"/><path class="cls-7" d="M687.79,660c-1.33-.13-2.61-.24-3.79-.33l-1.51,11.22c1.35.11,3-1.82,4.51-1.68Z" transform="translate(59)"/><path class="cls-7" d="M692.26,660.4l-3.82-.38-.9,11.28c1.41.14,3-1.79,4.43-1.64Z" transform="translate(59)"/><path class="cls-7" d="M696.78,660.86l-.31,0-3.56-.37-.27,11.36,3.27.33c.38,0,.67-2,1.05-2Z" transform="translate(59)"/><path class="cls-7" d="M701.35,661.34l-3.91-.41.36,11.42c1.52.16,2.86-1.79,4.31-1.65Z" transform="translate(59)"/><path class="cls-7" d="M706,661.78c-1.27-.11-2.59-.24-4-.38l1,11.48c1.57.16,2.8-1.8,4.23-1.68Z" transform="translate(59)"/><path class="cls-7" d="M710.63,662.16c-1.21-.08-2.55-.19-4-.32l1.66,11.54c1.64.14,2.78-1.83,4.15-1.75Z" transform="translate(59)"/><path class="cls-7" d="M715.27,662.29l-.75,0c-.85,0-1.94,0-3.22-.11l2.3,11.56c1.26.07,2.36.1,3.27.09.43,0,.34-2,.75-2.06Z" transform="translate(59)"/><path class="cls-7" d="M719.78,662c-1.15.14-2.44.25-3.85.31l2.93,11.52c1.6-.07,2.48-2.19,3.81-2.34Z" transform="translate(59)"/><path class="cls-7" d="M724.12,661.25c-.88.19-2.13.43-3.7.64L724,673.35c1.7-.21,3.12-.47,4.22-.69Z" transform="translate(59)"/><path class="cls-7" d="M730.22,671.21,726,661.56a1.22,1.22,0,0,0-1.23-.43l3.46,9.47c.22-.05,1.12,1.81,1.3,1.77C730.17,672.2,730.5,671.67,730.22,671.21Z" transform="translate(59)"/><path class="cls-20" d="M661.64,671.72c-.73.34-1.35.65-1.81.9a.7.7,0,0,0-.15,1.25l.39.34a1.58,1.58,0,0,0,1.64.12c.38-.2.9-.46,1.52-.75Z" transform="translate(59)"/><path class="cls-20" d="M666.82,669.82a36.29,36.29,0,0,0-4.27,1.51l1.59,1.85a37.58,37.58,0,0,1,3.63-1.31Z" transform="translate(59)"/><path class="cls-20" d="M672.12,668.74a36.65,36.65,0,0,0-4.52.87l1,2a30.38,30.38,0,0,1,4-.81Z" transform="translate(59)"/><path class="cls-20" d="M677.14,668.47h-.87a31.26,31.26,0,0,0-3.41.2l.46,2.1a24.42,24.42,0,0,1,2.73-.16h1.1Z" transform="translate(59)"/><path class="cls-20" d="M682.07,668.74c-1.57-.12-3-.21-4.23-.25v2.15c1.13.05,2.45.13,3.89.24Z" transform="translate(59)"/><path class="cls-20" d="M687,669.17c-1.48-.14-2.91-.27-4.23-.37l-.33,2.14c1.29.11,2.68.23,4.12.37Z" transform="translate(59)"/><path class="cls-20" d="M692,669.66l-4.27-.43-.44,2.14,4.14.42Z" transform="translate(59)"/><path class="cls-20" d="M697,670.17l-.29,0-4-.41-.57,2.13,3.79.39.48,0Z" transform="translate(59)"/><path class="cls-20" d="M702.11,670.7l-4.38-.45-.57,2.13,4.51.47Z" transform="translate(59)"/><path class="cls-20" d="M707.25,671.2l-4.42-.42-.44,2.14,4.42.43Z" transform="translate(59)"/><path class="cls-20" d="M712.45,671.63c-1.35-.09-2.85-.22-4.45-.36l-.44,2.14c1.65.15,3.18.27,4.57.36Z" transform="translate(59)"/><path class="cls-20" d="M717.62,671.79l-.6,0c-1,0-2.31,0-3.83-.13l-.33,2.14c1.57.1,2.93.14,4,.13l1,0Z" transform="translate(59)"/><path class="cls-20" d="M722.67,671.45c-1.3.14-2.74.26-4.32.32l.19,2.13c1.63-.07,3.12-.19,4.47-.34Z" transform="translate(59)"/><path class="cls-20" d="M727.5,670.69c-1,.22-2.43.47-4.11.68l.34,2.11c1.88-.23,3.43-.51,4.6-.75Z" transform="translate(59)"/><path class="cls-20" d="M730.22,671.31,730,671a1.42,1.42,0,0,0-1.51-.47l-.25,0,.83,2,.48-.11C730.17,672.3,730.5,671.77,730.22,671.31Z" transform="translate(59)"/><polygon class="cls-20" points="789.16 672.26 785.63 672.26 797.95 612.37 801.47 612.37 789.16 672.26"/><path class="cls-7" d="M738.74,614l-3.67-1.51a1.24,1.24,0,0,1-.9-1.49L737,599.48a1.23,1.23,0,0,1,1.49-.9l5.62,2c.66.16-1.31,1.7-1.47,2.35l-2.88,8.24C739.61,611.82,739.4,614.19,738.74,614Z" transform="translate(59)"/><rect class="cls-20" x="739.2" y="600.12" width="4.46" height="14.35" rx="1" ry="1" transform="translate(225.57 -159.56) rotate(13.82)"/><polygon class="cls-46" points="720.12 715.6 715.93 715.6 616.4 626.6 620.59 626.6 720.12 715.6"/><polygon class="cls-46" points="616.4 715.6 620.59 715.6 720.12 626.6 715.93 626.6 616.4 715.6"/><polygon class="cls-46" points="670.3 690.78 666.22 690.78 666.69 669.52 669.83 669.52 670.3 690.78"/><polygon class="cls-46" points="728.56 745.31 723.69 745.31 607.96 637.34 612.83 637.34 728.56 745.31"/><polygon class="cls-46" points="607.96 745.31 612.83 745.31 728.56 637.34 723.69 637.34 607.96 745.31"/><polygon class="cls-45" points="720.12 715.6 715.93 715.6 616.4 626.6 620.59 626.6 720.12 715.6"/><polygon class="cls-45" points="616.4 715.6 620.59 715.6 720.12 626.6 715.93 626.6 616.4 715.6"/><polygon class="cls-7" points="670.3 690.78 666.22 690.78 666.69 669.52 669.83 669.52 670.3 690.78"/><polygon class="cls-20" points="728.56 745.31 723.69 745.31 607.96 637.34 612.83 637.34 728.56 745.31"/><polygon class="cls-20" points="607.96 745.31 612.83 745.31 728.56 637.34 723.69 637.34 607.96 745.31"/><polygon class="cls-7" points="743.28 633.37 593.34 633.37 619.64 621.09 716.98 621.09 743.28 633.37"/><rect class="cls-20" x="593.24" y="633.37" width="149.94" height="4.9"/><polygon class="cls-21" points="676.7 627.11 659.72 627.11 657.01 606.29 679.4 606.29 676.7 627.11"/><path class="cls-6" d="M628.18,599.67a5.22,5.22,0,0,0-3-.84,28.65,28.65,0,0,0-7.56.59c-2.06.43-4.4,1.05-6.13-.16,1.39-2.25,4.23-3,6.76-3.78s5.34-2,6.17-4.47a2,2,0,0,0,0-1.28c-.43-1.19-2.16-1.06-3.34-.61a36.88,36.88,0,0,0-10.37,6.66l.17-.32a21.34,21.34,0,0,0,2.8-7.38c.31-2.63-.5-5.55-2.65-7.1s-5.7-1.05-6.82,1.34a7.33,7.33,0,0,0,0,4.72,80.79,80.79,0,0,0,3.47,11.18,11.3,11.3,0,0,0-1.56-1.46c-1-1.37-1.81-2.83-2.89-4.1-1.71-2-4.41-3.63-6.92-2.8-.65.22-1.34.84-1.08,1.47a1.54,1.54,0,0,0,.77.67c1,.51,1.89,1.08,2.8,1.68a48.34,48.34,0,0,0-7.16-.76c-2-.09-4.23-.1-5.8,1.17a1.58,1.58,0,0,0-.53.7,1.4,1.4,0,0,0,.34,1.21c1,1.32,2.91,1.51,4.58,1.59l8,.37c1.81.09,4.19.73,4.18,2.54l-1-.48a37.1,37.1,0,0,0-8.93.47c-2.63.45-5.54,1.47-6.57,3.93a2.24,2.24,0,0,0,.17,2.32,2.67,2.67,0,0,0,1.75.66,15,15,0,0,0,9.45-2.34,43.24,43.24,0,0,0,4.17,1.37,34.09,34.09,0,0,0-3.19,2.81c-1.26,1.26-2.49,2.92-2.07,4.65a3.54,3.54,0,0,0,4,2.32,6,6,0,0,0,3.89-3.1,20.26,20.26,0,0,0,1.68-4.84,5,5,0,0,1,1.4-2.56,5.85,5.85,0,0,1,1.55,2c.94,2,1,4.38,1.8,6.49a3.39,3.39,0,0,0,2.39,2.46c1.8.25,3-1.91,3.1-3.72a9.22,9.22,0,0,0-.73-4.05A42.1,42.1,0,0,0,620.8,611c1.22.38,2.76.6,3.57-.38,1.1-1.32-.3-3.27-1.78-4.15a13.12,13.12,0,0,0-5.05-1.72,19.51,19.51,0,0,1-3.5-.47,3.32,3.32,0,0,1-2.41-2.34L626,603.12c1,.08,2.17.09,2.79-.7A2.06,2.06,0,0,0,628.18,599.67Z" transform="translate(59)"/></g><g class="cls-47"><rect class="cls-11" x="59" y="683.98" width="400" height="116.02"/><rect class="cls-48" x="59" y="672.31" width="400" height="11.67"/></g><polygon class="cls-7" points="164.3 648.85 161.13 657.55 121.98 644.06 127.52 641.31 164.3 641.31 164.3 648.85"/><rect class="cls-20" x="121.98" y="644.06" width="39.16" height="13.49"/><path class="cls-28" d="M99.12,646.5v8.61H66V646.5H99.12m1-1H65v10.61h35.13V645.5Z" transform="translate(59)"/><circle class="cls-28" cx="141.26" cy="650.81" r="1.88"/><path class="cls-41" d="M85.91,624.13a2.12,2.12,0,0,1-.6,0v0l-.23,0-.23,0v0a2.12,2.12,0,0,1-.6,0c-.23,15.14-3.87,18.06-3.87,18.06h9.41S86.15,639.27,85.91,624.13Z" transform="translate(59)"/><polygon class="cls-6" points="154.17 628.04 134 628.04 136.26 607.86 151.91 607.86 154.17 628.04"/><polygon class="cls-7" points="354.98 648.85 358.14 657.55 397.3 644.06 391.76 641.31 354.98 641.31 354.98 648.85"/><rect class="cls-20" x="299.14" y="644.06" width="39.16" height="13.49" transform="translate(696.44 1301.61) rotate(180)"/><path class="cls-28" d="M335.29,646.5v8.61H302.15V646.5h33.14m1-1H301.15v10.61h35.14V645.5Z" transform="translate(59)"/><circle class="cls-28" cx="378.02" cy="650.81" r="1.88"/><path class="cls-41" d="M315.36,624.13a2.12,2.12,0,0,0,.6,0v0l.23,0,.23,0v0a2.12,2.12,0,0,0,.6,0c.23,15.14,3.88,18.06,3.88,18.06h-9.41S315.13,639.27,315.36,624.13Z" transform="translate(59)"/><polygon class="cls-6" points="365.1 628.04 385.28 628.04 383.02 607.86 367.36 607.86 365.1 628.04"/><polygon class="cls-13" points="139.38 731 93.62 731 122.62 688.33 160.38 688.33 139.38 731"/><polygon class="cls-6" points="136.92 726.42 101.01 726.42 125.23 690.92 153.86 690.92 136.92 726.42"/><polygon class="cls-13" points="378.62 731 424.38 731 395.38 688.33 357.62 688.33 378.62 731"/><polygon class="cls-6" points="381.08 726.42 416.99 726.42 392.77 690.92 364.14 690.92 381.08 726.42"/><path class="cls-28" d="M151.71,705.62H367.62a0,0,0,0,1,0,0v29.77a5,5,0,0,1-5,5H156.71a5,5,0,0,1-5-5V705.62A0,0,0,0,1,151.71,705.62Z"/><path class="cls-12" d="M201.56,603.45c1.17-3.47-.52-7.32-.77-11,4.8,3.78,11.37,4.45,17.45,3.85s12-2.32,18.11-2.75c17-1.22,35,7.46,50.59.64-6.45,16.06-.63,37.89-4.07,53.56-4.56-2.25-12.32-2.59-17.23-1.28-23.48,6.24-48.2-1.86-72.49-1.58,3.66-2.58,5.06-7.4,5.16-11.88s-.83-8.94-.66-13.42C197.89,613.33,199.54,609.4,201.56,603.45Z" transform="translate(59)"/><g class="cls-49"><path class="cls-50" d="M198.82,639.34c2.61-4.39,5.55-8.89,10.06-11.31,5.52-3,12.33-2.25,18.19-4.47,2.13-.8,4.09-2,6.22-2.79,9.79-3.71,20.8,1,31.17-.44,1-.14,2.17-.54,2.29-1.52a1.82,1.82,0,0,0-.64-1.45c-1.66-1.61-4.29-1.3-6.59-1.26-7.36.12-14.37-3.6-21.73-3.47-2.38,0-4.76.5-7.13.22.53-1.26,2.17-1.52,3.54-1.6L248,610.5c3.74-.21,7.68-.47,10.85-2.47a2.46,2.46,0,0,0,1-1c.2-.48.09-1,.26-1.53.32-.93,1.44-1.27,2.4-1.48l9.47-2c2.68-.58,5.46-1.21,7.63-2.89a31.56,31.56,0,0,1,3.36-2.78c1.27-.72,3.07-.85,4,.25a4.38,4.38,0,0,1,.81,2C291.39,615,292.2,632,293,648.79a9.73,9.73,0,0,1-.52,4.62c-.94,2-3.09,3.12-5.09,4.09a38,38,0,0,1-9.58,3.58c-5.41.95-10.91-.51-16.32-1.5-18.51-3.41-37.59-1.39-56.34-3.08a6.52,6.52,0,0,1-3.4-1,5.62,5.62,0,0,1-1.65-2.45,18.61,18.61,0,0,1-.11-13.56" transform="translate(59)"/></g><path class="cls-12" d="M190.45,591.27c3.19-.08,5.81-2.45,8.72-3.68-1.91,3.28-.28,7.26.71,10.87,4,14.54-3.13,30.71,3.08,44.57-6.86-2.32-14.27.87-21.25,2.86a64.94,64.94,0,0,1-37.83-.82c-3.3-1.1-6.61-2.49-10.13-2.46-4.74,0-9,2.66-13.65,3.45-1-1.2,1-2.53,2.16-3.59,2.24-2,1.8-5.37,1.08-8.16q-1.23-4.74-2.92-9.37a46,46,0,0,1-2.76-9c-1.24-8.47,3.31-17.82-1.22-25.29,3.34.14,6.49,1.4,9.79,1.86,4.41.63,8.9-.16,13.29-1C156.87,588.44,172.78,591.69,190.45,591.27Z" transform="translate(59)"/><g class="cls-51"><path class="cls-50" d="M125.38,637.12a29,29,0,0,1,11.7-9.88,43.42,43.42,0,0,1,9.67-3,51,51,0,0,1,9.6-1.14c2.32,0,4.64.18,7,.15,1.59,0,3.16-.16,4.74-.29l17.82-1.51c2.11-.18,4.45-.47,5.83-2.07a4.29,4.29,0,0,0-1.22-6.3,8.21,8.21,0,0,0-3.15-.69L172,611.17c4.69-3.33,11.34.11,16.91-1.35,1.38-.36,2.83-1.21,3.11-2.61a14.44,14.44,0,0,0,0-2.18c.12-3.52,5.06-6.16,3.8-9.46-.94,1-2.33,1.15-2.46.7-.55-.29,2.64-3,3.95-4.48a5.19,5.19,0,0,1,1.85-1.52c1.81-.71,3.72.79,4.9,2.34a19.59,19.59,0,0,1,3.2,6.41c1,3.53,1,7.42,2.89,10.6,1.68,2.89,4.67,4.86,6.27,7.79,2.43,4.43,1.18,9.9-.26,14.74-1.19,4-2.61,8.12-5.79,10.77a18.88,18.88,0,0,1-5.4,2.9c-12,4.64-25.26,5.66-38,4a184.48,184.48,0,0,1-20-4.15l-13.62-3.35a20.42,20.42,0,0,1-4.73-1.59,10.38,10.38,0,0,1-3.39-2.86" transform="translate(59)"/></g><path class="cls-7" d="M257.12,632.75c11.15.66,22.65-.39,28.55.83,6.92,1.42,4.85,9.19,8.45,15.27,2.59,4.37,2.34,8.94,5.8,14,12.32,17.88,24.85,25.23,30.47,46.21,1.56,5.83,1.66,13.69-3.88,16.1-2.24,1-4.81.68-7.23.34-25.45-3.63-50.42-9.7-75.57-4.35-22.57,4.8-45.73-2-68.49-5.77-18-3-36.33-4.05-54.58-5.11-4.19-.24-8.66-.42-12.26,1.73-4.39,2.63-6.33,8-10.29,11.27-4.85,4-12.1,4-17.79,1.36a33.14,33.14,0,0,1-5.51-21.5c2.13-18.25,15.4-21.87,24.32-37.94,2.71-4.88,8.08-16.53,11.66-20.83,8.47-10.17,18.93-8.65,29.44-9.65,41.41-3.93,49.45,1.37,79.66,1.82C227.44,636.61,247.12,631.41,257.12,632.75Z" transform="translate(59)"/><g class="cls-52"><path class="cls-13" d="M268.17,677.25c-2.19.15-4.15,1.3-6,2.43l-21.51,12.84c-4,2.37-8.48,5.8-7.91,10.38,5.39,2.33,11.24-1.78,15.68-5.63L268.32,680q-1.94,10.34-3.69,20.7c-.37,2.22.12,5.49,2.38,5.33,1.61-.12,2.32-2,2.65-3.63q1.88-9,3.76-18a65.26,65.26,0,0,0,6.25,18.11c1.46,2.81,4.66,5.92,7.25,4.11a4.89,4.89,0,0,0,1.65-2.56,15,15,0,0,0-2.5-14c-2.82-3.48-7.3-5.83-8.65-10.1a46.28,46.28,0,0,0,29.63,13c1.43-1.62-.06-4.12-1.64-5.59a36.2,36.2,0,0,0-25.16-9.62q9.39-1.15,18.64-3.21c1.91-.43,4.34-1.75,3.72-3.6-.52-1.52-2.6-1.63-4.19-1.4a87.7,87.7,0,0,0-21.84,6,14,14,0,0,0-11.27-11.71,41.26,41.26,0,0,0,7.32,10c-8.92-2.09-18.25-4.19-27.12-1.94,5.28,6.32,17.3.31,23.09,6.17" transform="translate(59)"/><path class="cls-13" d="M183.65,670.91a51.13,51.13,0,0,0-22.91,7.71,4.53,4.53,0,0,0-2.26,2.47c-.4,1.64,1.12,3.24,2.78,3.55a8.94,8.94,0,0,0,4.89-.91,123,123,0,0,0,18.11-9.07,102.79,102.79,0,0,0-6.36,17.77c-.64,2.52-.45,6.2,2.13,6.5a4,4,0,0,0,3.24-1.69c4.11-4.71,4.07-11.6,5.89-17.57.28-.92.78-2,1.74-2.1a2.76,2.76,0,0,1,1.41.35,37.19,37.19,0,0,0,17.51,3c1.27-.09,2.91-.64,2.87-1.91s-1.38-1.67-2.49-1.9a81.72,81.72,0,0,0-19.48-1.77L204,672.85c4.91-.94,10.74-2.7,12-7.53a2.78,2.78,0,0,0-.07-1.91c-.8-1.59-3.19-1-4.79-.25l-20.72,10.2c1.67-3,4.8-4.88,6.91-7.58s2.79-7.3-.13-9.1a39,39,0,0,0-8.45,12.67c-1.41-6.42-7.94-10.64-14.44-11.66-2.11-.33-5.14.48-4.81,2.59,4.7,3.39,10.38,5.08,16,6.72l-18-.83a6.33,6.33,0,0,0-3.15.39A2.18,2.18,0,0,0,163,669.2a57.51,57.51,0,0,0,22.45.41" transform="translate(59)"/><path class="cls-13" d="M139.94,716.49a43,43,0,0,0,15-25.34,97.14,97.14,0,0,0-19.26,24.63,243.35,243.35,0,0,0,2.5-26.8c.06-1.94,0-4-1.12-5.58s-3.87-2-4.93-.42a4.68,4.68,0,0,0-.55,1.68,69.94,69.94,0,0,0,.82,28.45,62.32,62.32,0,0,0-9.91-9.71c-3.75-2.72-8.26-4.63-12.89-4.52-2.42.06-5.17,1-6,3.25s.65,4.64,2.62,5.87,4.34,1.54,6.62,2a49.84,49.84,0,0,1,14.19,5.17c3.89,2.14,8.49,4.88,12.41,2.81" transform="translate(59)"/><path class="cls-13" d="M224.71,728c-.76.86-2.17.38-3.16-.21a32.73,32.73,0,0,1-9.4-8.45c-.94-1.26-1.67-3.29-.36-4.16,1-.64,2.25,0,3.22.64a111.82,111.82,0,0,1,15.41,12.29,7.51,7.51,0,0,1-6.78.35" transform="translate(59)"/><path class="cls-13" d="M91.9,672.1l-1.8,4.63c3.08,1.44,7.22-1.17,7.26-4.56,0-1-.3-2.08-.24-3.13a2.39,2.39,0,0,1,1.67-2.37,3.25,3.25,0,0,1,1.16.1c3.06.64,6.25,1.34,8.68,3.32,1.13.92,2.81,2.1,3.78,1s-.61-2.76-2-3.42l-6.29-3a22.64,22.64,0,0,1,10-5.29c3.78-.9,8.41-1.23,10.25-4.65a1.56,1.56,0,0,0,.17-1.44c-.33-.6-1.16-.63-1.84-.56-6.49.75-12.2,4.46-17.63,8.06a25.64,25.64,0,0,0,7.11-15.3c-2.87-.35-5.46,1.89-6.86,4.41s-2.06,5.4-3.47,7.92C99,663,93.05,666.33,91.59,672" transform="translate(59)"/><path class="cls-13" d="M156.66,631.3a27.78,27.78,0,0,0-20.94,6.21,1.25,1.25,0,0,0-.48.66c-.12.71.9,1,1.62.94a54.75,54.75,0,0,0,16.64-3.72c-5.52,4.2-11.46,9-12.66,15.87a2,2,0,0,0,.06,1.15,1.54,1.54,0,0,0,1.45.7c1.85,0,3.18-1.73,4.23-3.26l7.89-11.52c1.87,3.8-.69,8.86,1.65,12.39a1.73,1.73,0,0,0,.89.78c1.21.37,1.9-1.35,2-2.61.18-3.11.22-6.23.14-9.34.73-.34,1.43.48,1.89,1.14a13.74,13.74,0,0,0,14,5.53,2.5,2.5,0,0,0-.67-2.82,7.37,7.37,0,0,0-2.73-1.43l-11.44-4c0-.8,1.12-1,1.92-.95l9.11.5a12.34,12.34,0,0,0,5.14-.45,4.22,4.22,0,0,0,2.9-3.89q-11.49-.33-22.94-1.54c-.92-.1-2.13-.55-2-1.46" transform="translate(59)"/><path class="cls-13" d="M245.21,641a11,11,0,0,0-10.46-4.68,1.44,1.44,0,0,0-1.05.48c-.49.7.38,1.56,1.13,2l9.17,5.14-12.16,1.64c-3.89.52-8.59,1.74-9.56,5.54a1.15,1.15,0,0,0,1,1.64c3.33.91,6.79-.73,9.72-2.56s5.93-3.94,9.37-4.1a29,29,0,0,0-3.65,9.55c-.22,1.15-.13,2.72,1,3s1.93-.79,2.45-1.75a44.63,44.63,0,0,0,3.65-9q3.27,2.25,6.53,4.51c1.68,1.15,3.92,2.33,5.62,1.19a17,17,0,0,0-8.09-6.88,38.49,38.49,0,0,0,10.29,2c3.51,0,7.19-1,9.6-3.54.09-1-1.26-1.42-2.27-1.46l-14.4-.69,10-5.2c1.49-.77,3.1-1.69,3.6-3.28-3.12-.61-6.28.59-9.24,1.76l-10.17,4c-.83.34-1.67,1.62-.81,1.85" transform="translate(59)"/></g><g class="cls-53"><path class="cls-54" d="M74.26,726.09a16.32,16.32,0,0,0,20.55-19.81c-.72-2.69-2.13-5.19-2.62-7.93s.26-6,2.75-7.3c4.08-2.07,8.1,2.52,11.84,5.15s8.77,3.48,13.49,3.45c13.22-.06,25.72-5.62,38.57-8.74,17.57-4.25,36-3.91,53.9-1.54,6.62.88,14,1.87,19.45-1.94,4.63-3.22,6.73-9.16,11.24-12.55,2.65-2,5.93-3,8.66-4.82s4.93-5.3,3.76-8.39a46.65,46.65,0,0,1-14.5-3.65c-.78-3.45,3.77-5.55,7.31-5.72s8-.46,9.21-3.81c.45-1.31.22-2.84.93-4,.88-1.49,2.81-1.87,4.42-2.5,6.72-2.58,10.56-9.63,16.86-13.13,5.56-3.08,12.59,2.49,19.44,8.88a74.91,74.91,0,0,1,14.32,19.1c4.18,7.66,6.75,16.07,10,24.19a164,164,0,0,0,13.91,27.36c4.36,6.9,9.3,13.58,12,21.3a7.78,7.78,0,0,1,.52,4.57c-.63,2.22-2.87,3.55-5,4.42-10.43,4.26-22.15,3.12-33.42,3-16.14-.15-32.25,2-48.39,1.63-28.68-.62-56.78-9-85.47-9.45-14.89-.21-29.76,1.75-44.66,1.43-13.89-.3-27.66-2.59-41.37-4.87l-17.27-2.87" transform="translate(59)"/></g><g class="cls-55"><rect class="cls-27" x="102.32" y="446" width="313.37" height="106.33"/><path class="cls-7" d="M142.88,560.68a214.8,214.8,0,0,1,78-96A134.44,134.44,0,0,0,189,557.8a162.87,162.87,0,0,1,18.68-36.07,121.43,121.43,0,0,0,24,40.16,140.11,140.11,0,0,1-52.35,1.32c-10.39-1.71-20.84-4.6-31.28-3.2-1.36.18-3.1,1.64-2,2.5" transform="translate(59)"/><path class="cls-7" d="M279.79,534.88c-13.71-11.82-23.4-27.75-30.18-44.53s-10.83-34.52-14.78-52.19a110.45,110.45,0,0,0,39.87-6.37c-9,15.64-11.63,34.39-9.58,52.3s8.59,35.07,17,51l-2.49-.63" transform="translate(59)"/><path class="cls-7" d="M326.47,581.55,318.73,566c-4.48-9-9-18.25-10.53-28.22-2.19-14.63,2.43-29.59,9.79-42.41,11.18-19.48,29.75-35.58,51.83-39.72C340.4,488,334.08,539.23,354.75,577.77a122.11,122.11,0,0,0-27.71,3.4" transform="translate(59)"/><path class="cls-7" d="M60.69,438.88c16,9,28.44,23.33,37.57,39.21s15.17,33.34,20.62,50.83c3.39,10.85,6.61,22,6,33.39A190.17,190.17,0,0,0,57.3,488.46c-5.27-3.31-10.79-6.41-16.84-7.86a226.7,226.7,0,0,1-.31-30.28,20.68,20.68,0,0,1,1.51-7.41c2.9-6.2,12.25-8.09,17.33-3.5" transform="translate(59)"/><path class="cls-7" d="M167.61,433.6c-11.05,9.44-18,23-21.66,37s-4.5,28.68-5.07,43.2a219.3,219.3,0,0,1,50.66-73q-11.41-3.74-23.08-6.66" transform="translate(59)"/><path class="cls-7" d="M311.63,569.64a191.5,191.5,0,0,1-32.78-123.13c.26-3.24.78-6.8,3.25-8.9a250.18,250.18,0,0,0,34.09,134.76,17.49,17.49,0,0,1-7.26-8" transform="translate(59)"/><path class="cls-7" d="M304.19,433a270.5,270.5,0,0,0-3.63,59.13c5.23-19.24,17-35.92,28.58-52.16a155.21,155.21,0,0,1-23.42-7.07" transform="translate(59)"/><path class="cls-7" d="M251.54,563.2c-5.76-3.8-9.54-9.9-12.79-16a179.14,179.14,0,0,1-16.24-43.11,169.86,169.86,0,0,0,60.74,51A69.6,69.6,0,0,1,251,564" transform="translate(59)"/><path class="cls-7" d="M194.89,440.22q-1.32,13.18-2.63,26.36c-.19,2,0,4.54,1.9,5.09a41.19,41.19,0,0,1,23.74-34,58.87,58.87,0,0,0-20.21.14" transform="translate(59)"/><path class="cls-7" d="M127.44,497.87A102,102,0,0,1,104,439.16a90.49,90.49,0,0,0,27.67-4.71,181.76,181.76,0,0,0-4.24,63.42" transform="translate(59)"/><path class="cls-7" d="M74.56,576.38c3.36-21.72-8.12-42.74-11.44-64.47a562.84,562.84,0,0,1,43.62,56,268.57,268.57,0,0,0-31.18,7.15c0-.68.07-1.37.11-2" transform="translate(59)"/></g><path class="cls-48" d="M349.68,453v92.33H50.32V453H349.68m7-7H43.32V552.33H356.68V446Z" transform="translate(59)"/></g></g></svg>