<svg id="Shopping" xmlns="http://www.w3.org/2000/svg" viewBox="0 0 380 450"><defs><style>.cls-1{fill:#bce2e9;}.cls-2{fill:#ccc;}.cls-10,.cls-100,.cls-101,.cls-102,.cls-103,.cls-104,.cls-105,.cls-106,.cls-107,.cls-108,.cls-109,.cls-11,.cls-12,.cls-13,.cls-14,.cls-15,.cls-16,.cls-17,.cls-18,.cls-19,.cls-2,.cls-20,.cls-21,.cls-22,.cls-23,.cls-24,.cls-25,.cls-26,.cls-27,.cls-28,.cls-29,.cls-3,.cls-30,.cls-31,.cls-32,.cls-33,.cls-34,.cls-35,.cls-36,.cls-37,.cls-38,.cls-39,.cls-4,.cls-40,.cls-41,.cls-42,.cls-43,.cls-44,.cls-45,.cls-46,.cls-47,.cls-48,.cls-49,.cls-5,.cls-50,.cls-51,.cls-52,.cls-53,.cls-54,.cls-55,.cls-56,.cls-57,.cls-58,.cls-59,.cls-6,.cls-60,.cls-61,.cls-62,.cls-63,.cls-64,.cls-65,.cls-66,.cls-67,.cls-68,.cls-69,.cls-7,.cls-70,.cls-71,.cls-72,.cls-73,.cls-74,.cls-75,.cls-76,.cls-77,.cls-78,.cls-79,.cls-8,.cls-80,.cls-81,.cls-82,.cls-83,.cls-84,.cls-85,.cls-86,.cls-87,.cls-88,.cls-89,.cls-9,.cls-90,.cls-91,.cls-92,.cls-93,.cls-94,.cls-95,.cls-96,.cls-97,.cls-98,.cls-99{fill-rule:evenodd;}.cls-3{fill:#ffcf99;}.cls-4{fill:#964f19;}.cls-5{fill:#e6934a;}.cls-6{fill:#f5ad6e;}.cls-7{fill:#fff8f0;}.cls-8{fill:#d1d1d1;}.cls-9{fill:#7a0000;}.cls-10{fill:#e6e6e6;}.cls-11{fill:#f04848;}.cls-12{fill:#477049;}.cls-13{fill:#2e5230;}.cls-14{fill:#f7bd7b;}.cls-15{fill:#c2845b;}.cls-16{fill:#b86437;}.cls-17{fill:#4d3624;}.cls-19{fill:#f0735d;}.cls-20{fill:#eb9861;}.cls-21{fill:#ffeade;}.cls-22{fill:#ad572f;}.cls-23{fill:#f7af6f;}.cls-24{fill:#ffb3a6;}.cls-25{fill:#ab5d22;}.cls-26{fill:#fffaf7;}.cls-27{fill:#ffab7d;}.cls-28{fill:#d43b3b;}.cls-29{fill:#d63636;}.cls-30{fill:#753707;}.cls-31{fill:#803d09;}.cls-32{fill:#632e06;}.cls-33{fill:#705b3a;}.cls-34{fill:#d1752e;}.cls-35{fill:#dbb65e;}.cls-36{fill:#9c7c32;}.cls-37{fill:#330d1c;}.cls-38{fill:#541d33;}.cls-39{fill:#eb854d;}.cls-40{fill:#cfc;}.cls-41{fill:#edbb56;}.cls-42{fill:#b8de8c;}.cls-43{fill:#1b1b40;}.cls-44{fill:#49658f;}.cls-45{fill:#ffab73;}.cls-46{fill:#e3884b;}.cls-47{fill:#f29659;}.cls-48{fill:#ffb27f;}.cls-49{fill:#e88645;}.cls-50{fill:#02659e;}.cls-51{fill:#00466e;}.cls-52{fill:#faa267;}.cls-53{fill:#bf5a31;}.cls-54{fill:#d97a3b;}.cls-55{fill:#fa8a64;}.cls-56{fill:#ba652c;}.cls-57{fill:#f2875c;}.cls-58{fill:#fcce62;}.cls-59{fill:#ed8b49;}.cls-60{fill:#ad2d46;}.cls-61{fill:#eb8c4d;}.cls-62{fill:#e8704f;}.cls-63{fill:#733e15;}.cls-64{fill:#5a7aa9;}.cls-65{fill:#c7405b;}.cls-66{fill:#ffd582;}.cls-67{fill:#ffe5b2;}.cls-68{fill:#4f6990;}.cls-69{fill:#262647;}.cls-70{fill:#2b2b4f;}.cls-71{fill:#e88d51;}.cls-72{fill:#222242;}.cls-73{fill:#80a4d6;}.cls-74{fill:#39396b;}.cls-75{fill:#343461;}.cls-76{fill:#2c2c57;}.cls-77{fill:#475e80;}.cls-78{fill:#ed985f;}.cls-79{fill:#eb965e;}.cls-80{fill:#b8ab6e;}.cls-81{fill:#d7a6e0;}.cls-82{fill:#ae68ba;}.cls-83{fill:#c58ccf;}.cls-84{fill:#b17eba;}.cls-85{fill:#f1b6fc;}.cls-86{fill:#c2b784;}.cls-87{fill:#333;}.cls-88{fill:#ffadb0;}.cls-89{fill:#ffa1a4;}.cls-90{fill:#c78385;}.cls-91{fill:#de6464;}.cls-92{fill:#d68587;}.cls-93{fill:#cf6e6f;}.cls-94{fill:#ffb8ba;}.cls-95{fill:#fff;}.cls-96{fill:#f7b081;}.cls-97{fill:#c7f098;}.cls-98{fill:#5e5e35;}.cls-99{fill:#97cc5a;}.cls-100{fill:#7db043;}.cls-101{fill:#afd683;}.cls-102{fill:#a7cc7d;}.cls-103{fill:#b6e086;}.cls-104{fill:#e0ffbd;}.cls-105{fill:#ccb46a;}.cls-106{fill:#801818;}.cls-107{fill:#d6a41c;}.cls-108{fill:#660606;}.cls-109{fill:#ffdf29;}</style></defs><title>modefemme</title><rect id="Background" class="cls-1" width="380" height="450"/><path id="Shadow" class="cls-2" d="M164.7,393.41c-26.13,17.07-27.82,28.59-19.8,31.82,20.27-5.51,22.93-11.37,22.71-14.88q12.7-6.32,18.79-5.29c15.85,6.1,24.71,8.49,36.91,3.5-9.95-4.33-5.32-9.61,3.57-12.17,5.06-1.6,24.57.13,28.87-1.19,37.75-11.54,31.39-15.88,10.55-16.62-13.56.26-27-5.8-33.2-5.72-4.77.06-16-.54-13.6-2.67,13.52-12.22-36.11-12.55-35.58-1.62.47,9.82-22.84,7.49-34.83,9.2-21.66,3.9-37.15,7.42-37.67,10.15C110.65,391.91,135.26,394.19,164.7,393.41Z"/><g id="Woman"><path class="cls-3" d="M187.56,109.54a8.47,8.47,0,0,1,1.81,0c3,.08,7,.38,8.65,1.29.61.33,3.23,1.87,2.36,2.11a7.94,7.94,0,0,1-1.53.17,43.57,43.57,0,0,1,7.31,5.37,22.92,22.92,0,0,1-1.13-6.79,21.1,21.1,0,0,1-2.43.75c-.88.16.82-2.36,1.22-2.92,2.15-3.06,13.07-6.17,13.87-4.51.38.79-2.63,2.47-6.08,4a49,49,0,0,1,16.21,9.15c18.67,15.73-1.77,27.34-13.39,15.15-.34-.36-.68-.74-1-1.12-.81,10-16.63,14.53-23.86,4.61-5-6.86-6.46-18.32-4.9-24-4.53-.21-8.56-.86-8.56-1.64C176.1,110.3,184.75,109.54,187.56,109.54Z"/><path class="cls-4" d="M184.79,93.62c-5,1.32-15.36-16.35-20.52-13.71-4.9,2.51-4.63,25.43-8.81,23.1-13.59-7.6-.32-25.7-.78-31.78-1.14-14.79-5.45-24.9,3.4-33.4-1.53-3.92.79-5.25,2-6.42a4.63,4.63,0,0,1,4.59-1.06c16.8-7,26.84-5.35,32.44-1.24,12.79,9.38,14.05,19.26,16.32,30.4a24,24,0,0,0,5.49,5.89c3.2,2.71,6.48,5.49,8.58,12a28.11,28.11,0,0,1,1.4,8.61,25.28,25.28,0,0,1-1.4,8.32c-1.65,5.2-2.56,9.1-2.39,12a6.27,6.27,0,0,0,3.67,5.72l-.77,1.5a7.81,7.81,0,0,1-4.59-7.13,23.84,23.84,0,0,1,.73-6.39l-.61-.27a21.32,21.32,0,0,0,1.62-13.14,21.71,21.71,0,0,0-.74-2.64,21.87,21.87,0,0,1-2.89,12.22c-2.88,5.22-15.2-6.49-22.66-2.56,1-2.13-4.3-2.71-5.31,2.18-.87,4.19-4.55-1.72-8.73-2.16Zm42.08-3.85a23.05,23.05,0,0,0,.3-3.79,26.41,26.41,0,0,0-1.32-8.1c-1.95-6-5-8.63-8.07-11.19a42.59,42.59,0,0,1-3.52-3.24c.74,1.78,6.77,7.45,9.18,15.41a23.9,23.9,0,0,1,3,7.45A20.2,20.2,0,0,1,226.87,89.77Z"/><path class="cls-5" d="M206.12,119.4c.19-.18.65-.19,1.39,0-.86-.7-1.58-2.11-2.17-4.21.07,1-.5,1.45-1.68,1.25Q206.38,117.92,206.12,119.4Z"/><path class="cls-3" d="M180.16,95.32c-6.56-.56-20.27-14.43-17.78-24.86a26.34,26.34,0,0,0,.33-9.52c-.19-1.49-3.85,3.2-3.18,2,3.82-7-6.13-22.81,15.73-22.15,4.82.15,9.2,2.64,13.6,7.76,3.72,4.34,8.14,9.87,10.37,15.75.54,1.41,1.78,2.18,2.09,3.88.48,2.68-.46,7.44-1.74,10.64-3.46,8.66-11.45,15-15.91,16.32A9.84,9.84,0,0,1,180.16,95.32Z"/><path class="cls-6" d="M159.79,60.94c1.39-4.71,8.9-2.51,12.14,1.24a11.77,11.77,0,0,1,2.21,5c.16,1.93-.76-.8-2.3-.79-2.48,0-6.29,2-7.94,3.52-.61.55-1.25,1-1.51.5C160,66.07,159,63.57,159.79,60.94Z"/><path class="cls-7" d="M163.83,64.63c.8-1.08,2.32-.35,3.6,0,1.75.49,5.42,1.59,3.82,3.74-.72,1-2.14,1.38-3.82,1.55-2.13.22-6.24-.39-4.23-3.52C163.62,65.75,163.16,65.52,163.83,64.63Z"/><path class="cls-8" d="M166.87,64.29l.61.18a10.62,10.62,0,0,1,3.05,1.37c3.26,2.34-.56,4-2.93,4.09s-5.62.08-4.4-3.52a3,3,0,0,1,3.67-2.12Zm3.38,2.28c-1.45-1.06-3.49-.51-5.41.18-1,.38-1.56,1.07-1.4,1.58.35,1.06,2.58,1.55,4.12,1.43C170.12,69.55,172.69,68.34,170.25,66.57Z"/><path class="cls-9" d="M173.14,83.72c5-.92,8-1,11.52-2.21-.7,4.68-4.6,7.47-8.17,5.61A11.1,11.1,0,0,1,173.14,83.72Z"/><path class="cls-10" d="M179.35,87a19.38,19.38,0,0,0,3.16-.6c.37-.14-.23-.74-.35-.93s-5.37.44-5.46,1.14c0,.15-.27.86.11.94S178.51,87.11,179.35,87Z"/><path class="cls-11" d="M184.39,85.21c-.18-.9-2.52.64-4.77,1.09s-4.6,0-4.58.77c0,1.8,2.85,2.74,5.3,2.23S184.73,86.9,184.39,85.21Z"/><path class="cls-12" d="M167.43,69.93a2.65,2.65,0,1,0-2.64-2.64A2.65,2.65,0,0,0,167.43,69.93Z"/><path class="cls-13" d="M167.43,64.38a2.91,2.91,0,0,1,2.06,5,3.87,3.87,0,0,1-4.11,0,2.91,2.91,0,0,1,2.05-5Zm-2.29,3.17a1.75,1.75,0,0,0,.6,1.43,2.11,2.11,0,0,0,1.64.41,2.34,2.34,0,0,0,1.74-.41,2.39,2.39,0,0,0,.7-1.7C169.82,65.59,165.14,65.3,165.14,67.55Z"/><path class="cls-14" d="M172.62,71.17c.3,1.13-3,.38-3,.18C169.6,70.34,172.27,69.87,172.62,71.17Z"/><path class="cls-15" d="M171.69,65.65c-1.16-.74-2.62-.6-4.09-.72-2.08-.18-4.23-.35-5.86.33C164.2,61.82,169.71,59.28,171.69,65.65Z"/><path class="cls-16" d="M172.49,81.79c.64.78,1,1.69,1.68,1.24s1.19,1.08.23,1a3.92,3.92,0,0,1-2.37-.91C171,82.16,171.84,81,172.49,81.79Z"/><path class="cls-16" d="M185.09,79.6c-.29.86-.3,1.61-1.24,1.36s-.59,1.43.33,1.1a3.17,3.17,0,0,0,2-1.38C186.72,79.61,185.37,78.73,185.09,79.6Z"/><path class="cls-10" d="M178.41,82.78c1-.22,2.87-1.12,3.54-1,.47.06.1,1.12.06,1.43-.06.52-1.06,1-2.79,1.33s-3.32.31-3.54-.16c-.1-.21-.71-1.1-.32-1.35S177.45,83,178.41,82.78Z"/><path class="cls-11" d="M177.37,81.3c1.21-.34,3.68-2.8,7.29.21.53.45-3,1.61-6.33,2.19-2.51.44-4.87.45-5,.06-.19-.59-.33-1.25,1.1-2.37C175.27,80.73,176.27,81.61,177.37,81.3Z"/><path class="cls-17" d="M171.93,62.18c-4.71-3.88-9.65-2.94-12.4.74C159.55,55.43,168.08,54.1,171.93,62.18Z"/><path class="cls-18" d="M167.43,68.51a1.23,1.23,0,1,0-1.22-1.23A1.23,1.23,0,0,0,167.43,68.51Z"/><path class="cls-7" d="M165.38,67.79c.51,0,.93-.26.93-.57s-.42-.57-.93-.57-.94.26-.94.57S164.86,67.79,165.38,67.79Z"/><path class="cls-19" d="M172.43,68.75a8.58,8.58,0,0,1-1.65.26,2,2,0,0,0,.33-2.4c.13.09,0-.24.18-.13A3.25,3.25,0,0,1,172.43,68.75Z"/><path class="cls-18" d="M160,63.31l.08,0c.61,1.17,1.13,1.82,1.55,1.94a14.29,14.29,0,0,1-1-1.75c1.22,1.25,4.49.94,6.77,1.11.3,0,5.24.53,5.27.53a5.19,5.19,0,0,1-1.41,1.72c-1.18-2.22-7.46-2.26-8.64.42-2.06-.16-2.83-2.23-3.42-4.4.79,1.67,1.44,2.58,1.94,2.72A13.89,13.89,0,0,1,160,63.31Z"/><path class="cls-6" d="M179.44,59.73a3.31,3.31,0,0,0-.13.41c-.64,1.93-1.12,1.87-1.51,3.91s-.72,6,1.06,8.15c-.68-6,3-1.08,1.12-6,.24-.53.59-1.51,1.39-1.78,2.34-.78,6.61-.12,8.64.74.76.32,5-1.83,5.06-2.35C196.49,54.71,183.87,48.68,179.44,59.73Z"/><path class="cls-7" d="M188.56,60.39c-1.1-.75-2.3.43-3.4,1.19-1.49,1-4.6,3.27-2.38,4.78,1,.69,2.46.61,4.11.23,2.09-.49,5.77-2.41,2.85-4.71C189.13,61.39,189.49,61,188.56,60.39Z"/><path class="cls-8" d="M185.58,61.07l-.52.37a10.59,10.59,0,0,0-2.43,2.29c-2.32,3.28,1.81,3.56,4.1,2.91s5.34-1.76,3-4.76a3,3,0,0,0-4.16-.81Zm-2.45,3.25c1-1.47,3.13-1.61,5.17-1.58,1.11,0,1.83.5,1.84,1,0,1.12-1.93,2.31-3.42,2.69C184.22,67.11,181.4,66.8,183.13,64.32Z"/><path class="cls-12" d="M185.78,61.45a2.65,2.65,0,1,0,3.37,1.64A2.66,2.66,0,0,0,185.78,61.45Z"/><path class="cls-13" d="M185.7,61.21a2.92,2.92,0,0,0-1.8,3.69,2.91,2.91,0,0,0,1.48,1.67,3.86,3.86,0,0,0,3.88-1.34,2.93,2.93,0,0,0,.13-2.22,2.91,2.91,0,0,0-3.69-1.8Zm3.2,2.25a1.76,1.76,0,0,1-.1,1.54c-.27.55-.8.72-1.42.93a2.35,2.35,0,0,1-1.78.18,2.38,2.38,0,0,1-1.21-1.37C183.83,63.14,188.17,61.34,188.9,63.46Z"/><path class="cls-18" d="M191.6,64.37A10.7,10.7,0,0,1,185,67.64c3.81.09,5.7-2.34,8.56-2.23A4.94,4.94,0,0,0,191.6,64.37Z"/><path class="cls-14" d="M181.05,69.42c0,1,3.19-.78,3.14-.93C184,67.71,181.07,68.32,181.05,69.42Z"/><path class="cls-15" d="M181.46,63.93c.86-1.08,2.29-1.42,3.64-2,1.91-.85,3.88-1.71,5.64-1.6C187.3,57.86,181.26,57.26,181.46,63.93Z"/><path class="cls-18" d="M186.25,62.8a1.21,1.21,0,0,0-.76,1.56,1.23,1.23,0,1,0,.76-1.56Z"/><path class="cls-7" d="M184.68,64c-.49.17-.8.54-.7.84s.58.4,1.07.23.8-.54.7-.84S185.17,63.78,184.68,64Z"/><path class="cls-19" d="M181.78,67.1a8.12,8.12,0,0,0,1.65-.3,2,2,0,0,1-1.1-2.15c-.09.12-.13-.21-.22-.06A3.25,3.25,0,0,0,181.78,67.1Z"/><path class="cls-18" d="M191.77,57.9l-.06.05c-.2,1.31-.48,2.09-.83,2.34a18.78,18.78,0,0,0,.33-2c-.76,1.58-3.94,2.36-6.05,3.26-.27.12-4.77,2.22-4.81,2.22a5.28,5.28,0,0,0,1.9,1.17c.39-2.49,6.31-4.58,8.31-2.42,1.89-.82,1.94-3,1.79-5.27-.2,1.83-.52,2.9-.94,3.2A13.92,13.92,0,0,0,191.77,57.9Z"/><path class="cls-6" d="M174.18,73.14c-.09-4.61-1.89-6.68-1.88-9.07a8.41,8.41,0,0,0-.26-1.76C175.52,67.12,174.92,70.52,174.18,73.14Z"/><path class="cls-20" d="M173.4,75a1.61,1.61,0,0,0-.27,2.67,1.91,1.91,0,0,0,1.48.42c.93,0,1.09.48,1.36.89.45.68.75,1.17,1.38,1,.81-.21,0-1.92,2.2-2.94h0q3-1.58,0-3.87c.88,1.13,1,2,.4,2.67-.54-.48-1.83-.66-2.24-.08a2,2,0,0,1-2.05.46c-1.38-.61-1.66-1.62-.83-3.48-.9,1.51-1.17,2.63-.53,3.28-.32-.06-.49,0-.81.51a1.35,1.35,0,0,0-.17.34A4,4,0,0,1,173.4,75Z"/><path class="cls-21" d="M177.19,74.84c.3-.13.49-.38.41-.56s-.38-.23-.69-.11-.48.38-.41.56S176.89,75,177.19,74.84Z"/><path class="cls-22" d="M173.79,77.34a3.31,3.31,0,0,0,1.94.14C174.61,76.14,174,76.09,173.79,77.34Z"/><path class="cls-22" d="M179.25,76.57a3.25,3.25,0,0,1-1.81.7C178.12,75.66,178.72,75.43,179.25,76.57Z"/><path class="cls-23" d="M177.69,91c1.61,1.09,3.57.85,5.9-.7C181,89,179,89.28,177.69,91Z"/><path class="cls-24" d="M181.73,87.14c.3-.12.49-.37.41-.56s-.38-.23-.69-.1-.48.37-.41.56S181.43,87.27,181.73,87.14Z"/><path class="cls-17" d="M179.25,60.42c2.92-3.36,5.36-8,13.33-4.5C191.36,53.69,179.69,47.24,179.25,60.42Z"/><path class="cls-6" d="M173.42,41.3c-8.41.78-11.63,3.81-11.73,9.48,5.2-4.29,9.91-5.85,16.22-2.93,6.48,2.53,6,2,11.08,3.28C182.47,41.86,181.43,40.93,173.42,41.3Z"/><path class="cls-25" d="M161.24,43.84c-.45-4.65-.38-7.44,1.11-8.8s4.1-.76,8,2.18A71.3,71.3,0,0,0,191,49.33C198,51.78,204.64,51.48,208,44a9.4,9.4,0,0,1-5.54-1.73C193.35,35,186.36,24.52,170.51,32c1.24,1.22,3.2,3,8.53,7.93-7.84-5.54-23.66-19.1-17.8,3.87Zm36.22-10.65q7.11,4.26,9.46,9.73Q199,40.24,192.13,30.45,200,36,202.53,38.8A44.13,44.13,0,0,0,197.46,33.19Z"/><path class="cls-26" d="M179.73,80.59c.3-.13.48-.38.41-.56s-.38-.23-.69-.11-.48.38-.41.56S179.42,80.71,179.73,80.59Z"/><path class="cls-23" d="M184.22,93.9C191.68,90.1,194.93,84.5,196,75c-1.27,1.69-3.34,2.47-5,3.27,6.54-5.93,2.85-10.17.2-12.23C206.82,62.67,198.18,87.46,184.22,93.9Z"/><path class="cls-23" d="M180.08,94.34c-10.52-4-17.09-14.48-16.88-19.93.05-1.22,0-2.55.46-3.09s1.71-.37,2.43-.48c1.16.58,1.81,1.18.48,1.7-3,1.18-.55,6.17,1.5,8.32A18,18,0,0,0,180.08,94.34Z"/><path class="cls-23" d="M162,56.45q-2.23-10.44,6.47-11.2a9.94,9.94,0,0,0-5.2,8.27c3.08-.05,5.34,1.55,6.8,4.8Q165.87,54.18,162,56.45Z"/><path class="cls-5" d="M171.29,90.24c8.46,9.05,16,7.65,24.26-4.45C187.16,96,179.24,98.14,171.29,90.24Z"/><path class="cls-6" d="M175.05,72.86c.31-.67,1.19-.73,2.63-.16A4,4,0,0,0,175.05,72.86Z"/><path class="cls-27" d="M202,56.68c1.36.63,2.55,4.28,2.23,8.09-.58,7-3.17,8-4.66,4.84a14.14,14.14,0,0,1-.69-2.75C198.09,62.41,197.62,54.61,202,56.68Z"/><path class="cls-28" d="M175.33,87.23a.08.08,0,0,1,0-.1.07.07,0,0,1,.1,0c1.22,1.84,6,1.06,8.53-1.41a.08.08,0,0,1,.09,0s.06.06,0,.09a5.16,5.16,0,0,1-2.23,2.61,5.73,5.73,0,0,1-2.32.73,5.25,5.25,0,0,1-2.31-.3A3.79,3.79,0,0,1,175.33,87.23Z"/><path class="cls-29" d="M184,81.86a35.1,35.1,0,0,1-5.23,1.37,3.47,3.47,0,0,0,1-1.46c-1,1.66-2.37,1.92-4.15.76a4.67,4.67,0,0,0,1.58.94,29.37,29.37,0,0,1-3.62.26,2.2,2.2,0,0,1,1.4-2.15,6.2,6.2,0,0,0,5.34-1.07A4.45,4.45,0,0,1,184,81.86Z"/><path class="cls-18" d="M170.78,69c-3.25,2-5.62.69-8,2.22C163,69.18,166.34,69.84,170.78,69Z"/><path class="cls-30" d="M211.24,71.33c2.62,5.76,11.15,5.92,13.1,15.25,2,9.79-10.07,17.06-.27,22.87,19.59,11.6-.35,35.13-8.89,37-2.58-11-10.58-30.67-17.1-45.12-2.71-6-6.85-10.82-7.54-14.23,7.38-9.89,9.32-23.55,4.31-36.75,1.5.62,3.36.61,5.46,1.53a14.19,14.19,0,0,1,6.58,5.54C208.74,60.46,209.55,67.62,211.24,71.33Z"/><path class="cls-31" d="M184.51,95.71c-13.27-8.27-22-20.37-24.66-35.12a6.09,6.09,0,0,1,.63-1.44c.31-4.33-.9-9.78,1.27-13.62-.86-.25-2.05-4-3.23-6.9-7.82,7.6,1.8,24.17.6,35.37-1.8,16.92-14.32,20.82-1.61,29.84,3.86,2.74-1.1,19.46,1.71,30.12,2.71,10.31,9.91-3.19,17.18,21.45,3,10.17,13.3,18,20.33,13.13-14.28-12.16-6.25-74.36-12.22-72.83Zm6.52,72.6a16.36,16.36,0,0,1-8.39-8.36q-2.73-5.76-2.8-14.86a53.8,53.8,0,0,0-3-13.7,35.24,35.24,0,0,0-6.06-10.46l-.13-.15-.07-.19a63.43,63.43,0,0,1-3-11.12c-.9-5.67,1.33-8.13-1.17-12.57,2.6,2.42,2.7,8.76,3.25,12.24a61.54,61.54,0,0,0,2.87,10.57,36.83,36.83,0,0,1,6.3,10.94,55.33,55.33,0,0,1,3.17,14.27v.1q.06,8.65,2.6,14a14.34,14.34,0,0,0,7.32,7.33Z"/><path class="cls-32" d="M203.83,67.66C186.39,52.86,171,50.29,162.37,46.85c-2.43-1-3.54-5.76-4-8.06-4.17,4.39-5.92,15-.84,24.54,8,12.42-4.88,20.79,7.26,29.33,6.3,4.42,6.48,9.33,10.16,13.53,2.2,2.52,5.29,4.16,10.1,3.45,5.14-.76,9.51-8.58,19-10.64q11.76-11.59-.28-17.22Q203.84,67.67,203.83,67.66Z"/><path class="cls-4" d="M155.92,59.78c1.61,3.55,3.08,5.16,4,8,1.58,5.25,1.35,11.65-2.45,21.83l0,.15-.09.1q-2.34,2.76-1.71,5.49c.44,1.9,1.94,3.85,4.5,5.87l.08.07.07.09c.36.49.38,2.08.41,4.47.05,4.92.14,13.51,2.35,20.57,2,6.34,5,9.7,7.8,12.73,3,3.25,5.59,6.13,6.4,11.72.08.57.19,1.34.29,2.14,1.63,12.24,2.81,15.73,9.91,20.75-9.16-2.36-10.55-12.78-11.58-20.53-.09-.68-.18-1.33-.29-2.12-.74-5.07-3.2-7.78-6-10.82s-6.07-6.67-8.17-13.37c-2.27-7.28-2.37-16-2.42-21,0-1.88,0-3.18-.06-3.43q-4.17-3.35-4.95-6.72a7.65,7.65,0,0,1,2-6.84c5.71-15.4,3.25-13.49-.47-28Z"/><path class="cls-33" d="M194.06,61.15a36.67,36.67,0,0,1-.42,4.5,9.48,9.48,0,0,1-1,2.81.41.41,0,0,1-.15.17,14.92,14.92,0,0,1-4.81,1.94,18.49,18.49,0,0,1-5.61.33.36.36,0,0,1-.23-.09,7,7,0,0,1-2.1-2.76,9.52,9.52,0,0,1-.73-3.76.4.4,0,0,1,.18-.34,24.27,24.27,0,0,1,5.78-2.9,16.79,16.79,0,0,1,8.79-.32.39.39,0,0,1,.31.42Zm-1.19,4.35a33.54,33.54,0,0,0,.39-4.07,16,16,0,0,0-8.06.37,23.38,23.38,0,0,0-5.42,2.7,8.78,8.78,0,0,0,.67,3.24,6.12,6.12,0,0,0,1.79,2.39,18.17,18.17,0,0,0,5.26-.32A14,14,0,0,0,192,68,8.28,8.28,0,0,0,192.87,65.5Z"/><path class="cls-34" d="M182.88,33c6.19,6.94,5.71,10.6.73,9.35a19.33,19.33,0,0,0,3.25,2,17.3,17.3,0,0,1-6.9-3.72c2.18,3,7.46,5.1,10.22,5.81-2.25-4.69-5.78-13.76.49-9.14-2-3.22-4.4-4.9-7.79-4.26Zm-21.4,1.6c1.93-2.23,4.21-2.13,11.14,3.46-8.09-10.38-11.15-3.6-11.14-3.46Zm16.89,6.55a3.12,3.12,0,0,1,1-.4c3.26,3.87,8.65,6.36,15.61,8-6.69-1-12.42-3.44-16.64-7.6Zm2.5-10.62c5.28,1.27,8.82,2.91,11.24,6.86-4-4.84-5.66-4.53-9.81-5.12A4.11,4.11,0,0,0,180.87,30.53Z"/><path class="cls-34" d="M206.56,44.77c-1.79,3.66-4.3,5.33-7.49,4.93,3.32-.43,5.17-2.87,4-5.13A6.72,6.72,0,0,0,206.56,44.77Z"/><path class="cls-35" d="M204.93,393.54a19.61,19.61,0,0,0-8.3-6.51q-2.35-.4-1.13,1.72,6,10.19,5.74,18.47l2.57.62,1-.54Q203.86,396.61,204.93,393.54Z"/><path class="cls-36" d="M204.57,393.35c-1.25-4.13-4.48-6.18-8.87-6.37-.29.17-.47.11-.54.3-.3.79,1.77,2,5.77,4.19,2.16,2.85,2.41,7.34,2.88,16.37.68-.36,1.48-.68,1.48-.68A116.6,116.6,0,0,1,204.57,393.35Z"/><path class="cls-35" d="M226.63,407c-1,3.85-6.35,5.11-10.86,4.9-4.2-.2-7.57-1.63-8-4.68C213.73,409.9,221.92,411.87,226.63,407Z"/><path class="cls-37" d="M197.69,380.81c1.72,5.4,7.35,8.56,9.67,13.42,3.77,9.83,9.91,14.52,17.12,11.67-1,4.65-6.49,4.76-9.46,4.29-3.43-.54-5.1-3.63-7.27-9.61a48.13,48.13,0,0,0-2.63-6,18,18,0,0,0-4.56-5.36C197.72,387,195.21,385.41,197.69,380.81Z"/><path class="cls-37" d="M211.15,398.33q5.16,1.51,4.38-1.45C215.34,397.85,213.88,398.34,211.15,398.33Z"/><path class="cls-38" d="M218.87,401.69c1.64.63,2.71,1.82,2.39,2.63s-1.91,1-3.54.33-2.71-1.82-2.39-2.64S217.24,401.05,218.87,401.69Z"/><path class="cls-3" d="M206.39,304.72c.58-.26,1.45.4,2,1.49s.46,2.18-.11,2.45-1.45-.4-2-1.48S205.82,305,206.39,304.72Z"/><path class="cls-39" d="M199.6,65.77c-.12-.21.41-1,.18-1.64-.9-2.37-.1-6.77,2.75-6.36.11.23-.2.4-.1.63,1.67,3.9,1.08,6.69,0,7.73a1.9,1.9,0,0,1-2.8-.36Zm1.74-.13c2.59-.76,1.34-5.45-.06-6.31a4.25,4.25,0,0,0-1.09,2.55C202.24,62.51,202.59,64,201.34,65.64Z"/><path class="cls-40" d="M214.07,125.82a1,1,0,1,0-1.15-.93A1.06,1.06,0,0,0,214.07,125.82Z"/><path class="cls-41" d="M211.92,122.65a.25.25,0,1,1,.23-.45,3.25,3.25,0,0,1,.9.65,2.24,2.24,0,0,1,.54.86.25.25,0,0,1-.16.33.25.25,0,0,1-.32-.16,1.82,1.82,0,0,0-.43-.68A2.66,2.66,0,0,0,211.92,122.65Z"/><polygon class="cls-42" points="266.17 170.66 256.22 169.86 245.26 169.65 244.9 258.24 274.59 259.82 266.17 170.66"/><path class="cls-43" d="M230.51,155.88q9.12,31.22,8.3,44.25Q238,189.27,229.68,189,224.7,159.29,230.51,155.88Z"/><path class="cls-44" d="M227.92,193.38c-.13.35-10-3.95-11.2-3.38-1.83.88-2.63,4.34-3,5.87a133.57,133.57,0,0,0-13.49-3.79c-5.91-1.46-7.24-5.34-13.42-6.91-21.79,17.18-20.08,72.54-18.66,109.24-3.56,5.18-7.8,37.08-8,51.07-.06,3.62-3.3,23.11-4.86,36.26,1.59,2,4.29,2.58,6.85,2.31,2.8-10,10.07-42.22,13.92-54.35s6.67-28.9,6.84-33.12c6.73-12.79,17.06-59.48,21.57-63.44,1.16-1-.08,7.55.06,12.78.44,16,.2,33.22.09,44.33-6.68,8-4.67,68.26-5.09,82.22,1.82,1,5.53,1.34,7.69,1.24.09-6.54,3.71-20.07,4.9-30.79,1.33-12,3.18-26.25,2.69-35.24,2.94-5.71,5.36-15,6.36-22.07,2.43-5.67,5.3-16.52,6.78-22,8-29.46,10.08-52.5,5.24-74C232,184.37,230.81,185.52,227.92,193.38Z"/><path class="cls-3" d="M187.56,109.54a8.47,8.47,0,0,1,1.81,0c3,.08,7,.38,8.65,1.29.61.33,3.23,1.87,2.36,2.11a7.94,7.94,0,0,1-1.53.17,43.57,43.57,0,0,1,7.31,5.37,22.92,22.92,0,0,1-1.13-6.79,21.1,21.1,0,0,1-2.43.75c-.88.16.82-2.36,1.22-2.92,2.15-3.06,13.07-6.17,13.87-4.51.38.79-2.63,2.47-6.08,4a49,49,0,0,1,16.21,9.15c18.67,15.73-1.77,27.34-13.39,15.15-.34-.36-.68-.74-1-1.12-.81,10-16.63,14.53-23.86,4.61-5-6.86-6.46-18.32-4.9-24-4.53-.21-8.56-.86-8.56-1.64C176.1,110.3,184.75,109.54,187.56,109.54Z"/><path class="cls-5" d="M206.12,119.4c.19-.18.65-.19,1.39,0-.86-.7-1.58-2.11-2.17-4.21.07,1-.5,1.45-1.68,1.25Q206.38,117.92,206.12,119.4Z"/><path class="cls-6" d="M160.36,60.63c1.39-4.72,8.33-2.2,11.57,1.55a11.77,11.77,0,0,1,2.21,5c.16,1.93-.76-.8-2.3-.79-2.48,0-6.29,2-7.94,3.52-.61.55-1.25,1-1.51.5C160,66.07,159.59,63.25,160.36,60.63Z"/><path class="cls-7" d="M163.83,64.63c.8-1.08,2.32-.35,3.6,0,1.75.49,5.42,1.59,3.82,3.74-.72,1-2.14,1.38-3.82,1.55-2.13.22-6.24-.39-4.23-3.52C163.62,65.75,163.16,65.52,163.83,64.63Z"/><path class="cls-8" d="M166.87,64.29l.61.18a10.62,10.62,0,0,1,3.05,1.37c3.26,2.34-.56,4-2.93,4.09s-5.62.08-4.4-3.52a3,3,0,0,1,3.67-2.12Zm3.38,2.28c-1.45-1.06-3.49-.51-5.41.18-1,.38-1.56,1.07-1.4,1.58.35,1.06,2.58,1.55,4.12,1.43C170.12,69.55,172.69,68.34,170.25,66.57Z"/><path class="cls-9" d="M173.14,83.72c5-.92,8-1,11.52-2.21-.7,4.68-4.6,7.47-8.17,5.61A11.1,11.1,0,0,1,173.14,83.72Z"/><path class="cls-10" d="M179.35,87a19.38,19.38,0,0,0,3.16-.6c.37-.14-.23-.74-.35-.93s-5.37.44-5.46,1.14c0,.15-.27.86.11.94S178.51,87.11,179.35,87Z"/><path class="cls-11" d="M184.39,85.21c-.18-.9-2.52.64-4.77,1.09s-4.6,0-4.58.77c0,1.8,2.85,2.74,5.3,2.23S184.73,86.9,184.39,85.21Z"/><path class="cls-12" d="M167.43,69.93a2.65,2.65,0,1,0-2.64-2.64A2.65,2.65,0,0,0,167.43,69.93Z"/><path class="cls-13" d="M167.43,64.38a2.91,2.91,0,0,1,2.06,5,3.87,3.87,0,0,1-4.11,0,2.91,2.91,0,0,1,2.05-5Zm-2.29,3.17a1.75,1.75,0,0,0,.6,1.43,2.11,2.11,0,0,0,1.64.41,2.34,2.34,0,0,0,1.74-.41,2.39,2.39,0,0,0,.7-1.7C169.82,65.59,165.14,65.3,165.14,67.55Z"/><path class="cls-14" d="M172.62,71.17c.3,1.13-3,.38-3,.18C169.6,70.34,172.27,69.87,172.62,71.17Z"/><path class="cls-15" d="M171.69,65.65c-1.16-.74-2.62-.6-4.09-.72-2.08-.18-4.23-.35-5.86.33C164.2,61.82,169.71,59.28,171.69,65.65Z"/><path class="cls-16" d="M172.49,81.79c.64.78,1,1.69,1.68,1.24s1.19,1.08.23,1a3.92,3.92,0,0,1-2.37-.91C171,82.16,171.84,81,172.49,81.79Z"/><path class="cls-16" d="M185.09,79.6c-.29.86-.3,1.61-1.24,1.36s-.59,1.43.33,1.1a3.17,3.17,0,0,0,2-1.38C186.72,79.61,185.37,78.73,185.09,79.6Z"/><path class="cls-10" d="M178.41,82.78c1-.22,2.87-1.12,3.54-1,.47.06.1,1.12.06,1.43-.06.52-1.06,1-2.79,1.33s-3.32.31-3.54-.16c-.1-.21-.71-1.1-.32-1.35S177.45,83,178.41,82.78Z"/><path class="cls-11" d="M177.37,81.3c1.21-.34,3.68-2.8,7.29.21.53.45-3,1.61-6.33,2.19-2.51.44-4.87.45-5,.06-.19-.59-.33-1.25,1.1-2.37C175.27,80.73,176.27,81.61,177.37,81.3Z"/><path class="cls-18" d="M167.43,68.51a1.23,1.23,0,1,0-1.22-1.23A1.23,1.23,0,0,0,167.43,68.51Z"/><path class="cls-7" d="M165.38,67.79c.51,0,.93-.26.93-.57s-.42-.57-.93-.57-.94.26-.94.57S164.86,67.79,165.38,67.79Z"/><path class="cls-19" d="M172.43,68.75a8.58,8.58,0,0,1-1.65.26,2,2,0,0,0,.33-2.4c.13.09,0-.24.18-.13A3.25,3.25,0,0,1,172.43,68.75Z"/><path class="cls-18" d="M160,63.31l.08,0c.61,1.17,1.13,1.82,1.55,1.94a14.29,14.29,0,0,1-1-1.75c1.22,1.25,4.49.94,6.77,1.11.3,0,5.24.53,5.27.53a5.19,5.19,0,0,1-1.41,1.72c-1.18-2.22-7.46-2.26-8.64.42-2.06-.16-2.83-2.23-3.42-4.4.79,1.67,1.44,2.58,1.94,2.72A13.89,13.89,0,0,1,160,63.31Z"/><path class="cls-6" d="M179.44,59.73a3.31,3.31,0,0,0-.13.41c-.64,1.93-1.12,1.87-1.51,3.91s-.72,6,1.06,8.15c-.68-6,3-1.08,1.12-6,.24-.53.59-1.51,1.39-1.78,2.34-.78,6.61-.12,8.64.74.76.32,5-1.83,5.06-2.35C196.49,54.71,183.87,48.68,179.44,59.73Z"/><path class="cls-7" d="M188.56,60.39c-1.1-.75-2.3.43-3.4,1.19-1.49,1-4.6,3.27-2.38,4.78,1,.69,2.46.61,4.11.23,2.09-.49,5.77-2.41,2.85-4.71C189.13,61.39,189.49,61,188.56,60.39Z"/><path class="cls-8" d="M185.58,61.07l-.52.37a10.59,10.59,0,0,0-2.43,2.29c-2.32,3.28,1.81,3.56,4.1,2.91s5.34-1.76,3-4.76a3,3,0,0,0-4.16-.81Zm-2.45,3.25c1-1.47,3.13-1.61,5.17-1.58,1.11,0,1.83.5,1.84,1,0,1.12-1.93,2.31-3.42,2.69C184.22,67.11,181.4,66.8,183.13,64.32Z"/><path class="cls-12" d="M185.78,61.45a2.65,2.65,0,1,0,3.37,1.64A2.66,2.66,0,0,0,185.78,61.45Z"/><path class="cls-13" d="M185.7,61.21a2.92,2.92,0,0,0-1.8,3.69,2.91,2.91,0,0,0,1.48,1.67,3.86,3.86,0,0,0,3.88-1.34,2.93,2.93,0,0,0,.13-2.22,2.91,2.91,0,0,0-3.69-1.8Zm3.2,2.25a1.76,1.76,0,0,1-.1,1.54c-.27.55-.8.72-1.42.93a2.35,2.35,0,0,1-1.78.18,2.38,2.38,0,0,1-1.21-1.37C183.83,63.14,188.17,61.34,188.9,63.46Z"/><path class="cls-18" d="M191.6,64.37A10.7,10.7,0,0,1,185,67.64c3.81.09,5.7-2.34,8.56-2.23A4.94,4.94,0,0,0,191.6,64.37Z"/><path class="cls-14" d="M181.05,69.42c0,1,3.19-.78,3.14-.93C184,67.71,181.07,68.32,181.05,69.42Z"/><path class="cls-15" d="M181.46,63.93c.86-1.08,2.29-1.42,3.64-2,1.91-.85,3.88-1.71,5.64-1.6C187.3,57.86,181.26,57.26,181.46,63.93Z"/><path class="cls-18" d="M186.25,62.8a1.21,1.21,0,0,0-.76,1.56,1.23,1.23,0,1,0,.76-1.56Z"/><path class="cls-7" d="M184.68,64c-.49.17-.8.54-.7.84s.58.4,1.07.23.8-.54.7-.84S185.17,63.78,184.68,64Z"/><path class="cls-19" d="M181.78,67.1a8.12,8.12,0,0,0,1.65-.3,2,2,0,0,1-1.1-2.15c-.09.12-.13-.21-.22-.06A3.25,3.25,0,0,0,181.78,67.1Z"/><path class="cls-18" d="M191.77,57.9l-.06.05c-.2,1.31-.48,2.09-.83,2.34a18.78,18.78,0,0,0,.33-2c-.76,1.58-3.94,2.36-6.05,3.26-.27.12-4.77,2.22-4.81,2.22a5.28,5.28,0,0,0,1.9,1.17c.39-2.49,6.31-4.58,8.31-2.42,1.89-.82,1.94-3,1.79-5.27-.2,1.83-.52,2.9-.94,3.2A13.92,13.92,0,0,0,191.77,57.9Z"/><path class="cls-6" d="M174.18,73.14c-.09-4.61-1.89-6.68-1.88-9.07a8.41,8.41,0,0,0-.26-1.76C175.52,67.12,174.92,70.52,174.18,73.14Z"/><path class="cls-20" d="M173.4,75a1.61,1.61,0,0,0-.27,2.67,1.91,1.91,0,0,0,1.48.42c.93,0,1.09.48,1.36.89.45.68.75,1.17,1.38,1,.81-.21,0-1.92,2.2-2.94h0q3-1.58,0-3.87c.88,1.13,1,2,.4,2.67-.54-.48-1.83-.66-2.24-.08a2,2,0,0,1-2.05.46c-1.38-.61-1.66-1.62-.83-3.48-.9,1.51-1.17,2.63-.53,3.28-.32-.06-.49,0-.81.51a1.35,1.35,0,0,0-.17.34A4,4,0,0,1,173.4,75Z"/><path class="cls-21" d="M177.19,74.84c.3-.13.49-.38.41-.56s-.38-.23-.69-.11-.48.38-.41.56S176.89,75,177.19,74.84Z"/><path class="cls-22" d="M173.79,77.34a3.31,3.31,0,0,0,1.94.14C174.61,76.14,174,76.09,173.79,77.34Z"/><path class="cls-22" d="M179.25,76.57a3.25,3.25,0,0,1-1.81.7C178.12,75.66,178.72,75.43,179.25,76.57Z"/><path class="cls-23" d="M177.69,91c1.61,1.09,3.57.85,5.9-.7C181,89,179,89.28,177.69,91Z"/><path class="cls-24" d="M181.73,87.14c.3-.12.49-.37.41-.56s-.38-.23-.69-.1-.48.37-.41.56S181.43,87.27,181.73,87.14Z"/><path class="cls-17" d="M179.25,60.42c2.92-3.36,5.36-8,13.33-4.5C191.36,53.69,179.69,47.24,179.25,60.42Z"/><path class="cls-6" d="M161.69,50.78c5.2-4.29,9.91-5.85,16.22-2.93,6.48,2.53,6,2,11.08,3.28C182.31,41.64,161.94,36,161.69,50.78Z"/><path class="cls-26" d="M179.73,80.59c.3-.13.48-.38.41-.56s-.38-.23-.69-.11-.48.38-.41.56S179.42,80.71,179.73,80.59Z"/><path class="cls-23" d="M184.22,93.9C191.68,90.1,194.93,84.5,196,75c-1.27,1.69-3.34,2.47-5,3.27,6.54-5.93,2.85-10.17.2-12.23C206.82,62.67,198.18,87.46,184.22,93.9Z"/><path class="cls-23" d="M180.08,94.34c-10.52-4-17.09-14.48-16.88-19.93.05-1.22,0-2.55.46-3.09s1.71-.37,2.43-.48c1.16.58,1.81,1.18.48,1.7-3,1.18-.55,6.17,1.5,8.32A18,18,0,0,0,180.08,94.34Z"/><path class="cls-23" d="M162,56.45q-2.23-10.44,6.47-11.2a9.94,9.94,0,0,0-5.2,8.27c3.08-.05,5.34,1.55,6.8,4.8Q165.87,54.18,162,56.45Z"/><path class="cls-5" d="M171.29,90.24c8.46,9.05,16,7.65,24.26-4.45C187.16,96,179.24,98.14,171.29,90.24Z"/><path class="cls-6" d="M175.05,72.86c.31-.67,1.19-.73,2.63-.16A4,4,0,0,0,175.05,72.86Z"/><path class="cls-28" d="M175.33,87.23a.08.08,0,0,1,0-.1.07.07,0,0,1,.1,0c1.22,1.84,6,1.06,8.53-1.41a.08.08,0,0,1,.09,0s.06.06,0,.09a5.16,5.16,0,0,1-2.23,2.61,5.73,5.73,0,0,1-2.32.73,5.25,5.25,0,0,1-2.31-.3A3.79,3.79,0,0,1,175.33,87.23Z"/><path class="cls-29" d="M184,81.86a35.1,35.1,0,0,1-5.23,1.37,3.47,3.47,0,0,0,1-1.46c-1,1.66-2.37,1.92-4.15.76a4.67,4.67,0,0,0,1.58.94,29.37,29.37,0,0,1-3.62.26,2.2,2.2,0,0,1,1.4-2.15,6.2,6.2,0,0,0,5.34-1.07A4.45,4.45,0,0,1,184,81.86Z"/><path class="cls-18" d="M170.78,69c-3.25,2-5.62.69-8,2.22C163,69.18,166.34,69.84,170.78,69Z"/><path class="cls-33" d="M194.06,61.15a36.67,36.67,0,0,1-.42,4.5,9.48,9.48,0,0,1-1,2.81.41.41,0,0,1-.15.17,14.92,14.92,0,0,1-4.81,1.94,18.49,18.49,0,0,1-5.61.33.36.36,0,0,1-.23-.09,7,7,0,0,1-2.1-2.76,9.52,9.52,0,0,1-.73-3.76.4.4,0,0,1,.18-.34,24.27,24.27,0,0,1,5.78-2.9,16.79,16.79,0,0,1,8.79-.32.39.39,0,0,1,.31.42Zm-1.19,4.35a33.54,33.54,0,0,0,.39-4.07,16,16,0,0,0-8.06.37,23.38,23.38,0,0,0-5.42,2.7,8.78,8.78,0,0,0,.67,3.24,6.12,6.12,0,0,0,1.79,2.39,18.17,18.17,0,0,0,5.26-.32A14,14,0,0,0,192,68,8.28,8.28,0,0,0,192.87,65.5Z"/><path class="cls-5" d="M199.42,103.42c-2.8-5.52-8.33-7.81-14.91-7.71,3.6-2.42,8.05-5.79,10.53-9.18C196.56,95.55,194.58,91.83,199.42,103.42Z"/><path class="cls-35" d="M204.93,393.54a19.61,19.61,0,0,0-8.3-6.51q-2.35-.4-1.13,1.72,6,10.19,5.74,18.47l2.57.62,1-.54Q203.86,396.61,204.93,393.54Z"/><path class="cls-36" d="M204.57,393.35c-1.25-4.13-4.48-6.18-8.87-6.37-.29.17-.47.11-.54.3-.3.79,1.77,2,5.77,4.19,2.16,2.85,2.41,7.34,2.88,16.37.68-.36,1.48-.68,1.48-.68A116.6,116.6,0,0,1,204.57,393.35Z"/><path class="cls-35" d="M226.63,407c-1,3.85-6.35,5.11-10.86,4.9-4.2-.2-7.57-1.63-8-4.68C213.73,409.9,221.92,411.87,226.63,407Z"/><path class="cls-37" d="M197.69,380.81c1.72,5.4,7.35,8.56,9.67,13.42,3.77,9.83,9.91,14.52,17.12,11.67-1,4.65-6.49,4.76-9.46,4.29-3.43-.54-5.1-3.63-7.27-9.61a48.13,48.13,0,0,0-2.63-6,18,18,0,0,0-4.56-5.36C197.72,387,195.21,385.41,197.69,380.81Z"/><path class="cls-37" d="M211.15,398.33q5.16,1.51,4.38-1.45C215.34,397.85,213.88,398.34,211.15,398.33Z"/><path class="cls-38" d="M218.87,401.69c1.64.63,2.71,1.82,2.39,2.63s-1.91,1-3.54.33-2.71-1.82-2.39-2.64S217.24,401.05,218.87,401.69Z"/><path class="cls-39" d="M199.6,65.77c-.12-.21.41-1,.18-1.64-.9-2.37-.1-6.77,2.75-6.36.11.23-.2.4-.1.63,1.67,3.9,1.08,6.69,0,7.73a1.9,1.9,0,0,1-2.8-.36Zm1.74-.13c2.59-.76,1.34-5.45-.06-6.31a4.25,4.25,0,0,0-1.09,2.55C202.24,62.51,202.59,64,201.34,65.64Z"/><path class="cls-40" d="M214.07,125.82a1,1,0,1,0-1.15-.93A1.06,1.06,0,0,0,214.07,125.82Z"/><path class="cls-41" d="M211.92,122.65a.25.25,0,1,1,.23-.45,3.25,3.25,0,0,1,.9.65,2.24,2.24,0,0,1,.54.86.25.25,0,0,1-.16.33.25.25,0,0,1-.32-.16,1.82,1.82,0,0,0-.43-.68A2.66,2.66,0,0,0,211.92,122.65Z"/><path class="cls-45" d="M198.05,98.79c4.7,4.65,10.18,5.11,16.52,5.54,12.89.85,15.29,24.16,18.19,33.62,1.54,5-3.35,9.23-4.92,13.13-2.68,6.7-4.75,11.62-14,11.62-14.64,0-29.91-11.08-34.1-24.75-2.36-7.67-15.33-26.38-7.79-28.17s11.47-5.29,17.22-6.83c.51-.14,3.64,2.72,6.18,2.3C196.91,105,197.53,98.28,198.05,98.79Z"/><path class="cls-45" d="M187.56,109.54a8.47,8.47,0,0,1,1.81,0c3,.08,7,.38,8.65,1.29.61.33,3.23,1.87,2.36,2.11a7.94,7.94,0,0,1-1.53.17,46.78,46.78,0,0,1,7.31,5.37,22.92,22.92,0,0,1-1.13-6.79,21.1,21.1,0,0,1-2.43.75c-.88.16.82-2.36,1.22-2.92,2.15-3.06,13.07-6.17,13.87-4.51.38.79-2.63,2.47-6.08,4a49,49,0,0,1,16.21,9.15c18.67,15.73-1.77,27.34-13.39,15.15-.34-.36-.68-.74-1-1.12-.81,10-16.63,14.53-23.86,4.61-5-6.86-6.46-18.32-4.9-24-4.53-.21-8.56-.86-8.56-1.64C176.1,110.3,184.75,109.54,187.56,109.54Z"/><path class="cls-45" d="M169.86,110c3.87.8,4.39,9.6-.23,24.15-2.53,8-11.34,20.11-12.28,25.44-.88,5.09-6.22,3.81-8,3.45s-3.27-2.51-1.64-6.31c2.27-5.29,5.77-13.33,8.41-21.64C160.77,120.58,166,109.23,169.86,110Z"/><path class="cls-45" d="M154.65,157.73a3.42,3.42,0,0,1,0,4.86c-2.52,3.12-9,7.08-16.3,9.56-12.34,4.21-17.22,5.91-19.42,3.24s1.44-2.24,14.73-11.2S152.46,155.06,154.65,157.73Z"/><path class="cls-46" d="M123.3,175.4q1.71-2-1.58-1.42c.5-.1,2.44-4,2.92-4.09.92-.2,1.4-1.54,2.1-1.29,2.88,1,6.14,2.31,7.54,1.12l4.37-3.44q1.42,4.68,1.43,4.68Q128.68,175.13,123.3,175.4Z"/><path class="cls-45" d="M217.43,105c-1.86,1.53,7.94,5.87,12.27,13,2.36,3.88-2.5,9.48,1.12,13.88,10.26,12.5,23.09,24.61,26.13,22.47a3.81,3.81,0,0,0,1.69-2.9c4-3.46,12.13-10.18,16.31-17.07,3.4-5.6,5.58-9.21,9.45-13.23a13.84,13.84,0,0,0,1.73-3.86c.07-1.52-2.47-.68-3.34-1.32-2.53-1.85-1.53,1.88-15.42,13.24a67.65,67.65,0,0,0-12.19,13.05c-3.61-5.84-12.49-12.36-16.83-17.65C228.08,112.16,220.3,102.68,217.43,105Z"/><path class="cls-47" d="M212.31,125.81a2.64,2.64,0,0,1,1.39,0,5.2,5.2,0,0,1-1.85-4.46c.06.67-5.24,1.57-6.42,1.44C207.24,123.43,212.48,125.17,212.31,125.81Z"/><path class="cls-48" d="M180.16,95.32c-6.56-.56-20.27-14.43-17.78-24.86a26.34,26.34,0,0,0,.33-9.52c-.31-2.38-2.67,4.23-2.49.1.31-7.2-5-18.92,13.79-18.35,1.54.05,16.52,6.3,17.84,7.84,3.72,4.34,5.15,7.87,7.38,13.75.54,1.41,1.78,2.18,2.09,3.88.48,2.68-.46,7.44-1.74,10.64-3.46,8.66-11.45,15-15.91,16.32A9.84,9.84,0,0,1,180.16,95.32Z"/><path class="cls-49" d="M165.2,59.13c2.74-.07,4.74-.21,6.28,1.51,2.41,2.67,3.75,8.8,2.7,12.5,0-2.87-.39-6.78-2.34-6.76-4.48,0-8.74,4.91-10.22,2.23-.38-.69-.67-1-.94-1.56C157.74,61.41,162.18,59.21,165.2,59.13Z"/><path class="cls-7" d="M163.83,64.63c.8-1.08,2.32-.35,3.6,0,1.75.49,5.42,1.59,3.82,3.74-.72,1-2.14,1.38-3.82,1.55-1.26.13-3.24.12-4.19-.89a2.19,2.19,0,0,1-.59-2c.07-.32.3-.28.55-.67C163.62,65.75,163.16,65.52,163.83,64.63Z"/><path class="cls-8" d="M166.87,64.29l.61.18a10.62,10.62,0,0,1,3.05,1.37c3.26,2.34-.56,4-2.93,4.09-1.93.1-4.21-.05-4.56-1.79-.42-2.11,1.58-4.56,3.83-3.85Zm3.38,2.28c-1.45-1.06-3.49-.51-5.41.18-1,.38-1.49.93-1.33,1.43.35,1.07,2.51,1.7,4.05,1.58C170.12,69.55,172.69,68.34,170.25,66.57Z"/><path class="cls-9" d="M173.14,83.72c5-.92,8-1,11.52-2.21-.7,4.68-4.6,7.47-8.17,5.61A11.1,11.1,0,0,1,173.14,83.72Z"/><path class="cls-10" d="M179.35,87a19.38,19.38,0,0,0,3.16-.6c.37-.14-.23-.74-.35-.93s-5.37.44-5.46,1.14c0,.15-.27.86.11.94S178.51,87.11,179.35,87Z"/><path class="cls-49" d="M177.79,90.38c1.6,1.09,3.57.85,5.9-.7C181.1,88.41,179.13,88.65,177.79,90.38Z"/><path class="cls-11" d="M184.39,85.21c-.18-.9-2.52.64-4.77,1.09s-4.6,0-4.58.77c0,1.8,2.85,2.74,5.3,2.23S184.73,86.9,184.39,85.21Z"/><path class="cls-50" d="M167.43,64.64a2.64,2.64,0,0,1,2.65,2.64c0,1.47-1.3,2.28-2.76,2.28a2.26,2.26,0,0,1-2.53-2.28A2.64,2.64,0,0,1,167.43,64.64Z"/><path class="cls-51" d="M167.43,64.38a2.9,2.9,0,0,1,2.91,2.9,3.07,3.07,0,0,1-.87,2.12,4.27,4.27,0,0,1-1.93.52,2.37,2.37,0,0,1-2.16-.58,2.91,2.91,0,0,1,2.05-5Zm-2.29,3.17a1.75,1.75,0,0,0,.6,1.43,3.13,3.13,0,0,0,3.34,0,2.56,2.56,0,0,0,.74-1.74C169.82,65.59,165.14,65.3,165.14,67.55Z"/><path class="cls-52" d="M172.62,71.17c.3,1.13-3,.38-3,.18C169.6,70.34,172.27,69.87,172.62,71.17Z"/><path class="cls-53" d="M171.69,65.65c-1.16-.74-2.62-.6-4.09-.72-2.08-.18-4.23-.35-5.86.33C164.2,61.82,169.71,59.28,171.69,65.65Z"/><path class="cls-54" d="M172.49,81.79c.64.78,1,1.69,1.68,1.24s1.19,1.08.23,1a3.92,3.92,0,0,1-2.37-.91C171,82.16,171.84,81,172.49,81.79Z"/><path class="cls-54" d="M185.09,79.6c-.29.86-.3,1.61-1.24,1.36s-.59,1.43.33,1.1a3.17,3.17,0,0,0,2-1.38C186.72,79.61,185.37,78.73,185.09,79.6Z"/><path class="cls-10" d="M178.41,82.78c1-.22,2.87-1.12,3.54-1,.47.06.1,1.12.06,1.43-.06.52-1.06,1-2.79,1.33s-3.32.31-3.54-.16c-.1-.21-.71-1.1-.32-1.35S177.45,83,178.41,82.78Z"/><path class="cls-11" d="M177.37,81.3c1.21-.34,3.68-2.8,7.29.21.53.45-3,1.61-6.33,2.19-2.51.44-4.87.45-5,.06-.19-.59-.33-1.25,1.1-2.37C175.27,80.73,176.27,81.61,177.37,81.3Z"/><path class="cls-18" d="M167.43,68.51a1.23,1.23,0,1,0-1.22-1.23A1.23,1.23,0,0,0,167.43,68.51Z"/><path class="cls-7" d="M165.38,67.79c.51,0,.93-.26.93-.57s-.42-.57-.93-.57-.94.26-.94.57S164.86,67.79,165.38,67.79Z"/><path class="cls-19" d="M172.43,68.75a8.58,8.58,0,0,1-1.65.26,2,2,0,0,0,.33-2.4c.13.09,0-.24.18-.13A3.25,3.25,0,0,1,172.43,68.75Z"/><path class="cls-18" d="M160,63.31l.08,0c.61,1.17,1.13,1.82,1.55,1.94a14.29,14.29,0,0,1-1-1.75c1.22,1.25,4.49.94,6.77,1.11.3,0,5.24.53,5.27.53a5.19,5.19,0,0,1-1.41,1.72c-1.18-2.22-7.46-2.26-8.64.42-2.06-.16-2.83-2.23-3.42-4.4.79,1.67,1.44,2.58,1.94,2.72A13.89,13.89,0,0,1,160,63.31Z"/><path class="cls-49" d="M178.86,72.2c-.59-5.28,3.37-10.29,11.15-7,.17.07.38-1.66.82-1.57a3.24,3.24,0,0,0,3.74-1.9,7.25,7.25,0,0,0-2.28-7c-3.66-2.7-11.59-1.15-14.16,4C176.54,61.91,178.16,67.74,178.86,72.2Z"/><path class="cls-52" d="M184.22,93.9c7.72-4,4.44-13.17,8.4-19.19,2.23-3.39,1.33-6.5-.94-8.29C207.34,63.09,198.18,87.46,184.22,93.9Z"/><path class="cls-52" d="M178.54,94.21c-5.66-2.14-17.62-14.56-15.89-21.06.38-1.43,2-2.24,4-2a3.5,3.5,0,0,0-2.57,5c.94,1.88,2.76,3.44,3.94,4.68C170,82.86,170,90,178.54,94.21Z"/><path class="cls-55" d="M187.44,70c1.62-.36,3.14,0,3.4.75s-.84,1.69-2.46,2.06-3.14,0-3.4-.74S185.82,70.34,187.44,70Z"/><path class="cls-7" d="M188.56,60.39c-1.1-.75-2.3.43-3.4,1.19-1.49,1-4.6,3.27-2.38,4.78,1,.69,2.46.61,4.11.23,2.09-.49,5.77-2.41,2.85-4.71C189.13,61.39,189.49,61,188.56,60.39Z"/><path class="cls-8" d="M185.58,61.07l-.52.37a10.59,10.59,0,0,0-2.43,2.29c-2.32,3.28,1.81,3.56,4.1,2.91s5.34-1.76,3-4.76a3,3,0,0,0-4.16-.81Zm-2.45,3.25c1-1.47,3.13-1.61,5.17-1.58,1.11,0,1.83.5,1.84,1,0,1.12-1.93,2.31-3.42,2.69C184.22,67.11,181.4,66.8,183.13,64.32Z"/><path class="cls-50" d="M185.78,61.45a2.65,2.65,0,1,0,3.37,1.64A2.66,2.66,0,0,0,185.78,61.45Z"/><path class="cls-51" d="M185.7,61.21a2.92,2.92,0,0,0-1.8,3.69,2.91,2.91,0,0,0,1.48,1.67,3.86,3.86,0,0,0,3.88-1.34,2.93,2.93,0,0,0,.13-2.22,2.91,2.91,0,0,0-3.69-1.8Zm3.2,2.25a1.76,1.76,0,0,1-.1,1.54c-.27.55-.8.72-1.42.93a2.35,2.35,0,0,1-1.78.18,2.38,2.38,0,0,1-1.21-1.37C183.83,63.14,188.17,61.34,188.9,63.46Z"/><path class="cls-18" d="M190.85,64.49a7.67,7.67,0,0,1-6.25,2.77c4.32.53,6.11-2,9-1.85A8.11,8.11,0,0,0,190.85,64.49Z"/><path class="cls-52" d="M181.05,69.42c0,1,3.19-.78,3.14-.93C184,67.71,181.07,68.32,181.05,69.42Z"/><path class="cls-53" d="M181.46,63.93c.86-1.08,2.29-1.42,3.64-2,1.91-.85,3.88-1.71,5.64-1.6C187.3,57.86,181.26,57.26,181.46,63.93Z"/><path class="cls-18" d="M186.25,62.8a1.21,1.21,0,0,0-.76,1.56,1.23,1.23,0,1,0,.76-1.56Z"/><path class="cls-7" d="M184.68,64c-.49.17-.8.54-.7.84s.58.4,1.07.23.8-.54.7-.84S185.17,63.78,184.68,64Z"/><path class="cls-19" d="M181.78,67.1a8.12,8.12,0,0,0,1.65-.3,2,2,0,0,1-1.1-2.15c-.09.12-.13-.21-.22-.06A3.25,3.25,0,0,0,181.78,67.1Z"/><path class="cls-18" d="M191.77,57.9l-.06.05c-.2,1.31-.48,2.09-.83,2.34a18.78,18.78,0,0,0,.33-2c-.76,1.58-3.94,2.36-6.05,3.26-.27.12-4.77,2.22-4.81,2.22a5.28,5.28,0,0,0,1.9,1.17c.39-2.49,6.31-4.58,8.31-2.42,1.89-.82,1.94-3,1.79-5.27-.2,1.83-.52,2.9-.94,3.2A13.92,13.92,0,0,0,191.77,57.9Z"/><path class="cls-49" d="M173.4,75a1.61,1.61,0,0,0-.27,2.67,1.91,1.91,0,0,0,1.48.42c.93,0,1.09.48,1.36.89.45.68.75,1.17,1.38,1,.81-.21,0-1.92,2.2-2.94h0q3-1.58,0-3.87c.88,1.13,1,2,.4,2.67-.54-.48-1.83-.66-2.24-.08a2,2,0,0,1-2.05.46c-1.38-.61-1.66-1.62-.83-3.48-.9,1.51-1.17,2.63-.53,3.28-.32-.06-.49,0-.81.51a1.35,1.35,0,0,0-.17.34A4,4,0,0,1,173.4,75Z"/><path class="cls-21" d="M177.43,74.79c.3-.12.49-.37.41-.56s-.38-.23-.68-.1-.49.37-.41.56S177.13,74.92,177.43,74.79Z"/><path class="cls-56" d="M173.79,77.34a3.31,3.31,0,0,0,1.94.14C174.61,76.14,174,76.09,173.79,77.34Z"/><path class="cls-56" d="M179.25,76.57a3.25,3.25,0,0,1-1.81.7C178.12,75.66,178.72,75.43,179.25,76.57Z"/><path class="cls-24" d="M181.73,87.14c.3-.12.49-.37.41-.56s-.38-.23-.69-.1-.48.37-.41.56S181.43,87.27,181.73,87.14Z"/><path class="cls-30" d="M177.8,59.46c6.3-2.5,8.62-7.73,14.95-4.39C190.47,51.85,179.9,51.91,177.8,59.46Z"/><path class="cls-49" d="M173.42,41.3c-8.41.78-14.1,1.18-12.61,10.34,1.52-3.93,6.74-6.32,12.24-4.81,8,2.2,17.67,3.61,20.36,5.64-2.68-4.71-10.78-7.16-13.25-8.32C178.31,43.28,176.85,41.14,173.42,41.3Z"/><path class="cls-26" d="M179.73,80.59c.3-.13.48-.38.41-.56s-.38-.23-.69-.11-.48.38-.41.56S179.42,80.71,179.73,80.59Z"/><path class="cls-55" d="M167,73c1.51-.18,2.87.23,3,.91s-.92,1.38-2.43,1.56-2.87-.22-3-.9S165.46,73.2,167,73Z"/><path class="cls-30" d="M208.07,41.31q5.22,6.49-6.58,8.93Q207.45,47.24,208.07,41.31Z"/><path class="cls-49" d="M175.05,72.86c.31-.67,1.19-.73,2.63-.16A4,4,0,0,0,175.05,72.86Z"/><path class="cls-57" d="M201.16,56.57c1.43.43,3.17,3.85,3.43,7.67.41,6.14-1.41,8-3.18,6.32a74.72,74.72,0,0,0-3.2-8.79C197.79,58.48,198.34,55.74,201.16,56.57Z"/><path class="cls-28" d="M175.33,87.23a.08.08,0,0,1,0-.1.07.07,0,0,1,.1,0c1.22,1.84,6,1.06,8.53-1.41a.08.08,0,0,1,.09,0s.06.06,0,.09a5.16,5.16,0,0,1-2.23,2.61,5.73,5.73,0,0,1-2.32.73,5.25,5.25,0,0,1-2.31-.3A3.79,3.79,0,0,1,175.33,87.23Z"/><path class="cls-29" d="M184,81.86a35.1,35.1,0,0,1-5.23,1.37,3.47,3.47,0,0,0,1-1.46c-1,1.66-2.37,1.92-4.15.76a4.67,4.67,0,0,0,1.58.94,29.37,29.37,0,0,1-3.62.26,2.2,2.2,0,0,1,1.4-2.15,6.2,6.2,0,0,0,5.34-1.07A4.45,4.45,0,0,1,184,81.86Z"/><path class="cls-18" d="M170.84,69.34c-5,2.37-5.75.65-8.17,2.18.05-.47,1-1.22,1.36-1.39A14,14,0,0,0,170.84,69.34Z"/><path class="cls-58" d="M162.68,77.06a14.92,14.92,0,0,0-.18,8.51c.7,2.37,2,4,3.14,4.41h0l.16.06h0a2.11,2.11,0,0,0,.7.09,2.46,2.46,0,0,0,1.55-.65,5.46,5.46,0,0,0,1.11-1.39l-.88-1a2.77,2.77,0,0,1-1,1.5,1.29,1.29,0,0,1-.82.36.8.8,0,0,1-.31,0l-.08,0h0c-.84-.33-1.85-1.65-2.44-3.65a13.22,13.22,0,0,1-.24-6.14C163.12,78.43,162.89,77.75,162.68,77.06Z"/><path class="cls-59" d="M170.36,109.06l-.82-.66a15.41,15.41,0,0,1,6-.07c4.3-1.73,11.74-3.4,10.95-8.32,1.94,3.15.18,5,2,9.49,2.71,6.83,7.52,14.07,7.33,14.27-1,1.07-11.07-15.52-12-15.43-2.36.23-2.62-1.34-6.72.25a4.76,4.76,0,0,1,2.35,2.54C177.76,109.31,174.23,108.66,170.36,109.06Z"/><path class="cls-35" d="M204.93,393.54a19.61,19.61,0,0,0-8.3-6.51q-2.35-.4-1.13,1.72,6,10.19,5.74,18.47l2.57.62,1-.54Q203.86,396.61,204.93,393.54Z"/><path class="cls-36" d="M204.57,393.35c-1.25-4.13-4.48-6.18-8.87-6.37-.29.17-.47.11-.54.3-.3.79,1.77,2,5.77,4.19,2.16,2.85,2.41,7.34,2.88,16.37.68-.36,1.48-.68,1.48-.68A116.6,116.6,0,0,1,204.57,393.35Z"/><path class="cls-35" d="M226.63,407c-1,3.85-6.35,5.11-10.86,4.9-4.2-.2-7.57-1.63-8-4.68C213.73,409.9,221.92,411.87,226.63,407Z"/><path class="cls-60" d="M202.58,376.68c2.9,0,5.13,15,18.48,23,17.59,10.46-10.8,16.47-13.63,6.58-.73-2.53-2.52-15.1-10-17.45-2.93-.92-2.08-5.11-.89-8.52.95-2.72,1.93-4.93,2.83-4.68C202.29,376.39,202.17,376.68,202.58,376.68Z"/><path class="cls-61" d="M201,373.79c1.15-.77,3.25,3.87,4.27,5.4s8.82,13.06,6.59,14.08C208.56,394.77,194.05,378.38,201,373.79Z"/><path class="cls-62" d="M200.4,66.16c-.16-.19.35-1.7,0-2.28-1.24-2.2-1.48-6.28,1.4-6.3.14.21-.14.43,0,.63,2.24,3.61,2.11,6.85,1.18,8a1.64,1.64,0,0,1-2.6-.09Zm1.44-.62c2.45-1.15.51-5.59-1-6.23a4.33,4.33,0,0,0-.68,2.69C202.26,62.31,202.83,63.73,201.84,65.54Z"/><path class="cls-63" d="M168.39,31.24c-9.77-4.13-14.19-.59-9.83,7.52C156.77,31.93,161.59,29.79,168.39,31.24Z"/><path class="cls-30" d="M168.39,31.24c-9.77-4.13-14.19-.59-9.83,7.52C156.77,31.93,161.59,29.79,168.39,31.24Z"/><path class="cls-35" d="M153.39,422.55q5.24-6.62.16-4.19-12.36,12.67-14-2.74c-1.75-1.23-2.5-.54-2.26,2.09Q139.34,433.28,153.39,422.55Z"/><path class="cls-60" d="M139.61,409.67c1.87-4.12,14.1-22.13,16.42-21.08s2.56,22.56.69,26.68c-3.63,8-9.7,10.76-14.22,9.8C139.67,424.47,136.46,416.59,139.61,409.67Z"/><path class="cls-61" d="M158.18,385.45c2.31,1.05-.18,12.58-2.05,16.7-4.59,10.07-10.95,3.17-8.69-2.38C149.13,395.61,155.86,384.39,158.18,385.45Z"/><path class="cls-2" d="M218.6,106.81c19.79-.61,19.4,28.89,15.93,34.67,1.46,8.35-4.25,14.45-4.46,20.49-.43,12.32,4.43,21.52,3.71,30.66-10,2.73-23.41,4.21-31.57,1-6.46-2.57-8.06-9.21-13.22-12.73,10.86-20.27-11.69-53.1-19.07-45.43-2.12-2.18-3.57-5.25-9.43-8-.86-1.57,5.36-20.94,9.86-17.31,5.47,4.73,11.5,2.54,18.24,8.38s18.69,7.29,24,5.83c6.41-1.78,4.13-19.26,2-21.85C214.08,101.89,217.66,106.84,218.6,106.81Z"/><path class="cls-10" d="M223.11,146.9c3.51-1.56,5.63,1.34,5.43,7.3-1.68-3.66-3.8-6.56-5.43-7.3Zm-42.29-26.37c11,5.39,11.77,1.34,9.57,11.41-.88,4.06,6.23,7.35,11.66,7.08a15.69,15.69,0,0,0,12.18-7.21c.62-1.14,2.75-1.52,4-1.63-3.5,9.28-4.31,9.39,2.67.45a18.29,18.29,0,0,0,4.49,0c4.42-1.21,5.15-4.13,6.26-6.33-8.92-7.13-10.53-15.32-15.43-11.13-.53.38,3.39,1.85,2.44,4.44-1.21,3.28.1,6.21-4.61,8.18-5,2.1-16.24,2.9-23.31-5.2-3.19-3.65-7.18-.48-9.94-.09ZM225.43,175c-9-18.93-10.64,5.73-14.29,2.31.5-7.69-.84-15.47,1-22.21,1.25-4.71,6-5.33,4.36-9.55-8.94,5.22-18.41,2.69-26.49-3.76.84,2.86,5.54,9.73,6.58,11.95-12.09-4.2,2.28,3.87,5.1,5.09-.56,0-3.5.46-4.11.42,3,8.63-2.07,18.31-6.72,24.08C210.61,191.69,230.45,192.74,225.43,175Z"/><path class="cls-64" d="M206.06,295c-4.31,13.18-5,38.43-.46,62.71,5.62-24.05,6.28-49.29.46-62.71Zm8.78.72s-4.58-4.53-2.32-13.95c-3.14-34.71,6.23-48.29,16.79-59,.82,10.14-6.56,41.28-11.74,61.11C218.15,293.35,216,294.87,214.84,295.76Z"/><path class="cls-65" d="M205.27,396a.49.49,0,0,1,.23-.66.48.48,0,0,1,.66.22c.25.5.48,1,.68,1.42s.41.89.6,1.35a33.76,33.76,0,0,1,1.25,3.65c.93,3.11,1.67,5.59,5.57,6.79a11.15,11.15,0,0,0,3.43.18,17.74,17.74,0,0,0,4-.69.49.49,0,1,1,.3.94,18.74,18.74,0,0,1-4.23.74,12.13,12.13,0,0,1-3.78-.22c-4.41-1.36-5.22-4.06-6.23-7.46a31.64,31.64,0,0,0-1.21-3.54c-.17-.42-.37-.86-.59-1.33s-.44-.94-.67-1.39Zm-5-7.91a.49.49,0,0,1-.22,1,8,8,0,0,1-1.43-.47h0a4.24,4.24,0,0,1-2.27-2.1,5,5,0,0,1-.15-3.25,11.38,11.38,0,0,1,.68-2,.5.5,0,0,1,.66-.25.49.49,0,0,1,.25.65,10.07,10.07,0,0,0-.63,1.81,4,4,0,0,0,.09,2.61,3.27,3.27,0,0,0,1.77,1.6h0A8,8,0,0,0,200.3,388.09Z"/><path class="cls-59" d="M171.29,90.24c8.46,9.05,16,7.65,24.26-4.45C187.16,96,179.24,98.14,171.29,90.24Z"/><path class="cls-40" d="M207.7,119.14a1,1,0,1,1-1.27.76A1.06,1.06,0,0,1,207.7,119.14Z"/><path class="cls-66" d="M185.92,104.64a19.45,19.45,0,0,0,4,8q4.35,4.55,12.51,4.94a37.42,37.42,0,0,0,3.8,0,12,12,0,0,0,.43-11.19,21.87,21.87,0,0,0-2.52-4.12c.36,0,.71.09,1.07.15a21.81,21.81,0,0,1,2.17,3.65,12.72,12.72,0,0,1-.57,12.08l-.1.19h-.22a35.39,35.39,0,0,1-4.1,0q-8.48-.4-13-5.18c-1.53-1.61-3-4.77-4.05-8.25l.64-.26Zm21.9,13.7a2.3,2.3,0,0,0-1.53.28,1.54,1.54,0,0,0-.36,2.47,2.39,2.39,0,0,0,1.38.71,2.36,2.36,0,0,0,1.53-.28,1.55,1.55,0,0,0,.36-2.48,2.32,2.32,0,0,0-1.38-.7Zm1.05,1a1.1,1.1,0,0,1-.26,1.78,1.85,1.85,0,0,1-1.23.22,1.9,1.9,0,0,1-1.12-.56,1.19,1.19,0,0,1-.33-1,1.16,1.16,0,0,1,.59-.83,1.85,1.85,0,0,1,1.23-.22A1.89,1.89,0,0,1,208.87,119.35Z"/><path class="cls-67" d="M205.76,117.54a.26.26,0,0,1,.29-.42,3.5,3.5,0,0,1,.8.78,2.41,2.41,0,0,1,.41.93.25.25,0,1,1-.5.1,1.94,1.94,0,0,0-.32-.74A3,3,0,0,0,205.76,117.54Z"/><path class="cls-21" d="M174.76,74.85c.12.12.27.16.34.09s0-.23-.08-.34-.27-.16-.34-.09S174.64,74.73,174.76,74.85Z"/><path class="cls-7" d="M168.48,67.83c.29,0,.52-.15.52-.32s-.23-.32-.52-.32-.53.15-.53.32S168.19,67.83,168.48,67.83Z"/><path class="cls-7" d="M187.66,63.28c.25-.14.53-.12.61,0s-.06.39-.32.53-.53.11-.61,0S187.4,63.41,187.66,63.28Z"/><path class="cls-61" d="M147.44,399.77c1.69-4.16,8.42-15.38,10.74-14.32s-.18,12.58-2.05,16.7C151.54,412.22,145.18,405.32,147.44,399.77Z"/><path class="cls-65" d="M143.49,404.65a.49.49,0,0,1,.68-.14.5.5,0,0,1,.14.69c-3.48,5.22-4.36,9.64-3.68,12.67a6,6,0,0,0,1.48,2.91,4.37,4.37,0,0,0,2.52,1.28c1.73.26,3.82-.44,5.89-2.3a.48.48,0,0,1,.69,0,.49.49,0,0,1,0,.7c-2.3,2.08-4.68,2.85-6.7,2.55a5.27,5.27,0,0,1-3.07-1.57,6.87,6.87,0,0,1-1.75-3.39C138.94,414.82,139.84,410.12,143.49,404.65Z"/><path class="cls-64" d="M172.38,294.47c-1.67,17.86,3.25,9.93,6.18.24l.35-1.16c3.36-8.25,12.54-47.74,21-68,1.18-2.84-4.07-8.06-3.49-10.85.54-2.58,4.72,4.76,6,2.8,2.11-3.18,1.92-10.6,1.21-24.34a40,40,0,0,1,3.87,11.24,26.15,26.15,0,0,0-1.39-14.88q-3-.56-6.3-1.27-3.45-.74-7.23-1.65c-17.65,4.63-19,49.3-19,63.59-.07,19.78-1.73,23.88-1.09,43.48,0,.28-.06.54-.08.8Zm4.15,12.7c.61,9.68-15.47,66.53-16.85,62.58-.67-1.91,6.91-58.84,10.21-62.7C169.94,313.26,174.27,311.38,176.53,307.17Z"/><path class="cls-68" d="M175,208.73q4.22-23.08,17.32-13.19Q189.54,209.82,175,208.73Z"/><path class="cls-64" d="M233.78,192.63c.47,2.73.71,4.1.71,4.1Q219.83,205.61,180,193c2.43-2.94,3.64-4.42,3.64-4.42Q216,196.59,233.78,192.63Z"/><path class="cls-44" d="M212.51,193.62a.69.69,0,0,0-.62-.67l-1.8-.31q-1.58.12-1.56,7.35l2.52.7c-.25-3.78,0-6.09.84-7.12Z"/><path class="cls-69" d="M174,133.85c-5.74-8.64-11.71-14.16-10.93-19,.3-1.89,3.49-7.23,5.31-7.29A47.93,47.93,0,0,0,182.15,105c31.5,37.68,33.83,69.75,25,102.56-16.52-5.73-28.63-11.53-29-16.94,5.16-7.14,12.14-17.56,13.32-23.25-2.38-1.76-2.42-2.87-.11-3.35C188.45,149.89,181.18,143.94,174,133.85Z"/><path class="cls-70" d="M157.23,161.69v0c.73.91.75,1.53-.48,1.45a2.29,2.29,0,0,1-.38.49,132,132,0,0,1-15.67,8.63s-1.81-4-4.77-10.23l11.45-5.69v0c-.89-.5-.39-.79,0-1.1h.36L157,130.16c5.71-15.57,7.9-22,12.39-20.41,6.29,8.39,8.78,15.12,7.87,22.45-6.93,4.59-12.89,13.65-19.06,27.24,2.18,1.61,1.21,2.2-.75,1.69C157.39,161.31,157.31,161.5,157.23,161.69Z"/><path class="cls-71" d="M265,138.21q0,4.78,1.72,5,6.11-4.54,11.64-15.68Q275,133.34,265,138.21Z"/><path class="cls-72" d="M219.8,104.78c-2.3,4.82.82,10.83,3.56,16.36,3.26,6.56,6.89,12.57,12.85,17.07,0,0,3.74,5.11,12.29,12.08a4.14,4.14,0,0,0,1.3,2.13,1.22,1.22,0,0,0,1-.26q5.12,3.89,6.8,1.69a48.73,48.73,0,0,0,10-7c1.39-1.22,2.88-2.62,4.42-4.23a78.64,78.64,0,0,1-8.82-10.55c-1.47,1.44-9.33,6.6-9.37,6.65a4.79,4.79,0,0,1-1.19-.58c.05-1.73-.6-2.23-2-1.51-4.18-3.71-10-11.49-14.94-18.84-.54-2.4-1.16-3.52-1.61-2.44-3.32-5.07-6.06-9.69-7.34-12.25-3-6-3.91-1.82-6.53-1.94C218.88,101.09,220.19,102,219.8,104.78Z"/><path class="cls-4" d="M201.34,55.66q4.91,4.89,5.71,9.62v0a25.25,25.25,0,0,0,2.92,9,17.67,17.67,0,0,0,5.61,6l.08.05.07.07q10.47,10.09-.39,22.73l-1.6-1.37q9.52-11.08.59-19.78a19.89,19.89,0,0,1-6.2-6.69A27.61,27.61,0,0,1,205,65.61q-.71-4.06-5.12-8.45a62.18,62.18,0,0,0-13-9.38C194.39,50.29,198.83,53.16,201.34,55.66Z"/><path class="cls-69" d="M202.24,101.57c16.28,14.06,33.08,33.27,30.43,55.7.17,2.91-1.86,6.31-1.48,9.36,1.55,12.57,5.73,25.19,7.62,33.5q6.93-12.75,5.27-18.58c-4-11-13.17-28.53-9.48-36.52,6.79-14.73,1.44-22-10.17-27,0-5.16,0-13-2.3-17.38C217.91,100.44,208.5,102.36,202.24,101.57Z"/><path class="cls-64" d="M215.25,200.34l6-1.71q-1.44,15.81-11.8,22A75.24,75.24,0,0,0,215.25,200.34Z"/><path class="cls-68" d="M175.1,213c-3.15,4.91-4.61,3.46-4.61,3.46,13.22-2.57,21.51-5.1,25.11-15.37Q191.45,209.81,175.1,213Z"/><path class="cls-73" d="M155.76,378c-1.67.42-2.23.94-1.67,1.56l-.63,7.4q4.33,4.33,9.46,2,1.61-8.08,1.61-8.09a4.26,4.26,0,0,0-1.29-1.34l-.72,2.45q-4,1.49-7-2C155.67,378.65,155.76,378,155.76,378Z"/><path class="cls-73" d="M199.56,369c-1.66.42-2.19.94-1.61,1.56-.23,4.93-.53,5.21-.53,5.21,3,2.89,6.82,3.91,10.19,2.35l1-6.19a4.67,4.67,0,0,0-1.21-1.45,11.67,11.67,0,0,0-.39,2.48,6.21,6.21,0,0,1-7.24-1.89C199.64,369.71,199.56,369,199.56,369Z"/><path class="cls-58" d="M202,69.79a.58.58,0,0,1,.23-.79.6.6,0,0,1,.79.26q.36.64.63,1.26a15.26,15.26,0,0,1,1.37,8.7c-.39,2.43-1.47,4.14-2.54,4.69h0l-.15.07h0a2,2,0,0,1-.68.16,2.56,2.56,0,0,1-1.62-.5,7.17,7.17,0,0,1-1.63-2.14c.15-.2.43-1,.68-1.43a4.14,4.14,0,0,0,1.6,2.62,1.34,1.34,0,0,0,.86.28,1,1,0,0,0,.3-.07l.07,0h0c.8-.41,1.63-1.81,2-3.86a14.16,14.16,0,0,0-1.28-8C202.36,70.58,202.16,70.18,202,69.79Z"/><path class="cls-74" d="M189.37,114.06l-3,4.87c-8.26-2.87-11.06-4.53-11.06-4.53,5.87-6,5-9.84,6.13-11.14,5.22-4.13,5-3.41,5.1-3.25C187,103.6,185.23,110.06,189.37,114.06Z"/><path class="cls-75" d="M187.56,112.1c11.62,12.27,26,34.87,23.11,63.77-3.7-21.46-18.57-40-34.15-56.89l8.54-.41S185.9,116.41,187.56,112.1Z"/><path class="cls-76" d="M194.79,178.92c-7.1-2.2-6.6-1.95-4.55-5.43.58-1,1.22-2.24,2-3.72,9,2.81,15.36,4.43,15.26,4.68-.47,1.21-1.29,2.83-1.69,3.77C203.8,182.89,201.89,181.13,194.79,178.92Z"/><path class="cls-30" d="M162.13,44.92c8-9.68,28.2,9,35.92,6.19C177.35,47.74,158.41,21.93,162.13,44.92Z"/><path class="cls-74" d="M215.68,114.5c4.67-7.38,5-9,5-9-1.4-.73-9-1.38-13-4.17-.73-.51-6.26-4-7.36-4.51s-.92-1.17-3-.41a24.5,24.5,0,0,0,4.27,5.6C205.74,105.92,212,110.63,215.68,114.5Z"/><path class="cls-75" d="M222.73,109.63c4.65,6.44,7.94,11.58,10.09,16.49,3.12,7.15,3.62,16.22,2.36,27.37-.64,5.66-4,13.14-3.16,18.62-1.05-4.26-1.26-10.23-1.51-16.23a120.63,120.63,0,0,0-1-12.58C228.43,136,228,131.91,225,127a86,86,0,0,0-15.75-19l7.44,3A37.3,37.3,0,0,0,222.73,109.63Z"/><path class="cls-76" d="M240.07,175.41c3.31-3,1.79-1.79-.09-4.94-.53-.88-1.15-2-1.91-3.37-4.19,3.84-4.63,4.58-4.52,4.81.53,1.12,1.32,2.6,1.75,3.46C237.42,179.68,236.76,178.42,240.07,175.41Z"/><path class="cls-77" d="M203.81,233.9c.14,20.91.66,34.14.66,34.14q2.86-27.14,13.07-45.67a26.6,26.6,0,0,1-9.66,3C207,227.78,205.69,227.84,203.81,233.9Z"/><path class="cls-64" d="M234.38,215.57c.47-1.91,1.27-6.58,1.27-6.58-1.92-1.32-2.89-3.35-4-10.18a4.55,4.55,0,0,1-2.87,1C228.32,205.82,228.85,209.11,234.38,215.57Z"/><path class="cls-77" d="M216.7,194.36q-2.41,11.52-2.42,11.52l1.8-12.49q3.58,1.08,11.63.2Q219.7,195,216.7,194.36Z"/><path class="cls-78" d="M282,101c5.45,15.49,4.15,19.94-.09,15.89.35,1,.71,1.52,1.07,1.59q-8.1,6.52-11.81,7.58a99,99,0,0,0,9.73-10.24c-2.92-3.36-1.14-4.72-3.08-7.6-1.34.37-2.14,0-2.84.49,1.12-.19,1.79,0,2,.57a6.89,6.89,0,0,1-3.31,1c-1.12-.64-1.54-1.35-1.25-2.13a6,6,0,0,0,1.29-1.24c-1.42.67-1.95-1.06-1.08-1.86a1.76,1.76,0,0,1,.74-2.15c-.07-2.4,4.13-4.26,6.3-4.72C280.76,98,281.2,99.83,282,101Z"/><path class="cls-79" d="M282.61,105.88c-.37,4.12.5,8.12,3.67,9.54,1.15-1.43,1.41-5.16-.32-8.77q-2.15-2.9-1.71-4.94c-1.42-.54-2.21-.1-2.35,1.34A13.19,13.19,0,0,0,282.61,105.88Z"/><path class="cls-45" d="M284.76,118.19c-1.45-4.06-1.8-7.68-5.12-9.81-.05,0,.09-.28.05-.31-.43-.27-.56,0-.72-.09s.55-.89.35-1-5.39.35-3.35-2.29c.63-.81-.84-1.43.63-2.5s.41-.94.68-1.35.82-.5,1.24-.91-.2-.65.48-1.27c1.06-1,1.49-.5,2.19.51,1.08,1.55,6.41,12.62,5.42,16.35C286.36,116.49,286.09,118.81,284.76,118.19Z"/><path class="cls-80" d="M113.42,200a.68.68,0,1,1-1.33-.26q6.16-30.91,13.22-31.35t14.2,29.69a.68.68,0,0,1-.5.82.69.69,0,0,1-.82-.51q-6.84-29-12.8-28.65T113.42,200Z"/><polygon class="cls-81" points="85.3 187.27 154.57 195.1 152.2 268.98 71.56 252.46 85.3 187.27"/><path class="cls-82" d="M96.06,185.28c-5.49,1-10.76,2-10.76,2l69.27,7.83,3-2.33,4.16-3.24L96,183.07C94.35,184.87,96.06,185.28,96.06,185.28Z"/><path class="cls-83" d="M154.57,195.1,152.2,269l.15-4.63,6.68-3.54,6.48.94q-3.76-72.23-3.77-72.22A35.74,35.74,0,0,0,153,191Z"/><path class="cls-84" d="M159.8,260.92l-.77-.11-6.68,3.54.72-22.37q-.65-7.08,2.8-18Z"/><path class="cls-85" d="M149.16,199.18,89.75,191l62.14,5.94L151,219Q150.27,200,149.16,199.18Z"/><path class="cls-86" d="M111.38,199.9a.69.69,0,0,1-.8.53.67.67,0,0,1-.53-.79q6.17-30.91,13.22-31.36t14.2,29.7a.68.68,0,0,1-1.32.31q-6.84-29-12.8-28.66T111.38,199.9Z"/><path class="cls-87" d="M110.08,199.34a.68.68,0,0,1-.81.52.69.69,0,0,1-.52-.81q6.72-30.8,13.77-31.11t13.68,29.94a.67.67,0,0,1-1.32.28q-6.33-29.15-12.3-28.87T110.08,199.34Z"/><polygon class="cls-88" points="83.06 186.57 151.25 199.79 140.3 277 61.8 253.88 83.06 186.57"/><path class="cls-89" d="M105.87,262.59l30.43,8.74q5-37.42,4.76-34.14c-9.87,22-6.7,35-35.19,25.4ZM75.71,238c5.69,7.85,13.93-1.36,38.94,7.13.94.32-13.33,1.61-49,5.57t20.11-56.36A315.73,315.73,0,0,0,75.71,238Z"/><path class="cls-90" d="M151.37,194.33l-.12,5.46L140.3,277l.69-4.83,7.08-3.23,6.35,1.46q4.62-75.94,4.63-75.94Z"/><path class="cls-91" d="M94,185.27c-5.58.65-11,1.3-11,1.3l68.19,13.22c1.23-.85,2.32-1.59,3.27-2.23l4.53-3.1L94.22,183C92.37,184.72,94,185.27,94,185.27Z"/><path class="cls-92" d="M151.25,199.79,140.3,277l.69-4.83,7.08-3.23,6.35,1.46q4.62-75.94,4.63-75.94a34.93,34.93,0,0,0-8.87.93Z"/><path class="cls-93" d="M148.83,269.12l-.76-.18L141,272.17s1.1-7.8,3.31-23.38q.19-7.47,4.89-18.68Z"/><path class="cls-94" d="M144.92,203.16,87,188.74,148,201q-4.1,23-4.1,23,2.05-19.91,1.06-20.9Zm-59.4,6.61c41,2.37,23,2.09-1.77,6,16.3.95,43.55-3.82,57.95-8.46-19.08-.74-37.23,1.42-56.18,2.42Zm0,27.47c13-4.39,30.51-4.92,48.15-4.24C119.67,242.41,99.53,234.08,85.52,237.24Z"/><path class="cls-95" d="M126.74,200.63a1.09,1.09,0,1,1-.78.32,1.08,1.08,0,0,1,.78-.32Zm-25.65-5.07a1.06,1.06,0,0,1,.77.32,1.08,1.08,0,0,1,0,1.55,1.06,1.06,0,0,1-.77.32,1.1,1.1,0,0,1-.78-.32,1.1,1.1,0,0,1,0-1.55,1.1,1.1,0,0,1,.78-.32Zm.48.62a.66.66,0,0,0-.48-.2.64.64,0,0,0-.48.2.68.68,0,0,0,.48,1.15.7.7,0,0,0,.48-.2.69.69,0,0,0,0-.95Zm25.64,5.07a.68.68,0,0,0-1.15.48.72.72,0,0,0,.2.48.68.68,0,0,0,1.15-.48A.64.64,0,0,0,127.21,201.25Z"/><path class="cls-87" d="M101.7,197a.69.69,0,0,1-.91.31.68.68,0,0,1-.31-.9Q109.95,177,116,171.57c2-1.77,3.75-2.47,5.31-2.12s2.82,1.77,3.77,4.21q2.85,7.34,2.34,28.09a.68.68,0,1,1-1.35,0q.49-20.49-2.25-27.57c-.77-2-1.71-3.12-2.81-3.38s-2.48.35-4.11,1.8Q111,177.81,101.7,197Z"/><path class="cls-79" d="M110,166.2c4,1,7.53,3.09,7.85,6.56-1.72.63-5.34-.33-8.19-3.13-1.38-2-2.75-3-4.13-3.21-.06-1.53.62-2.12,2-1.8A14,14,0,0,1,110,166.2Z"/><path class="cls-46" d="M107.78,164.52c18.39,13.95,19.34,12.44,8.15-1.77.76-1.17.68-2,1.34-2.56-.52,1-.54,1.71-.08,2.1a7,7,0,0,0,2-2.84c-.27-1.26-.82-1.88-1.64-1.85a6.28,6.28,0,0,1-1.58.86c1.07-1.15-.42-2.18-1.45-1.6a1.75,1.75,0,0,0-2.27,0c-2.27-.8-5.31,2.63-6.42,4.56C105.27,162.44,106.91,163.43,107.78,164.52Z"/><path class="cls-96" d="M119,175.39c2.91.17,2.88-.68,2.68-2.22-3.42-2.61-5.1-4.8-6.11-8.61,0-.06-.3,0-.31-.05-.13-.49.17-.53.14-.71s-1,.25-1,0,2-5-1.15-3.88c-1,.34-1.11-1.24-2.58-.18s-1,.11-1.48.24-.74.63-1.25.91-.56-.4-1.36.06c-1.26.71-.93,1.27-.19,2.24C108.76,166.43,116.66,174.53,119,175.39Z"/><path class="cls-87" d="M111.8,189.1a.71.71,0,1,0-.71-.71A.71.71,0,0,0,111.8,189.1Z"/><path class="cls-87" d="M133.63,192.41a.71.71,0,1,0-.72-.71A.71.71,0,0,0,133.63,192.41Z"/><path class="cls-69" d="M163.85,137.81q-7.41,10.29-9.79,19.11l3.45,2q8.15-20.24,17.58-28.13,0-10.86-4.76-17.6a32.84,32.84,0,0,1-6.48,24.61Zm-21.46,32.8L140.1,168q12.59-8.15,12.59-7.69l3.4,2.55-13.7,7.78Zm14.83-8.9q-5.53-4.16.26-.58S157.39,161.32,157.22,161.71Z"/><path class="cls-45" d="M184.51,95.71c1.11,3.65,1.82,8.19,2.89,10,1.48,2.5,18.76,12.78,11.14-4.66-1.21-2.79-2.32-9.52-3.36-14.81C192.86,89.15,188.41,95.3,184.51,95.71Z"/><path class="cls-59" d="M184.51,95.71c3.6-2.42,8.21-6,10.68-9.41,1.53,9,1.92,10.69,6.46,15.71C196,101.52,191.09,95.61,184.51,95.71Z"/><path class="cls-95" d="M206.77,119.58a.24.24,0,1,1-.24.24.24.24,0,0,1,.24-.24Zm.49.94c1.06.39,1.68-.58.6-1C208.25,120,208.06,120.31,207.26,120.52Z"/><path class="cls-2" d="M111.8,187.51a.88.88,0,0,1,.63.26.84.84,0,0,1,.25.62.87.87,0,0,1-.25.62.89.89,0,0,1-1.51-.62.84.84,0,0,1,.26-.62.88.88,0,0,1,.62-.26Zm21.83,3.31a.89.89,0,0,1,.88.88.84.84,0,0,1-.26.62.88.88,0,0,1-1.25,0,.84.84,0,0,1-.25-.62.87.87,0,0,1,.25-.62.88.88,0,0,1,.63-.26Zm.38.5a.53.53,0,0,0-.38-.16.55.55,0,0,0-.39.16.53.53,0,0,0-.16.38.55.55,0,0,0,.16.39.59.59,0,0,0,.39.15.56.56,0,0,0,.38-.15.55.55,0,0,0,.16-.39.53.53,0,0,0-.16-.38ZM112.19,188a.59.59,0,0,0-.39-.15.56.56,0,0,0-.38.15.55.55,0,0,0-.16.39.55.55,0,0,0,.54.54.55.55,0,0,0,.39-.16.57.57,0,0,0,.16-.38A.6.6,0,0,0,112.19,188Z"/><path class="cls-97" d="M274.59,259.82c-10.7-52.4-8.42-89.16-8.42-89.16,2.25-2.47,2.18-6.87,3.89-9.79a31.4,31.4,0,0,1,7.13-8.42c7.32,23.46,12.29,60.45,14.27,72.23C286.49,240.16,274.59,259.82,274.59,259.82Z"/><path class="cls-98" d="M255,165.34a.68.68,0,1,1-1.35.07c-.43-8.35-2.46-13.48-2.11-18.31a30,30,0,0,1,1.27-7.5c.69-1.92,1.51-3.46,2.76-3.53h.29a.83.83,0,0,1,.74.79,2.18,2.18,0,0,1-.83.56h-.13c-.64,0-1.07,1.28-1.55,2.64a28.49,28.49,0,0,0-1.2,7.14C252.5,152,254.53,157.05,255,165.34Z"/><path class="cls-99" d="M259.09,154.1c-2,2.52-.69,5.17-2.2,7-6.29,7.46-11.63,8.59-11.63,8.59,7.77-.37,20.91,1,20.91,1,3.35-3.49,2-7.34,3.89-9.79.21-.27.56-1,.77-1.24,1.74-2.39,4.7-4.35,6.36-7.18C273.26,152.67,259.84,154.14,259.09,154.1Z"/><path class="cls-100" d="M266.17,170.66c-7.77-.66-10.74-1.16-14.38-1q10.7-6.22,10.38-12.41a43.36,43.36,0,0,0,10.52-.18,7.58,7.58,0,0,0-3.91,7.14A10.07,10.07,0,0,1,266.17,170.66Z"/><path class="cls-98" d="M271.89,167a.67.67,0,0,1-.3.9.68.68,0,0,1-.91-.3c-5.35-10.7-11.07-11.9-13.58-26.66-.57-3.34-.38-5.87.89-6.51l.14-.06a.62.62,0,0,1,.85.31c.26.65.1.35-.55.95-.69.35-.46,2.4,0,5.08C260.9,155.27,266.62,156.5,271.89,167Z"/><path class="cls-98" d="M276.88,159.1a.67.67,0,1,1-1.27.45l-9-11.86,1.11-1C268.19,146.57,275.87,157.74,276.88,159.1Z"/><path class="cls-30" d="M168.39,31.24l-4.87-1.12q31-13.1,43.74,9.8Q189.92,20.43,168.39,31.24Z"/><path class="cls-30" d="M196.58,50.8a103,103,0,0,1,8.75,6.54c4.06,5.28,4.34,6.47,5.72,10a18.22,18.22,0,0,0,3.21-3.91q-4.94-3.69-5.89-6.31a26,26,0,0,0,5.09,3.64,16.58,16.58,0,0,1-2.71-6.15,16.12,16.12,0,0,0-2.56-7A15.27,15.27,0,0,1,196.58,50.8Z"/><path class="cls-34" d="M158.17,70.18q-1.72-5.55-1.72-5.55,1.41,7.53-.73,5,.5,6-3.44,13.69A17.17,17.17,0,0,0,158.17,70.18Z"/><path class="cls-101" d="M261.71,173.72l-7.94,3.17s1.85,24.87,5.56,74.61l11.64,5S267.88,228.93,261.71,173.72Z"/><path class="cls-102" d="M247.55,171.73v84.4l11.78-4.63q-5.56-74.61-5.56-74.61Z"/><path class="cls-103" d="M276.39,253.09l13-31.35s-3.71-18.08-11.11-54.24q5.94,35.26-2.65,80.17,11.81-24.09,10.45-22.23Z"/><path class="cls-104" d="M266.12,170.56c.94-1.23,2.4-3.67,2.56-5.23a15.21,15.21,0,0,1-2.13,5.88c-.19,5.72-.61,9.4-.4,15.76H266c-.16-4.7-.75-11.33-.6-15.7-6.31-.69-13.8-1.61-20.09-1.53v-.2a169.19,169.19,0,0,1,20.87,1Zm9.13,86.28-.66,3q-3.18-16.33-4.24-24.12Q274.49,256,275.25,256.84Z"/><path class="cls-105" d="M219.2,196c.8.11,1.32,1.15,1.15,2.3s-1,2-1.76,1.88-1.33-1.15-1.16-2.3S218.39,195.89,219.2,196Z"/><path class="cls-44" d="M224.19,193.86c-.05-.23.15-.25.62-.32.69-.11,1.75-.21,1.75-.21q1.58.19,1.23,7.42l-2.55.59C225.73,196.88,225.41,194.53,224.19,193.86Z"/><path class="cls-44" d="M231.42,193.09c-.13-.19.16-.24.47-.35a12.37,12.37,0,0,1,1.46-.36q1.26.17,1,6.8l-2,.54C232.69,195.63,232.4,193.71,231.42,193.09Z"/><path class="cls-95" d="M205.1,74.72h0a5.94,5.94,0,0,0,.44,2.19,6.47,6.47,0,0,0,2.32.44h0a6.47,6.47,0,0,0-2.32.43,17.76,17.76,0,0,0-.43,3.8h0a17.14,17.14,0,0,0-.43-3.8,5.5,5.5,0,0,0-2.14-.48h0a5.47,5.47,0,0,0,2.14-.39A5.74,5.74,0,0,0,205.1,74.72Z"/><path class="cls-95" d="M162.56,81.47h0a6,6,0,0,1-.44,2.2,6.69,6.69,0,0,1-2.32.43h0a6.47,6.47,0,0,1,2.32.43,17.83,17.83,0,0,1,.43,3.8h0a17.21,17.21,0,0,1,.43-3.8,5.5,5.5,0,0,1,2.14-.48h0a5.66,5.66,0,0,1-2.14-.38A5.79,5.79,0,0,1,162.56,81.47Z"/><path class="cls-106" d="M285.92,117.94a10.83,10.83,0,0,0-.68,1.82,28.41,28.41,0,0,1-4.91-2.59c-.46-.4-.48-.82.18-.89a.68.68,0,0,0-1,.07,10.12,10.12,0,0,0-1.14,1.78c-.14,1.48,1,1.77,5.1,4.07l.94.55c-.29.55-1,1.64-.5,1.76a1.62,1.62,0,0,0,1-.3,5.83,5.83,0,0,0,1.61-1.86,14.11,14.11,0,0,0,1.33-2.79C288.1,118.48,286.6,118,285.92,117.94Z"/><path class="cls-107" d="M287.87,119.56c.3-.93-.55-1.23-1.24-1.48s-.66-.29-1.18.27a13.61,13.61,0,0,0-2.87,4.39c-.26.72-.3.69.28,1.12s1.32,1,1.9.44c-1.68.39.7-3.27,2-4.73C287.14,119.14,287.89,118.51,287.87,119.56Z"/><path class="cls-108" d="M278.74,118.05c.54-1.06.7-1.37,1-1.57-.28.69-.12.85,2.7,2.39a15,15,0,0,1-2,1.41c-2-1.2-1.81-1.78-1.68-2.23Zm1.77-1.77c-.55,0-.71.23-.44.66C280.34,116.52,280.51,116.28,280.51,116.28Z"/><path class="cls-109" d="M287.07,118.65a.13.13,0,0,1,.19,0,.14.14,0,0,1,0,.2,15.78,15.78,0,0,0-1.92,2.36,12.08,12.08,0,0,0-1.26,2.48.15.15,0,0,1-.18.08.14.14,0,0,1-.08-.18,12.59,12.59,0,0,1,1.29-2.53A16.29,16.29,0,0,1,287.07,118.65Z"/><path class="cls-109" d="M285.73,118.36a14.22,14.22,0,0,0-2.77,4.13l.82.54a15.36,15.36,0,0,1,2.86-4.28C286.08,118.52,285.78,118.39,285.73,118.36Z"/><path class="cls-30" d="M171.48,60.54c-6.22.22-9.33-3.21-11.75,2.26C160.21,59.37,165.14,54.57,171.48,60.54Z"/></g></svg>