<svg xmlns="http://www.w3.org/2000/svg" viewBox="0 0 800 800"><defs><style>.cls-1{isolation:isolate;}.cls-2{fill:#5ca6d9;}.cls-12,.cls-3{fill:#84c2e7;}.cls-15,.cls-3,.cls-7{mix-blend-mode:multiply;}.cls-4{fill:#1e1919;}.cls-5,.cls-7{fill:#03375a;}.cls-18,.cls-6{fill:#fff;}.cls-7{opacity:0.51;}.cls-8{fill:#93ccef;}.cls-9{fill:#122e39;}.cls-10{fill:#d1d6d2;}.cls-11{fill:#5f6060;}.cls-13{fill:#5f7e89;}.cls-14,.cls-15{fill:#c1c3c5;}.cls-16{fill:#e2e3e4;}.cls-17{fill:#002730;}.cls-18{opacity:0.13;}</style></defs><title>tvphotoetvideo</title><g class="cls-1"><g id="Background"><rect class="cls-2" width="800" height="800"/></g><g id="Objects"><path class="cls-3" d="M701.05,597.71H616.68v-5.24a2,2,0,0,0-2.15-1.69H587.92a2,2,0,0,0-2.16,1.69v5.24h-3a9.48,9.48,0,0,0-9.58,9.32v82.9a9.48,9.48,0,0,0,9.58,9.32h118.3a9.48,9.48,0,0,0,9.58-9.32V607A9.48,9.48,0,0,0,701.05,597.71Z"/><path class="cls-4" d="M609.25,580.22H582.64a2,2,0,0,0-2.16,1.69v15a2,2,0,0,0,2.16,1.68h26.61a2,2,0,0,0,2.15-1.68v-15A2,2,0,0,0,609.25,580.22Z"/><path class="cls-5" d="M695.78,587.15H577.47a9.48,9.48,0,0,0-9.58,9.32v82.9a9.48,9.48,0,0,0,9.58,9.32H695.78a9.48,9.48,0,0,0,9.57-9.32v-82.9A9.48,9.48,0,0,0,695.78,587.15Z"/><path class="cls-6" d="M609.25,598.58H582.64a2,2,0,0,0-2.16,1.69v15a2,2,0,0,0,2.16,1.69h26.61a2,2,0,0,0,2.15-1.69v-15A2,2,0,0,0,609.25,598.58Z"/><circle class="cls-7" cx="658.25" cy="647.1" r="39.99" transform="translate(-264.77 654.98) rotate(-45)"/><circle class="cls-4" cx="658.25" cy="638.09" r="39.99" transform="translate(-258.4 652.35) rotate(-45)"/><circle class="cls-8" cx="658.25" cy="638.09" r="33.63" transform="translate(-115.71 1129.47) rotate(-76.52)"/><circle class="cls-9" cx="658.25" cy="638.09" r="16.69" transform="translate(-258.4 652.35) rotate(-45)"/><circle class="cls-6" cx="648.09" cy="623.02" r="11.04"/><path class="cls-3" d="M445.89,285.24v9.34h-.05a2.63,2.63,0,0,0-2.63,2.63V310.3a2.63,2.63,0,0,0,2.63,2.63h.05v4.73h-.05a2.64,2.64,0,0,0-2.63,2.64v13.09a2.63,2.63,0,0,0,2.63,2.63h.05V456.38a11,11,0,0,0,11,11h77.49a11,11,0,0,0,11-11V285.24a11,11,0,0,0-11-11H456.86A11,11,0,0,0,445.89,285.24Z"/><rect class="cls-10" x="437.93" y="284.02" width="10.37" height="18.36" rx="2.63" ry="2.63"/><rect class="cls-10" x="437.93" y="307.11" width="10.37" height="18.36" rx="2.63" ry="2.63"/><rect class="cls-6" x="440.61" y="263.71" width="99.44" height="193.08" rx="10.97" ry="10.97"/><path class="cls-8" d="M533.48,291.58V422.49a7.56,7.56,0,0,1-7.56,7.56H454.73a7.56,7.56,0,0,1-7.56-7.56V291.58a7.55,7.55,0,0,1,7.56-7.56h71.19A7.55,7.55,0,0,1,533.48,291.58Z"/><path class="cls-11" d="M494.39,274.27H467.33a1.42,1.42,0,1,0,0,2.84h27.06a1.42,1.42,0,1,0,0-2.84Z"/><path class="cls-11" d="M511.9,272.85a2.84,2.84,0,1,0,2.84,2.84A2.84,2.84,0,0,0,511.9,272.85Z"/><path class="cls-5" d="M497,443c-.41,8.56-13.39,8.65-13.39,0s13-8.57,13.39,0c.06,1.36,2.19,1.37,2.13,0a8.83,8.83,0,1,0-8.82,8.82,9,9,0,0,0,8.82-8.82C499.21,441.61,497.08,441.61,497,443Z"/><path class="cls-12" d="M533.48,402.11v20.38a7.56,7.56,0,0,1-7.56,7.56H454.73a7.56,7.56,0,0,1-7.56-7.56V291.58a7.55,7.55,0,0,1,7.56-7.56h5.87Z"/><path class="cls-13" d="M525.92,284H454.73a7.55,7.55,0,0,0-7.56,7.56v3.22a7.55,7.55,0,0,1,7.56-7.56h71.19a7.55,7.55,0,0,1,7.56,7.56v-3.22A7.55,7.55,0,0,0,525.92,284Z"/><path class="cls-3" d="M409,428.08a16.29,16.29,0,0,0-16.29-16.3H110.94a16.29,16.29,0,0,0-16.29,16.3V628.22a16.29,16.29,0,0,0,16.29,16.29H213.4v29H165.52A17,17,0,0,0,151.45,681l-7.32,10.79a3.25,3.25,0,0,0,2.69,5.08H356.87a3.25,3.25,0,0,0,2.69-5.08L352.24,681a17,17,0,0,0-14.07-7.45H290.29v-29H392.75A16.29,16.29,0,0,0,409,628.22v-1.7h0V606.83h0Z"/><rect class="cls-14" x="208.12" y="572.95" width="76.89" height="101.71"/><rect class="cls-15" x="208.12" y="572.95" width="76.89" height="73.68"/><path class="cls-16" d="M351.59,686.32h-210a3.25,3.25,0,0,1-2.69-5.07l7.32-10.8A17,17,0,0,1,160.24,663H332.89A17,17,0,0,1,347,670.45l7.32,10.8A3.25,3.25,0,0,1,351.59,686.32Z"/><rect class="cls-4" x="89.37" y="401.22" width="314.39" height="232.73" rx="18.52" ry="18.52"/><rect class="cls-8" x="106.5" y="417" width="280.14" height="191.4" rx="7.79" ry="7.79"/><path class="cls-12" d="M386.64,577.09V600.6a7.8,7.8,0,0,1-7.8,7.8H114.29a7.8,7.8,0,0,1-7.79-7.8V424.79a7.79,7.79,0,0,1,7.79-7.79h19.54Z"/><path class="cls-6" d="M89.37,596.27V616a18,18,0,0,0,18,18h278.4a18,18,0,0,0,18-18V596.27Z"/><path class="cls-5" d="M258.62,613.24a1.75,1.75,0,0,0,0-.4c-.5-6.36-5.37-11.65-12-11.65a12.06,12.06,0,1,0,0,24.11c6.65,0,11.52-5.28,12-11.65A1.8,1.8,0,0,0,258.62,613.24Zm-21.2,0c0-11.8,17.74-11.71,18.29,0C255.16,624.94,237.42,625.07,237.42,613.24Z"/><path class="cls-3" d="M113.87,385.34H310.16c10.71,0,18.14-9.93,16.82-15.44a5.08,5.08,0,0,0-.05-2.65L310.7,310.88c-.74-2.55-4.45-4.76-9.4-6A16.28,16.28,0,0,0,312,289.59v-98a16.3,16.3,0,0,0-16.3-16.3H128.32A16.29,16.29,0,0,0,112,191.58v98a16.28,16.28,0,0,0,10.7,15.29c-5,1.24-8.66,3.45-9.4,6L97.1,367.25a5,5,0,0,0,0,2.65C95.73,375.41,103.16,385.34,113.87,385.34Z"/><rect class="cls-4" x="106.75" y="164.72" width="199.97" height="130.61" rx="18.52" ry="18.52"/><path class="cls-8" d="M295.83,179.79V280.15a4.72,4.72,0,0,1-5,4.45H122.6a4.72,4.72,0,0,1-5-4.45V179.79a4.73,4.73,0,0,1,5-4.45H290.87A4.73,4.73,0,0,1,295.83,179.79Z"/><path class="cls-12" d="M295.83,266.72v13.43a4.72,4.72,0,0,1-5,4.45H122.6a4.72,4.72,0,0,1-5-4.45V179.79a4.73,4.73,0,0,1,5-4.45H135Z"/><path class="cls-13" d="M304.88,374.78H108.59c-10.85,0-18.34-10.2-16.77-15.66l16.23-50.71c1.13-3.93,9.25-7.05,18.15-7.05H287.27c8.9,0,17,3.12,18.15,7.05l16.23,50.71C323.22,364.58,315.73,374.78,304.88,374.78Z"/><path class="cls-6" d="M304.88,366.7H108.59c-10.85,0-18.34-4.54-16.77-10l16.23-56.36c1.13-3.93,9.25-7.05,18.15-7.05H287.27c8.9,0,17,3.12,18.15,7.05l16.23,56.36C323.22,362.16,315.73,366.7,304.88,366.7Z"/><path class="cls-14" d="M285.26,357.42h-157c-8.68,0-15-3.57-14-7.89l10-46.51c.73-3.38,7.38-6.07,14.87-6.07H274.46c7.49,0,14.14,2.69,14.86,6.07l10,46.51C300.22,353.85,293.94,357.42,285.26,357.42Z"/><rect class="cls-6" x="109.28" y="304.97" width="193.36" height="1.89"/><rect class="cls-6" x="109.28" y="317.91" width="193.36" height="1.89"/><rect class="cls-6" x="109.28" y="330.84" width="193.36" height="1.89"/><rect class="cls-6" x="109.28" y="343.77" width="193.36" height="1.89"/><polygon class="cls-6" points="218.42 366.7 215.26 366.7 214.17 293.28 216.96 293.28 218.42 366.7"/><polygon class="cls-6" points="197.77 293.28 196.68 366.7 193.51 366.7 194.97 293.28 197.77 293.28"/><polygon class="cls-6" points="178.57 293.28 174.94 366.7 171.76 366.7 175.77 293.28 178.57 293.28"/><polygon class="cls-6" points="159.37 293.28 153.19 366.7 150.01 366.7 156.56 293.28 159.37 293.28"/><polygon class="cls-6" points="140.16 293.28 131.44 366.7 128.27 366.7 137.36 293.28 140.16 293.28"/><polygon class="cls-6" points="283.66 366.7 280.49 366.7 271.76 293.28 274.56 293.28 283.66 366.7"/><polygon class="cls-6" points="261.92 366.7 258.74 366.7 252.56 293.28 255.36 293.28 261.92 366.7"/><polygon class="cls-6" points="240.17 366.7 236.99 366.7 233.36 293.28 236.16 293.28 240.17 366.7"/><path class="cls-9" d="M231.76,357.42h-50c-2.76,0-4.67-1.65-4.27-3.65l4.13-20.58c.29-1.43,2.36-2.57,4.63-2.57h41.07c2.27,0,4.34,1.14,4.62,2.57L236,353.77C236.43,355.77,234.52,357.42,231.76,357.42Z"/><path class="cls-3" d="M625.57,251.64v17.82h-8.11a4.57,4.57,0,0,0-3.92,2.79l-2,4c-.4.81,0,1.9.75,1.9h48.12c.73,0,1.16-1.09.75-1.9l-2.05-4a4.57,4.57,0,0,0-3.92-2.79H647V251.64a39.87,39.87,0,1,0-21.46,0Z"/><path class="cls-14" d="M656.08,270.61H608c-.72,0-1.15-1.09-.75-1.9l2-4a4.57,4.57,0,0,1,3.92-2.78h8.11V228.3h21.47v33.61h8.1a4.56,4.56,0,0,1,3.92,2.78l2.05,4C657.24,269.52,656.81,270.61,656.08,270.61Z"/><path class="cls-15" d="M642.76,228.3v21.41a39.93,39.93,0,0,1-21.47,0V228.3Z"/><circle class="cls-6" cx="632.02" cy="205.68" r="39.87" transform="translate(300.99 782.02) rotate(-78.15)"/><circle class="cls-4" cx="632.02" cy="205.68" r="25.39" transform="translate(301.66 782.41) rotate(-78.22)"/><circle class="cls-8" cx="632.02" cy="205.68" r="21.36" transform="translate(301.85 782.52) rotate(-78.24)"/><circle class="cls-9" cx="632.02" cy="205.68" r="10.6" transform="translate(302.35 782.8) rotate(-78.29)"/><path class="cls-6" d="M632.58,196.11a7,7,0,1,1-7-7A7,7,0,0,1,632.58,196.11Z"/><path class="cls-3" d="M427.26,233h8.63V243A13.12,13.12,0,0,0,449,256.08h53.88A13.12,13.12,0,0,0,516,243V199.58a13.11,13.11,0,0,0-13.11-13.12H449a13.11,13.11,0,0,0-13.12,13.12v6.94h-9.72a38.55,38.55,0,0,0-3.33-6.41v-15A14.83,14.83,0,0,0,408,170.25H373.56a14.81,14.81,0,0,0-14.82,14.82v12.58a39.09,39.09,0,0,0,0,47.23V352.52a14.82,14.82,0,0,0,14.82,14.82H408a14.83,14.83,0,0,0,14.83-14.82V242.42A39.21,39.21,0,0,0,427.26,233Z"/><path class="cls-5" d="M417.56,174.52V342a14.83,14.83,0,0,1-14.83,14.83H368.28A14.83,14.83,0,0,1,353.46,342V174.52a14.83,14.83,0,0,1,14.82-14.83h34.44A14.83,14.83,0,0,1,417.56,174.52Z"/><rect class="cls-17" x="410.31" y="195.96" width="37.6" height="26.5"/><path class="cls-7" d="M417.56,196.83v42.34a39.13,39.13,0,0,1-64.1,2.46V194.38a39.12,39.12,0,0,1,64.1,2.45Z"/><circle class="cls-4" cx="384.65" cy="210.71" r="39.13" transform="translate(137.34 572.91) rotate(-84.39)"/><circle class="cls-8" cx="384.65" cy="210.71" r="32.91" transform="translate(91.74 537.14) rotate(-76.81)"/><circle class="cls-9" cx="384.65" cy="210.71" r="16.33" transform="translate(3.9 428.39) rotate(-58.47)"/><path class="cls-6" d="M385.51,196a10.8,10.8,0,1,1-10.8-10.8A10.8,10.8,0,0,1,385.51,196Z"/><rect class="cls-5" x="430.61" y="175.9" width="80.11" height="69.61" rx="14.91" ry="14.91"/><path class="cls-6" d="M499.39,190.79H475.51a3.26,3.26,0,0,1-3.26-3.25h0a3.26,3.26,0,0,1,3.26-3.25h23.88a3.26,3.26,0,0,1,3.26,3.25h0A3.26,3.26,0,0,1,499.39,190.79Z"/><path class="cls-8" d="M366.25,252.84a6.45,6.45,0,1,0,6.45,6.45A6.44,6.44,0,0,0,366.25,252.84Z"/><path class="cls-6" d="M366.25,255.41a3.88,3.88,0,1,0,3.88,3.88A3.88,3.88,0,0,0,366.25,255.41Z"/><rect class="cls-3" x="439.29" y="495.33" width="109.96" height="204.98" rx="10.92" ry="10.92"/><rect class="cls-6" x="434.01" y="484.77" width="109.96" height="204.98" rx="10.92" ry="10.92"/><path class="cls-8" d="M536.13,507.43v73.7a9.36,9.36,0,0,1-9.36,9.36H451.21a9.36,9.36,0,0,1-9.37-9.36v-73.7a9.36,9.36,0,0,1,9.37-9.37h75.56A9.36,9.36,0,0,1,536.13,507.43Z"/><path class="cls-8" d="M536.13,507.43v73.7a9.23,9.23,0,0,1-1.09,4.38,9.35,9.35,0,0,1-8.27,5H451.21a9.36,9.36,0,0,1-9.37-9.36v-73.7a9.37,9.37,0,0,1,9.37-9.37h75.56A9.36,9.36,0,0,1,536.13,507.43Z"/><path class="cls-10" d="M523.52,639.92A34.52,34.52,0,0,1,494,674.1a33.91,33.91,0,0,1-5,.36,34.93,34.93,0,0,1-7.06-.72,34.56,34.56,0,0,1-12.2-62.49,35.44,35.44,0,0,1,4.45-2.53,34.55,34.55,0,0,1,49.35,31.2Z"/><circle class="cls-14" cx="488.99" cy="639.92" r="20.31" transform="translate(-245.49 970.3) rotate(-76.83)"/><path class="cls-12" d="M535.58,585.51a9.33,9.33,0,0,1-8.27,5H451.75a9.36,9.36,0,0,1-9.36-9.36v-73.7a9.37,9.37,0,0,1,1.87-5.62Z"/><rect class="cls-15" x="481.73" y="631.59" width="14.51" height="14.51" rx="4.67" ry="4.67"/><path class="cls-18" d="M494,674.1a33.91,33.91,0,0,1-5,.36,34.93,34.93,0,0,1-7.06-.72l-25.75-44.6a34.36,34.36,0,0,1,5.7-10.6Z"/><path class="cls-18" d="M508.59,668.35a34.65,34.65,0,0,1-4.41,2.59l-34.46-59.69a35.44,35.44,0,0,1,4.45-2.53Z"/><path class="cls-13" d="M526.77,498.06H451.21a9.37,9.37,0,0,0-9.37,9.37v1.87a9.35,9.35,0,0,1,9.37-9.36h75.56a9.36,9.36,0,0,1,9.36,9.36v-1.87A9.36,9.36,0,0,0,526.77,498.06Z"/><rect class="cls-3" x="571.88" y="303.28" width="138.75" height="257.87" rx="19.92" ry="19.92"/><rect class="cls-6" x="566.6" y="292.72" width="138.75" height="257.87" rx="22.64" ry="22.64"/><path class="cls-8" d="M681.47,357V481.69a11.13,11.13,0,0,1-11.12,11.14H590.81a11.13,11.13,0,0,1-11.13-11.14V357a11.12,11.12,0,0,1,11.13-11.13h79.54A11.12,11.12,0,0,1,681.47,357Z"/><polygon class="cls-13" points="657.64 514.49 641.59 514.49 641.59 498.44 630.36 498.44 630.36 514.49 614.31 514.49 614.31 525.72 630.36 525.72 630.36 541.77 641.59 541.77 641.59 525.72 657.64 525.72 657.64 514.49"/><path class="cls-13" d="M638.43,343.82h-9.7a1,1,0,0,1-1-1V333a2.39,2.39,0,0,1,.54-1.51l4.53-5.55a1,1,0,0,1,1.52,0l4.54,5.55a2.39,2.39,0,0,1,.54,1.51v9.83A1,1,0,0,1,638.43,343.82Z"/><path class="cls-13" d="M654.29,318.26V328a1,1,0,0,1-1,1h-9.83a2.37,2.37,0,0,1-1.51-.54l-5.56-4.53a1,1,0,0,1,0-1.52l5.56-4.54a2.41,2.41,0,0,1,1.51-.53h9.83A1,1,0,0,1,654.29,318.26Z"/><path class="cls-13" d="M628.73,302.4h9.7a1,1,0,0,1,1,1v9.83a2.41,2.41,0,0,1-.54,1.52l-4.54,5.55a1,1,0,0,1-1.52,0l-4.53-5.55a2.41,2.41,0,0,1-.54-1.52v-9.83A1,1,0,0,1,628.73,302.4Z"/><path class="cls-13" d="M612.87,328v-9.7a1,1,0,0,1,1-1h9.83a2.44,2.44,0,0,1,1.51.53l5.55,4.54a1,1,0,0,1,0,1.52l-5.55,4.53a2.39,2.39,0,0,1-1.51.54h-9.83A1,1,0,0,1,612.87,328Z"/><polygon class="cls-14" points="657.64 512.65 641.59 512.65 641.59 496.6 630.36 496.6 630.36 512.65 614.31 512.65 614.31 523.88 630.36 523.88 630.36 539.93 641.59 539.93 641.59 523.88 657.64 523.88 657.64 512.65"/><path class="cls-13" d="M689.64,392.61h0a3.23,3.23,0,0,1-3.22-3.22V372a3.23,3.23,0,0,1,3.22-3.22h0a3.23,3.23,0,0,1,3.22,3.22v17.36A3.23,3.23,0,0,1,689.64,392.61Z"/><path class="cls-13" d="M689.64,432.19h0a3.23,3.23,0,0,1-3.22-3.23V411.61a3.23,3.23,0,0,1,3.22-3.22h0a3.23,3.23,0,0,1,3.22,3.22V429A3.23,3.23,0,0,1,689.64,432.19Z"/><path class="cls-13" d="M689.64,471.77h0a3.23,3.23,0,0,1-3.22-3.23V451.19a3.23,3.23,0,0,1,3.22-3.23h0a3.23,3.23,0,0,1,3.22,3.23v17.35A3.23,3.23,0,0,1,689.64,471.77Z"/><path class="cls-14" d="M689.64,390.77h0a3.23,3.23,0,0,1-3.22-3.23V370.19a3.23,3.23,0,0,1,3.22-3.22h0a3.23,3.23,0,0,1,3.22,3.22v17.35A3.23,3.23,0,0,1,689.64,390.77Z"/><path class="cls-14" d="M689.64,430.35h0a3.23,3.23,0,0,1-3.22-3.23V409.77a3.23,3.23,0,0,1,3.22-3.23h0a3.23,3.23,0,0,1,3.22,3.23v17.35A3.23,3.23,0,0,1,689.64,430.35Z"/><path class="cls-14" d="M689.64,469.92h0a3.23,3.23,0,0,1-3.22-3.22V449.35a3.23,3.23,0,0,1,3.22-3.23h0a3.23,3.23,0,0,1,3.22,3.23V466.7A3.23,3.23,0,0,1,689.64,469.92Z"/><path class="cls-14" d="M638.43,342h-9.7a1,1,0,0,1-1-1v-9.83a2.39,2.39,0,0,1,.54-1.51l4.53-5.55a1,1,0,0,1,1.52,0l4.54,5.55a2.39,2.39,0,0,1,.54,1.51V341A1,1,0,0,1,638.43,342Z"/><path class="cls-14" d="M654.29,316.42v9.7a1,1,0,0,1-1,1h-9.83a2.37,2.37,0,0,1-1.51-.54L636.41,322a1,1,0,0,1,0-1.53L642,316a2.37,2.37,0,0,1,1.51-.54h9.83A1,1,0,0,1,654.29,316.42Z"/><path class="cls-14" d="M628.73,300.56h9.7a1,1,0,0,1,1,1v9.83a2.37,2.37,0,0,1-.54,1.51l-4.54,5.56a1,1,0,0,1-1.52,0l-4.53-5.56a2.37,2.37,0,0,1-.54-1.51v-9.83A1,1,0,0,1,628.73,300.56Z"/><path class="cls-14" d="M612.87,326.12v-9.7a1,1,0,0,1,1-1h9.83a2.39,2.39,0,0,1,1.51.54l5.55,4.53a1,1,0,0,1,0,1.53l-5.55,4.53a2.39,2.39,0,0,1-1.51.54h-9.83A1,1,0,0,1,612.87,326.12Z"/><path class="cls-12" d="M679.38,488.19a11.1,11.1,0,0,1-9,4.64H590.81a11.13,11.13,0,0,1-11.13-11.14V357a11.14,11.14,0,0,1,3.89-8.46Z"/></g></g></svg>