<svg xmlns="http://www.w3.org/2000/svg" viewBox="0 0 150 150"><defs><style>.cls-1,.cls-10,.cls-100,.cls-101,.cls-102,.cls-103,.cls-104,.cls-105,.cls-106,.cls-107,.cls-108,.cls-109,.cls-11,.cls-110,.cls-111,.cls-112,.cls-113,.cls-114,.cls-115,.cls-116,.cls-12,.cls-13,.cls-14,.cls-15,.cls-16,.cls-17,.cls-18,.cls-19,.cls-20,.cls-21,.cls-22,.cls-23,.cls-24,.cls-25,.cls-26,.cls-27,.cls-28,.cls-29,.cls-30,.cls-31,.cls-32,.cls-33,.cls-34,.cls-35,.cls-36,.cls-37,.cls-38,.cls-39,.cls-40,.cls-41,.cls-42,.cls-43,.cls-44,.cls-45,.cls-46,.cls-47,.cls-48,.cls-49,.cls-50,.cls-51,.cls-52,.cls-53,.cls-54,.cls-55,.cls-56,.cls-57,.cls-58,.cls-59,.cls-60,.cls-61,.cls-62,.cls-63,.cls-64,.cls-65,.cls-66,.cls-67,.cls-68,.cls-69,.cls-70,.cls-71,.cls-72,.cls-73,.cls-74,.cls-75,.cls-76,.cls-77,.cls-78,.cls-79,.cls-80,.cls-81,.cls-82,.cls-83,.cls-84,.cls-85,.cls-86,.cls-87,.cls-88,.cls-89,.cls-90,.cls-91,.cls-92,.cls-93,.cls-94,.cls-95,.cls-96,.cls-97,.cls-98,.cls-99{fill:#fff;}.cls-2{fill:#19191e;}.cls-3{fill:#002f4c;}.cls-4{fill:#2d2d2d;}.cls-5{fill:#262626;}.cls-6{fill:#191919;}.cls-7,.cls-8{fill:none;stroke:#0f0f0f;stroke-miterlimit:10;}.cls-7{stroke-width:0.5px;}.cls-8{stroke-width:0.3px;}.cls-9{opacity:0.6;}.cls-10{opacity:0;}.cls-11{opacity:0;}.cls-12{opacity:0.01;}.cls-13{opacity:0.01;}.cls-14{opacity:0.02;}.cls-15{opacity:0.02;}.cls-16{opacity:0.02;}.cls-17{opacity:0.03;}.cls-18{opacity:0.03;}.cls-19{opacity:0.03;}.cls-20{opacity:0.04;}.cls-21{opacity:0.04;}.cls-22{opacity:0.05;}.cls-23{opacity:0.05;}.cls-24{opacity:0.05;}.cls-25{opacity:0.06;}.cls-26{opacity:0.06;}.cls-27{opacity:0.06;}.cls-28{opacity:0.07;}.cls-29{opacity:0.07;}.cls-30{opacity:0.08;}.cls-31{opacity:0.08;}.cls-32{opacity:0.08;}.cls-33{opacity:0.09;}.cls-34{opacity:0.09;}.cls-35{opacity:0.09;}.cls-36{opacity:0.1;}.cls-37{opacity:0.1;}.cls-38{opacity:0.11;}.cls-39{opacity:0.11;}.cls-40{opacity:0.11;}.cls-41{opacity:0.12;}.cls-42{opacity:0.12;}.cls-43{opacity:0.12;}.cls-44{opacity:0.13;}.cls-45{opacity:0.13;}.cls-46{opacity:0.14;}.cls-47{opacity:0.14;}.cls-48{opacity:0.14;}.cls-49{opacity:0.15;}.cls-50{opacity:0.15;}.cls-51{opacity:0.15;}.cls-52{opacity:0.16;}.cls-53{opacity:0.16;}.cls-54{opacity:0.17;}.cls-55{opacity:0.17;}.cls-56{opacity:0.17;}.cls-57{opacity:0.18;}.cls-58{opacity:0.18;}.cls-59{opacity:0.18;}.cls-60{opacity:0.19;}.cls-61{opacity:0.19;}.cls-62{opacity:0.2;}.cls-63{opacity:0.2;}.cls-64{opacity:0.2;}.cls-65{opacity:0.21;}.cls-66{opacity:0.21;}.cls-67{opacity:0.22;}.cls-68{opacity:0.22;}.cls-69{opacity:0.22;}.cls-70{opacity:0.23;}.cls-71{opacity:0.23;}.cls-72{opacity:0.23;}.cls-73{opacity:0.24;}.cls-74{opacity:0.24;}.cls-75{opacity:0.25;}.cls-76{opacity:0.25;}.cls-77{opacity:0.25;}.cls-78{opacity:0.26;}.cls-79{opacity:0.26;}.cls-80{opacity:0.26;}.cls-81{opacity:0.27;}.cls-82{opacity:0.27;}.cls-83{opacity:0.28;}.cls-84{opacity:0.28;}.cls-85{opacity:0.28;}.cls-86{opacity:0.29;}.cls-87{opacity:0.29;}.cls-88{opacity:0.29;}.cls-89{opacity:0.3;}.cls-90{opacity:0.3;}.cls-91{opacity:0.31;}.cls-92{opacity:0.31;}.cls-93{opacity:0.31;}.cls-94{opacity:0.32;}.cls-95{opacity:0.32;}.cls-96{opacity:0.32;}.cls-97{opacity:0.33;}.cls-98{opacity:0.33;}.cls-99{opacity:0.34;}.cls-100{opacity:0.34;}.cls-101{opacity:0.34;}.cls-102{opacity:0.35;}.cls-103{opacity:0.35;}.cls-104{opacity:0.35;}.cls-105{opacity:0.36;}.cls-106{opacity:0.36;}.cls-107{opacity:0.37;}.cls-108{opacity:0.37;}.cls-109{opacity:0.37;}.cls-110{opacity:0.38;}.cls-111{opacity:0.38;}.cls-112{opacity:0.38;}.cls-113{opacity:0.39;}.cls-114{opacity:0.39;}.cls-115{opacity:0.4;}.cls-116{opacity:0.4;}.cls-117{fill:#303030;}</style></defs><title>téléphonie</title><g id="Layer_3" data-name="Layer 3"><rect id="_Tracé_" data-name="&lt;Tracé&gt;" class="cls-1" width="150" height="150"/></g><g id="Layer_1" data-name="Layer 1"><path class="cls-2" d="M97,34.35a5.94,5.94,0,0,0-5.68-5.78H58.5a5.94,5.94,0,0,0-5.68,5.78c-.31,5.59,0,80.72,0,80.72s0,6.24,6,6.32c4.48.07,12.46,0,16.14,0s11.66.06,16.14,0c6-.08,6-6.32,6-6.32S97.36,39.94,97,34.35Z"/><path class="cls-3" d="M96.46,35.52s-.67-3-3.15-3.06c-1.93,0-34.79,0-36.73,0-2.48,0-3.15,3.06-3.15,3.06s-.11,75.91,0,78.89a3.74,3.74,0,0,0,3,3.51h37a3.73,3.73,0,0,0,3-3.51C96.57,111.43,96.46,35.52,96.46,35.52Z"/><path class="cls-4" d="M78,30.61a.44.44,0,0,1-.43.44H72.28a.44.44,0,0,1-.44-.44h0a.44.44,0,0,1,.44-.43h5.31a.43.43,0,0,1,.43.43Z"/><path class="cls-5" d="M72.44,30.61a.15.15,0,0,1-.14.15.15.15,0,0,1-.15-.15.15.15,0,0,1,.15-.14A.14.14,0,0,1,72.44,30.61Z"/><path class="cls-5" d="M72.91,30.61a.15.15,0,0,1-.14.15.15.15,0,0,1-.15-.15.15.15,0,0,1,.15-.14A.14.14,0,0,1,72.91,30.61Z"/><path class="cls-5" d="M73.38,30.61a.15.15,0,0,1-.15.15.15.15,0,0,1-.14-.15.14.14,0,0,1,.14-.14A.15.15,0,0,1,73.38,30.61Z"/><path class="cls-5" d="M73.85,30.61a.15.15,0,0,1-.15.15.15.15,0,0,1-.14-.15.14.14,0,0,1,.14-.14A.15.15,0,0,1,73.85,30.61Z"/><path class="cls-5" d="M74.31,30.61a.14.14,0,1,1-.28,0,.14.14,0,0,1,.28,0Z"/><path class="cls-5" d="M74.78,30.61a.15.15,0,0,1-.14.15.15.15,0,0,1-.15-.15.15.15,0,0,1,.15-.14A.14.14,0,0,1,74.78,30.61Z"/><path class="cls-5" d="M75.25,30.61a.15.15,0,0,1-.14.15.15.15,0,0,1-.15-.15.15.15,0,0,1,.15-.14A.14.14,0,0,1,75.25,30.61Z"/><path class="cls-5" d="M75.72,30.61a.15.15,0,1,1-.29,0,.15.15,0,0,1,.15-.14A.14.14,0,0,1,75.72,30.61Z"/><path class="cls-5" d="M76.19,30.61a.15.15,0,0,1-.15.15.15.15,0,0,1-.14-.15.14.14,0,0,1,.14-.14A.15.15,0,0,1,76.19,30.61Z"/><path class="cls-5" d="M76.66,30.61a.15.15,0,0,1-.15.15.15.15,0,0,1-.14-.15.14.14,0,0,1,.14-.14A.15.15,0,0,1,76.66,30.61Z"/><path class="cls-5" d="M77.12,30.61a.14.14,0,1,1-.28,0,.14.14,0,0,1,.28,0Z"/><path class="cls-5" d="M77.59,30.61a.15.15,0,0,1-.14.15.15.15,0,0,1-.15-.15.15.15,0,0,1,.15-.14A.14.14,0,0,1,77.59,30.61Z"/><path class="cls-6" d="M84.71,30.73a1.08,1.08,0,1,1-1.07-1.07A1.07,1.07,0,0,1,84.71,30.73Z"/><circle class="cls-6" cx="87.56" cy="30.73" r="0.72"/><path class="cls-6" d="M66.37,30.73a.28.28,0,1,1-.55,0,.28.28,0,0,1,.55,0Z"/><path class="cls-6" d="M68.06,30.73a.27.27,0,0,1-.27.28.28.28,0,1,1,0-.55A.27.27,0,0,1,68.06,30.73Z"/><path class="cls-7" d="M84.19,30.73a.56.56,0,1,1-.55-.55A.56.56,0,0,1,84.19,30.73Z"/><path class="cls-6" d="M63.75,30.73A.78.78,0,1,1,63,30,.77.77,0,0,1,63.75,30.73Z"/><path class="cls-7" d="M63.38,30.73a.41.41,0,1,1-.4-.4A.4.4,0,0,1,63.38,30.73Z"/><path class="cls-6" d="M60.89,30.73a.51.51,0,1,1-.51-.51A.51.51,0,0,1,60.89,30.73Z"/><path class="cls-8" d="M60.66,30.73a.28.28,0,0,1-.28.29.29.29,0,0,1,0-.57A.28.28,0,0,1,60.66,30.73Z"/><g class="cls-9"><path class="cls-10" d="M92.84,30.52s3.57,1.87,3.68,4.89.14,80.24.14,80.24-.82,2.79-2.79,3.45a5.34,5.34,0,0,0,.57-1.7c.38-4.09.09-3.22-.39-83.64A5.76,5.76,0,0,0,92.84,30.52Z"/><path class="cls-11" d="M92.85,30.54s3.55,1.86,3.66,4.87.15,80.23.15,80.23-.82,2.78-2.78,3.44a5.34,5.34,0,0,0,.57-1.7c.38-4.07.09-3.33-.39-83.59A5.78,5.78,0,0,0,92.85,30.54Z"/><path class="cls-12" d="M92.86,30.55s3.53,1.86,3.64,4.87.15,80.22.15,80.22-.81,2.75-2.76,3.43a5.45,5.45,0,0,0,.57-1.71c.38-4.06.09-3.43-.39-83.55A5.82,5.82,0,0,0,92.86,30.55Z"/><path class="cls-13" d="M92.88,30.57s3.5,1.85,3.61,4.85.15,80.22.15,80.22-.8,2.73-2.74,3.42a5.46,5.46,0,0,0,.58-1.71c.37-4,.08-3.54-.4-83.51A5.84,5.84,0,0,0,92.88,30.57Z"/><path class="cls-14" d="M92.89,30.59s3.47,1.84,3.59,4.84.15,80.21.15,80.21-.79,2.71-2.72,3.41a5.45,5.45,0,0,0,.58-1.72c.37-4,.09-3.64-.4-83.47A6,6,0,0,0,92.89,30.59Z"/><path class="cls-15" d="M92.91,30.6s3.44,1.84,3.56,4.83.16,80.2.16,80.2-.79,2.7-2.71,3.4a5.45,5.45,0,0,0,.58-1.72c.37-4,.09-3.74-.39-83.43A6.09,6.09,0,0,0,92.91,30.6Z"/><path class="cls-16" d="M92.92,30.62s3.42,1.83,3.54,4.81.16,80.2.16,80.2-.78,2.67-2.69,3.39a5.55,5.55,0,0,0,.58-1.73c.37-4,.09-3.84-.39-83.38A6.09,6.09,0,0,0,92.92,30.62Z"/><path class="cls-17" d="M92.93,30.64s3.39,1.82,3.52,4.8.16,80.19.16,80.19-.77,2.65-2.67,3.38a5.66,5.66,0,0,0,.58-1.74c.36-4,.09-3.94-.39-83.34A6.09,6.09,0,0,0,92.93,30.64Z"/><path class="cls-18" d="M93,30.66s3.36,1.81,3.49,4.78.17,80.18.17,80.18S95.84,118.26,94,119a5.76,5.76,0,0,0,.58-1.75c.36-4,.09-4-.39-83.3A6.09,6.09,0,0,0,93,30.66Z"/><path class="cls-19" d="M93,30.67s3.34,1.81,3.47,4.78.17,80.17.17,80.17S95.84,118.24,94,119a5.77,5.77,0,0,0,.58-1.74c.36-3.94.09-4.16-.39-83.26A6.15,6.15,0,0,0,93,30.67Z"/><path class="cls-20" d="M93,30.69s3.32,1.8,3.45,4.76.17,80.17.17,80.17S95.84,118.21,94,119a5.88,5.88,0,0,0,.58-1.75c.36-3.92.09-4.26-.39-83.22A6.26,6.26,0,0,0,93,30.69Z"/><path class="cls-21" d="M93,30.71s3.28,1.79,3.42,4.74.17,80.17.17,80.17-.74,2.57-2.6,3.34a6,6,0,0,0,.58-1.76c.36-3.9.09-4.36-.38-83.18A6.38,6.38,0,0,0,93,30.71Z"/><path class="cls-22" d="M93,30.73s3.26,1.78,3.41,4.73.17,80.15.17,80.15-.74,2.56-2.59,3.33a5.87,5.87,0,0,0,.58-1.76c.36-3.88.1-4.46-.38-83.13A6.37,6.37,0,0,0,93,30.73Z"/><path class="cls-23" d="M93,30.74s3.24,1.78,3.39,4.72.17,80.15.17,80.15-.73,2.54-2.57,3.32a6,6,0,0,0,.58-1.77c.36-3.86.09-4.56-.38-83.09A6.41,6.41,0,0,0,93,30.74Z"/><path class="cls-24" d="M93,30.76s3.21,1.77,3.36,4.71.17,80.14.17,80.14-.72,2.51-2.55,3.31a6.09,6.09,0,0,0,.58-1.78c.36-3.85.1-4.66-.38-83A6.54,6.54,0,0,0,93,30.76Z"/><path class="cls-25" d="M93,30.78s3.18,1.76,3.34,4.69.18,80.14.18,80.14-.72,2.49-2.54,3.29a6.31,6.31,0,0,0,.59-1.78c.35-3.83.09-4.76-.39-83A6.56,6.56,0,0,0,93,30.78Z"/><path class="cls-26" d="M93.05,30.8s3.16,1.75,3.32,4.67.18,80.13.18,80.13-.7,2.48-2.52,3.29a6.44,6.44,0,0,0,.59-1.78c.35-3.82.09-4.88-.39-83A6.56,6.56,0,0,0,93.05,30.8Z"/><path class="cls-27" d="M93.07,30.81s3.13,1.75,3.29,4.67.18,80.12.18,80.12-.69,2.46-2.5,3.28a6.09,6.09,0,0,0,.59-1.79c.34-3.8.09-5-.38-82.93A6.7,6.7,0,0,0,93.07,30.81Z"/><path class="cls-28" d="M93.08,30.83s3.1,1.74,3.27,4.65.19,80.12.19,80.12-.69,2.44-2.49,3.27a6.2,6.2,0,0,0,.59-1.8c.35-3.78.09-5.08-.38-82.88A6.72,6.72,0,0,0,93.08,30.83Z"/><path class="cls-29" d="M93.09,30.85s3.08,1.73,3.25,4.64.19,80.11.19,80.11a5.64,5.64,0,0,1-2.47,3.25,6.2,6.2,0,0,0,.59-1.8c.34-3.76.09-5.18-.38-82.84A6.85,6.85,0,0,0,93.09,30.85Z"/><path class="cls-30" d="M93.11,30.86s3,1.73,3.22,4.63.19,80.1.19,80.1a5.65,5.65,0,0,1-2.45,3.25,6.31,6.31,0,0,0,.59-1.81c.34-3.74.09-5.28-.38-82.8A6.91,6.91,0,0,0,93.11,30.86Z"/><path class="cls-31" d="M93.12,30.88s3,1.72,3.2,4.62.2,80.09.2,80.09a5.68,5.68,0,0,1-2.44,3.24,6.43,6.43,0,0,0,.59-1.82c.34-3.72.09-5.38-.38-82.75A6.93,6.93,0,0,0,93.12,30.88Z"/><path class="cls-32" d="M93.14,30.9s3,1.71,3.17,4.6.2,80.09.2,80.09a5.64,5.64,0,0,1-2.42,3.22,6.44,6.44,0,0,0,.59-1.81c.34-3.71.1-5.49-.38-82.72A7,7,0,0,0,93.14,30.9Z"/><path class="cls-33" d="M93.15,30.92s3,1.7,3.15,4.58.2,80.09.2,80.09a5.68,5.68,0,0,1-2.39,3.21,6.68,6.68,0,0,0,.58-1.82c.34-3.69.1-5.59-.38-82.67A7,7,0,0,0,93.15,30.92Z"/><path class="cls-34" d="M93.16,30.93s2.94,1.7,3.13,4.58.2,80.07.2,80.07a5.69,5.69,0,0,1-2.37,3.21A6.66,6.66,0,0,0,94.7,117c.34-3.67.1-5.69-.37-82.63A7.24,7.24,0,0,0,93.16,30.93Z"/><path class="cls-35" d="M93.18,31s2.91,1.69,3.1,4.56.21,80.07.21,80.07a5.68,5.68,0,0,1-2.36,3.19,6.66,6.66,0,0,0,.58-1.83c.34-3.65.1-5.8-.37-82.59A7.28,7.28,0,0,0,93.18,31Z"/><path class="cls-36" d="M93.19,31s2.89,1.68,3.08,4.55.21,80.06.21,80.06a5.68,5.68,0,0,1-2.34,3.18,6.78,6.78,0,0,0,.58-1.84c.34-3.63.1-5.9-.37-82.54A7.27,7.27,0,0,0,93.19,31Z"/><path class="cls-37" d="M93.2,31s2.86,1.67,3.06,4.53.21,80.06.21,80.06a5.71,5.71,0,0,1-2.32,3.17,6.77,6.77,0,0,0,.59-1.85c.33-3.62.09-6-.38-82.5A7.27,7.27,0,0,0,93.2,31Z"/><path class="cls-38" d="M93.22,31s2.83,1.67,3,4.52.22,80,.22,80a5.72,5.72,0,0,1-2.31,3.16,7.17,7.17,0,0,0,.59-1.85c.33-3.6.09-6.1-.38-82.46A7.37,7.37,0,0,0,93.22,31Z"/><path class="cls-39" d="M93.23,31s2.81,1.66,3,4.51.21,80,.21,80a5.72,5.72,0,0,1-2.29,3.15,6.91,6.91,0,0,0,.59-1.85c.32-3.59.09-6.21-.38-82.42A7.36,7.36,0,0,0,93.23,31Z"/><path class="cls-40" d="M93.24,31s2.78,1.65,3,4.49c.23,3,.22,80,.22,80a5.71,5.71,0,0,1-2.27,3.14,6.89,6.89,0,0,0,.59-1.86c.32-3.57.09-6.31-.37-82.38A7.61,7.61,0,0,0,93.24,31Z"/><path class="cls-41" d="M93.26,31.05s2.75,1.65,3,4.49c.22,3,.21,80,.21,80a5.76,5.76,0,0,1-2.25,3.14,7,7,0,0,0,.59-1.87c.32-3.55.1-6.41-.37-82.34A7.71,7.71,0,0,0,93.26,31.05Z"/><path class="cls-42" d="M93.27,31.07s2.73,1.64,3,4.47c.23,3,.22,80,.22,80a5.69,5.69,0,0,1-2.24,3.12,7,7,0,0,0,.59-1.87c.32-3.53.1-6.52-.37-82.29A7.7,7.7,0,0,0,93.27,31.07Z"/><path class="cls-43" d="M93.28,31.09a6.4,6.4,0,0,1,2.93,4.45c.23,3,.22,80,.22,80a5.69,5.69,0,0,1-2.22,3.11,7.14,7.14,0,0,0,.59-1.88c.32-3.51.1-6.62-.37-82.25A7.7,7.7,0,0,0,93.28,31.09Z"/><path class="cls-44" d="M93.3,31.11a6.41,6.41,0,0,1,2.9,4.44c.23,3,.22,80,.22,80a5.69,5.69,0,0,1-2.2,3.1,7.26,7.26,0,0,0,.59-1.89c.32-3.49.1-6.72-.37-82.21A7.91,7.91,0,0,0,93.3,31.11Z"/><path class="cls-45" d="M93.31,31.12a6.41,6.41,0,0,1,2.88,4.43c.24,3,.23,80,.23,80a5.7,5.7,0,0,1-2.19,3.09,7.28,7.28,0,0,0,.59-1.88c.32-3.48.1-6.83-.37-82.17A8,8,0,0,0,93.31,31.12Z"/><path class="cls-46" d="M93.32,31.14a6.38,6.38,0,0,1,2.86,4.42c.24,3,.23,80,.23,80a5.73,5.73,0,0,1-2.17,3.08,7.26,7.26,0,0,0,.59-1.89c.32-3.46.1-6.93-.37-82.13A8,8,0,0,0,93.32,31.14Z"/><path class="cls-47" d="M93.34,31.16a6.38,6.38,0,0,1,2.83,4.4c.25,3,.23,80,.23,80a5.73,5.73,0,0,1-2.15,3.07,7.39,7.39,0,0,0,.59-1.9c.32-3.44.1-7-.36-82.09A8.12,8.12,0,0,0,93.34,31.16Z"/><path class="cls-48" d="M93.35,31.18a6.35,6.35,0,0,1,2.81,4.38c.25,3,.24,80,.24,80a5.73,5.73,0,0,1-2.14,3,7.39,7.39,0,0,0,.59-1.9c.32-3.43.1-7.13-.36-82A8.11,8.11,0,0,0,93.35,31.18Z"/><path class="cls-49" d="M93.36,31.19a6.35,6.35,0,0,1,2.79,4.38c.26,3,.24,80,.24,80a5.74,5.74,0,0,1-2.12,3,7.52,7.52,0,0,0,.59-1.91c.31-3.41.1-7.23-.36-82A8.34,8.34,0,0,0,93.36,31.19Z"/><path class="cls-50" d="M93.38,31.21a6.33,6.33,0,0,1,2.76,4.36c.26,3,.24,80,.24,80a5.78,5.78,0,0,1-2.1,3,7.53,7.53,0,0,0,.6-1.91c.31-3.4.1-7.35-.37-82A8.42,8.42,0,0,0,93.38,31.21Z"/><path class="cls-51" d="M93.39,31.23a6.33,6.33,0,0,1,2.74,4.35c.27,3,.25,80,.25,80a5.82,5.82,0,0,1-2.09,3,7.66,7.66,0,0,0,.6-1.92c.3-3.38.1-7.45-.37-81.92A8.38,8.38,0,0,0,93.39,31.23Z"/><path class="cls-52" d="M93.41,31.25a6.3,6.3,0,0,1,2.71,4.33c.27,3,.25,80,.25,80a5.78,5.78,0,0,1-2.07,3,7.51,7.51,0,0,0,.6-1.92c.3-3.36.1-7.55-.37-81.88A8.45,8.45,0,0,0,93.41,31.25Z"/><path class="cls-53" d="M93.42,31.26a6.31,6.31,0,0,1,2.69,4.33c.28,3,.25,79.94.25,79.94a5.79,5.79,0,0,1-2,3,7.64,7.64,0,0,0,.6-1.93c.3-3.34.1-7.65-.36-81.84A8.63,8.63,0,0,0,93.42,31.26Z"/><path class="cls-54" d="M93.43,31.28a6.28,6.28,0,0,1,2.67,4.31c.28,3,.25,79.94.25,79.94a5.75,5.75,0,0,1-2,3,7.77,7.77,0,0,0,.6-1.94c.3-3.32.1-7.75-.36-81.79A8.8,8.8,0,0,0,93.43,31.28Z"/><path class="cls-55" d="M93.45,31.3a6.29,6.29,0,0,1,2.64,4.29c.29,3,.26,79.94.26,79.94a5.76,5.76,0,0,1-2,3,7.77,7.77,0,0,0,.6-1.94c.3-3.3.1-7.85-.36-81.75A8.87,8.87,0,0,0,93.45,31.3Z"/><path class="cls-56" d="M93.46,31.31a6.3,6.3,0,0,1,2.62,4.29c.29,3,.26,79.93.26,79.93a5.76,5.76,0,0,1-2,3,7.9,7.9,0,0,0,.6-2c.3-3.28.1-8-.36-81.7A9,9,0,0,0,93.46,31.31Z"/><path class="cls-57" d="M93.47,31.33a6.27,6.27,0,0,1,2.6,4.27c.3,3,.26,79.92.26,79.92a5.76,5.76,0,0,1-2,3,8.06,8.06,0,0,0,.6-1.95c.3-3.27.1-8.07-.36-81.67A8.91,8.91,0,0,0,93.47,31.33Z"/><path class="cls-58" d="M93.49,31.35a6.28,6.28,0,0,1,2.57,4.26c.3,3,.27,79.91.27,79.91a5.81,5.81,0,0,1-2,3,8.06,8.06,0,0,0,.6-2c.3-3.25.1-8.17-.36-81.63A9,9,0,0,0,93.49,31.35Z"/><path class="cls-59" d="M93.5,31.37a6.25,6.25,0,0,1,2.55,4.24c.3,3,.27,79.91.27,79.91a5.81,5.81,0,0,1-1.95,2.94,8.2,8.2,0,0,0,.6-2c.3-3.23.11-8.27-.35-81.58A9.35,9.35,0,0,0,93.5,31.37Z"/><path class="cls-60" d="M93.51,31.38A6.26,6.26,0,0,1,96,35.61c.31,3,.27,79.91.27,79.91a5.81,5.81,0,0,1-1.93,2.93,8.17,8.17,0,0,0,.6-2c.3-3.22.11-8.37-.35-81.54A9.37,9.37,0,0,0,93.51,31.38Z"/><path class="cls-61" d="M93.53,31.4A6.27,6.27,0,0,1,96,35.62c.3,3,.27,79.89.27,79.89a5.82,5.82,0,0,1-1.92,2.92,8,8,0,0,0,.61-2c.28-3.2.1-8.47-.36-81.5A9.45,9.45,0,0,0,93.53,31.4Z"/><path class="cls-62" d="M93.54,31.42A6.28,6.28,0,0,1,96,35.62c.31,3,.27,79.89.27,79.89a5.82,5.82,0,0,1-1.9,2.91,8.15,8.15,0,0,0,.61-2c.28-3.18.1-8.57-.36-81.45A9.48,9.48,0,0,0,93.54,31.42Z"/><path class="cls-63" d="M93.55,31.44A6.26,6.26,0,0,1,96,35.63c.31,3,.27,79.88.27,79.88a5.86,5.86,0,0,1-1.88,2.9,8.32,8.32,0,0,0,.61-2c.28-3.17.1-8.68-.36-81.42A9.43,9.43,0,0,0,93.55,31.44Z"/><path class="cls-64" d="M93.57,31.45A6.27,6.27,0,0,1,96,35.63c.32,3,.27,79.87.27,79.87a5.87,5.87,0,0,1-1.86,2.9,8.46,8.46,0,0,0,.61-2c.28-3.15.1-8.79-.36-81.38A9.58,9.58,0,0,0,93.57,31.45Z"/><path class="cls-65" d="M93.58,31.47A6.25,6.25,0,0,1,96,35.64c.32,3,.28,79.86.28,79.86a5.88,5.88,0,0,1-1.85,2.88,8.29,8.29,0,0,0,.61-2c.28-3.13.1-8.89-.36-81.33A9.83,9.83,0,0,0,93.58,31.47Z"/><path class="cls-66" d="M93.59,31.49A6.26,6.26,0,0,1,96,35.64c.33,3,.28,79.86.28,79.86a5.88,5.88,0,0,1-1.83,2.87,8.42,8.42,0,0,0,.61-2c.28-3.11.1-9-.35-81.29A9.93,9.93,0,0,0,93.59,31.49Z"/><path class="cls-67" d="M93.61,31.5A6.28,6.28,0,0,1,96,35.64c.33,3,.28,79.86.28,79.86a5.88,5.88,0,0,1-1.81,2.86,8.56,8.56,0,0,0,.61-2c.28-3.09.11-9.09-.35-81.25A10.1,10.1,0,0,0,93.61,31.5Z"/><path class="cls-68" d="M93.62,31.52A6.26,6.26,0,0,1,96,35.65c.34,3,.29,79.85.29,79.85a5.94,5.94,0,0,1-1.8,2.84,8.56,8.56,0,0,0,.61-2c.28-3.07.11-9.19-.35-81.2A10.12,10.12,0,0,0,93.62,31.52Z"/><path class="cls-69" d="M93.64,31.54A6.24,6.24,0,0,1,96,35.65c.34,3,.29,79.84.29,79.84a5.88,5.88,0,0,1-1.77,2.84,8.91,8.91,0,0,0,.6-2c.28-3.06.11-9.3-.35-81.17A10.42,10.42,0,0,0,93.64,31.54Z"/><path class="cls-70" d="M93.65,31.56a6.26,6.26,0,0,1,2.3,4.1c.35,3,.29,79.83.29,79.83a5.88,5.88,0,0,1-1.75,2.83,9.05,9.05,0,0,0,.6-2c.28-3,.11-9.4-.35-81.13A10.42,10.42,0,0,0,93.65,31.56Z"/><path class="cls-71" d="M93.66,31.57a6.28,6.28,0,0,1,2.28,4.09c.35,3,.29,79.83.29,79.83a5.83,5.83,0,0,1-1.73,2.81,9.05,9.05,0,0,0,.6-2c.28-3,.11-9.5-.35-81.08A10.52,10.52,0,0,0,93.66,31.57Z"/><path class="cls-72" d="M93.68,31.59a6.26,6.26,0,0,1,2.25,4.07c.36,3,.3,79.82.3,79.82a6,6,0,0,1-1.72,2.81,9,9,0,0,0,.6-2c.27-3,.11-9.6-.35-81A10.56,10.56,0,0,0,93.68,31.59Z"/><path class="cls-73" d="M93.69,31.61a6.24,6.24,0,0,1,2.23,4.06c.36,3,.3,79.81.3,79.81a6,6,0,0,1-1.7,2.8,9.17,9.17,0,0,0,.6-2c.27-3,.11-9.71-.34-81A10.75,10.75,0,0,0,93.69,31.61Z"/><path class="cls-74" d="M93.7,31.63a6.26,6.26,0,0,1,2.21,4c.36,3,.3,79.81.3,79.81a5.89,5.89,0,0,1-1.68,2.78,9,9,0,0,0,.61-2c.26-3,.1-9.81-.35-80.95A11,11,0,0,0,93.7,31.63Z"/><path class="cls-75" d="M93.72,31.64a6.3,6.3,0,0,1,2.18,4c.37,3,.31,79.8.31,79.8a6,6,0,0,1-1.67,2.77,9.18,9.18,0,0,0,.61-2c.26-3,.1-9.92-.35-80.92A11.17,11.17,0,0,0,93.72,31.64Z"/><path class="cls-76" d="M93.73,31.66a6.24,6.24,0,0,1,2.16,4c.37,3,.31,79.79.31,79.79a6,6,0,0,1-1.65,2.77,9.32,9.32,0,0,0,.61-2c.26-2.94.1-10-.35-80.87A11.19,11.19,0,0,0,93.73,31.66Z"/><path class="cls-77" d="M93.74,31.68a6.27,6.27,0,0,1,2.14,4c.38,3,.31,79.78.31,79.78a6,6,0,0,1-1.63,2.76,9.48,9.48,0,0,0,.61-2.06c.26-2.92.11-10.12-.35-80.83A11.12,11.12,0,0,0,93.74,31.68Z"/><path class="cls-78" d="M93.76,31.69a6.34,6.34,0,0,1,2.12,4c.37,3,.31,79.78.31,79.78a6,6,0,0,1-1.62,2.74,9.29,9.29,0,0,0,.61-2.06c.26-2.9.11-10.22-.35-80.79A11.64,11.64,0,0,0,93.76,31.69Z"/><path class="cls-79" d="M93.77,31.71a6.32,6.32,0,0,1,2.1,4c.38,3,.31,79.78.31,79.78a6,6,0,0,1-1.6,2.73,9.44,9.44,0,0,0,.61-2.07c.26-2.88.11-10.32-.34-80.74A11.85,11.85,0,0,0,93.77,31.71Z"/><path class="cls-80" d="M93.79,31.73a6.32,6.32,0,0,1,2.07,4c.38,3,.31,79.76.31,79.76a6.09,6.09,0,0,1-1.58,2.73,9.59,9.59,0,0,0,.61-2.08c.26-2.86.11-10.43-.34-80.7A12,12,0,0,0,93.79,31.73Z"/><path class="cls-81" d="M93.8,31.75a6.29,6.29,0,0,1,2,4c.39,3,.32,79.76.32,79.76a6.12,6.12,0,0,1-1.57,2.71,9.59,9.59,0,0,0,.61-2.08c.25-2.84.11-10.53-.34-80.66A11.92,11.92,0,0,0,93.8,31.75Z"/><path class="cls-82" d="M93.81,31.76a6.38,6.38,0,0,1,2,3.95c.39,3,.32,79.75.32,79.75a6.11,6.11,0,0,1-1.55,2.7,9.79,9.79,0,0,0,.61-2.08c.25-2.83.11-10.64-.34-80.62A12,12,0,0,0,93.81,31.76Z"/><path class="cls-83" d="M93.83,31.78a6.38,6.38,0,0,1,2,3.93c.4,3,.32,79.75.32,79.75a6.11,6.11,0,0,1-1.53,2.69,9.35,9.35,0,0,0,.61-2.09c.25-2.81.11-10.74-.34-80.58A12.17,12.17,0,0,0,93.83,31.78Z"/><path class="cls-84" d="M93.84,31.8a6.36,6.36,0,0,1,2,3.91c.4,3,.32,79.74.32,79.74a6.11,6.11,0,0,1-1.51,2.69,9.9,9.9,0,0,0,.61-2.1c.25-2.8.11-10.84-.34-80.54A12.44,12.44,0,0,0,93.84,31.8Z"/><path class="cls-85" d="M93.85,31.82a6.35,6.35,0,0,1,2,3.9c.41,3,.33,79.73.33,79.73a6.2,6.2,0,0,1-1.5,2.67,9.31,9.31,0,0,0,.61-2.1c.25-2.78.12-10.94-.33-80.49A12.67,12.67,0,0,0,93.85,31.82Z"/><path class="cls-86" d="M93.87,31.83a6.46,6.46,0,0,1,1.93,3.89c.41,3,.33,79.73.33,79.73a6.19,6.19,0,0,1-1.48,2.66,9.46,9.46,0,0,0,.61-2.11c.25-2.76.12-11-.33-80.45A12.94,12.94,0,0,0,93.87,31.83Z"/><path class="cls-87" d="M93.88,31.85a6.45,6.45,0,0,1,1.91,3.88c.42,3,.33,79.72.33,79.72a6.19,6.19,0,0,1-1.46,2.65,10,10,0,0,0,.62-2.12c.24-2.74.11-11.14-.34-80.41A12.85,12.85,0,0,0,93.88,31.85Z"/><path class="cls-88" d="M93.89,31.87a6.44,6.44,0,0,1,1.89,3.86c.42,3,.34,79.71.34,79.71a6.09,6.09,0,0,1-1.45,2.64,10.07,10.07,0,0,0,.62-2.11c.24-2.73.11-11.26-.34-80.37A12.87,12.87,0,0,0,93.89,31.87Z"/><path class="cls-89" d="M93.91,31.88a6.56,6.56,0,0,1,1.86,3.85c.43,3,.34,79.71.34,79.71a6.13,6.13,0,0,1-1.43,2.63A10.23,10.23,0,0,0,95.3,116c.24-2.71.11-11.36-.34-80.33A13.45,13.45,0,0,0,93.91,31.88Z"/><path class="cls-90" d="M93.92,31.9a6.55,6.55,0,0,1,1.84,3.84c.43,3,.34,79.7.34,79.7a6.12,6.12,0,0,1-1.41,2.62,10.18,10.18,0,0,0,.62-2.13c.24-2.69.11-11.46-.34-80.29A13.45,13.45,0,0,0,93.92,31.9Z"/><path class="cls-91" d="M93.93,31.92a6.54,6.54,0,0,1,1.82,3.82c.44,3,.35,79.7.35,79.7a6.16,6.16,0,0,1-1.4,2.6,10.18,10.18,0,0,0,.62-2.13c.24-2.67.11-11.56-.33-80.24A13.71,13.71,0,0,0,93.93,31.92Z"/><path class="cls-92" d="M94,31.94a6.57,6.57,0,0,1,1.79,3.81c.44,3,.35,79.68.35,79.68a6.15,6.15,0,0,1-1.38,2.6,10.34,10.34,0,0,0,.62-2.14c.24-2.65.11-11.66-.33-80.2A13.8,13.8,0,0,0,94,31.94Z"/><path class="cls-93" d="M94,32a6.68,6.68,0,0,1,1.77,3.8c.45,3,.35,79.68.35,79.68A6.2,6.2,0,0,1,94.72,118a10.5,10.5,0,0,0,.62-2.15c.24-2.63.12-11.76-.33-80.15A13.93,13.93,0,0,0,94,32Z"/><path class="cls-94" d="M94,32a6.68,6.68,0,0,1,1.75,3.78c.45,3,.35,79.68.35,79.68A6.18,6.18,0,0,1,94.73,118a10.66,10.66,0,0,0,.62-2.16c.23-2.61.11-11.86-.33-80.11A14.38,14.38,0,0,0,94,32Z"/><path class="cls-95" d="M94,32a6.71,6.71,0,0,1,1.72,3.77c.46,3,.36,79.67.36,79.67A6.23,6.23,0,0,1,94.74,118a10.72,10.72,0,0,0,.62-2.15c.23-2.6.12-12-.33-80.08A14.48,14.48,0,0,0,94,32Z"/><path class="cls-96" d="M94,32a6.75,6.75,0,0,1,1.71,3.75c.45,3,.35,79.66.35,79.66A6.21,6.21,0,0,1,94.75,118a10.22,10.22,0,0,0,.62-2.16c.23-2.59.12-12.07-.33-80A14.5,14.5,0,0,0,94,32Z"/><path class="cls-97" d="M94,32a6.85,6.85,0,0,1,1.68,3.75c.46,3,.35,79.65.35,79.65A6.26,6.26,0,0,1,94.76,118a10.17,10.17,0,0,0,.62-2.17c.23-2.57.12-12.18-.33-80A14.83,14.83,0,0,0,94,32Z"/><path class="cls-98" d="M94,32a6.94,6.94,0,0,1,1.66,3.73c.46,3,.36,79.65.36,79.65A6.3,6.3,0,0,1,94.77,118a10.17,10.17,0,0,0,.62-2.17c.23-2.55.12-12.28-.32-79.95A15,15,0,0,0,94,32Z"/><path class="cls-99" d="M94,32.06a6.94,6.94,0,0,1,1.64,3.71c.46,3,.36,79.65.36,79.65a6.28,6.28,0,0,1-1.26,2.52,10.79,10.79,0,0,0,.63-2.18c.22-2.53.11-12.38-.33-79.9A15.52,15.52,0,0,0,94,32.06Z"/><path class="cls-100" d="M94.06,32.08a7,7,0,0,1,1.61,3.7c.47,3,.36,79.63.36,79.63a6.26,6.26,0,0,1-1.24,2.52,11,11,0,0,0,.63-2.18c.22-2.52.11-12.49-.33-79.87A15.76,15.76,0,0,0,94.06,32.08Z"/><path class="cls-101" d="M94.07,32.09a7.07,7.07,0,0,1,1.59,3.69c.48,3,.36,79.63.36,79.63a6.06,6.06,0,0,1-1.22,2.5,11,11,0,0,0,.63-2.18c.22-2.5.11-12.59-.33-79.83A15.78,15.78,0,0,0,94.07,32.09Z"/><path class="cls-102" d="M94.08,32.11a7.09,7.09,0,0,1,1.57,3.68c.49,3,.37,79.62.37,79.62a6.17,6.17,0,0,1-1.21,2.49,11.18,11.18,0,0,0,.63-2.19c.22-2.48.11-12.69-.33-79.78A15.8,15.8,0,0,0,94.08,32.11Z"/><path class="cls-103" d="M94.09,32.13a7.1,7.1,0,0,1,1.55,3.66c.49,3,.37,79.62.37,79.62a6.18,6.18,0,0,1-1.18,2.48,11.57,11.57,0,0,0,.62-2.2c.22-2.46.11-12.79-.33-79.74A16.36,16.36,0,0,0,94.09,32.13Z"/><path class="cls-104" d="M94.11,32.14a7.35,7.35,0,0,1,1.52,3.66c.5,3,.37,79.6.37,79.6a6.1,6.1,0,0,1-1.17,2.48,11.29,11.29,0,0,0,.63-2.21c.21-2.44.12-12.9-.32-79.7A17,17,0,0,0,94.11,32.14Z"/><path class="cls-105" d="M94.12,32.16a7.37,7.37,0,0,1,1.5,3.64c.5,3,.38,79.6.38,79.6a6.15,6.15,0,0,1-1.16,2.46,11.29,11.29,0,0,0,.63-2.21c.21-2.42.12-13-.32-79.65A17,17,0,0,0,94.12,32.16Z"/><path class="cls-106" d="M94.14,32.18a7.45,7.45,0,0,1,1.47,3.62c.51,3,.38,79.6.38,79.6a6.18,6.18,0,0,1-1.14,2.45,11.52,11.52,0,0,0,.63-2.21c.21-2.42.12-13.11-.32-79.62A17.27,17.27,0,0,0,94.14,32.18Z"/><path class="cls-107" d="M94.15,32.2a7.49,7.49,0,0,1,1.45,3.61c.51,3,.38,79.58.38,79.58a6.18,6.18,0,0,1-1.11,2.45,11.93,11.93,0,0,0,.62-2.22c.21-2.4.12-13.21-.32-79.58A17.13,17.13,0,0,0,94.15,32.2Z"/><path class="cls-108" d="M94.16,32.21a7.72,7.72,0,0,1,1.43,3.6c.51,3,.38,79.58.38,79.58a6.07,6.07,0,0,1-1.09,2.43,11.17,11.17,0,0,0,.62-2.22c.21-2.38.12-13.31-.32-79.53A17.3,17.3,0,0,0,94.16,32.21Z"/><path class="cls-109" d="M94.18,32.23a7.84,7.84,0,0,1,1.4,3.59c.52,3,.39,79.57.39,79.57a6.18,6.18,0,0,1-1.08,2.42,11.34,11.34,0,0,0,.62-2.23c.21-2.36.12-13.41-.32-79.49A18.29,18.29,0,0,0,94.18,32.23Z"/><path class="cls-110" d="M94.19,32.25a7.89,7.89,0,0,1,1.38,3.57c.52,3,.39,79.57.39,79.57a6.2,6.2,0,0,1-1.06,2.41,11.28,11.28,0,0,0,.62-2.24c.21-2.34.12-13.51-.32-79.45A18.13,18.13,0,0,0,94.19,32.25Z"/><path class="cls-111" d="M94.2,32.27a8.08,8.08,0,0,1,1.36,3.55c.53,3,.4,79.56.4,79.56a6.25,6.25,0,0,1-1,2.4,11.81,11.81,0,0,0,.63-2.24c.2-2.32.11-13.62-.32-79.4A18.52,18.52,0,0,0,94.2,32.27Z"/><path class="cls-112" d="M94.22,32.28a8.33,8.33,0,0,1,1.33,3.55c.53,3,.4,79.55.4,79.55a6.19,6.19,0,0,1-1,2.39,12,12,0,0,0,.63-2.25c.2-2.3.12-13.72-.32-79.36A19,19,0,0,0,94.22,32.28Z"/><path class="cls-113" d="M94.23,32.3a8.4,8.4,0,0,1,1.31,3.53c.54,3,.4,79.55.4,79.55a6.13,6.13,0,0,1-1,2.38,12.17,12.17,0,0,0,.63-2.26c.2-2.28.12-13.82-.32-79.31A19.66,19.66,0,0,0,94.23,32.3Z"/><path class="cls-114" d="M94.24,32.32a8.49,8.49,0,0,1,1.29,3.52c.54,2.95.4,79.54.4,79.54a6.07,6.07,0,0,1-1,2.36,12.24,12.24,0,0,0,.63-2.25c.19-2.27.12-13.93-.32-79.28A19.66,19.66,0,0,0,94.24,32.32Z"/><path class="cls-115" d="M94.26,32.33a9.06,9.06,0,0,1,1.27,3.51c.54,3,.4,79.53.4,79.53a6.18,6.18,0,0,1-1,2.36,12.42,12.42,0,0,0,.63-2.26c.2-2.25.12-14-.32-79.24A20.25,20.25,0,0,0,94.26,32.33Z"/><path class="cls-116" d="M94.27,32.35a9.18,9.18,0,0,1,1.25,3.5c.54,2.95.4,79.52.4,79.52a5.89,5.89,0,0,1-1,2.35,12.35,12.35,0,0,0,.63-2.27c.19-2.23.12-14.13-.31-79.19A20.51,20.51,0,0,0,94.27,32.35Z"/></g><g class="cls-9"><path class="cls-10" d="M57,30.52s-3.57,1.87-3.68,4.89-.14,80.24-.14,80.24.82,2.79,2.79,3.45a5.34,5.34,0,0,1-.57-1.7c-.38-4.09-.09-3.22.39-83.64A5.76,5.76,0,0,1,57,30.52Z"/><path class="cls-11" d="M56.94,30.54s-3.55,1.86-3.66,4.87-.15,80.23-.15,80.23.82,2.78,2.78,3.44a5.52,5.52,0,0,1-.58-1.7c-.37-4.07-.08-3.33.4-83.59A5.78,5.78,0,0,1,56.94,30.54Z"/><path class="cls-12" d="M56.92,30.55s-3.52,1.86-3.63,4.87-.15,80.22-.15,80.22.81,2.75,2.76,3.43a5.63,5.63,0,0,1-.58-1.71c-.37-4.06-.08-3.43.4-83.55A5.85,5.85,0,0,1,56.92,30.55Z"/><path class="cls-13" d="M56.91,30.57s-3.5,1.85-3.61,4.85-.15,80.22-.15,80.22.8,2.73,2.74,3.42a5.46,5.46,0,0,1-.58-1.71c-.37-4-.09-3.54.4-83.51A5.84,5.84,0,0,1,56.91,30.57Z"/><path class="cls-14" d="M56.9,30.59s-3.47,1.84-3.59,4.84-.16,80.21-.16,80.21.8,2.71,2.73,3.41a5.45,5.45,0,0,1-.58-1.72c-.37-4-.09-3.64.39-83.47A5.92,5.92,0,0,1,56.9,30.59Z"/><path class="cls-15" d="M56.88,30.6s-3.44,1.84-3.56,4.83-.16,80.2-.16,80.2.79,2.7,2.71,3.4a5.45,5.45,0,0,1-.58-1.72c-.37-4-.09-3.74.39-83.43A6.09,6.09,0,0,1,56.88,30.6Z"/><path class="cls-16" d="M56.87,30.62s-3.42,1.83-3.54,4.81-.16,80.2-.16,80.2S54,118.3,55.86,119a5.55,5.55,0,0,1-.58-1.73c-.37-4-.09-3.84.39-83.38A6.09,6.09,0,0,1,56.87,30.62Z"/><path class="cls-17" d="M56.86,30.64s-3.4,1.82-3.52,4.8-.16,80.19-.16,80.19.77,2.65,2.67,3.38a5.66,5.66,0,0,1-.58-1.74c-.37-4-.09-3.94.39-83.34A6.09,6.09,0,0,1,56.86,30.64Z"/><path class="cls-18" d="M56.84,30.66s-3.36,1.81-3.49,4.78-.17,80.18-.17,80.18.77,2.64,2.66,3.38a5.76,5.76,0,0,1-.58-1.75c-.36-4-.09-4,.39-83.3A6.09,6.09,0,0,1,56.84,30.66Z"/><path class="cls-19" d="M56.83,30.67s-3.34,1.81-3.47,4.78-.17,80.17-.17,80.17.76,2.62,2.64,3.36a5.77,5.77,0,0,1-.58-1.74c-.36-3.94-.09-4.16.39-83.26A6.15,6.15,0,0,1,56.83,30.67Z"/><path class="cls-20" d="M56.82,30.69s-3.32,1.8-3.46,4.76-.16,80.17-.16,80.17.75,2.59,2.62,3.35a5.88,5.88,0,0,1-.58-1.75c-.36-3.92-.09-4.26.38-83.22A6.35,6.35,0,0,1,56.82,30.69Z"/><path class="cls-21" d="M56.8,30.71s-3.29,1.79-3.43,4.74-.17,80.17-.17,80.17.75,2.57,2.61,3.34a6,6,0,0,1-.58-1.76c-.36-3.9-.1-4.36.38-83.18A6.38,6.38,0,0,1,56.8,30.71Z"/><path class="cls-22" d="M56.79,30.73s-3.26,1.78-3.41,4.73-.17,80.15-.17,80.15.74,2.56,2.59,3.33a5.87,5.87,0,0,1-.58-1.76c-.36-3.88-.1-4.46.38-83.13A6.37,6.37,0,0,1,56.79,30.73Z"/><path class="cls-23" d="M56.78,30.74s-3.24,1.78-3.39,4.72-.17,80.15-.17,80.15.72,2.54,2.57,3.32a6.19,6.19,0,0,1-.59-1.77c-.35-3.86-.09-4.56.39-83.09A6.41,6.41,0,0,1,56.78,30.74Z"/><path class="cls-24" d="M56.76,30.76s-3.21,1.77-3.36,4.71-.18,80.14-.18,80.14.72,2.51,2.56,3.31a6.31,6.31,0,0,1-.59-1.78c-.35-3.85-.09-4.66.39-83A6.42,6.42,0,0,1,56.76,30.76Z"/><path class="cls-25" d="M56.75,30.78s-3.18,1.76-3.34,4.69-.18,80.14-.18,80.14.71,2.49,2.54,3.29a6,6,0,0,1-.59-1.78c-.35-3.83-.09-4.76.39-83A6.56,6.56,0,0,1,56.75,30.78Z"/><path class="cls-26" d="M56.74,30.8s-3.16,1.75-3.32,4.67-.18,80.13-.18,80.13.7,2.48,2.51,3.29a6.21,6.21,0,0,1-.58-1.78c-.35-3.82-.09-4.88.38-83A6.65,6.65,0,0,1,56.74,30.8Z"/><path class="cls-27" d="M56.72,30.81s-3.13,1.75-3.29,4.67-.18,80.12-.18,80.12.69,2.46,2.49,3.28a6.2,6.2,0,0,1-.58-1.79c-.35-3.8-.09-5,.38-82.93A6.7,6.7,0,0,1,56.72,30.81Z"/><path class="cls-28" d="M56.71,30.83s-3.1,1.74-3.27,4.65-.19,80.12-.19,80.12.69,2.44,2.48,3.27a6.31,6.31,0,0,1-.58-1.8c-.35-3.78-.09-5.08.38-82.88A6.72,6.72,0,0,1,56.71,30.83Z"/><path class="cls-29" d="M56.69,30.85s-3.07,1.73-3.24,4.64-.19,80.11-.19,80.11a5.65,5.65,0,0,0,2.46,3.25,6.31,6.31,0,0,1-.58-1.8c-.35-3.76-.09-5.18.38-82.84A6.76,6.76,0,0,1,56.69,30.85Z"/><path class="cls-30" d="M56.68,30.86s-3,1.73-3.22,4.63-.19,80.1-.19,80.1a5.66,5.66,0,0,0,2.44,3.25,6.43,6.43,0,0,1-.58-1.81c-.34-3.74-.09-5.28.38-82.8A6.91,6.91,0,0,1,56.68,30.86Z"/><path class="cls-31" d="M56.67,30.88s-3,1.72-3.2,4.62-.2,80.09-.2,80.09a5.7,5.7,0,0,0,2.43,3.24,6.54,6.54,0,0,1-.58-1.82c-.34-3.72-.1-5.38.38-82.75A6.93,6.93,0,0,1,56.67,30.88Z"/><path class="cls-32" d="M56.65,30.9s-3,1.71-3.17,4.6-.2,80.09-.2,80.09a5.65,5.65,0,0,0,2.41,3.22,6.56,6.56,0,0,1-.58-1.81c-.34-3.71-.1-5.49.38-82.72A7,7,0,0,1,56.65,30.9Z"/><path class="cls-33" d="M56.64,30.92s-3,1.7-3.15,4.58-.2,80.09-.2,80.09a5.68,5.68,0,0,0,2.39,3.21A6.68,6.68,0,0,1,55.1,117c-.34-3.69-.1-5.59.37-82.67A7.05,7.05,0,0,1,56.64,30.92Z"/><path class="cls-34" d="M56.63,30.93s-2.94,1.7-3.13,4.58-.21,80.07-.21,80.07a5.73,5.73,0,0,0,2.38,3.21,6.66,6.66,0,0,1-.58-1.83c-.34-3.67-.1-5.69.37-82.63A7.1,7.1,0,0,1,56.63,30.93Z"/><path class="cls-35" d="M56.61,31s-2.91,1.69-3.1,4.56-.21,80.07-.21,80.07a5.68,5.68,0,0,0,2.36,3.19,6.66,6.66,0,0,1-.58-1.83c-.34-3.65-.1-5.8.37-82.59A7.28,7.28,0,0,1,56.61,31Z"/><path class="cls-36" d="M56.6,31s-2.89,1.68-3.08,4.55-.21,80.06-.21,80.06a5.68,5.68,0,0,0,2.34,3.18,6.66,6.66,0,0,1-.59-1.84c-.33-3.63-.09-5.9.38-82.54A7.27,7.27,0,0,1,56.6,31Z"/><path class="cls-37" d="M56.59,31s-2.86,1.67-3.06,4.53-.21,80.06-.21,80.06a5.71,5.71,0,0,0,2.32,3.17,6.77,6.77,0,0,1-.59-1.85c-.33-3.62-.09-6,.38-82.5A7.27,7.27,0,0,1,56.59,31Z"/><path class="cls-38" d="M56.57,31s-2.83,1.67-3,4.52-.22,80-.22,80a5.72,5.72,0,0,0,2.31,3.16,6.77,6.77,0,0,1-.59-1.85c-.33-3.6-.09-6.1.38-82.46A7.37,7.37,0,0,1,56.57,31Z"/><path class="cls-39" d="M56.56,31s-2.81,1.66-3,4.51-.21,80-.21,80a5.66,5.66,0,0,0,2.29,3.15,6.91,6.91,0,0,1-.59-1.85c-.33-3.59-.1-6.21.37-82.42A7.46,7.46,0,0,1,56.56,31Z"/><path class="cls-40" d="M56.55,31s-2.79,1.65-3,4.49c-.22,3-.21,80-.21,80a5.66,5.66,0,0,0,2.27,3.14,6.89,6.89,0,0,1-.59-1.86c-.33-3.57-.1-6.31.37-82.38A7.61,7.61,0,0,1,56.55,31Z"/><path class="cls-41" d="M56.53,31.05s-2.75,1.65-3,4.49c-.22,3-.22,80-.22,80a5.74,5.74,0,0,0,2.26,3.14,7,7,0,0,1-.59-1.87c-.32-3.55-.1-6.41.37-82.34A7.71,7.71,0,0,1,56.53,31.05Z"/><path class="cls-42" d="M56.52,31.07s-2.73,1.64-3,4.47c-.23,3-.22,80-.22,80a5.69,5.69,0,0,0,2.24,3.12,7,7,0,0,1-.59-1.87c-.32-3.53-.1-6.52.37-82.29A7.7,7.7,0,0,1,56.52,31.07Z"/><path class="cls-43" d="M56.5,31.09a6.41,6.41,0,0,0-2.92,4.45c-.23,3-.22,80-.22,80a5.69,5.69,0,0,0,2.22,3.11,7.14,7.14,0,0,1-.59-1.88c-.32-3.51-.1-6.62.37-82.25A7.75,7.75,0,0,1,56.5,31.09Z"/><path class="cls-44" d="M56.49,31.11a6.38,6.38,0,0,0-2.9,4.44c-.24,3-.23,80-.23,80a5.74,5.74,0,0,0,2.21,3.1,7.26,7.26,0,0,1-.59-1.89c-.32-3.49-.1-6.72.37-82.21A7.75,7.75,0,0,1,56.49,31.11Z"/><path class="cls-45" d="M56.48,31.12a6.41,6.41,0,0,0-2.88,4.43c-.24,3-.23,80-.23,80a5.7,5.7,0,0,0,2.19,3.09,7.28,7.28,0,0,1-.59-1.88c-.32-3.48-.1-6.83.37-82.17A8,8,0,0,1,56.48,31.12Z"/><path class="cls-46" d="M56.46,31.14a6.38,6.38,0,0,0-2.85,4.42c-.25,3-.23,80-.23,80a5.73,5.73,0,0,0,2.17,3.08,7.26,7.26,0,0,1-.59-1.89c-.32-3.46-.1-6.93.36-82.13A8.12,8.12,0,0,1,56.46,31.14Z"/><path class="cls-47" d="M56.45,31.16a6.35,6.35,0,0,0-2.83,4.4c-.25,3-.23,80-.23,80a5.73,5.73,0,0,0,2.15,3.07,7.39,7.39,0,0,1-.59-1.9c-.32-3.44-.1-7,.36-82.09A8.12,8.12,0,0,1,56.45,31.16Z"/><path class="cls-48" d="M56.44,31.18a6.35,6.35,0,0,0-2.81,4.38c-.25,3-.24,80-.24,80a5.73,5.73,0,0,0,2.14,3,7.26,7.26,0,0,1-.6-1.9c-.31-3.43-.09-7.13.37-82A8.11,8.11,0,0,1,56.44,31.18Z"/><path class="cls-49" d="M56.42,31.19a6.36,6.36,0,0,0-2.78,4.38c-.26,3-.24,80-.24,80a5.74,5.74,0,0,0,2.12,3,7.38,7.38,0,0,1-.6-1.91c-.31-3.41-.1-7.23.37-82A8.22,8.22,0,0,1,56.42,31.19Z"/><path class="cls-50" d="M56.41,31.21a6.33,6.33,0,0,0-2.76,4.36c-.26,3-.24,80-.24,80a5.78,5.78,0,0,0,2.1,3,7.53,7.53,0,0,1-.6-1.91c-.31-3.4-.1-7.35.37-82A8.42,8.42,0,0,1,56.41,31.21Z"/><path class="cls-51" d="M56.4,31.23a6.3,6.3,0,0,0-2.74,4.35c-.27,3-.25,80-.25,80a5.82,5.82,0,0,0,2.09,3,7.66,7.66,0,0,1-.6-1.92c-.3-3.38-.1-7.45.37-81.92A8.38,8.38,0,0,1,56.4,31.23Z"/><path class="cls-52" d="M56.38,31.25a6.3,6.3,0,0,0-2.71,4.33c-.27,3-.25,80-.25,80a5.78,5.78,0,0,0,2.07,3,7.51,7.51,0,0,1-.6-1.92c-.3-3.36-.1-7.55.36-81.88A8.57,8.57,0,0,1,56.38,31.25Z"/><path class="cls-53" d="M56.37,31.26a6.31,6.31,0,0,0-2.69,4.33c-.28,3-.25,79.94-.25,79.94a5.72,5.72,0,0,0,2,3,7.64,7.64,0,0,1-.6-1.93c-.3-3.34-.1-7.65.36-81.84A8.63,8.63,0,0,1,56.37,31.26Z"/><path class="cls-54" d="M56.36,31.28a6.28,6.28,0,0,0-2.67,4.31c-.28,3-.25,79.94-.25,79.94a5.75,5.75,0,0,0,2,3,7.77,7.77,0,0,1-.6-1.94c-.3-3.32-.1-7.75.36-81.79A8.61,8.61,0,0,1,56.36,31.28Z"/><path class="cls-55" d="M56.34,31.3a6.29,6.29,0,0,0-2.64,4.29c-.29,3-.26,79.94-.26,79.94a5.76,5.76,0,0,0,2,3,7.77,7.77,0,0,1-.6-1.94c-.3-3.3-.1-7.85.36-81.75A8.87,8.87,0,0,1,56.34,31.3Z"/><path class="cls-56" d="M56.33,31.31a6.3,6.3,0,0,0-2.62,4.29c-.29,3-.26,79.93-.26,79.93a5.76,5.76,0,0,0,2,3,7.9,7.9,0,0,1-.6-2c-.3-3.28-.1-8,.36-81.7A9,9,0,0,1,56.33,31.31Z"/><path class="cls-57" d="M56.31,31.33a6.3,6.3,0,0,0-2.6,4.27c-.29,3-.25,79.92-.25,79.92a5.76,5.76,0,0,0,2,3,8.06,8.06,0,0,1-.6-1.95c-.3-3.27-.11-8.07.36-81.67A9,9,0,0,1,56.31,31.33Z"/><path class="cls-58" d="M56.3,31.35a6.28,6.28,0,0,0-2.58,4.26c-.29,3-.26,79.91-.26,79.91a5.81,5.81,0,0,0,2,3,8.06,8.06,0,0,1-.6-2c-.3-3.25-.11-8.17.36-81.63A9,9,0,0,1,56.3,31.35Z"/><path class="cls-59" d="M56.29,31.37a6.28,6.28,0,0,0-2.56,4.24c-.29,3-.26,79.91-.26,79.91a5.81,5.81,0,0,0,2,2.94,8.2,8.2,0,0,1-.6-2c-.3-3.23-.11-8.27.35-81.58A9.14,9.14,0,0,1,56.29,31.37Z"/><path class="cls-60" d="M56.27,31.38a6.3,6.3,0,0,0-2.53,4.23c-.3,3-.26,79.91-.26,79.91a5.81,5.81,0,0,0,1.93,2.93,8,8,0,0,1-.61-2c-.29-3.22-.1-8.37.36-81.54A9.45,9.45,0,0,1,56.27,31.38Z"/><path class="cls-61" d="M56.26,31.4a6.27,6.27,0,0,0-2.51,4.22c-.3,3-.27,79.89-.27,79.89a5.82,5.82,0,0,0,1.92,2.92,8,8,0,0,1-.61-2c-.29-3.2-.1-8.47.36-81.5A9.45,9.45,0,0,1,56.26,31.4Z"/><path class="cls-62" d="M56.25,31.42a6.24,6.24,0,0,0-2.49,4.2c-.31,3-.27,79.89-.27,79.89a5.85,5.85,0,0,0,1.89,2.91,8.3,8.3,0,0,1-.6-2c-.28-3.18-.1-8.57.36-81.45A9.48,9.48,0,0,1,56.25,31.42Z"/><path class="cls-63" d="M56.23,31.44a6.26,6.26,0,0,0-2.46,4.19c-.31,3-.27,79.88-.27,79.88a5.89,5.89,0,0,0,1.87,2.9,8.47,8.47,0,0,1-.6-2c-.28-3.17-.1-8.68.36-81.42A9.51,9.51,0,0,1,56.23,31.44Z"/><path class="cls-64" d="M56.22,31.45a6.27,6.27,0,0,0-2.44,4.18c-.32,3-.28,79.87-.28,79.87a6,6,0,0,0,1.86,2.9,8.62,8.62,0,0,1-.6-2c-.28-3.15-.1-8.79.36-81.38A9.58,9.58,0,0,1,56.22,31.45Z"/><path class="cls-65" d="M56.21,31.47a6.25,6.25,0,0,0-2.42,4.17c-.32,3-.28,79.86-.28,79.86a5.91,5.91,0,0,0,1.84,2.88,8.44,8.44,0,0,1-.6-2c-.28-3.13-.1-8.89.35-81.33A10,10,0,0,1,56.21,31.47Z"/><path class="cls-66" d="M56.19,31.49a6.27,6.27,0,0,0-2.39,4.15c-.33,3-.28,79.86-.28,79.86a5.91,5.91,0,0,0,1.82,2.87,8.58,8.58,0,0,1-.6-2c-.28-3.11-.11-9,.35-81.29A10,10,0,0,1,56.19,31.49Z"/><path class="cls-67" d="M56.18,31.5a6.28,6.28,0,0,0-2.37,4.14c-.33,3-.28,79.86-.28,79.86a5.91,5.91,0,0,0,1.8,2.86,8.73,8.73,0,0,1-.6-2c-.28-3.09-.11-9.09.35-81.25A10.1,10.1,0,0,1,56.18,31.5Z"/><path class="cls-68" d="M56.17,31.52a6.26,6.26,0,0,0-2.35,4.13c-.34,3-.29,79.85-.29,79.85a6,6,0,0,0,1.79,2.84,8.73,8.73,0,0,1-.6-2c-.28-3.07-.11-9.19.35-81.2A10.12,10.12,0,0,1,56.17,31.52Z"/><path class="cls-69" d="M56.15,31.54a6.24,6.24,0,0,0-2.32,4.11c-.34,3-.29,79.84-.29,79.84a5.88,5.88,0,0,0,1.77,2.84,8.91,8.91,0,0,1-.6-2c-.28-3.06-.11-9.3.35-81.17A10.16,10.16,0,0,1,56.15,31.54Z"/><path class="cls-70" d="M56.14,31.56a6.26,6.26,0,0,0-2.3,4.1c-.35,3-.29,79.83-.29,79.83a5.88,5.88,0,0,0,1.75,2.83,9.05,9.05,0,0,1-.6-2c-.28-3-.11-9.4.35-81.13A10.42,10.42,0,0,1,56.14,31.56Z"/><path class="cls-71" d="M56.13,31.57a6.28,6.28,0,0,0-2.28,4.09c-.35,3-.3,79.83-.3,79.83a5.9,5.9,0,0,0,1.74,2.81,8.53,8.53,0,0,1-.6-2c-.28-3-.11-9.5.34-81.08A10.68,10.68,0,0,1,56.13,31.57Z"/><path class="cls-72" d="M56.11,31.59a6.26,6.26,0,0,0-2.25,4.07c-.36,3-.3,79.82-.3,79.82a6,6,0,0,0,1.72,2.81,8.85,8.85,0,0,1-.61-2c-.27-3-.1-9.6.35-81A10.73,10.73,0,0,1,56.11,31.59Z"/><path class="cls-73" d="M56.1,31.61a6.24,6.24,0,0,0-2.23,4.06c-.36,3-.3,79.81-.3,79.81a6,6,0,0,0,1.7,2.8,9,9,0,0,1-.61-2c-.26-3-.1-9.71.35-81A10.75,10.75,0,0,1,56.1,31.61Z"/><path class="cls-74" d="M56.09,31.63a6.26,6.26,0,0,0-2.21,4c-.37,3-.3,79.81-.3,79.81a5.89,5.89,0,0,0,1.68,2.78,9,9,0,0,1-.61-2c-.26-3-.1-9.81.35-80.95A10.75,10.75,0,0,1,56.09,31.63Z"/><path class="cls-75" d="M56.07,31.64a6.33,6.33,0,0,0-2.19,4c-.36,3-.3,79.8-.3,79.8a6,6,0,0,0,1.67,2.77,9.18,9.18,0,0,1-.61-2c-.26-3-.11-9.92.35-80.92A11.17,11.17,0,0,1,56.07,31.64Z"/><path class="cls-76" d="M56.06,31.66a6.27,6.27,0,0,0-2.17,4c-.36,3-.3,79.79-.3,79.79a6,6,0,0,0,1.65,2.77,9.32,9.32,0,0,1-.61-2c-.26-2.94-.11-10,.35-80.87A11.19,11.19,0,0,1,56.06,31.66Z"/><path class="cls-77" d="M56,31.68a6.27,6.27,0,0,0-2.14,4c-.37,3-.3,79.78-.3,79.78a6,6,0,0,0,1.63,2.76,9.48,9.48,0,0,1-.61-2.06c-.26-2.92-.11-10.12.35-80.83A11.24,11.24,0,0,1,56,31.68Z"/><path class="cls-78" d="M56,31.69a6.34,6.34,0,0,0-2.12,4c-.37,3-.31,79.78-.31,79.78a6,6,0,0,0,1.62,2.74,9.29,9.29,0,0,1-.61-2.06c-.26-2.9-.11-10.22.34-80.79A11.51,11.51,0,0,1,56,31.69Z"/><path class="cls-79" d="M56,31.71a6.32,6.32,0,0,0-2.1,4c-.38,3-.31,79.78-.31,79.78a6,6,0,0,0,1.6,2.73,9.44,9.44,0,0,1-.61-2.07c-.26-2.88-.11-10.32.34-80.74A11.85,11.85,0,0,1,56,31.71Z"/><path class="cls-80" d="M56,31.73a6.32,6.32,0,0,0-2.07,4c-.38,3-.31,79.76-.31,79.76a6.09,6.09,0,0,0,1.58,2.73,9.59,9.59,0,0,1-.61-2.08c-.26-2.86-.11-10.43.34-80.7A12,12,0,0,1,56,31.73Z"/><path class="cls-81" d="M56,31.75a6.29,6.29,0,0,0-2.05,4c-.39,3-.32,79.76-.32,79.76a6.12,6.12,0,0,0,1.57,2.71,9.59,9.59,0,0,1-.61-2.08c-.26-2.84-.11-10.53.34-80.66A11.92,11.92,0,0,1,56,31.75Z"/><path class="cls-82" d="M56,31.76a6.38,6.38,0,0,0-2,3.95c-.39,3-.32,79.75-.32,79.75a6.11,6.11,0,0,0,1.55,2.7,9.79,9.79,0,0,1-.61-2.08c-.26-2.83-.11-10.64.34-80.62A12,12,0,0,1,56,31.76Z"/><path class="cls-83" d="M56,31.78a6.38,6.38,0,0,0-2,3.93c-.4,3-.32,79.75-.32,79.75a6.11,6.11,0,0,0,1.53,2.69,9.35,9.35,0,0,1-.61-2.09c-.26-2.81-.11-10.74.34-80.58A12.17,12.17,0,0,1,56,31.78Z"/><path class="cls-84" d="M56,31.8a6.36,6.36,0,0,0-2,3.91c-.4,3-.33,79.74-.33,79.74a6.07,6.07,0,0,0,1.52,2.69,9.31,9.31,0,0,1-.61-2.1c-.25-2.8-.12-10.84.33-80.54A12.3,12.3,0,0,1,56,31.8Z"/><path class="cls-85" d="M55.94,31.82a6.35,6.35,0,0,0-2,3.9c-.41,3-.33,79.73-.33,79.73a6.07,6.07,0,0,0,1.5,2.67,9.71,9.71,0,0,1-.62-2.1c-.24-2.78-.11-10.94.34-80.49A12.67,12.67,0,0,1,55.94,31.82Z"/><path class="cls-86" d="M55.92,31.83A6.46,6.46,0,0,0,54,35.72c-.41,3-.33,79.73-.33,79.73a6.06,6.06,0,0,0,1.48,2.66,9.86,9.86,0,0,1-.62-2.11c-.24-2.76-.11-11,.34-80.45A12.94,12.94,0,0,1,55.92,31.83Z"/><path class="cls-87" d="M55.91,31.85A6.45,6.45,0,0,0,54,35.73c-.42,3-.33,79.72-.33,79.72a6.05,6.05,0,0,0,1.46,2.65,10,10,0,0,1-.62-2.12c-.24-2.74-.11-11.14.34-80.41A12.85,12.85,0,0,1,55.91,31.85Z"/><path class="cls-88" d="M55.9,31.87A6.44,6.44,0,0,0,54,35.73c-.42,3-.34,79.71-.34,79.71a6.09,6.09,0,0,0,1.45,2.64A10.07,10.07,0,0,1,54.5,116c-.24-2.73-.11-11.26.34-80.37A12.87,12.87,0,0,1,55.9,31.87Z"/><path class="cls-89" d="M55.88,31.88A6.49,6.49,0,0,0,54,35.73c-.43,3-.34,79.71-.34,79.71a6.13,6.13,0,0,0,1.43,2.63,10.23,10.23,0,0,1-.62-2.12c-.24-2.71-.11-11.36.34-80.33A13.45,13.45,0,0,1,55.88,31.88Z"/><path class="cls-90" d="M55.87,31.9A6.55,6.55,0,0,0,54,35.74c-.43,3-.34,79.7-.34,79.7a6.12,6.12,0,0,0,1.41,2.62,10.18,10.18,0,0,1-.62-2.13c-.24-2.69-.11-11.46.34-80.29A13.45,13.45,0,0,1,55.87,31.9Z"/><path class="cls-91" d="M55.86,31.92A6.54,6.54,0,0,0,54,35.74c-.44,3-.35,79.7-.35,79.7a6.16,6.16,0,0,0,1.4,2.6,10.18,10.18,0,0,1-.62-2.13c-.24-2.67-.11-11.56.33-80.24A13.71,13.71,0,0,1,55.86,31.92Z"/><path class="cls-92" d="M55.84,31.94a6.57,6.57,0,0,0-1.79,3.81c-.44,3-.35,79.68-.35,79.68a6.15,6.15,0,0,0,1.38,2.6,10.34,10.34,0,0,1-.62-2.14c-.24-2.65-.11-11.66.33-80.2A13.8,13.8,0,0,1,55.84,31.94Z"/><path class="cls-93" d="M55.83,32a6.61,6.61,0,0,0-1.77,3.8c-.45,3-.35,79.68-.35,79.68A6.2,6.2,0,0,0,55.07,118a10.5,10.5,0,0,1-.62-2.15c-.24-2.63-.12-11.76.33-80.15A13.93,13.93,0,0,1,55.83,32Z"/><path class="cls-94" d="M55.81,32a6.75,6.75,0,0,0-1.75,3.78c-.44,3-.35,79.68-.35,79.68A6.3,6.3,0,0,0,55.06,118a10.66,10.66,0,0,1-.62-2.16c-.24-2.61-.12-11.86.33-80.11A14.58,14.58,0,0,1,55.81,32Z"/><path class="cls-95" d="M55.8,32a6.76,6.76,0,0,0-1.73,3.77c-.45,3-.35,79.67-.35,79.67A6.23,6.23,0,0,0,55.05,118a10.06,10.06,0,0,1-.62-2.15c-.23-2.6-.12-12,.33-80.08A14.48,14.48,0,0,1,55.8,32Z"/><path class="cls-96" d="M55.79,32a6.75,6.75,0,0,0-1.71,3.75c-.45,3-.35,79.66-.35,79.66A6.21,6.21,0,0,0,55,118a10.68,10.68,0,0,1-.63-2.16c-.22-2.59-.11-12.07.34-80A14.5,14.5,0,0,1,55.79,32Z"/><path class="cls-97" d="M55.77,32a6.85,6.85,0,0,0-1.68,3.75c-.46,3-.35,79.65-.35,79.65A6.26,6.26,0,0,0,55,118a10.62,10.62,0,0,1-.63-2.17c-.22-2.57-.11-12.18.33-80A15.11,15.11,0,0,1,55.77,32Z"/><path class="cls-98" d="M55.76,32a6.94,6.94,0,0,0-1.66,3.73c-.46,3-.36,79.65-.36,79.65A6.3,6.3,0,0,0,55,118a10.62,10.62,0,0,1-.63-2.17c-.22-2.55-.11-12.28.33-79.95A15,15,0,0,1,55.76,32Z"/><path class="cls-99" d="M55.75,32.06a6.94,6.94,0,0,0-1.64,3.71c-.47,3-.36,79.65-.36,79.65A6.11,6.11,0,0,0,55,117.94a10.79,10.79,0,0,1-.63-2.18c-.22-2.53-.11-12.38.33-79.9A15.52,15.52,0,0,1,55.75,32.06Z"/><path class="cls-100" d="M55.73,32.08a7,7,0,0,0-1.61,3.7c-.47,3-.36,79.63-.36,79.63A6.13,6.13,0,0,0,55,117.93a11.22,11.22,0,0,1-.62-2.18c-.22-2.52-.11-12.49.33-79.87A15.76,15.76,0,0,1,55.73,32.08Z"/><path class="cls-101" d="M55.72,32.09a7.07,7.07,0,0,0-1.59,3.69c-.48,3-.37,79.63-.37,79.63a6.24,6.24,0,0,0,1.22,2.5,11.22,11.22,0,0,1-.62-2.18c-.22-2.5-.11-12.59.33-79.83A15.78,15.78,0,0,1,55.72,32.09Z"/><path class="cls-102" d="M55.71,32.11a7.09,7.09,0,0,0-1.57,3.68c-.49,3-.37,79.62-.37,79.62A6.21,6.21,0,0,0,55,117.9a11.4,11.4,0,0,1-.62-2.19c-.22-2.48-.12-12.69.33-79.78A15.8,15.8,0,0,1,55.71,32.11Z"/><path class="cls-103" d="M55.69,32.13a7.15,7.15,0,0,0-1.54,3.66c-.49,3-.37,79.62-.37,79.62A6.18,6.18,0,0,0,55,117.89a11.57,11.57,0,0,1-.62-2.2c-.22-2.46-.12-12.79.32-79.74A16.36,16.36,0,0,1,55.69,32.13Z"/><path class="cls-104" d="M55.68,32.14a7.35,7.35,0,0,0-1.52,3.66c-.5,3-.37,79.6-.37,79.6A6.15,6.15,0,0,0,55,117.88a11.51,11.51,0,0,1-.62-2.21c-.22-2.44-.12-12.9.32-79.7A17,17,0,0,1,55.68,32.14Z"/><path class="cls-105" d="M55.67,32.16a7.37,7.37,0,0,0-1.5,3.64c-.5,3-.38,79.6-.38,79.6a6.19,6.19,0,0,0,1.15,2.46,11.51,11.51,0,0,1-.62-2.21c-.22-2.42-.12-13,.32-79.65A17,17,0,0,1,55.67,32.16Z"/><path class="cls-106" d="M55.65,32.18a7.45,7.45,0,0,0-1.47,3.62c-.51,3-.38,79.6-.38,79.6a6.22,6.22,0,0,0,1.13,2.45,11.75,11.75,0,0,1-.62-2.21c-.21-2.42-.12-13.11.32-79.62A17.27,17.27,0,0,1,55.65,32.18Z"/><path class="cls-107" d="M55.64,32.2a7.49,7.49,0,0,0-1.45,3.61c-.51,3-.38,79.58-.38,79.58a6.18,6.18,0,0,0,1.11,2.45,11.17,11.17,0,0,1-.62-2.22c-.21-2.4-.12-13.21.32-79.58A17.13,17.13,0,0,1,55.64,32.2Z"/><path class="cls-108" d="M55.62,32.21a7.79,7.79,0,0,0-1.42,3.6c-.52,3-.39,79.58-.39,79.58a6.23,6.23,0,0,0,1.1,2.43,11.17,11.17,0,0,1-.62-2.22c-.21-2.38-.12-13.31.32-79.53A17.6,17.6,0,0,1,55.62,32.21Z"/><path class="cls-109" d="M55.61,32.23a7.84,7.84,0,0,0-1.4,3.59c-.52,3-.39,79.57-.39,79.57a6.18,6.18,0,0,0,1.08,2.42,11.87,11.87,0,0,1-.63-2.23c-.2-2.36-.11-13.41.33-79.49A18.29,18.29,0,0,1,55.61,32.23Z"/><path class="cls-110" d="M55.6,32.25a7.89,7.89,0,0,0-1.38,3.57c-.53,3-.39,79.57-.39,79.57a6.2,6.2,0,0,0,1.06,2.41,11.81,11.81,0,0,1-.63-2.24c-.2-2.34-.11-13.51.32-79.45A18.51,18.51,0,0,1,55.6,32.25Z"/><path class="cls-111" d="M55.58,32.27a8.16,8.16,0,0,0-1.35,3.55c-.53,3-.4,79.56-.4,79.56a6.25,6.25,0,0,0,1.05,2.4,11.81,11.81,0,0,1-.63-2.24c-.2-2.32-.12-13.62.32-79.4A18.87,18.87,0,0,1,55.58,32.27Z"/><path class="cls-112" d="M55.57,32.28a8.33,8.33,0,0,0-1.33,3.55c-.53,3-.4,79.55-.4,79.55a6.19,6.19,0,0,0,1,2.39,12,12,0,0,1-.63-2.25c-.2-2.3-.12-13.72.32-79.36A19,19,0,0,1,55.57,32.28Z"/><path class="cls-113" d="M55.56,32.3a8.48,8.48,0,0,0-1.32,3.53c-.53,3-.39,79.55-.39,79.55a6.13,6.13,0,0,0,1,2.38,12.17,12.17,0,0,1-.63-2.26c-.2-2.28-.12-13.82.32-79.31A18.89,18.89,0,0,1,55.56,32.3Z"/><path class="cls-114" d="M55.54,32.32a8.67,8.67,0,0,0-1.29,3.52c-.53,2.95-.4,79.54-.4,79.54a6,6,0,0,0,1,2.36,12.24,12.24,0,0,1-.63-2.25c-.2-2.27-.12-13.93.32-79.28A20.06,20.06,0,0,1,55.54,32.32Z"/><path class="cls-115" d="M55.53,32.33a9.06,9.06,0,0,0-1.27,3.51c-.54,3-.4,79.53-.4,79.53a6,6,0,0,0,1,2.36,12.42,12.42,0,0,1-.63-2.26c-.2-2.25-.12-14,.32-79.24A20.25,20.25,0,0,1,55.53,32.33Z"/><path class="cls-116" d="M55.52,32.35a9.18,9.18,0,0,0-1.25,3.5c-.54,2.95-.4,79.52-.4,79.52a5.89,5.89,0,0,0,1,2.35,12.35,12.35,0,0,1-.63-2.27c-.19-2.23-.12-14.13.31-79.19A20.51,20.51,0,0,1,55.52,32.35Z"/></g></g><g id="Layer_4" data-name="Layer 4"><path class="cls-117" d="M36.05,88.51H35.6a2.54,2.54,0,0,1-4.36,0h-.45a.65.65,0,0,0-.66.62l-.65,4.46a.63.63,0,0,0,.65.61H36.7a.63.63,0,0,0,.65-.61l-.65-4.46A.64.64,0,0,0,36.05,88.51Z"/><path class="cls-117" d="M33.42,89.39a2.2,2.2,0,1,0-2.2-2.2A2.21,2.21,0,0,0,33.42,89.39Z"/><polygon class="cls-117" points="38.53 85.15 37.76 85.15 37.76 84.36 37.67 84.28 37.41 84.28 37.33 84.36 37.33 85.15 36.55 85.15 36.47 85.23 36.47 85.48 36.55 85.56 37.33 85.56 37.33 86.35 37.41 86.43 37.67 86.43 37.76 86.35 37.76 85.56 38.53 85.56 38.62 85.48 38.62 85.23 38.53 85.15"/><polygon class="cls-117" points="126.67 115.4 125.1 113.81 125.1 115.35 125.14 115.4 126.67 115.4"/><path class="cls-117" d="M124.67,113.56h-4.58a.76.76,0,0,0-.76.76v6.8a.76.76,0,0,0,.76.76h6a.75.75,0,0,0,.75-.76v-5.3h-1.69a.47.47,0,0,1-.48-.48v-1.79Z"/><polygon class="cls-117" points="99.19 10.02 97.94 8.76 97.94 9.98 97.98 10.02 99.19 10.02"/><path class="cls-117" d="M97.6,10V8.56H94a.6.6,0,0,0-.6.6v5.4a.6.6,0,0,0,.6.6h4.75a.6.6,0,0,0,.6-.6V10.35H98A.38.38,0,0,1,97.6,10Zm-.45,4H94.57a.15.15,0,0,1-.13-.16l.13-.16h2.58l.13.16A.15.15,0,0,1,97.15,13.94ZM98,13H94.6l-.16-.17a.16.16,0,0,1,.16-.16H98a.17.17,0,0,1,.17.16Zm0-1.3.17.16L98,12H94.6l-.16-.16.16-.16Z"/><polygon class="cls-117" points="37.54 52.53 37.54 46.93 34.44 49.3 37.52 52.61 37.54 52.53"/><path class="cls-117" d="M37,46.75a.57.57,0,0,0,.4-.17l-4.93-3.75-4.92,3.76a.53.53,0,0,0,.39.16Z"/><polygon class="cls-117" points="30.53 49.31 27.43 46.95 27.43 52.53 27.45 52.63 30.53 49.31"/><polygon class="cls-117" points="32.67 50.66 32.48 50.72 32.3 50.66 30.87 49.57 27.74 52.95 27.95 52.99 37.01 52.99 37.24 52.94 34.1 49.56 32.67 50.66"/><polygon class="cls-117" points="45.74 23.47 45.74 17.91 42.66 20.26 45.72 23.55 45.74 23.47"/><path class="cls-117" d="M35.81,17.26,40.71,21l4.89-3.75a.55.55,0,0,0-.38-.15h-9A.57.57,0,0,0,35.81,17.26Z"/><polygon class="cls-117" points="35.69 17.92 35.69 23.47 35.71 23.57 38.77 20.27 35.69 17.92"/><polygon class="cls-117" points="45.44 23.87 42.32 20.52 40.9 21.61 40.71 21.67 40.53 21.61 39.11 20.53 36 23.88 36.21 23.92 45.22 23.92 45.44 23.87"/><path class="cls-117" d="M111.93,48.21a2,2,0,0,1-1.34-.51l-1.4,1.08,3,3.25,0-.09V48.19Z"/><path class="cls-117" d="M110.2,47.25a2.09,2.09,0,0,1-.31-1.08,1.82,1.82,0,0,1,.08-.52h-7.15a.56.56,0,0,0-.39.16l4.84,3.68Z"/><polygon class="cls-117" points="102.31 46.47 102.31 51.94 102.33 52.04 105.35 48.79 102.31 46.47"/><polygon class="cls-117" points="111.93 52.34 108.85 49.03 107.45 50.11 107.27 50.17 107.08 50.11 105.69 49.05 102.61 52.35 102.82 52.39 111.71 52.39 111.93 52.34"/><path class="cls-117" d="M111.93,47.8a1.63,1.63,0,1,0-1.62-1.63A1.63,1.63,0,0,0,111.93,47.8Zm-.51-2.38.75-.15v1.46h.35V47h-1.09v-.3h.36V45.65l-.37.08Z"/><path class="cls-117" d="M58.85,24.56A3.84,3.84,0,1,0,55,20.73,3.83,3.83,0,0,0,58.85,24.56Zm-2.12-4.19,2.42-1.92a.47.47,0,1,1,.58.74l-1.95,1.55,1.95,1.53a.47.47,0,0,1,.08.66.46.46,0,0,1-.37.18.46.46,0,0,1-.29-.1l-2.42-1.9a.49.49,0,0,1-.18-.37A.46.46,0,0,1,56.73,20.37Z"/><path class="cls-117" d="M99.76,19.21A4.84,4.84,0,1,0,104.59,24,4.84,4.84,0,0,0,99.76,19.21Zm.78,6.5V24.63H96.09V23.45h4.45V22.38L103.42,24Z"/><path class="cls-117" d="M32.76,73.23a1.53,1.53,0,1,0-1.53,1.53A1.52,1.52,0,0,0,32.76,73.23Z"/><path class="cls-117" d="M34.71,73.18a3.68,3.68,0,0,0-3.49-3.32,3.67,3.67,0,0,0-3.48,3.32c0,1.7,3.48,7.33,3.48,7.33S34.71,74.88,34.71,73.18Zm-6.21,0A2.74,2.74,0,1,1,31.23,76,2.74,2.74,0,0,1,28.5,73.23Z"/><path class="cls-117" d="M68.53,8.49a3.17,3.17,0,0,0-6.33,0c0,1.55,3.17,6.67,3.17,6.67S68.53,10,68.53,8.49Zm-5.1-.11a1.94,1.94,0,1,1,1.94,1.94A1.94,1.94,0,0,1,63.43,8.38Z"/><path class="cls-117" d="M47.65,62.83c0,.13.06.53,0,.59l-.26.42c-.09.41,0,.45-.1.79s-.39,1.11-.4,1.14l-.52.43a.45.45,0,0,1-.42.06c-.19-.09-.17-.05-.24-.13l0-.82V64.4s-.41-.57-.36-.69-.18-.13-.31-.31-.24,0-.33.06a2.78,2.78,0,0,1-.73.15c-.14,0-.29-.5-.38-.63s.12-.53.13-.64.34-.25.39-.31l.19-.45.94-.27.47.17.37.22.8.15.2-.6a2.59,2.59,0,0,0-.41-.11,2,2,0,0,1-.64,0c-.25-.06-.14-.24-.14-.24l-.13-.46-.12.2-.49,0c-.05,0-.22.11-.28.21a1.46,1.46,0,0,1-.55.4C44,61.4,44,61,44,61l.21-.42.35-.17.24-.17a.55.55,0,0,1,.33-.26,7.7,7.7,0,0,0,.79-.07c.21-.07.14-.18.14-.18l.49-.23a5.4,5.4,0,0,0-7.78-.41l.07,0,1.2-.41s0,.17.39-.13.47,0,.56,0l.46.55s-1.32,0-1.46,0a2.6,2.6,0,0,0-.61.44s.61.42.88.15.67-.12,1.11,0,0,.79-.53.81a2,2,0,0,0-1.12.62l-1,.59a.46.46,0,0,0-.64.25c-.23.47.53.66.66.72s.64.14.75.19.41.08.63.13.65.36,1.05.47.84.81.84.81l-.43,1.29s0,.09-.16.23-.72.83-.72.83l0,1.27a1.91,1.91,0,0,1-.69-.22c-.21-.16-.35-1.07-.35-1.07a5.65,5.65,0,0,0-.15-1.58,3.89,3.89,0,0,1-.71-1.25.26.26,0,0,1,.21-.3v-.37l-1.14-.43s-.68-.24-.68-.47A.49.49,0,0,0,37.1,62,5.8,5.8,0,0,0,37,63.07a5.43,5.43,0,0,0,10.85,0c0-.22,0-.44,0-.65C47.74,62.59,47.68,62.77,47.65,62.83Zm-2-3.72.18.24a2.75,2.75,0,0,1-.4.24c-.09,0-.31.15-.34.15s-.08-.08-.12-.32S45.69,59.11,45.69,59.11Z"/><path class="cls-117" d="M109.8,60.1l-.21.44,1.14.27-1.81,5.54-2.64-1,.74-2.07.29-.85c-.09-.15-.2-.33-.31-.53l-.47,1.35-.72,2-2.54.43,2.29-5,.72-.2c-.08-.14-.15-.28-.22-.43l-.65.18-2.53-.83-3.12,5.95,2.79.78.31.09.18,0,2.92-.51L109.21,67l2.13-6.51Zm-9.36,5L103.11,60l2,.64-1.86,4.06-.47,1Z"/><path class="cls-117" d="M106.53,60.05c.07.15.15.29.22.44s.31.58.46.85.21.37.31.53c.24.42.41.7.41.7s.63-1,1.19-2.09l.21-.43a5,5,0,0,0,.6-1.68,2,2,0,0,0-4,0A5.18,5.18,0,0,0,106.53,60.05Zm1.4-3a1.22,1.22,0,1,1,0,2.44,1.22,1.22,0,0,1,0-2.44Z"/><path class="cls-117" d="M72.44,19.39a2.07,2.07,0,1,0,2.07,2.07A2.07,2.07,0,0,0,72.44,19.39Z"/><path class="cls-117" d="M72.44,17.09a4.37,4.37,0,1,0,4.37,4.37A4.37,4.37,0,0,0,72.44,17.09Zm0,7.43a3.07,3.07,0,1,1,3.07-3.06A3.06,3.06,0,0,1,72.44,24.52Z"/><path class="cls-117" d="M88.3,15.25H82.83a.59.59,0,0,0-.59.59v.36h5a.89.89,0,0,1,.89.89v5.12h.22a.59.59,0,0,0,.59-.59V15.84A.59.59,0,0,0,88.3,15.25Z"/><rect class="cls-117" x="81.43" y="16.79" width="6.05" height="6.37" rx="0.29" ry="0.29"/><path class="cls-117" d="M94.27,129.27l-3.18-.33L89.8,126l-1.29,2.92-3.18.33,2.38,2.13L87,134.52l2.76-1.61,2.77,1.61-.68-3.12Zm-4.47,2.9L88,133.23l.44-2.06-1.57-1.41,2.1-.22.85-1.93.85,1.93,2.11.22-1.58,1.41.45,2.06Z"/><path class="cls-117" d="M28.69,59.43H26.16v3.2a1.07,1.07,0,0,1-1.1,1H21.7v.06a.69.69,0,0,0,.72.65H27.3l1.32,1.44-.11-1.44h.18a.69.69,0,0,0,.72-.65V60.09A.69.69,0,0,0,28.69,59.43Z"/><path class="cls-117" d="M25.06,63.22a.63.63,0,0,0,.65-.59V59.34a.63.63,0,0,0-.65-.59H19.39a.63.63,0,0,0-.65.59v3.29a.62.62,0,0,0,.65.59h.16l-.1,1.3,1.19-1.3Z"/><path class="cls-117" d="M123.92,82.22l-.53-.54a.72.72,0,0,0-1,0l-.25.25L122,82l1.53,1.52.1-.08.24-.25A.7.7,0,0,0,123.92,82.22Z"/><polygon class="cls-117" points="121.59 82.48 121.58 82.47 115.42 88.63 116.97 90.18 123.13 84.02 123.12 84.01 121.59 82.48"/><polygon class="cls-117" points="114.01 91.59 116.52 90.62 114.98 89.08 114.01 91.59"/><polygon class="cls-117" points="122.84 58.93 123.9 57.88 123.67 57.02 122.79 57.9 122.05 57.16 122.93 56.28 122.07 56.05 121.01 57.1 121.22 57.88 118.44 60.66 117.67 60.45 116.61 61.51 116.84 62.37 117.72 61.49 118.46 62.23 117.58 63.1 118.44 63.34 119.5 62.28 119.29 61.51 122.07 58.73 122.84 58.93"/><path class="cls-117" d="M50.48,124.67l1.75-.64v-1.41L50.46,122c0-.1-.08-.2-.12-.3l.78-1.7-1-1-1.71.8-.31-.13-.64-1.76H46.06l-.65,1.78c-.1,0-.2.08-.3.12l-1.7-.79-1,1,.79,1.71a2.85,2.85,0,0,0-.12.31l-1.76.64v1.41l1.77.65c0,.1.08.2.13.3l-.79,1.7,1,1,1.71-.79a2.68,2.68,0,0,0,.3.12l.64,1.76H47.5l.65-1.77.3-.13,1.7.79,1-1-.8-1.71C50.4,124.87,50.44,124.77,50.48,124.67Zm-3.7,1a2.34,2.34,0,1,1,2.33-2.33A2.34,2.34,0,0,1,46.78,125.67Z"/><path class="cls-117" d="M68.3,125.65c-.91-.92-1.87-.89-3.63.86-1.75-1.75-2.71-1.78-3.62-.86a2.72,2.72,0,0,0-.27,3,13.28,13.28,0,0,0,3.89,3.91,13.39,13.39,0,0,0,3.9-3.91A2.72,2.72,0,0,0,68.3,125.65Z"/><path class="cls-117" d="M117,25.42l-2-2a3.29,3.29,0,1,0-2.63,1.32,3.24,3.24,0,0,0,1.88-.6l2,2a.51.51,0,0,0,.37.15.55.55,0,0,0,.37-.15A.53.53,0,0,0,117,25.42Zm-7-4a2.4,2.4,0,1,1,2.4,2.4A2.39,2.39,0,0,1,110,21.43Z"/><rect class="cls-117" x="99.8" y="97.27" width="1.44" height="2.93"/><rect class="cls-117" x="101.72" y="95.93" width="1.44" height="4.28"/><rect class="cls-117" x="103.63" y="94.34" width="1.44" height="5.86"/><polyline class="cls-117" points="106.99 92.96 105.55 92.96 105.55 100.2 106.99 100.2 106.99 92.96"/><polyline class="cls-117" points="108.91 91.33 107.47 91.33 107.47 100.2 108.91 100.2 108.91 91.33"/><path class="cls-117" d="M46.78,89.24a4.82,4.82,0,1,0,4.82,4.81A4.82,4.82,0,0,0,46.78,89.24Zm0,9.24a4.43,4.43,0,1,1,4.43-4.43A4.43,4.43,0,0,1,46.78,98.48Z"/><path class="cls-117" d="M47.62,95.15l1.84-1.84,0,0a.36.36,0,0,0,.51-.51l-1.94-1.94a.36.36,0,0,0-.51.5l0,0L45.77,93.3a1.75,1.75,0,0,0-1.18.48l1.13,1.13-1.38,1.38-.14.43.43-.15L46,95.19l1.13,1.13A1.83,1.83,0,0,0,47.62,95.15Z"/><path class="cls-117" d="M24.33,98.77a1.52,1.52,0,0,0-1.17.56L20.48,97.8a1.51,1.51,0,0,0,.1-.53,1.56,1.56,0,0,0-.1-.53l2.68-1.53a1.51,1.51,0,1,0-.34-.95,1.35,1.35,0,0,0,.1.53l-2.68,1.53a1.52,1.52,0,1,0,0,1.9l2.68,1.53a1.35,1.35,0,0,0-.1.53,1.52,1.52,0,1,0,1.51-1.51Z"/><path class="cls-117" d="M39.74,105.43h1.44V102.9H39.74v-2.09H30.32v6.71h9.42v-2.09M30.87,107v-5.61h8.32V107H30.87"/><polyline class="cls-117" points="38.82 101.75 37.31 101.75 37.31 106.58 38.82 106.58 38.82 101.75"/><polyline class="cls-117" points="36.8 101.75 35.3 101.75 35.3 106.58 36.8 106.58 36.8 101.75"/><rect class="cls-117" x="33.29" y="101.75" width="1.5" height="4.84"/><rect class="cls-117" x="31.27" y="101.75" width="1.5" height="4.84"/><polygon class="cls-117" points="17.09 76.49 22.9 76.49 23.44 80.47 23.44 75.61 17.67 75.61 17.67 74.67 15.81 74.67 15.81 75.55 16.62 75.55 17.09 76.49"/><polygon class="cls-117" points="16.84 76.88 16.38 75.94 14.87 75.94 15.97 81.72 23.22 81.72 22.56 76.88 16.84 76.88"/><path class="cls-117" d="M105.1,127.36V122l-5.73,1.47v3.91c-.18,0-2.23.55-2,2,.23,1.25,1.92,1.16,2.72,0a1.27,1.27,0,0,0,.26-.86v-4.28l3.68-1v3c-.18,0-2.22.54-2,2,.23,1.25,1.92,1.16,2.72,0A1.28,1.28,0,0,0,105.1,127.36Z"/><polygon class="cls-117" points="111.49 123.41 119.36 127.95 111.49 132.5 111.49 123.41"/><polygon class="cls-117" points="38.69 34.35 42.74 32.01 38.69 29.66 38.69 34.35"/><polygon class="cls-117" points="43.25 34.35 47.3 32.01 43.25 29.66 43.25 34.35"/><rect class="cls-117" x="47.85" y="29.66" width="0.41" height="4.68"/><path class="cls-117" d="M121.08,70.74a2.11,2.11,0,0,1,1.37.53l.64-.77a3,3,0,0,0-4,0l.64.77a2.09,2.09,0,0,1,1.38-.53"/><path class="cls-117" d="M121.08,68.13a4.59,4.59,0,0,0-3,1.14l.65.79a3.55,3.55,0,0,1,4.77,0l.65-.79a4.58,4.58,0,0,0-3-1.14"/><path class="cls-117" d="M121.08,66.57a6.17,6.17,0,0,0-4,1.5l.64.78a5.19,5.19,0,0,1,3.4-1.27,5.14,5.14,0,0,1,3.38,1.27l.65-.78a6.18,6.18,0,0,0-4-1.5"/><path class="cls-117" d="M121.68,72.2a.83.83,0,0,0-1.21,0l.61.73Z"/><path class="cls-117" d="M58.3,137.76l-1.15,1.16a4.77,4.77,0,0,1-1.64-1.64,4.67,4.67,0,0,1-.67-2.22l1.63-.66-.78-2.82s-2.27.59-2.65,1.66a6.7,6.7,0,0,0,4.88,8.12c1.15.22,2.68-1.79,2.68-1.79Z"/><path class="cls-117" d="M131.76,90.17,128,87.71v4.44l-3.74-2.3-.18.3,3.7,2.27L124,94.72l.18.3L128,92.7v4.4l3.76-2.45-3.43-2.24Zm-3.41-1.81,2.77,1.81L128.35,92Zm0,4.48,2.77,1.81-2.77,1.8Z"/><line class="cls-117" x1="73.79" y1="130.96" x2="73.79" y2="130.96"/><line class="cls-117" x1="81.21" y1="130.96" x2="81.21" y2="130.96"/><path class="cls-117" d="M80.11,129.72H79.5v.35a.43.43,0,0,1-.46.39.42.42,0,0,1-.46-.39v-.35H76.42v.35a.42.42,0,0,1-.46.39.43.43,0,0,1-.46-.39v-.35h-.61a1.1,1.1,0,0,0-1.1,1.1h7.42A1.1,1.1,0,0,0,80.11,129.72Z"/><path class="cls-117" d="M73.79,131.24v6.86h7.42v-6.86ZM79,132.8h.44v3.74H79v-3.27h0l-.65.35-.1-.38ZM75.37,136a1.74,1.74,0,0,0,.83.24c.65,0,.86-.42.85-.73,0-.52-.48-.75-1-.75H75.8v-.38h.28c.37,0,.84-.19.84-.63s-.19-.57-.66-.57a1.42,1.42,0,0,0-.75.25l-.13-.37a1.81,1.81,0,0,1,1-.28c.74,0,1.07.43,1.07.89a.94.94,0,0,1-.69.88h0a1,1,0,0,1,.83,1c0,.6-.46,1.13-1.36,1.13a1.88,1.88,0,0,1-1-.26Z"/><path class="cls-117" d="M75.7,130.07c0,.1.12.19.26.19s.26-.09.26-.19V129c0-.1-.11-.18-.26-.18s-.26.08-.26.18Z"/><path class="cls-117" d="M78.78,130.07c0,.1.11.19.26.19s.26-.09.26-.19V129c0-.1-.12-.18-.26-.18s-.26.08-.26.18Z"/><path class="cls-117" d="M113,105.83h1.15c.62,1.27,1.39,2.14,2.89,2.14h.77v-3h.09a.57.57,0,0,0,.57-.57v-.45a.57.57,0,0,0-.57-.57h-.09v-3h-.77c-1.5,0-2.27.87-2.89,2.14H113c-.21,0-.28.21-.28.46v2.41C112.75,105.62,112.82,105.83,113,105.83Z"/><path class="cls-117" d="M120.26,104.17a2.46,2.46,0,0,0-.84-1.85l-.21.2a2.18,2.18,0,0,1,0,3.29l.21.2A2.46,2.46,0,0,0,120.26,104.17Z"/><path class="cls-117" d="M121.7,104.17a3.94,3.94,0,0,0-1.22-2.85l-.22.2a3.62,3.62,0,0,1,0,5.29l.22.2A3.93,3.93,0,0,0,121.7,104.17Z"/><path class="cls-117" d="M123.29,104.17a5.49,5.49,0,0,0-1.65-3.94l-.22.2a5.2,5.2,0,0,1,0,7.47l.22.2A5.48,5.48,0,0,0,123.29,104.17Z"/><polygon class="cls-117" points="129.02 75.22 129.5 75.22 129.69 75.22 129.88 75.22 129.88 75.51 129.88 78.18 133.64 78.18 133.64 75.51 133.64 75.22 133.84 75.22 134.03 75.22 134.5 75.22 131.76 73.24 129.02 75.22"/><path class="cls-117" d="M131.76,71.15A4.85,4.85,0,1,0,136.61,76,4.85,4.85,0,0,0,131.76,71.15Zm3.38,4.27-.16.09H134v2.81c0,.09-.09.15-.2.15h-4.14c-.11,0-.19-.06-.19-.15V75.51h-.95l-.17-.09.05-.17,3.21-2.32h.24l3.21,2.32Z"/><path class="cls-117" d="M28.47,37.05a4.4,4.4,0,1,0-7.2,3.39,2.94,2.94,0,0,1,5.61,0A4.38,4.38,0,0,0,28.47,37.05Zm-4.4.88a1.57,1.57,0,1,1,1.57-1.57A1.56,1.56,0,0,1,24.07,37.93Z"/><path class="cls-117" d="M108.91,71.23a6.46,6.46,0,1,0,6.46,6.46A6.46,6.46,0,0,0,108.91,71.23Zm2.92,4.45a1.08,1.08,0,1,1-1.07,1.07A1.07,1.07,0,0,1,111.83,75.68Zm-2.91-.63a1.41,1.41,0,1,1-1.41,1.4A1.41,1.41,0,0,1,108.92,75.05Zm-2.81.63A1.08,1.08,0,1,1,105,76.75,1.07,1.07,0,0,1,106.11,75.68Zm-2.29,3.76c0-.77,1-1.4,2.29-1.4a3.41,3.41,0,0,1,1.29.25,2.47,2.47,0,0,0-1.46,1.15Zm2.21.43c.08-.9,1.34-1.62,2.88-1.62s2.79.72,2.88,1.62Zm5.84-.43a2.37,2.37,0,0,0-1.39-1.12,3.31,3.31,0,0,1,1.35-.28c1.26,0,2.28.63,2.28,1.4Z"/><path class="cls-117" d="M49.69,45.12H47.34c-.75-1.2-2.58-4.12-2.66-4.16s-.88-.29-.6.75.56,2.48.73,3.41H41.9a.48.48,0,0,0-.26.09L41,44.27s-.44-.18-.32.24.21.87.26,1.14-.15.74-.26,1.14S41,47,41,47l.65-1a.55.55,0,0,0,.25.07h2.92c-.18.94-.48,2.48-.74,3.44s.51.8.6.75,1.93-3,2.67-4.19h2.34a.51.51,0,0,0,0-1Z"/><path class="cls-117" d="M112,33.26l-.83-1.16h-2.54l-.84,1.16h-2.19v5.58h8.59V33.26Zm-4.82,1.29h-1.14V33.9h1.14Zm2.72,3.74a2.24,2.24,0,1,1,2.24-2.24A2.24,2.24,0,0,1,109.93,38.29Z"/><path class="cls-117" d="M109.93,34.21a1.83,1.83,0,0,0-1.73,1.21,1.68,1.68,0,0,0-.12.63,1.85,1.85,0,0,0,3.69,0,1.9,1.9,0,0,0-.11-.63A1.84,1.84,0,0,0,109.93,34.21Z"/><polygon class="cls-117" points="113.45 32.66 112.8 32.66 112.58 33.12 113.66 33.12 113.45 32.66"/><polygon class="cls-117" points="111.88 110.87 109.14 112.45 109.14 115.21 111.88 116.79 111.88 110.87"/><rect class="cls-117" x="100.96" y="111.07" width="7.75" height="5.51"/><path class="cls-117" d="M119.88,50.68a.43.43,0,0,0,.45.4h6.29a.42.42,0,0,0,.44-.4v-5h-7.18Z"/><polygon class="cls-117" points="126.88 43.58 126.6 42.42 124.97 42.82 125.89 43.83 126.88 43.58"/><polygon class="cls-117" points="119.63 44.14 119.91 45.3 121.48 44.91 120.57 43.9 119.63 44.14"/><polygon class="cls-117" points="121.08 43.78 121.98 44.78 123.43 44.43 122.52 43.42 121.08 43.78"/><polygon class="cls-117" points="124.47 42.94 123.03 43.3 123.94 44.3 125.38 43.95 124.47 42.94"/><path class="cls-117" d="M26.87,113.33v10H37.18v-10ZM35.1,118l-1.63,2.61-3.24-5.2L27.39,120v-6.11h9.27v6.66Z"/><path class="cls-117" d="M48.87,75.53l.45-.63a.75.75,0,0,0,.26,0,.68.68,0,0,0,.69-.68.69.69,0,1,0-1.38,0,.65.65,0,0,0,.18.44l-.43.61a4.82,4.82,0,0,0-2.29-1.14l.08-.24v-1a.49.49,0,0,0-.5-.49h-1a.49.49,0,0,0-.49.49v1l.07.24a4.87,4.87,0,1,0,4.36,1.35Zm.71-1.64a.38.38,0,1,1-.37.38A.37.37,0,0,1,49.58,73.89Zm-4.71-1,.06-.06h1l.06.06v1l-.06.06h-1l-.06-.06Zm.56,10.11a4.1,4.1,0,1,1,4.1-4.1A4.11,4.11,0,0,1,45.43,83.05Z"/><path class="cls-117" d="M45.65,78.5V76h-.44v2.5a.51.51,0,0,0-.23.23h-2.5v.44H45a.52.52,0,0,0,.45.28.5.5,0,0,0,.5-.5A.5.5,0,0,0,45.65,78.5Z"/></g></svg>